<svg width="387" height="351" viewBox="0 0 387 351" fill="none" xmlns="http://www.w3.org/2000/svg">
<g opacity="0.7">
<path d="M385.783 188.76C387.783 162.19 381.603 134.45 373.323 109.76C361.073 73.0003 337.153 35.3303 296.953 26.6303C273.773 21.6303 250.183 26.9903 230.303 39.5503C211.193 51.6303 196.303 67.2403 172.793 70.2603C149.023 73.3203 124.633 72.0903 100.743 72.0903C39.3128 72.0903 -10.5372 136.62 1.92278 203.84C14.3828 271.06 73.1428 317.67 122.993 317.67C167.793 317.67 204.653 290.8 247.203 283.58C268.303 280 289.493 284.24 310.373 278.88C334.643 272.64 357.463 257.77 370.913 236.24C380.073 221.56 384.533 205.39 385.783 188.76Z" fill="#8692D0"/>
<g opacity="0.7">
<path d="M385.783 188.76C387.783 162.19 381.603 134.45 373.323 109.76C361.073 73.0003 337.153 35.3303 296.953 26.6303C273.773 21.6303 250.183 26.9903 230.303 39.5503C211.193 51.6303 196.303 67.2403 172.793 70.2603C149.023 73.3203 124.633 72.0903 100.743 72.0903C39.3128 72.0903 -10.5372 136.62 1.92278 203.84C14.3828 271.06 73.1428 317.67 122.993 317.67C167.793 317.67 204.653 290.8 247.203 283.58C268.303 280 289.493 284.24 310.373 278.88C334.643 272.64 357.463 257.77 370.913 236.24C380.073 221.56 384.533 205.39 385.783 188.76Z" fill="#8692D0"/>
<path d="M385.783 188.76C387.783 162.19 381.603 134.45 373.323 109.76C361.073 73.0003 337.153 35.3303 296.953 26.6303C273.773 21.6303 250.183 26.9903 230.303 39.5503C211.193 51.6303 196.303 67.2403 172.793 70.2603C149.023 73.3203 124.633 72.0903 100.743 72.0903C39.3128 72.0903 -10.5372 136.62 1.92278 203.84C14.3828 271.06 73.1428 317.67 122.993 317.67C167.793 317.67 204.653 290.8 247.203 283.58C268.303 280 289.493 284.24 310.373 278.88C334.643 272.64 357.463 257.77 370.913 236.24C380.073 221.56 384.533 205.39 385.783 188.76Z" fill="white" fill-opacity="0.6"/>
</g>
</g>
<path d="M81.8136 177.74C78.9036 172.13 77.6836 168.11 77.6836 167.18C77.6836 165.34 81.6836 164.24 81.6836 164.24C87.9236 160.94 117.274 165.71 130.484 167.91C137.878 169.199 145.359 169.935 152.864 170.11C152.864 170.11 154.694 168.65 156.864 166.81C159.034 164.97 169.334 152.87 173.374 151.81C177.414 150.75 181.074 153.28 181.074 153.28C181.074 153.28 187.684 157.28 186.574 158.05C185.464 158.82 169.334 172.72 165.294 175.29C161.254 177.86 152.824 176.76 145.484 178.23C139.164 179.49 113.564 181.05 107.694 181.53C103.285 182.576 98.6584 182.191 94.4836 180.43" fill="white"/>
<mask id="mask0_2737_47074" style="mask-type:luminance" maskUnits="userSpaceOnUse" x="77" y="151" width="110" height="32">
<path d="M81.8136 177.74C78.9036 172.13 77.6836 168.11 77.6836 167.18C77.6836 165.34 81.6836 164.24 81.6836 164.24C87.9236 160.94 117.274 165.71 130.484 167.91C137.878 169.199 145.359 169.935 152.864 170.11C152.864 170.11 154.694 168.65 156.864 166.81C159.034 164.97 169.334 152.87 173.374 151.81C177.414 150.75 181.074 153.28 181.074 153.28C181.074 153.28 187.684 157.28 186.574 158.05C185.464 158.82 169.334 172.72 165.294 175.29C161.254 177.86 152.824 176.76 145.484 178.23C139.164 179.49 113.564 181.05 107.694 181.53C103.285 182.576 98.6584 182.191 94.4836 180.43" fill="white"/>
</mask>
<g mask="url(#mask0_2737_47074)">
<path d="M181.144 153.24C181.144 153.24 177.474 150.67 173.444 151.77C169.414 152.87 159.134 164.98 156.934 166.77C154.734 168.56 152.934 170.07 152.934 170.07C145.43 169.894 137.949 169.159 130.554 167.87C117.344 165.67 87.9939 160.87 81.7539 164.2C81.7539 164.2 77.7539 165.3 77.7539 167.14C77.8929 168.169 78.1582 169.176 78.5439 170.14L79.0939 170.34C79.0939 170.34 86.4239 169.57 102.244 169.95C118.064 170.33 154.654 172.5 157.004 173.35C158.004 173.73 165.094 172.13 172.954 169.35C178.954 164.46 186.004 158.35 186.714 157.92C187.754 157.27 181.144 153.24 181.144 153.24Z" fill="#8692D0"/>
<path opacity="0.5" d="M181.144 153.24C181.144 153.24 177.474 150.67 173.444 151.77C169.414 152.87 159.134 164.98 156.934 166.77C154.734 168.56 152.934 170.07 152.934 170.07C145.43 169.894 137.949 169.159 130.554 167.87C117.344 165.67 87.9939 160.87 81.7539 164.2C81.7539 164.2 77.7539 165.3 77.7539 167.14C77.8929 168.169 78.1582 169.176 78.5439 170.14L79.0939 170.34C79.0939 170.34 86.4239 169.57 102.244 169.95C118.064 170.33 154.654 172.5 157.004 173.35C158.004 173.73 165.094 172.13 172.954 169.35C178.954 164.46 186.004 158.35 186.714 157.92C187.754 157.27 181.144 153.24 181.144 153.24Z" fill="white"/>
</g>
<path d="M81.8136 177.74C78.9036 172.13 77.6836 168.11 77.6836 167.18C77.6836 165.34 81.6836 164.24 81.6836 164.24C87.9236 160.94 117.274 165.71 130.484 167.91C137.878 169.199 145.359 169.935 152.864 170.11C152.864 170.11 154.694 168.65 156.864 166.81C159.034 164.97 169.334 152.87 173.374 151.81C177.414 150.75 181.074 153.28 181.074 153.28C181.074 153.28 187.684 157.28 186.574 158.05C185.464 158.82 169.334 172.72 165.294 175.29C161.254 177.86 152.824 176.76 145.484 178.23C139.164 179.49 113.564 181.05 107.694 181.53C103.285 182.576 98.6584 182.191 94.4836 180.43" stroke="#263238" stroke-linecap="round" stroke-linejoin="round"/>
<path d="M226.724 210.361C227.387 209.102 228.383 208.047 229.602 207.312C230.822 206.577 232.22 206.19 233.644 206.191H300.344C300.344 206.191 305.164 206.191 303.724 215.351C302.284 224.511 282.504 280.441 277.724 297.351C272.944 314.261 271.934 349.901 271.934 349.901H191.934C191.934 349.901 198.274 264.671 226.724 210.361Z" fill="white"/>
<mask id="mask1_2737_47074" style="mask-type:luminance" maskUnits="userSpaceOnUse" x="191" y="206" width="113" height="144">
<path d="M226.724 210.361C227.387 209.102 228.383 208.047 229.602 207.312C230.822 206.577 232.22 206.19 233.644 206.191H300.344C300.344 206.191 305.164 206.191 303.724 215.351C302.284 224.511 282.504 280.441 277.724 297.351C272.944 314.261 271.934 349.901 271.934 349.901H191.934C191.934 349.901 198.274 264.671 226.724 210.361Z" fill="white"/>
</mask>
<g mask="url(#mask1_2737_47074)">
<path opacity="0.16" d="M256.763 206.191H233.643C232.219 206.19 230.822 206.577 229.602 207.312C228.383 208.047 227.387 209.102 226.723 210.361C198.273 264.671 191.863 349.871 191.863 349.871H227.743L236.593 316.261L273.493 323.871C273.753 321.051 274.053 318.181 274.403 315.351L273.593 306.351C273.593 306.351 266.033 298.401 263.653 296.411C261.273 294.421 262.853 290.831 262.453 275.321C262.053 259.811 248.133 248.661 242.953 239.111C237.773 229.561 245.743 223.591 252.903 214.041C255.453 210.591 256.493 208.051 256.763 206.191Z" fill="black"/>
</g>
<path d="M226.724 210.361C227.387 209.102 228.383 208.047 229.602 207.312C230.822 206.577 232.22 206.19 233.644 206.191H300.344C300.344 206.191 305.164 206.191 303.724 215.351C302.284 224.511 282.504 280.441 277.724 297.351C272.944 314.261 271.934 349.901 271.934 349.901H191.934C191.934 349.901 198.274 264.671 226.724 210.361Z" stroke="#263238" stroke-linecap="round" stroke-linejoin="round"/>
<path d="M288.773 222.1C282.033 237.83 267.773 300.1 265.453 349.87H271.893C271.893 349.87 272.893 314.19 277.683 297.32C282.473 280.45 302.273 224.51 303.683 215.32C305.093 206.13 300.303 206.16 300.303 206.16C300.303 206.16 294.183 209.49 288.773 222.1Z" fill="#263238" stroke="#263238" stroke-linecap="round" stroke-linejoin="round"/>
<path d="M171.603 190.661C171.603 190.661 160.963 184.421 156.933 173.421C152.903 162.421 188.483 144.801 203.933 143.701C219.383 142.601 223.743 146.631 232.933 162.411C242.123 178.191 248.343 199.831 243.573 210.471C238.803 221.111 230.733 223.681 236.573 232.471C242.413 241.261 258.953 266.221 257.853 277.961C256.753 289.701 245.383 299.961 228.853 301.081C212.323 302.201 190.323 292.271 171.983 276.081C153.643 259.891 158.403 236.081 164.983 228.381C171.563 220.681 181.493 217.741 182.223 210.041C182.953 202.341 171.603 190.661 171.603 190.661Z" fill="#263238" stroke="#263238" stroke-linecap="round" stroke-linejoin="round"/>
<path d="M216.953 173.25C222.603 183.77 229.673 197.86 231.883 206.37C235.743 221.27 215.883 230.65 221.393 237.82" stroke="white" stroke-linecap="round" stroke-linejoin="round"/>
<path d="M209.254 159.473C209.254 159.473 211.454 163.223 214.494 168.743" stroke="white" stroke-linecap="round" stroke-linejoin="round"/>
<path d="M238.895 185.941C239.546 187.913 239.969 189.953 240.155 192.021" stroke="white" stroke-linecap="round" stroke-linejoin="round"/>
<path d="M213.074 154C213.074 154 230.454 166.84 237.394 182.21" stroke="white" stroke-linecap="round" stroke-linejoin="round"/>
<path d="M188.952 163.629C176.542 167.109 158.692 172.759 160.142 176.019" stroke="white" stroke-linecap="round" stroke-linejoin="round"/>
<path d="M200.424 160.57C200.424 160.57 197.774 161.23 193.824 162.29" stroke="white" stroke-linecap="round" stroke-linejoin="round"/>
<path d="M185.074 154.092C192.183 151.852 199.628 150.871 207.074 151.192" stroke="white" stroke-linecap="round" stroke-linejoin="round"/>
<path d="M180.012 156.161C181.136 155.575 182.298 155.067 183.492 154.641" stroke="white" stroke-linecap="round" stroke-linejoin="round"/>
<path d="M81.8131 177.74C80.1288 174.655 78.7875 171.396 77.8131 168.02C78.7828 171.398 80.1244 174.658 81.8131 177.74ZM77.7031 167.45C77.7031 167.51 77.7031 167.58 77.7031 167.67C77.7231 167.58 77.7131 167.51 77.7031 167.45ZM81.8131 177.73C85.5531 184.814 90.2061 191.376 95.6531 197.25C108.863 211.56 147.023 248.99 150.653 251.56C154.283 254.13 153.223 261.46 150.653 268.8C148.083 276.14 138.543 286.8 138.913 298.52C139.283 310.24 142.913 328.24 142.583 331.91C142.253 335.58 133.073 348.06 133.073 348.06H227.733C227.733 348.06 215.933 333.06 215.933 327.93C215.933 322.8 232.133 257.07 232.863 252.3C233.593 247.53 230.663 244.23 224.793 243.86C218.923 243.49 196.543 238.72 195.443 235.05C194.343 231.38 201.313 217.44 201.313 217.44L179.313 218.54C179.313 218.54 178.213 228.08 176.743 229.92C175.273 231.76 173.073 228.08 167.933 225.52C162.793 222.96 152.933 220.75 149.223 217.81C145.513 214.87 110.333 181.81 110.333 181.81" fill="white"/>
<mask id="mask2_2737_47074" style="mask-type:luminance" maskUnits="userSpaceOnUse" x="77" y="167" width="156" height="182">
<path d="M81.8131 177.74C80.1288 174.655 78.7875 171.396 77.8131 168.02C78.7828 171.398 80.1244 174.658 81.8131 177.74ZM77.7031 167.45C77.7031 167.51 77.7031 167.58 77.7031 167.67C77.7231 167.58 77.7131 167.51 77.7031 167.45ZM81.8131 177.73C85.5531 184.814 90.2061 191.376 95.6531 197.25C108.863 211.56 147.023 248.99 150.653 251.56C154.283 254.13 153.223 261.46 150.653 268.8C148.083 276.14 138.543 286.8 138.913 298.52C139.283 310.24 142.913 328.24 142.583 331.91C142.253 335.58 133.073 348.06 133.073 348.06H227.733C227.733 348.06 215.933 333.06 215.933 327.93C215.933 322.8 232.133 257.07 232.863 252.3C233.593 247.53 230.663 244.23 224.793 243.86C218.923 243.49 196.543 238.72 195.443 235.05C194.343 231.38 201.313 217.44 201.313 217.44L179.313 218.54C179.313 218.54 178.213 228.08 176.743 229.92C175.273 231.76 173.073 228.08 167.933 225.52C162.793 222.96 152.933 220.75 149.223 217.81C145.513 214.87 110.333 181.81 110.333 181.81" fill="white"/>
</mask>
<g mask="url(#mask2_2737_47074)">
<path d="M154.844 220.637C156.674 223.837 158.504 226.727 158.504 226.727C158.504 226.727 164.674 230.197 166.214 230.197C167.754 230.197 177.014 235.197 177.014 235.197C177.014 235.197 184.734 233.267 182.014 226.707C181.156 225.027 180.072 223.473 178.794 222.087C178.334 224.997 177.594 228.807 176.724 229.897C175.254 231.727 173.054 228.057 167.914 225.497C164.584 223.837 159.194 222.317 154.844 220.637Z" fill="#8692D0"/>
<path d="M136.002 205.788C124.672 195.298 110.332 181.848 110.332 181.848L101.992 180.648L100.992 181.208C100.992 181.208 124.532 202.038 129.542 204.358C131.569 205.29 133.772 205.778 136.002 205.788Z" fill="#8692D0"/>
<path d="M147.873 216.648L146.973 215.848C147.433 216.608 147.693 217.088 147.693 217.088L147.873 216.648Z" fill="#8692D0"/>
<g opacity="0.5">
<path d="M154.844 220.637C156.674 223.837 158.504 226.727 158.504 226.727C158.504 226.727 164.674 230.197 166.214 230.197C167.754 230.197 177.014 235.197 177.014 235.197C177.014 235.197 184.734 233.267 182.014 226.707C181.156 225.027 180.072 223.473 178.794 222.087C178.334 224.997 177.594 228.807 176.724 229.897C175.254 231.727 173.054 228.057 167.914 225.497C164.584 223.837 159.194 222.317 154.844 220.637Z" fill="white"/>
<path d="M136.002 205.788C124.672 195.298 110.332 181.848 110.332 181.848L101.992 180.648L100.992 181.208C100.992 181.208 124.532 202.038 129.542 204.358C131.569 205.29 133.772 205.778 136.002 205.788Z" fill="white"/>
<path d="M147.873 216.648L146.973 215.848C147.433 216.608 147.693 217.088 147.693 217.088L147.873 216.648Z" fill="white"/>
</g>
</g>
<path d="M77.6831 167.18C77.6786 167.25 77.6786 167.32 77.6831 167.39M77.8131 168.02C78.7875 171.396 80.1288 174.655 81.8131 177.74C80.1244 174.658 78.7828 171.398 77.8131 168.02ZM77.8131 168.02C77.7855 167.925 77.7654 167.828 77.7531 167.73M81.8131 177.73C85.5531 184.814 90.2061 191.376 95.6531 197.25C108.863 211.56 147.023 248.99 150.653 251.56C154.283 254.13 153.223 261.46 150.653 268.8C148.083 276.14 138.543 286.8 138.913 298.52C139.283 310.24 142.913 328.24 142.583 331.91C142.253 335.58 133.073 348.06 133.073 348.06H227.733C227.733 348.06 215.933 333.06 215.933 327.93C215.933 322.8 232.133 257.07 232.863 252.3C233.593 247.53 230.663 244.23 224.793 243.86C218.923 243.49 196.543 238.72 195.443 235.05C194.343 231.38 201.313 217.44 201.313 217.44L179.313 218.54C179.313 218.54 178.213 228.08 176.743 229.92C175.273 231.76 173.073 228.08 167.933 225.52C162.793 222.96 152.933 220.75 149.223 217.81C145.513 214.87 110.333 181.81 110.333 181.81M77.7031 167.45C77.7031 167.51 77.7031 167.58 77.7031 167.67C77.7231 167.58 77.7131 167.51 77.7031 167.45Z" stroke="#263238" stroke-linecap="round" stroke-linejoin="round"/>
<path d="M110.334 181.85C110.334 181.85 98.6142 182.07 92.0742 176.68" stroke="#263238" stroke-linecap="round" stroke-linejoin="round"/>
<path d="M195.452 235.051C194.352 231.391 201.322 217.441 201.322 217.441L179.322 218.541C179.322 218.541 178.222 228.081 176.752 229.921C175.282 231.761 173.082 228.081 167.942 225.521C167.552 225.321 167.122 225.131 166.682 224.941L165.352 245.851C165.352 245.851 167.282 266.101 190.422 262.251C199.792 260.691 209.792 252.331 218.422 242.931C209.542 241.301 196.292 237.861 195.452 235.051Z" fill="white"/>
<mask id="mask3_2737_47074" style="mask-type:luminance" maskUnits="userSpaceOnUse" x="165" y="217" width="54" height="46">
<path d="M195.452 235.051C194.352 231.391 201.322 217.441 201.322 217.441L179.322 218.541C179.322 218.541 178.222 228.081 176.752 229.921C175.282 231.761 173.082 228.081 167.942 225.521C167.552 225.321 167.122 225.131 166.682 224.941L165.352 245.851C165.352 245.851 167.282 266.101 190.422 262.251C199.792 260.691 209.792 252.331 218.422 242.931C209.542 241.301 196.292 237.861 195.452 235.051Z" fill="white"/>
</mask>
<g mask="url(#mask3_2737_47074)">
<path d="M194.83 220.213C194.83 220.213 193.5 227.673 192.43 235.923C191.36 244.173 190.57 250.313 190.57 250.313L195.45 235.053L200.95 218.883C200.95 218.883 195.63 218.883 194.83 220.213Z" fill="#8692D0"/>
<path opacity="0.5" d="M194.83 220.213C194.83 220.213 193.5 227.673 192.43 235.923C191.36 244.173 190.57 250.313 190.57 250.313L195.45 235.053L200.95 218.883C200.95 218.883 195.63 218.883 194.83 220.213Z" fill="white"/>
</g>
<path d="M195.452 235.051C194.352 231.391 201.322 217.441 201.322 217.441L179.322 218.541C179.322 218.541 178.222 228.081 176.752 229.921C175.282 231.761 173.082 228.081 167.942 225.521C167.552 225.321 167.122 225.131 166.682 224.941L165.352 245.851C165.352 245.851 167.282 266.101 190.422 262.251C199.792 260.691 209.792 252.331 218.422 242.931C209.542 241.301 196.292 237.861 195.452 235.051Z" stroke="#263238" stroke-linecap="round" stroke-linejoin="round"/>
<path d="M176.742 229.92C175.272 231.75 173.072 228.08 167.932 225.52C164.692 223.89 159.532 222.41 155.262 220.81C154.052 217.94 152.452 214.2 151.422 211.94C149.592 207.94 146.652 210.47 146.652 210.47C145.118 208.725 143.879 206.742 142.982 204.6C141.152 200.6 138.212 200.93 134.182 200.2C130.152 199.47 121.702 191.76 121.702 191.76C121.702 191.76 117.752 188.76 116.122 187.27C114.222 191.01 109.672 197.59 99.832 201.7C115.522 218.09 147.352 249.23 150.692 251.57C154.362 254.13 153.262 261.47 150.692 268.81C148.122 276.15 138.582 286.81 138.952 298.53C139.322 310.25 142.952 328.25 142.622 331.92C142.292 335.19 134.972 345.44 133.382 347.64L137.112 348.06H156.532C156.422 338.22 156.432 298.06 163.162 282.06C170.872 263.67 176.742 229.92 176.742 229.92Z" fill="#8692D0"/>
<mask id="mask4_2737_47074" style="mask-type:luminance" maskUnits="userSpaceOnUse" x="99" y="187" width="78" height="162">
<path d="M176.742 229.92C175.272 231.75 173.072 228.08 167.932 225.52C164.692 223.89 159.532 222.41 155.262 220.81C154.052 217.94 152.452 214.2 151.422 211.94C149.592 207.94 146.652 210.47 146.652 210.47C145.118 208.725 143.879 206.742 142.982 204.6C141.152 200.6 138.212 200.93 134.182 200.2C130.152 199.47 121.702 191.76 121.702 191.76C121.702 191.76 117.752 188.76 116.122 187.27C114.222 191.01 109.672 197.59 99.832 201.7C115.522 218.09 147.352 249.23 150.692 251.57C154.362 254.13 153.262 261.47 150.692 268.81C148.122 276.15 138.582 286.81 138.952 298.53C139.322 310.25 142.952 328.25 142.622 331.92C142.292 335.19 134.972 345.44 133.382 347.64L137.112 348.06H156.532C156.422 338.22 156.432 298.06 163.162 282.06C170.872 263.67 176.742 229.92 176.742 229.92Z" fill="white"/>
</mask>
<g mask="url(#mask4_2737_47074)">
<path opacity="0.16" d="M167.93 225.52C164.69 223.89 159.53 222.41 155.26 220.81C154.05 217.94 152.45 214.2 151.42 211.94C149.59 207.94 146.65 210.47 146.65 210.47C145.117 208.725 143.877 206.742 142.98 204.6C141.15 200.6 138.21 200.93 134.18 200.2C130.15 199.47 121.7 191.76 121.7 191.76C121.7 191.76 117.75 188.76 116.12 187.27C115.307 188.858 114.339 190.362 113.23 191.76C119.79 197.31 127.03 203.19 129.56 204.36C134.56 206.67 135.73 204.74 139.56 207.06C143.39 209.38 147.66 217.06 147.66 217.06C147.66 217.06 149.98 210.88 151.91 215.13C153.84 219.38 158.47 226.7 158.47 226.7C158.47 226.7 164.64 230.17 166.18 230.17C167.39 230.17 173.32 233.25 175.84 234.58C176.4 231.65 176.71 229.89 176.71 229.89C175.27 231.75 173.07 228.08 167.93 225.52Z" fill="black"/>
</g>
<path d="M176.742 229.92C175.272 231.75 173.072 228.08 167.932 225.52C164.692 223.89 159.532 222.41 155.262 220.81C154.052 217.94 152.452 214.2 151.422 211.94C149.592 207.94 146.652 210.47 146.652 210.47C145.118 208.725 143.879 206.742 142.982 204.6C141.152 200.6 138.212 200.93 134.182 200.2C130.152 199.47 121.702 191.76 121.702 191.76C121.702 191.76 117.752 188.76 116.122 187.27C114.222 191.01 109.672 197.59 99.832 201.7C115.522 218.09 147.352 249.23 150.692 251.57C154.362 254.13 153.262 261.47 150.692 268.81C148.122 276.15 138.582 286.81 138.952 298.53C139.322 310.25 142.952 328.25 142.622 331.92C142.292 335.19 134.972 345.44 133.382 347.64L137.112 348.06H156.532C156.422 338.22 156.432 298.06 163.162 282.06C170.872 263.67 176.742 229.92 176.742 229.92Z" stroke="#263238" stroke-linecap="round" stroke-linejoin="round"/>
<path d="M177.004 228.639C177.004 228.639 172.444 227.239 169.634 229.699C166.824 232.159 162.634 244.779 160.164 258.469C158.642 266.438 159.692 274.686 163.164 282.019C163.164 282.019 168.934 266.889 170.684 259.519C172.434 252.149 177.004 228.639 177.004 228.639Z" fill="#8692D0"/>
<mask id="mask5_2737_47074" style="mask-type:luminance" maskUnits="userSpaceOnUse" x="159" y="228" width="19" height="55">
<path d="M177.004 228.639C177.004 228.639 172.444 227.239 169.634 229.699C166.824 232.159 162.634 244.779 160.164 258.469C158.642 266.438 159.692 274.686 163.164 282.019C163.164 282.019 168.934 266.889 170.684 259.519C172.434 252.149 177.004 228.639 177.004 228.639Z" fill="white"/>
</mask>
<g mask="url(#mask5_2737_47074)">
<path opacity="0.16" d="M168.254 230.87C168.254 230.87 171.554 230.07 172.914 230.53C174.059 231.021 175.13 231.671 176.094 232.46L177.004 228.64C175.639 227.943 174.091 227.688 172.574 227.91C170.304 228.37 168.254 230.87 168.254 230.87Z" fill="black"/>
</g>
<path d="M177.004 228.639C177.004 228.639 172.444 227.239 169.634 229.699C166.824 232.159 162.634 244.779 160.164 258.469C158.642 266.438 159.692 274.686 163.164 282.019C163.164 282.019 168.934 266.889 170.684 259.519C172.434 252.149 177.004 228.639 177.004 228.639Z" stroke="#263238" stroke-linecap="round" stroke-linejoin="round"/>
<path d="M146.293 229.842L152.163 253.692L138.953 223.602" stroke="#263238" stroke-linecap="round" stroke-linejoin="round"/>
<path d="M184.963 348.061H227.743C227.743 348.061 215.943 333.061 215.943 327.931C215.943 322.801 232.143 257.071 232.873 252.301C233.603 247.531 230.673 244.231 224.803 243.861C218.933 243.491 196.553 238.721 195.453 235.051C195.453 235.051 187.013 264.771 184.083 284.951C181.563 302.261 184.173 338.181 184.963 348.061Z" fill="#8692D0"/>
<mask id="mask6_2737_47074" style="mask-type:luminance" maskUnits="userSpaceOnUse" x="183" y="235" width="50" height="114">
<path d="M184.963 348.061H227.743C227.743 348.061 215.943 333.061 215.943 327.931C215.943 322.801 232.143 257.071 232.873 252.301C233.603 247.531 230.673 244.231 224.803 243.861C218.933 243.491 196.553 238.721 195.453 235.051C195.453 235.051 187.013 264.771 184.083 284.951C181.563 302.261 184.173 338.181 184.963 348.061Z" fill="white"/>
</mask>
<g mask="url(#mask6_2737_47074)">
<path opacity="0.16" d="M224.804 243.861C219.994 243.561 204.104 240.301 197.914 237.121L200.164 242.321C204.241 244.484 208.625 246.008 213.164 246.841C220.614 248.171 227.544 247.911 232.074 254.571L232.294 254.901C232.574 253.621 232.764 252.721 232.824 252.301C233.614 247.531 230.674 244.231 224.804 243.861Z" fill="black"/>
</g>
<path d="M184.963 348.061H227.743C227.743 348.061 215.943 333.061 215.943 327.931C215.943 322.801 232.143 257.071 232.873 252.301C233.603 247.531 230.673 244.231 224.803 243.861C218.933 243.491 196.553 238.721 195.453 235.051C195.453 235.051 187.013 264.771 184.083 284.951C181.563 302.261 184.173 338.181 184.963 348.061Z" stroke="#263238" stroke-linecap="round" stroke-linejoin="round"/>
<path d="M195.452 235.051C195.452 235.051 184.132 271.051 184.082 284.951C184.082 284.951 200.162 265.481 202.262 251.801C204.362 238.121 195.452 235.051 195.452 235.051Z" fill="#8692D0"/>
<mask id="mask7_2737_47074" style="mask-type:luminance" maskUnits="userSpaceOnUse" x="184" y="235" width="19" height="50">
<path d="M195.452 235.051C195.452 235.051 184.132 271.051 184.082 284.951C184.082 284.951 200.162 265.481 202.262 251.801C204.362 238.121 195.452 235.051 195.452 235.051Z" fill="white"/>
</mask>
<g mask="url(#mask7_2737_47074)">
<path opacity="0.16" d="M193.504 239.651C195.205 239.594 196.894 239.952 198.426 240.694C199.957 241.436 201.285 242.54 202.294 243.911C202.294 243.911 200.074 237.381 195.454 235.051L193.504 239.651Z" fill="black"/>
</g>
<path d="M195.452 235.051C195.452 235.051 184.132 271.051 184.082 284.951C184.082 284.951 200.162 265.481 202.262 251.801C204.362 238.121 195.452 235.051 195.452 235.051Z" stroke="#263238" stroke-linecap="round" stroke-linejoin="round"/>
<path d="M316.301 341.291C316.301 341.291 324.591 341.631 330.021 342.411C333.642 342.902 337.288 343.193 340.941 343.281C340.941 343.281 337.941 337.221 334.741 335.511C331.541 333.801 325.741 330.741 320.881 331.421C316.021 332.101 309.071 337.001 309.651 338.561C310.231 340.121 312.821 340.821 316.301 341.291Z" fill="white"/>
<mask id="mask8_2737_47074" style="mask-type:luminance" maskUnits="userSpaceOnUse" x="309" y="331" width="32" height="13">
<path d="M316.301 341.291C316.301 341.291 324.591 341.631 330.021 342.411C333.642 342.902 337.288 343.193 340.941 343.281C340.941 343.281 337.941 337.221 334.741 335.511C331.541 333.801 325.741 330.741 320.881 331.421C316.021 332.101 309.071 337.001 309.651 338.561C310.231 340.121 312.821 340.821 316.301 341.291Z" fill="white"/>
</mask>
<g mask="url(#mask8_2737_47074)">
<path d="M316.301 341.291C316.301 341.291 324.591 341.631 330.021 342.411C333.642 342.902 337.288 343.193 340.941 343.281C340.941 343.281 337.941 337.221 334.741 335.511C331.541 333.801 325.741 330.741 320.881 331.421C316.021 332.101 309.071 337.001 309.651 338.561C310.231 340.121 312.821 340.821 316.301 341.291Z" fill="#8692D0"/>
<path opacity="0.5" d="M316.301 341.291C316.301 341.291 324.591 341.631 330.021 342.411C333.642 342.902 337.288 343.193 340.941 343.281C340.941 343.281 337.941 337.221 334.741 335.511C331.541 333.801 325.741 330.741 320.881 331.421C316.021 332.101 309.071 337.001 309.651 338.561C310.231 340.121 312.821 340.821 316.301 341.291Z" fill="white"/>
</g>
<path d="M316.301 341.291C316.301 341.291 324.591 341.631 330.021 342.411C333.642 342.902 337.288 343.193 340.941 343.281C340.941 343.281 337.941 337.221 334.741 335.511C331.541 333.801 325.741 330.741 320.881 331.421C316.021 332.101 309.071 337.001 309.651 338.561C310.231 340.121 312.821 340.821 316.301 341.291Z" stroke="#263238" stroke-linecap="round" stroke-linejoin="round"/>
<path d="M330.074 338.81C330.074 338.81 336.644 335.4 338.284 335.45C339.924 335.5 350.824 342.87 350.284 344.05C349.918 344.597 349.388 345.015 348.771 345.245C348.153 345.474 347.479 345.504 346.844 345.33C345.634 344.76 338.294 341.64 338.294 341.64L333.494 342.77L330.074 338.81Z" fill="white"/>
<mask id="mask9_2737_47074" style="mask-type:luminance" maskUnits="userSpaceOnUse" x="330" y="335" width="21" height="11">
<path d="M330.074 338.81C330.074 338.81 336.644 335.4 338.284 335.45C339.924 335.5 350.824 342.87 350.284 344.05C349.918 344.597 349.388 345.015 348.771 345.245C348.153 345.474 347.479 345.504 346.844 345.33C345.634 344.76 338.294 341.64 338.294 341.64L333.494 342.77L330.074 338.81Z" fill="white"/>
</mask>
<g mask="url(#mask9_2737_47074)">
<path d="M330.074 338.81C330.074 338.81 336.644 335.4 338.284 335.45C339.924 335.5 350.824 342.87 350.284 344.05C349.744 345.23 347.164 346.19 346.844 345.33C346.524 344.47 338.294 341.64 338.294 341.64L333.494 342.77L330.074 338.81Z" fill="#8692D0"/>
<path opacity="0.5" d="M330.074 338.81C330.074 338.81 336.644 335.4 338.284 335.45C339.924 335.5 350.824 342.87 350.284 344.05C349.744 345.23 347.164 346.19 346.844 345.33C346.524 344.47 338.294 341.64 338.294 341.64L333.494 342.77L330.074 338.81Z" fill="white"/>
</g>
<path d="M330.074 338.81C330.074 338.81 336.644 335.4 338.284 335.45C339.924 335.5 350.824 342.87 350.284 344.05C349.918 344.597 349.388 345.015 348.771 345.245C348.153 345.474 347.479 345.504 346.844 345.33C345.634 344.76 338.294 341.64 338.294 341.64L333.494 342.77L330.074 338.81Z" stroke="#263238" stroke-linecap="round" stroke-linejoin="round"/>
<path d="M325.383 333.203C325.383 333.203 334.143 332.922 335.883 333.802C337.623 334.682 345.483 348.163 344.303 349.143C343.123 350.123 339.863 349.832 339.963 348.742C340.063 347.652 332.723 340.432 332.723 340.432L327.013 339.182L325.383 333.203Z" fill="white"/>
<mask id="mask10_2737_47074" style="mask-type:luminance" maskUnits="userSpaceOnUse" x="325" y="333" width="20" height="17">
<path d="M325.383 333.203C325.383 333.203 334.143 332.922 335.883 333.802C337.623 334.682 345.483 348.163 344.303 349.143C343.123 350.123 339.863 349.832 339.963 348.742C340.063 347.652 332.723 340.432 332.723 340.432L327.013 339.182L325.383 333.203Z" fill="white"/>
</mask>
<g mask="url(#mask10_2737_47074)">
<path d="M325.383 333.203C325.383 333.203 334.143 332.922 335.883 333.802C337.623 334.682 345.483 348.163 344.303 349.143C343.123 350.123 339.863 349.832 339.963 348.742C340.063 347.652 332.723 340.432 332.723 340.432L327.013 339.182L325.383 333.203Z" fill="#8692D0"/>
<path opacity="0.5" d="M325.383 333.203C325.383 333.203 334.143 332.922 335.883 333.802C337.623 334.682 345.483 348.163 344.303 349.143C343.123 350.123 339.863 349.832 339.963 348.742C340.063 347.652 332.723 340.432 332.723 340.432L327.013 339.182L325.383 333.203Z" fill="white"/>
</g>
<path d="M325.383 333.203C325.383 333.203 334.143 332.922 335.883 333.802C337.623 334.682 345.483 348.163 344.303 349.143C343.123 350.123 339.863 349.832 339.963 348.742C340.063 347.652 332.723 340.432 332.723 340.432L327.013 339.182L325.383 333.203Z" stroke="#263238" stroke-linecap="round" stroke-linejoin="round"/>
<path d="M320.191 331.392C320.191 331.392 329.061 331.102 330.821 332.002C332.581 332.902 340.541 346.532 339.341 347.532C338.141 348.532 334.861 348.222 334.961 347.122C335.061 346.022 327.631 338.712 327.631 338.712L321.851 337.442L320.191 331.392Z" fill="white"/>
<mask id="mask11_2737_47074" style="mask-type:luminance" maskUnits="userSpaceOnUse" x="320" y="331" width="20" height="18">
<path d="M320.191 331.392C320.191 331.392 329.061 331.102 330.821 332.002C332.581 332.902 340.541 346.532 339.341 347.532C338.141 348.532 334.861 348.222 334.961 347.122C335.061 346.022 327.631 338.712 327.631 338.712L321.851 337.442L320.191 331.392Z" fill="white"/>
</mask>
<g mask="url(#mask11_2737_47074)">
<path d="M320.191 331.392C320.191 331.392 329.061 331.102 330.821 332.002C332.581 332.902 340.541 346.532 339.341 347.532C338.141 348.532 334.861 348.222 334.961 347.122C335.061 346.022 327.631 338.712 327.631 338.712L321.851 337.442L320.191 331.392Z" fill="#8692D0"/>
<path opacity="0.5" d="M320.191 331.392C320.191 331.392 329.061 331.102 330.821 332.002C332.581 332.902 340.541 346.532 339.341 347.532C338.141 348.532 334.861 348.222 334.961 347.122C335.061 346.022 327.631 338.712 327.631 338.712L321.851 337.442L320.191 331.392Z" fill="white"/>
</g>
<path d="M320.191 331.392C320.191 331.392 329.061 331.102 330.821 332.002C332.581 332.902 340.541 346.532 339.341 347.532C338.141 348.532 334.861 348.222 334.961 347.122C335.061 346.022 327.631 338.712 327.631 338.712L321.851 337.442L320.191 331.392Z" stroke="#263238" stroke-linecap="round" stroke-linejoin="round"/>
<path d="M219.343 280.572C225.763 290.462 238.653 315.522 242.413 318.342C248.283 322.742 287.523 333.422 291.303 336.342C295.083 339.262 294.823 342.192 298.403 343.262C301.983 344.332 315.403 347.402 320.523 347.882C325.643 348.362 323.353 345.192 323.353 345.192L314.623 339.192L322.233 337.312C322.233 337.312 329.863 346.492 331.293 346.992C332.723 347.492 335.243 346.992 335.083 345.862C334.803 344.052 326.663 329.242 323.773 328.612C320.883 327.982 303.343 330.412 303.343 330.412C303.343 330.412 266.553 305.602 265.893 304.722C265.893 304.722 263.693 298.482 261.893 295.912C260.093 293.342 258.953 294.082 258.953 294.082C258.953 294.082 259.693 290.772 258.593 289.672L252.723 283.802L252.513 284.082C251.513 282.082 250.513 279.802 249.413 277.202C246.343 269.972 235.473 249.682 233.643 246.752C232.273 244.562 220.793 242.992 214.973 242.332" fill="#8692D0"/>
<mask id="mask12_2737_47074" style="mask-type:luminance" maskUnits="userSpaceOnUse" x="214" y="242" width="122" height="106">
<path d="M219.343 280.572C225.763 290.462 238.653 315.522 242.413 318.342C248.283 322.742 287.523 333.422 291.303 336.342C295.083 339.262 294.823 342.192 298.403 343.262C301.983 344.332 315.403 347.402 320.523 347.882C325.643 348.362 323.353 345.192 323.353 345.192L314.623 339.192L322.233 337.312C322.233 337.312 329.863 346.492 331.293 346.992C332.723 347.492 335.243 346.992 335.083 345.862C334.803 344.052 326.663 329.242 323.773 328.612C320.883 327.982 303.343 330.412 303.343 330.412C303.343 330.412 266.553 305.602 265.893 304.722C265.893 304.722 263.693 298.482 261.893 295.912C260.093 293.342 258.953 294.082 258.953 294.082C258.953 294.082 259.693 290.772 258.593 289.672L252.723 283.802L252.513 284.082C251.513 282.082 250.513 279.802 249.413 277.202C246.343 269.972 235.473 249.682 233.643 246.752C232.273 244.562 220.793 242.992 214.973 242.332" fill="white"/>
</mask>
<g mask="url(#mask12_2737_47074)">
<path opacity="0.16" d="M244.901 281.201C249.701 285.461 248.101 285.461 247.031 289.201C245.961 292.941 247.831 287.871 252.361 288.141C256.891 288.411 255.561 294.261 255.021 295.331C254.481 296.401 260.621 297.731 259.551 300.121C258.481 302.511 252.361 305.981 248.901 309.451C245.441 312.921 257.951 303.851 262.211 303.591C263.511 303.501 264.581 303.671 265.481 303.651C264.537 300.975 263.324 298.402 261.861 295.971C260.021 293.401 258.921 294.141 258.921 294.141C258.921 294.141 259.661 290.831 258.561 289.731L252.691 283.861L252.481 284.141C251.481 282.141 250.481 279.861 249.381 277.261C246.311 270.031 235.441 249.741 233.611 246.811C232.241 244.621 220.761 243.051 214.941 242.391L215.471 247.021L215.601 247.121C215.601 247.121 222.791 248.451 225.191 248.721C227.591 248.991 230.521 251.111 230.251 252.721C229.981 254.331 223.061 261.511 225.191 262.051C227.321 262.591 229.721 256.721 232.121 257.521C234.521 258.321 240.071 276.941 244.901 281.201Z" fill="black"/>
</g>
<path d="M219.343 280.572C225.763 290.462 238.653 315.522 242.413 318.342C248.283 322.742 287.523 333.422 291.303 336.342C295.083 339.262 294.823 342.192 298.403 343.262C301.983 344.332 315.403 347.402 320.523 347.882C325.643 348.362 323.353 345.192 323.353 345.192L314.623 339.192L322.233 337.312C322.233 337.312 329.863 346.492 331.293 346.992C332.723 347.492 335.243 346.992 335.083 345.862C334.803 344.052 326.663 329.242 323.773 328.612C320.883 327.982 303.343 330.412 303.343 330.412C303.343 330.412 266.553 305.602 265.893 304.722C265.893 304.722 263.693 298.482 261.893 295.912C260.093 293.342 258.953 294.082 258.953 294.082C258.953 294.082 259.693 290.772 258.593 289.672L252.723 283.802L252.513 284.082C251.513 282.082 250.513 279.802 249.413 277.202C246.343 269.972 235.473 249.682 233.643 246.752C232.273 244.562 220.793 242.992 214.973 242.332" stroke="#263238" stroke-linecap="round" stroke-linejoin="round"/>
<path d="M219.442 267C219.172 267.9 218.942 268.8 218.762 269.72" stroke="#263238" stroke-linecap="round" stroke-linejoin="round"/>
<path d="M229.161 250.449C226.019 254.031 223.369 258.016 221.281 262.299" stroke="#263238" stroke-linecap="round" stroke-linejoin="round"/>
<path d="M243.852 307.231C246.552 303.231 250.852 298.161 255.592 296.711" stroke="#263238" stroke-linecap="round" stroke-linejoin="round"/>
<path d="M240.863 312.149C240.863 312.149 241.343 311.209 242.203 309.789" stroke="#263238" stroke-linecap="round" stroke-linejoin="round"/>
<path d="M240.863 305.833C240.863 305.833 245.773 293.553 250.683 290.393C255.593 287.233 252.783 293.553 252.783 293.553" stroke="#263238" stroke-linecap="round" stroke-linejoin="round"/>
<path d="M291.303 336.35C295.093 339.28 294.822 342.2 298.402 343.27C301.982 344.34 315.403 347.41 320.523 347.89C325.643 348.37 323.353 345.2 323.353 345.2L314.622 339.2L322.233 337.32C322.233 337.32 329.863 346.5 331.293 347C332.723 347.5 335.443 347.68 335.083 345.87C334.383 342.37 326.663 329.25 323.773 328.62C320.883 327.99 303.342 330.42 303.342 330.42C303.342 330.42 269.833 307.42 266.163 304.93C251.933 306.3 245.162 313.75 242.312 318.22L242.413 318.3C248.283 322.74 287.523 333.42 291.303 336.35Z" fill="white"/>
<mask id="mask13_2737_47074" style="mask-type:luminance" maskUnits="userSpaceOnUse" x="242" y="304" width="94" height="44">
<path d="M291.303 336.35C295.093 339.28 294.822 342.2 298.402 343.27C301.982 344.34 315.403 347.41 320.523 347.89C325.643 348.37 323.353 345.2 323.353 345.2L314.622 339.2L322.233 337.32C322.233 337.32 329.863 346.5 331.293 347C332.723 347.5 335.443 347.68 335.083 345.87C334.383 342.37 326.663 329.25 323.773 328.62C320.883 327.99 303.342 330.42 303.342 330.42C303.342 330.42 269.833 307.42 266.163 304.93C251.933 306.3 245.162 313.75 242.312 318.22L242.413 318.3C248.283 322.74 287.523 333.42 291.303 336.35Z" fill="white"/>
</mask>
<g mask="url(#mask13_2737_47074)">
<path d="M335.071 345.909C333.251 341.459 326.651 329.289 323.761 328.659C320.871 328.029 303.331 330.459 303.331 330.459C303.331 330.459 269.821 307.459 266.151 304.969C262.416 305.294 258.752 306.18 255.281 307.599C260.571 310.599 295.831 330.599 300.281 331.489C305.001 332.489 320.751 329.899 323.521 331.759C325.281 332.939 330.521 341.249 334.061 347.149C335.071 346.999 335.441 346.809 335.071 345.909Z" fill="#8692D0"/>
<path opacity="0.5" d="M335.071 345.909C332.231 339.539 326.651 329.289 323.761 328.659C320.871 328.029 303.331 330.459 303.331 330.459C303.331 330.459 269.821 307.459 266.151 304.969C262.416 305.294 258.752 306.18 255.281 307.599C260.571 310.599 295.831 330.599 300.281 331.489C305.001 332.489 320.751 329.899 323.521 331.759C325.281 332.939 330.521 341.249 334.061 347.149C335.071 346.999 335.471 346.799 335.071 345.909Z" fill="white"/>
</g>
<path d="M291.303 336.35C295.093 339.28 294.822 342.2 298.402 343.27C301.982 344.34 315.403 347.41 320.523 347.89C325.643 348.37 323.353 345.2 323.353 345.2L314.622 339.2L322.233 337.32C322.233 337.32 329.863 346.5 331.293 347C332.723 347.5 335.443 347.68 335.083 345.87C334.383 342.37 326.663 329.25 323.773 328.62C320.883 327.99 303.342 330.42 303.342 330.42C303.342 330.42 269.833 307.42 266.163 304.93C251.933 306.3 245.162 313.75 242.312 318.22L242.413 318.3C248.283 322.74 287.523 333.42 291.303 336.35Z" stroke="#263238" stroke-linecap="round" stroke-linejoin="round"/>
<path d="M202.921 161.73L172.801 174.3C172.436 179.594 171.126 184.779 168.931 189.61C165.371 197.14 167.451 211.39 170.871 219.08C174.291 226.77 189.361 223.76 194.871 222.8C198.608 222.09 202.269 221.021 205.801 219.61C207.41 220.23 209.15 220.431 210.857 220.193C212.565 219.955 214.183 219.287 215.561 218.25C215.561 218.25 199.441 173 202.921 161.73Z" fill="white"/>
<mask id="mask14_2737_47074" style="mask-type:luminance" maskUnits="userSpaceOnUse" x="167" y="161" width="49" height="64">
<path d="M202.921 161.73L172.801 174.3C172.436 179.594 171.126 184.779 168.931 189.61C165.371 197.14 167.451 211.39 170.871 219.08C174.291 226.77 189.361 223.76 194.871 222.8C198.608 222.09 202.269 221.021 205.801 219.61C207.41 220.23 209.15 220.431 210.857 220.193C212.565 219.955 214.183 219.287 215.561 218.25C215.561 218.25 199.441 173 202.921 161.73Z" fill="white"/>
</mask>
<g mask="url(#mask14_2737_47074)">
<path d="M202.921 161.73L172.801 174.3C172.436 179.594 171.126 184.779 168.931 189.61C165.371 197.14 167.451 211.39 170.871 219.08C171.444 220.317 172.365 221.36 173.521 222.08V221.5C173.521 221.5 167.931 207.65 168.991 199.66C170.051 191.67 174.591 187.66 175.121 182.61C175.651 177.56 175.381 175.16 185.511 171.43C195.641 167.7 199.891 164.24 200.951 167.96C202.011 171.68 206.281 196.2 209.211 202.06C212.141 207.92 211.871 214.06 207.351 216.71C202.783 219.453 197.888 221.61 192.781 223.13L194.911 222.76C198.648 222.05 202.309 220.981 205.841 219.57C207.45 220.19 209.19 220.391 210.897 220.153C212.605 219.915 214.223 219.247 215.601 218.21C215.601 218.21 199.441 173 202.921 161.73Z" fill="#8692D0"/>
<path opacity="0.5" d="M202.921 161.73L172.801 174.3C172.436 179.594 171.126 184.779 168.931 189.61C165.371 197.14 167.451 211.39 170.871 219.08C171.444 220.317 172.365 221.36 173.521 222.08V221.5C173.521 221.5 167.931 207.65 168.991 199.66C170.051 191.67 174.591 187.66 175.121 182.61C175.651 177.56 175.381 175.16 185.511 171.43C195.641 167.7 199.891 164.24 200.951 167.96C202.011 171.68 206.281 196.2 209.211 202.06C212.141 207.92 211.871 214.06 207.351 216.71C202.783 219.453 197.888 221.61 192.781 223.13L194.911 222.76C198.648 222.05 202.309 220.981 205.841 219.57C207.45 220.19 209.19 220.391 210.897 220.153C212.605 219.915 214.223 219.247 215.601 218.21C215.601 218.21 199.441 173 202.921 161.73Z" fill="white"/>
</g>
<path d="M202.921 161.73L172.801 174.3C172.436 179.594 171.126 184.779 168.931 189.61C165.371 197.14 167.451 211.39 170.871 219.08C174.291 226.77 189.361 223.76 194.871 222.8C198.608 222.09 202.269 221.021 205.801 219.61C207.41 220.23 209.15 220.431 210.857 220.193C212.565 219.955 214.183 219.287 215.561 218.25C215.561 218.25 199.441 173 202.921 161.73Z" stroke="#263238" stroke-linecap="round" stroke-linejoin="round"/>
<path d="M187.705 181.441C187.787 183.212 187.567 184.984 187.055 186.681C186.255 188.681 178.705 196.541 178.935 197.391C179.165 198.241 179.845 200.971 181.185 201.231" stroke="#263238" stroke-linecap="round" stroke-linejoin="round"/>
<path d="M196.074 188.471C197.124 186.371 200.574 188.421 200.524 193.151" stroke="#263238" stroke-linecap="round" stroke-linejoin="round"/>
<path d="M178.973 182.292C178.973 182.292 181.913 181.002 184.543 185.762" stroke="#263238" stroke-linecap="round" stroke-linejoin="round"/>
<path d="M191.895 195.402C195.292 195.573 198.522 196.928 201.025 199.232" stroke="#263238" stroke-width="0.5" stroke-linecap="round" stroke-linejoin="round"/>
<path d="M175.422 189.152C177.178 189.387 178.894 189.861 180.522 190.562" stroke="#263238" stroke-width="0.5" stroke-linecap="round" stroke-linejoin="round"/>
<path d="M187.374 177.001C186.598 176.591 185.736 176.366 184.858 176.346C183.98 176.325 183.109 176.508 182.314 176.881C179.624 178.171 177.974 179.591 178.154 177.941C178.334 176.291 181.494 174.471 182.444 174.231C183.394 173.991 187.644 173.331 187.374 177.001Z" fill="#263238"/>
<path d="M194.914 173.27C197.717 175.538 199.945 178.437 201.414 181.73C203.414 186.73 204.994 181.27 203.414 178C201.834 174.73 197.264 171.25 194.914 173.27Z" fill="#263238"/>
<path d="M216.003 226.799C216.003 229.129 214.683 231.019 213.063 231.019C211.443 231.019 210.133 229.129 210.133 226.799C210.133 224.469 211.443 218.539 213.063 218.539C214.683 218.539 216.003 224.469 216.003 226.799Z" fill="#8692D0" stroke="#263238" stroke-linecap="round" stroke-linejoin="round"/>
<path d="M196.331 187.562C196.216 187.868 196.126 188.182 196.061 188.503C195.771 189.983 195.481 193.073 196.061 193.203C196.641 193.333 198.061 190.442 198.311 188.962C198.368 188.672 198.401 188.378 198.411 188.082C197.729 187.868 197.034 187.695 196.331 187.562Z" fill="#263238"/>
<path d="M179.272 182C179.184 182.261 179.113 182.529 179.062 182.8C178.762 184.28 178.772 187.53 179.402 187.65C180.032 187.77 181.062 184.73 181.352 183.25C181.425 182.891 181.465 182.526 181.472 182.16C180.757 181.963 180.009 181.909 179.272 182Z" fill="#263238"/>
<path d="M196.074 188.52L197.074 186.66C198.66 186.969 200.096 187.8 201.154 189.02" stroke="#263238" stroke-width="0.75" stroke-linecap="round" stroke-linejoin="round"/>
<path d="M179.273 181.999L180.273 180.829C180.273 180.829 180.703 180.619 183.063 181.689" stroke="#263238" stroke-width="0.75" stroke-linecap="round" stroke-linejoin="round"/>
<path d="M175.484 209.121C175.484 209.121 177.164 206.031 179.414 206.031C181.664 206.031 183.344 211.081 183.344 211.081" stroke="#263238" stroke-linecap="round" stroke-linejoin="round"/>
<path d="M231.413 348.062H128.673L125.323 291.582C125.231 291.034 125.258 290.473 125.403 289.937C125.549 289.401 125.808 288.903 126.165 288.477C126.521 288.051 126.966 287.707 127.468 287.47C127.97 287.232 128.518 287.107 129.073 287.102H230.973C231.532 287.101 232.084 287.222 232.591 287.457C233.098 287.692 233.548 288.035 233.909 288.461C234.27 288.888 234.533 289.388 234.681 289.927C234.828 290.466 234.856 291.031 234.763 291.582L231.413 348.062Z" fill="#263238" stroke="#263238" stroke-linecap="round" stroke-linejoin="round"/>
<path d="M133.734 288.453H230.234C230.78 288.448 231.319 288.561 231.816 288.786C232.312 289.011 232.754 289.342 233.109 289.755C233.465 290.169 233.725 290.655 233.873 291.18C234.021 291.705 234.052 292.255 233.964 292.793" stroke="white" stroke-linecap="round" stroke-linejoin="round"/>
<path d="M126.074 291.903C126.155 290.958 126.589 290.078 127.289 289.439C127.99 288.799 128.906 288.447 129.854 288.453" stroke="white" stroke-linecap="round" stroke-linejoin="round"/>
<path d="M231.842 342.562H128.242V348.062H231.842V342.562Z" fill="white" stroke="#263238" stroke-linecap="round" stroke-linejoin="round"/>
<path d="M179.672 322.202C183.726 322.202 187.012 320.232 187.012 317.802C187.012 315.372 183.726 313.402 179.672 313.402C175.618 313.402 172.332 315.372 172.332 317.802C172.332 320.232 175.618 322.202 179.672 322.202Z" fill="white" stroke="#263238" stroke-linecap="round" stroke-linejoin="round"/>
<path d="M288.054 0H102.424C96.1664 0 91.0938 5.07262 91.0938 11.33V117.84C91.0938 124.097 96.1664 129.17 102.424 129.17H288.054C294.311 129.17 299.384 124.097 299.384 117.84V11.33C299.384 5.07262 294.311 0 288.054 0Z" fill="#8692D0"/>
<path d="M200.136 74.23C216.975 71.5239 228.431 55.6798 225.725 38.8413C223.019 22.0029 207.175 10.5463 190.336 13.2525C173.498 15.9586 162.041 31.8026 164.748 48.6411C167.454 65.4796 183.298 76.9361 200.136 74.23Z" fill="#263238"/>
<path d="M195.002 49.4484L184.712 62.6585C184.362 63.2083 183.881 63.6626 183.312 63.9803C182.743 64.298 182.104 64.4692 181.452 64.4784C180.558 64.4906 179.696 64.1492 179.052 63.5284C178.725 63.2284 178.466 62.8614 178.294 62.4525C178.121 62.0435 178.039 61.6021 178.052 61.1585C178.084 60.1648 178.435 59.2078 179.052 58.4284L190.782 43.9184L179.782 29.3984C179.271 28.717 178.991 27.8902 178.982 27.0384C178.98 26.5304 179.082 26.0274 179.284 25.561C179.485 25.0946 179.781 24.6749 180.152 24.3284C180.501 23.9642 180.92 23.6744 181.384 23.4767C181.848 23.2791 182.348 23.1776 182.852 23.1784C183.498 23.1889 184.131 23.361 184.694 23.6789C185.256 23.9968 185.73 24.4504 186.072 24.9984L196.012 38.0884L206.012 25.2184C206.37 24.618 206.87 24.115 207.468 23.7539C208.066 23.3929 208.744 23.1849 209.442 23.1484C209.875 23.1474 210.304 23.2356 210.701 23.4077C211.099 23.5797 211.457 23.8319 211.752 24.1484C212.067 24.4452 212.319 24.8031 212.49 25.2003C212.662 25.5975 212.751 26.0256 212.752 26.4584C212.742 27.233 212.474 27.9821 211.992 28.5884L200.222 43.6484L211.592 58.6484C212.13 59.3189 212.429 60.1492 212.442 61.0084C212.445 61.5053 212.341 61.9969 212.135 62.4493C211.93 62.9016 211.628 63.304 211.252 63.6285C210.518 64.334 209.54 64.7282 208.522 64.7284C207.873 64.7204 207.236 64.5495 206.67 64.2316C206.104 63.9136 205.627 63.4587 205.282 62.9085L195.002 49.4484Z" fill="white"/>
<path d="M254.073 106.801H136.363C133.976 106.801 131.687 105.853 129.999 104.165C128.312 102.477 127.363 100.188 127.363 97.8008C127.363 95.4138 128.312 93.1246 129.999 91.4368C131.687 89.749 133.976 88.8008 136.363 88.8008H254.073C256.46 88.8008 258.749 89.749 260.437 91.4368C262.125 93.1246 263.073 95.4138 263.073 97.8008C263.073 100.188 262.125 102.477 260.437 104.165C258.749 105.853 256.46 106.801 254.073 106.801Z" fill="white"/>
<path d="M152.495 100.701C152.416 100.701 152.338 100.685 152.266 100.654C152.194 100.623 152.129 100.577 152.075 100.521C152.015 100.462 151.969 100.392 151.938 100.314C151.907 100.237 151.892 100.154 151.895 100.071C151.895 99.9297 151.933 99.7915 152.005 99.6705L152.905 98.2705H151.065C150.98 98.2749 150.895 98.2611 150.815 98.2301C150.736 98.199 150.664 98.1515 150.605 98.0905C150.502 97.9708 150.445 97.8183 150.445 97.6605C150.445 97.5028 150.502 97.3502 150.605 97.2305C150.664 97.1696 150.736 97.122 150.815 97.091C150.895 97.06 150.98 97.0462 151.065 97.0505L152.875 97.1005L152.075 95.8005C151.994 95.6674 151.95 95.5159 151.945 95.3605C151.942 95.2772 151.957 95.1943 151.988 95.1169C152.019 95.0395 152.065 94.9693 152.125 94.9105C152.181 94.8534 152.248 94.808 152.321 94.7771C152.395 94.7462 152.475 94.7303 152.555 94.7305C152.667 94.7289 152.777 94.7602 152.871 94.8207C152.965 94.8812 153.039 94.9681 153.085 95.0705L153.965 96.6405L154.805 95.1405C154.858 95.0238 154.941 94.9239 155.047 94.8516C155.153 94.7793 155.277 94.7374 155.405 94.7305C155.483 94.7305 155.561 94.7465 155.633 94.7774C155.705 94.8084 155.77 94.8537 155.825 94.9105C155.883 94.9655 155.93 95.0322 155.961 95.1063C155.992 95.1804 156.007 95.2602 156.005 95.3405C156.003 95.4825 155.962 95.6213 155.885 95.7405L155.005 97.1505L156.835 97.1005C156.92 97.0955 157.005 97.109 157.084 97.1401C157.164 97.1712 157.236 97.2191 157.295 97.2805C157.397 97.4002 157.454 97.5528 157.454 97.7105C157.454 97.8683 157.397 98.0208 157.295 98.1405C157.236 98.202 157.164 98.2499 157.084 98.281C157.005 98.3121 156.92 98.3256 156.835 98.3205H154.985L155.805 99.6005C155.897 99.755 155.949 99.9306 155.955 100.111C155.957 100.192 155.944 100.272 155.915 100.348C155.885 100.424 155.841 100.492 155.785 100.551C155.732 100.607 155.669 100.652 155.598 100.682C155.528 100.713 155.452 100.73 155.375 100.731C155.251 100.728 155.13 100.689 155.028 100.62C154.925 100.551 154.844 100.454 154.795 100.341L153.965 98.8705L153.135 100.341C153.075 100.456 152.982 100.552 152.868 100.616C152.755 100.68 152.625 100.709 152.495 100.701Z" fill="black"/>
<path d="M161.674 100.7C161.596 100.7 161.518 100.684 161.446 100.653C161.374 100.622 161.308 100.577 161.254 100.52C161.195 100.461 161.149 100.391 161.118 100.313C161.087 100.236 161.072 100.153 161.074 100.07C161.074 99.9289 161.112 99.7907 161.184 99.6698L162.084 98.2698H160.244C160.159 98.2741 160.074 98.2603 159.995 98.2293C159.916 98.1983 159.844 98.1507 159.784 98.0898C159.682 97.9701 159.625 97.8175 159.625 97.6598C159.625 97.502 159.682 97.3494 159.784 97.2298C159.844 97.1688 159.916 97.1213 159.995 97.0902C160.074 97.0592 160.159 97.0454 160.244 97.0498L162.054 97.0998L161.204 95.7498C161.124 95.6166 161.079 95.4651 161.074 95.3098C161.072 95.2264 161.087 95.1435 161.118 95.0661C161.149 94.9887 161.195 94.9185 161.254 94.8598C161.31 94.8026 161.377 94.7572 161.451 94.7263C161.525 94.6954 161.604 94.6795 161.684 94.6797C161.796 94.6781 161.906 94.7095 162.001 94.7699C162.095 94.8304 162.169 94.9173 162.214 95.0198L163.094 96.5898L163.934 95.0898C163.987 94.973 164.071 94.8731 164.177 94.8008C164.283 94.7285 164.406 94.6866 164.534 94.6797C164.613 94.6797 164.691 94.6957 164.763 94.7267C164.835 94.7576 164.9 94.8029 164.954 94.8598C165.013 94.9147 165.059 94.9814 165.09 95.0555C165.121 95.1296 165.136 95.2094 165.134 95.2898C165.133 95.4318 165.091 95.5705 165.014 95.6898L164.134 97.0998L165.964 97.0498C166.049 97.0447 166.135 97.0582 166.214 97.0893C166.293 97.1204 166.365 97.1683 166.424 97.2298C166.527 97.3494 166.584 97.502 166.584 97.6598C166.584 97.8175 166.527 97.9701 166.424 98.0898C166.365 98.1512 166.293 98.1991 166.214 98.2302C166.135 98.2613 166.049 98.2748 165.964 98.2698H164.114L164.934 99.5498C165.027 99.7043 165.078 99.8798 165.084 100.06C165.087 100.141 165.074 100.222 165.044 100.297C165.015 100.373 164.971 100.442 164.914 100.5C164.862 100.556 164.798 100.601 164.728 100.632C164.657 100.663 164.581 100.679 164.504 100.68C164.38 100.678 164.259 100.64 164.156 100.571C164.053 100.502 163.973 100.404 163.924 100.29L163.094 98.8198L162.264 100.29C162.215 100.407 162.133 100.508 162.029 100.581C161.924 100.653 161.801 100.694 161.674 100.7Z" fill="black"/>
<path d="M170.854 100.7C170.775 100.7 170.698 100.684 170.626 100.653C170.553 100.622 170.488 100.577 170.434 100.52C170.375 100.461 170.328 100.391 170.297 100.313C170.266 100.236 170.252 100.153 170.254 100.07C170.254 99.9289 170.292 99.7907 170.364 99.6698L171.264 98.2698H169.424C169.339 98.2741 169.254 98.2603 169.175 98.2293C169.095 98.1983 169.023 98.1507 168.964 98.0898C168.861 97.9701 168.805 97.8175 168.805 97.6598C168.805 97.502 168.861 97.3494 168.964 97.2298C169.023 97.1688 169.095 97.1213 169.175 97.0902C169.254 97.0592 169.339 97.0454 169.424 97.0498L171.234 97.0998L170.384 95.7498C170.304 95.6166 170.259 95.4651 170.254 95.3098C170.252 95.2264 170.266 95.1435 170.297 95.0661C170.328 94.9887 170.375 94.9185 170.434 94.8598C170.49 94.8026 170.557 94.7572 170.631 94.7263C170.705 94.6954 170.784 94.6795 170.864 94.6797C170.976 94.6781 171.086 94.7095 171.18 94.7699C171.274 94.8304 171.349 94.9173 171.394 95.0198L172.274 96.5898L173.114 95.0898C173.167 94.973 173.251 94.8731 173.357 94.8008C173.462 94.7285 173.586 94.6866 173.714 94.6797C173.793 94.6797 173.87 94.6957 173.942 94.7267C174.015 94.7576 174.08 94.8029 174.134 94.8598C174.193 94.9147 174.239 94.9814 174.27 95.0555C174.301 95.1296 174.316 95.2094 174.314 95.2898C174.313 95.4318 174.271 95.5705 174.194 95.6898L173.314 97.0998L175.144 97.0498C175.229 97.0447 175.314 97.0582 175.394 97.0893C175.473 97.1204 175.545 97.1683 175.604 97.2298C175.707 97.3494 175.763 97.502 175.763 97.6598C175.763 97.8175 175.707 97.9701 175.604 98.0898C175.545 98.1512 175.473 98.1991 175.394 98.2302C175.314 98.2613 175.229 98.2748 175.144 98.2698H173.294L174.114 99.5498C174.206 99.7043 174.258 99.8798 174.264 100.06C174.267 100.141 174.253 100.222 174.224 100.297C174.195 100.373 174.151 100.442 174.094 100.5C174.041 100.556 173.978 100.601 173.907 100.632C173.837 100.663 173.761 100.679 173.684 100.68C173.56 100.678 173.439 100.64 173.336 100.571C173.233 100.502 173.152 100.404 173.104 100.29L172.274 98.8198L171.444 100.29C171.395 100.407 171.313 100.508 171.209 100.581C171.104 100.653 170.981 100.694 170.854 100.7Z" fill="black"/>
<path d="M180.073 100.7C179.994 100.7 179.916 100.684 179.844 100.653C179.772 100.622 179.707 100.577 179.653 100.52C179.594 100.461 179.547 100.391 179.516 100.313C179.485 100.236 179.47 100.153 179.473 100.07C179.473 99.9289 179.511 99.7907 179.583 99.6698L180.483 98.2698H178.643C178.558 98.2741 178.473 98.2603 178.393 98.2293C178.314 98.1983 178.242 98.1507 178.183 98.0898C178.08 97.9701 178.023 97.8175 178.023 97.6598C178.023 97.502 178.08 97.3494 178.183 97.2298C178.242 97.1688 178.314 97.1213 178.393 97.0902C178.473 97.0592 178.558 97.0454 178.643 97.0498L180.453 97.0998L179.603 95.7498C179.523 95.6166 179.478 95.4651 179.473 95.3098C179.47 95.2264 179.485 95.1435 179.516 95.0661C179.547 94.9887 179.594 94.9185 179.653 94.8598C179.709 94.8026 179.776 94.7572 179.85 94.7263C179.923 94.6954 180.003 94.6795 180.083 94.6797C180.195 94.6781 180.305 94.7095 180.399 94.7699C180.493 94.8304 180.568 94.9173 180.613 95.0198L181.493 96.5898L182.333 95.0898C182.386 94.973 182.47 94.8731 182.575 94.8008C182.681 94.7285 182.805 94.6866 182.933 94.6797C183.011 94.6797 183.089 94.6957 183.161 94.7267C183.233 94.7576 183.299 94.8029 183.353 94.8598C183.411 94.9147 183.458 94.9814 183.489 95.0555C183.52 95.1296 183.535 95.2094 183.533 95.2898C183.531 95.4318 183.49 95.5705 183.413 95.6898L182.533 97.0998L184.363 97.0498C184.448 97.0447 184.533 97.0582 184.612 97.0893C184.692 97.1204 184.764 97.1683 184.823 97.2298C184.926 97.3494 184.982 97.502 184.982 97.6598C184.982 97.8175 184.926 97.9701 184.823 98.0898C184.764 98.1512 184.692 98.1991 184.612 98.2302C184.533 98.2613 184.448 98.2748 184.363 98.2698H182.513L183.333 99.5498C183.425 99.7043 183.477 99.8798 183.483 100.06C183.486 100.141 183.472 100.222 183.443 100.297C183.414 100.373 183.369 100.442 183.313 100.5C183.26 100.556 183.197 100.601 183.126 100.632C183.056 100.663 182.98 100.679 182.903 100.68C182.779 100.677 182.659 100.638 182.556 100.569C182.453 100.5 182.372 100.403 182.323 100.29L181.493 98.8198L180.663 100.29C180.613 100.407 180.532 100.508 180.427 100.581C180.323 100.653 180.2 100.694 180.073 100.7Z" fill="black"/>
<path d="M189.213 100.7C189.135 100.7 189.057 100.684 188.985 100.653C188.913 100.622 188.848 100.577 188.793 100.52C188.734 100.461 188.688 100.391 188.657 100.313C188.626 100.236 188.611 100.153 188.613 100.07C188.618 99.9296 188.656 99.7926 188.723 99.6698L189.623 98.2698H187.783C187.698 98.2741 187.613 98.2603 187.534 98.2293C187.455 98.1983 187.383 98.1507 187.323 98.0898C187.221 97.9701 187.164 97.8175 187.164 97.6598C187.164 97.502 187.221 97.3494 187.323 97.2298C187.383 97.1688 187.455 97.1213 187.534 97.0902C187.613 97.0592 187.698 97.0454 187.783 97.0498L189.593 97.0998L188.743 95.7498C188.663 95.6166 188.618 95.4651 188.613 95.3098C188.611 95.2264 188.626 95.1435 188.657 95.0661C188.688 94.9887 188.734 94.9185 188.793 94.8598C188.849 94.8026 188.916 94.7572 188.99 94.7263C189.064 94.6954 189.143 94.6796 189.223 94.6798C189.335 94.6781 189.445 94.7095 189.54 94.7699C189.634 94.8304 189.708 94.9173 189.753 95.0198L190.633 96.5898L191.473 95.0898C191.526 94.973 191.61 94.8731 191.716 94.8008C191.822 94.7285 191.945 94.6866 192.073 94.6798C192.152 94.6785 192.23 94.694 192.303 94.725C192.375 94.756 192.44 94.8019 192.493 94.8598C192.552 94.9147 192.598 94.9814 192.629 95.0555C192.66 95.1296 192.675 95.2094 192.673 95.2898C192.672 95.4318 192.63 95.5705 192.553 95.6898L191.673 97.0998L193.503 97.0498C193.588 97.0447 193.674 97.0582 193.753 97.0893C193.833 97.1204 193.904 97.1683 193.963 97.2298C194.066 97.3494 194.123 97.502 194.123 97.6598C194.123 97.8175 194.066 97.9701 193.963 98.0898C193.904 98.1512 193.833 98.1991 193.753 98.2302C193.674 98.2613 193.588 98.2748 193.503 98.2698H191.653L192.473 99.5498C192.566 99.7043 192.617 99.8798 192.623 100.06C192.626 100.141 192.613 100.222 192.583 100.297C192.554 100.373 192.51 100.442 192.453 100.5C192.401 100.556 192.337 100.601 192.267 100.632C192.196 100.663 192.12 100.679 192.043 100.68C191.92 100.677 191.799 100.638 191.696 100.569C191.594 100.5 191.513 100.403 191.463 100.29L190.633 98.8198L189.803 100.29C189.754 100.407 189.672 100.508 189.568 100.581C189.463 100.653 189.34 100.694 189.213 100.7Z" fill="black"/>
<path d="M198.393 100.7C198.315 100.7 198.237 100.684 198.165 100.653C198.092 100.622 198.027 100.577 197.973 100.52C197.914 100.461 197.867 100.391 197.836 100.313C197.805 100.236 197.791 100.153 197.793 100.07C197.798 99.9296 197.835 99.7926 197.903 99.6698L198.803 98.2698H196.973C196.886 98.2749 196.8 98.2615 196.719 98.2305C196.638 98.1994 196.564 98.1515 196.503 98.0898C196.4 97.9701 196.344 97.8175 196.344 97.6598C196.344 97.502 196.4 97.3494 196.503 97.2298C196.564 97.168 196.638 97.1201 196.719 97.089C196.8 97.058 196.886 97.0446 196.973 97.0498L198.773 97.0998L197.923 95.7498C197.843 95.6166 197.798 95.4651 197.793 95.3098C197.791 95.2264 197.805 95.1435 197.836 95.0661C197.867 94.9887 197.914 94.9185 197.973 94.8598C198.029 94.8026 198.096 94.7572 198.17 94.7263C198.244 94.6954 198.323 94.6796 198.403 94.6798C198.515 94.6781 198.625 94.7095 198.719 94.7699C198.814 94.8304 198.888 94.9173 198.933 95.0198L199.813 96.5898L200.653 95.0898C200.706 94.973 200.79 94.8731 200.896 94.8008C201.001 94.7285 201.125 94.6866 201.253 94.6798C201.332 94.6785 201.41 94.694 201.482 94.725C201.555 94.756 201.62 94.8019 201.673 94.8598C201.732 94.9147 201.778 94.9814 201.809 95.0555C201.84 95.1296 201.855 95.2094 201.853 95.2898C201.852 95.4318 201.81 95.5705 201.733 95.6898L200.853 97.0998L202.683 97.0498C202.768 97.0447 202.853 97.0582 202.933 97.0893C203.012 97.1204 203.084 97.1683 203.143 97.2298C203.246 97.3494 203.302 97.502 203.302 97.6598C203.302 97.8175 203.246 97.9701 203.143 98.0898C203.084 98.1512 203.012 98.1991 202.933 98.2302C202.853 98.2613 202.768 98.2748 202.683 98.2698H200.833L201.653 99.5498C201.746 99.7043 201.797 99.8798 201.803 100.06C201.806 100.141 201.792 100.222 201.763 100.297C201.734 100.373 201.69 100.442 201.633 100.5C201.58 100.556 201.517 100.601 201.446 100.632C201.376 100.663 201.3 100.679 201.223 100.68C201.099 100.677 200.979 100.638 200.876 100.569C200.773 100.5 200.693 100.403 200.643 100.29L199.813 98.8198L198.983 100.29C198.934 100.407 198.852 100.508 198.748 100.581C198.643 100.653 198.52 100.694 198.393 100.7Z" fill="black"/>
<path d="M207.573 100.701C207.494 100.701 207.416 100.685 207.344 100.654C207.272 100.623 207.207 100.577 207.153 100.521C207.094 100.462 207.047 100.392 207.016 100.314C206.985 100.237 206.97 100.154 206.973 100.071C206.973 99.9297 207.011 99.7915 207.083 99.6705L207.983 98.2705H206.143C206.058 98.2749 205.973 98.2611 205.893 98.2301C205.814 98.199 205.742 98.1515 205.683 98.0905C205.58 97.9708 205.523 97.8183 205.523 97.6605C205.523 97.5028 205.58 97.3502 205.683 97.2305C205.742 97.1696 205.814 97.122 205.893 97.091C205.973 97.06 206.058 97.0462 206.143 97.0505L207.953 97.1005L207.073 95.8005C206.993 95.6674 206.948 95.5159 206.943 95.3605C206.94 95.2772 206.955 95.1943 206.986 95.1169C207.017 95.0395 207.064 94.9693 207.123 94.9105C207.179 94.8534 207.246 94.808 207.32 94.7771C207.393 94.7462 207.473 94.7303 207.553 94.7305C207.665 94.7289 207.775 94.7602 207.869 94.8207C207.963 94.8812 208.038 94.9681 208.083 95.0705L208.963 96.6405L209.803 95.1405C209.856 95.0238 209.94 94.9239 210.045 94.8516C210.151 94.7793 210.275 94.7374 210.403 94.7305C210.481 94.7293 210.56 94.7447 210.632 94.7757C210.704 94.8068 210.769 94.8527 210.823 94.9105C210.881 94.9655 210.928 95.0322 210.959 95.1063C210.99 95.1804 211.005 95.2602 211.003 95.3405C211.001 95.4825 210.96 95.6213 210.883 95.7405L210.003 97.1505L211.833 97.1005C211.918 97.0955 212.003 97.109 212.082 97.1401C212.162 97.1712 212.234 97.2191 212.293 97.2805C212.396 97.4002 212.452 97.5528 212.452 97.7105C212.452 97.8683 212.396 98.0209 212.293 98.1405C212.234 98.202 212.162 98.2499 212.082 98.281C212.003 98.3121 211.918 98.3256 211.833 98.3205H209.983L210.803 99.6005C210.895 99.755 210.947 99.9306 210.953 100.111C210.956 100.192 210.942 100.272 210.913 100.348C210.884 100.424 210.839 100.492 210.783 100.551C210.73 100.607 210.667 100.652 210.596 100.682C210.526 100.713 210.45 100.73 210.373 100.731C210.249 100.728 210.129 100.689 210.026 100.62C209.923 100.551 209.842 100.454 209.793 100.341L208.963 98.8705L208.133 100.341C208.079 100.444 207.999 100.532 207.901 100.595C207.802 100.658 207.689 100.695 207.573 100.701Z" fill="black"/>
<path d="M216.753 100.7C216.674 100.7 216.596 100.684 216.524 100.653C216.452 100.622 216.387 100.577 216.333 100.52C216.274 100.461 216.227 100.391 216.196 100.314C216.165 100.236 216.15 100.153 216.153 100.07C216.157 99.9298 216.195 99.7928 216.263 99.67L217.163 98.27H215.333C215.247 98.2764 215.162 98.2636 215.082 98.2324C215.003 98.2012 214.931 98.1526 214.873 98.09C214.764 97.9733 214.703 97.8196 214.703 97.66C214.703 97.5003 214.764 97.3466 214.873 97.23C214.931 97.1674 215.003 97.1187 215.082 97.0876C215.162 97.0564 215.247 97.0436 215.333 97.05L217.133 97.1L216.283 95.75C216.202 95.6168 216.158 95.4653 216.153 95.31C216.15 95.2282 216.164 95.1467 216.193 95.0704C216.223 94.9941 216.267 94.9244 216.324 94.8656C216.381 94.8069 216.449 94.7601 216.525 94.7282C216.6 94.6963 216.681 94.6799 216.763 94.68C216.875 94.6783 216.985 94.7097 217.079 94.7701C217.173 94.8306 217.248 94.9175 217.293 95.02L218.173 96.59L219.013 95.09C219.066 94.9733 219.15 94.8733 219.255 94.801C219.361 94.7287 219.485 94.6868 219.613 94.68C219.692 94.6774 219.77 94.6923 219.843 94.7234C219.915 94.7545 219.98 94.8011 220.033 94.86C220.091 94.9149 220.138 94.9816 220.169 95.0557C220.2 95.1298 220.215 95.2097 220.213 95.29C220.211 95.432 220.17 95.5707 220.093 95.69L219.213 97.1L221.043 97.05C221.128 97.045 221.213 97.0584 221.292 97.0895C221.372 97.1206 221.444 97.1685 221.503 97.23C221.605 97.3497 221.662 97.5022 221.662 97.66C221.662 97.8177 221.605 97.9703 221.503 98.09C221.444 98.1514 221.372 98.1993 221.292 98.2304C221.213 98.2615 221.128 98.275 221.043 98.27H219.193L220.013 99.55C220.105 99.7045 220.157 99.88 220.163 100.06C220.165 100.139 220.152 100.217 220.125 100.291C220.097 100.365 220.055 100.433 220.001 100.49C219.947 100.548 219.883 100.594 219.811 100.627C219.739 100.659 219.662 100.677 219.583 100.68C219.459 100.677 219.339 100.639 219.236 100.57C219.133 100.5 219.052 100.403 219.003 100.29L218.173 98.82L217.343 100.29C217.293 100.407 217.212 100.508 217.107 100.581C217.003 100.653 216.88 100.695 216.753 100.7Z" fill="black"/>
<path d="M225.932 100.7C225.854 100.7 225.776 100.684 225.704 100.653C225.632 100.622 225.567 100.577 225.512 100.52C225.453 100.461 225.407 100.391 225.376 100.314C225.345 100.236 225.33 100.153 225.332 100.07C225.337 99.9298 225.375 99.7928 225.442 99.67L226.342 98.27H224.502C224.419 98.2749 224.335 98.2613 224.257 98.2302C224.18 98.1991 224.11 98.1512 224.052 98.09C223.943 97.9733 223.883 97.8196 223.883 97.66C223.883 97.5003 223.943 97.3466 224.052 97.23C224.11 97.1687 224.18 97.1209 224.257 97.0898C224.335 97.0586 224.419 97.0451 224.502 97.05L226.312 97.1L225.462 95.75C225.382 95.6168 225.337 95.4653 225.332 95.31C225.33 95.2282 225.344 95.1467 225.373 95.0704C225.402 94.9941 225.447 94.9244 225.504 94.8656C225.561 94.8069 225.629 94.7601 225.704 94.7282C225.78 94.6963 225.861 94.6799 225.942 94.68C226.054 94.6783 226.164 94.7097 226.259 94.7701C226.353 94.8306 226.427 94.9175 226.472 95.02L227.352 96.59L228.192 95.09C228.245 94.9733 228.329 94.8733 228.435 94.801C228.541 94.7287 228.664 94.6868 228.792 94.68C228.871 94.6774 228.95 94.6923 229.022 94.7234C229.095 94.7545 229.16 94.8011 229.212 94.86C229.271 94.9149 229.317 94.9816 229.348 95.0557C229.379 95.1298 229.394 95.2097 229.392 95.29C229.391 95.432 229.349 95.5707 229.272 95.69L228.392 97.1L230.222 97.05C230.308 97.045 230.393 97.0584 230.472 97.0895C230.552 97.1206 230.623 97.1685 230.682 97.23C230.785 97.3497 230.842 97.5022 230.842 97.66C230.842 97.8177 230.785 97.9703 230.682 98.09C230.623 98.1514 230.552 98.1993 230.472 98.2304C230.393 98.2615 230.308 98.275 230.222 98.27H228.372L229.192 99.55C229.285 99.7045 229.337 99.88 229.342 100.06C229.345 100.139 229.332 100.217 229.304 100.291C229.277 100.365 229.235 100.433 229.181 100.49C229.127 100.548 229.062 100.594 228.991 100.627C228.919 100.659 228.841 100.677 228.762 100.68C228.639 100.677 228.518 100.639 228.415 100.57C228.313 100.5 228.232 100.403 228.182 100.29L227.352 98.82L226.522 100.29C226.473 100.407 226.391 100.508 226.287 100.581C226.183 100.653 226.059 100.695 225.932 100.7Z" fill="black"/>
<path d="M235.073 100.7C234.994 100.7 234.917 100.684 234.845 100.653C234.772 100.622 234.707 100.577 234.653 100.52C234.594 100.461 234.547 100.391 234.516 100.314C234.485 100.236 234.471 100.153 234.473 100.07C234.478 99.9298 234.515 99.7928 234.583 99.67L235.483 98.27H233.643C233.559 98.2749 233.476 98.2613 233.398 98.2302C233.32 98.1991 233.25 98.1512 233.193 98.09C233.084 97.9733 233.023 97.8196 233.023 97.66C233.023 97.5003 233.084 97.3466 233.193 97.23C233.25 97.1687 233.32 97.1209 233.398 97.0898C233.476 97.0586 233.559 97.0451 233.643 97.05L235.453 97.1L234.603 95.75C234.523 95.6168 234.478 95.4653 234.473 95.31C234.471 95.2266 234.485 95.1437 234.516 95.0663C234.547 94.9889 234.594 94.9187 234.653 94.86C234.709 94.8028 234.776 94.7574 234.85 94.7265C234.924 94.6956 235.003 94.6798 235.083 94.68C235.195 94.6783 235.305 94.7097 235.399 94.7701C235.493 94.8306 235.568 94.9175 235.613 95.02L236.493 96.59L237.333 95.09C237.386 94.9733 237.47 94.8733 237.576 94.801C237.681 94.7287 237.805 94.6868 237.933 94.68C238.012 94.6774 238.09 94.6923 238.163 94.7234C238.236 94.7545 238.3 94.8011 238.353 94.86C238.412 94.9149 238.458 94.9816 238.489 95.0557C238.52 95.1298 238.535 95.2097 238.533 95.29C238.532 95.432 238.49 95.5707 238.413 95.69L237.533 97.1L239.363 97.05C239.448 97.045 239.533 97.0584 239.613 97.0895C239.692 97.1206 239.764 97.1685 239.823 97.23C239.926 97.3497 239.982 97.5022 239.982 97.66C239.982 97.8177 239.926 97.9703 239.823 98.09C239.764 98.1514 239.692 98.1993 239.613 98.2304C239.533 98.2615 239.448 98.275 239.363 98.27H237.513L238.333 99.55C238.426 99.7045 238.477 99.88 238.483 100.06C238.486 100.141 238.472 100.222 238.443 100.297C238.414 100.373 238.37 100.442 238.313 100.5C238.26 100.556 238.197 100.601 238.126 100.632C238.056 100.663 237.98 100.679 237.903 100.68C237.779 100.677 237.659 100.639 237.556 100.57C237.453 100.5 237.372 100.403 237.323 100.29L236.493 98.82L235.663 100.29C235.614 100.407 235.532 100.508 235.428 100.581C235.323 100.653 235.2 100.695 235.073 100.7Z" fill="black"/>
<path d="M266.535 122.82H278.765" stroke="white" stroke-width="3" stroke-linecap="round" stroke-linejoin="round"/>
<path d="M96.9023 32.7695V114C96.9023 116.352 97.8369 118.608 99.5003 120.272C101.164 121.935 103.42 122.87 105.772 122.87H254.922" stroke="white" stroke-width="3" stroke-linecap="round" stroke-linejoin="round"/>
<path d="M96.9023 11.2305V23.4105" stroke="white" stroke-width="3" stroke-linecap="round" stroke-linejoin="round"/>
<path d="M383.658 350.304H6.47422C6.36813 350.304 6.26639 350.262 6.19138 350.187C6.11636 350.112 6.07422 350.01 6.07422 349.904C6.07422 349.798 6.11636 349.696 6.19138 349.621C6.26639 349.546 6.36813 349.504 6.47422 349.504H383.658C383.764 349.506 383.864 349.549 383.939 349.623C384.013 349.698 384.056 349.798 384.058 349.904C384.058 350.01 384.016 350.112 383.941 350.187C383.866 350.262 383.764 350.304 383.658 350.304Z" fill="#263238"/>
</svg>
