<svg width="400" height="400" viewBox="0 0 400 400" fill="none" xmlns="http://www.w3.org/2000/svg">
<g opacity="0.7">
<path d="M383.008 220.448C372.216 253.168 348.96 289.024 314.728 300.704C263.016 318.344 258.4 360.8 164.544 360.464C150.842 360.487 137.177 359.019 123.792 356.088C117.248 354.633 110.803 352.763 104.496 350.488C48.896 330.432 18.456 282.736 14.096 231.768C8.36805 164.736 53.992 130.912 83.696 110.968C113.4 91.024 147.32 17.008 239.592 16.568C253.678 16.4488 267.73 17.9521 281.472 21.048C312.8 28.248 345.04 45.584 364.408 72.008C365.853 73.992 367.248 76.024 368.592 78.104C394.744 118.768 397.728 175.84 383.008 220.448Z" fill="#8692D0"/>
<g opacity="0.7">
<path d="M383.008 220.448C372.216 253.168 348.96 289.024 314.728 300.704C263.016 318.344 258.4 360.8 164.544 360.464C150.842 360.487 137.177 359.019 123.792 356.088C117.248 354.633 110.803 352.763 104.496 350.488C48.896 330.432 18.456 282.736 14.096 231.768C8.36805 164.736 53.992 130.912 83.696 110.968C113.4 91.024 147.32 17.008 239.592 16.568C253.678 16.4488 267.73 17.9521 281.472 21.048C312.8 28.248 345.04 45.584 364.408 72.008C365.853 73.992 367.248 76.024 368.592 78.104C394.744 118.768 397.728 175.84 383.008 220.448Z" fill="#8692D0"/>
<path d="M383.008 220.448C372.216 253.168 348.96 289.024 314.728 300.704C263.016 318.344 258.4 360.8 164.544 360.464C150.842 360.487 137.177 359.019 123.792 356.088C117.248 354.633 110.803 352.763 104.496 350.488C48.896 330.432 18.456 282.736 14.096 231.768C8.36805 164.736 53.992 130.912 83.696 110.968C113.4 91.024 147.32 17.008 239.592 16.568C253.678 16.4488 267.73 17.9521 281.472 21.048C312.8 28.248 345.04 45.584 364.408 72.008C365.853 73.992 367.248 76.024 368.592 78.104C394.744 118.768 397.728 175.84 383.008 220.448Z" fill="white" fill-opacity="0.6"/>
</g>
</g>
<path d="M343.896 36.072H73.2964C71.5672 36.072 69.9088 36.7589 68.686 37.9817C67.4633 39.2044 66.7764 40.8628 66.7764 42.592V253.24C66.7764 254.969 67.4633 256.628 68.686 257.85C69.9088 259.073 71.5672 259.76 73.2964 259.76H237.424L256.624 274.688L253.728 259.76H343.896C345.626 259.76 347.284 259.073 348.507 257.85C349.729 256.628 350.416 254.969 350.416 253.24V42.592C350.416 40.8628 349.729 39.2044 348.507 37.9817C347.284 36.7589 345.626 36.072 343.896 36.072Z" fill="#8692D0"/>
<g opacity="0.15">
<path d="M66.7764 249.536V253.24C66.7755 253.664 66.8157 254.088 66.8964 254.504C67.3684 252.8 67.5124 250.792 66.7764 249.536Z" fill="black"/>
<path d="M68.5684 257.72C69.1752 258.365 69.9078 258.879 70.721 259.23C71.5342 259.581 72.4107 259.761 73.2964 259.76H75.3364C73.9764 258.088 70.4564 257.504 68.5684 257.72Z" fill="black"/>
<path d="M299.528 157.488C299.616 157.488 295.92 152.688 295.648 152.4C292.552 149.2 284.688 144.888 280.224 147.104C277.024 148.704 276.288 152.704 278.12 155.608C279.952 158.512 284.12 159.864 287.432 160.144C291.312 160.48 299.528 157.488 299.528 157.488Z" fill="black"/>
<path d="M163.856 258.632C162.672 257.904 161.576 257.144 160.528 256.384C160.984 255.584 163.016 252.136 163.24 250.208C163.464 248.28 163.24 245.952 161.792 244.608C161.468 244.278 161.078 244.019 160.648 243.849C160.217 243.679 159.756 243.601 159.294 243.621C158.832 243.641 158.378 243.757 157.964 243.963C157.55 244.169 157.183 244.459 156.888 244.816C155.176 247.016 156.672 251.808 158.072 253.864C158.144 253.976 159.048 255.032 159.672 255.784C159.2 255.432 158.712 255.08 158.272 254.736C156.608 253.44 155.168 252.152 153.904 251C153.184 250.344 152.552 249.728 151.968 249.152C152.024 248.176 152.2 244.24 151.528 242.456C150.856 240.672 149.544 238.696 147.656 238.144C147.219 237.999 146.757 237.946 146.299 237.99C145.841 238.035 145.397 238.174 144.996 238.4C144.595 238.626 144.246 238.934 143.971 239.303C143.696 239.672 143.502 240.095 143.4 240.544C142.896 243.28 146.432 246.848 148.616 248.032C148.808 248.136 151.944 249.384 151.952 249.336V249.28C152.512 249.848 153.112 250.448 153.776 251.096C155.024 252.272 156.44 253.592 158.08 254.928C159.829 256.391 161.664 257.748 163.576 258.992L164.776 259.736H165.76C165.136 259.392 164.48 259.016 163.856 258.632Z" fill="black"/>
<path d="M160.001 256.456C160.001 256.416 156.801 255.32 156.617 255.28C154.217 254.752 149.185 255.16 147.817 257.568C147.435 258.231 147.315 259.013 147.481 259.76H157.225C158.216 258.715 159.143 257.612 160.001 256.456Z" fill="black"/>
</g>
<path d="M289.04 79.08H128.153C124.375 79.08 121.312 82.1424 121.312 85.92V209.912C121.312 213.69 124.375 216.752 128.153 216.752H289.04C292.818 216.752 295.881 213.69 295.881 209.912V85.92C295.881 82.1424 292.818 79.08 289.04 79.08Z" fill="white"/>
<path d="M289.04 217.152H128.152C126.233 217.15 124.392 216.386 123.035 215.029C121.678 213.672 120.914 211.832 120.912 209.912V85.912C120.914 83.9925 121.678 82.1522 123.035 80.7949C124.392 79.4376 126.233 78.6741 128.152 78.672H289.04C290.96 78.6741 292.8 79.4376 294.157 80.7949C295.515 82.1522 296.278 83.9925 296.28 85.912V209.912C296.278 211.832 295.515 213.672 294.157 215.029C292.8 216.386 290.96 217.15 289.04 217.152ZM128.152 79.48C126.445 79.4821 124.808 80.1613 123.601 81.3686C122.393 82.5758 121.714 84.2127 121.712 85.92V209.92C121.714 211.627 122.393 213.264 123.601 214.471C124.808 215.679 126.445 216.358 128.152 216.36H289.04C290.747 216.358 292.384 215.679 293.592 214.471C294.799 213.264 295.478 211.627 295.48 209.92V85.92C295.478 84.2127 294.799 82.5758 293.592 81.3686C292.384 80.1613 290.747 79.4821 289.04 79.48H128.152Z" fill="#263238"/>
<path d="M235.616 95.696C235.616 101.041 234.031 106.266 231.061 110.711C228.092 115.155 223.871 118.619 218.932 120.664C213.994 122.709 208.56 123.244 203.317 122.2C198.075 121.157 193.26 118.582 189.481 114.802C185.702 111.022 183.128 106.206 182.087 100.963C181.045 95.7205 181.581 90.2867 183.628 85.3488C185.674 80.411 189.139 76.1909 193.584 73.2225C198.03 70.254 203.255 68.6704 208.6 68.672C212.153 68.6582 215.673 69.3479 218.957 70.7012C222.242 72.0545 225.226 74.0447 227.737 76.5569C230.249 79.0692 232.238 82.0538 233.59 85.3387C234.943 88.6236 235.631 92.1437 235.616 95.696Z" fill="white"/>
<path d="M208.601 123.112C202.11 123.118 195.828 120.823 190.87 116.636C185.911 112.448 182.598 106.638 181.518 100.239C180.437 93.8391 181.661 87.2637 184.97 81.6806C188.279 76.0974 193.46 71.868 199.593 69.7436C205.726 67.6192 212.413 67.7373 218.467 70.077C224.521 72.4166 229.549 76.8264 232.659 82.5229C235.769 88.2194 236.759 94.8339 235.454 101.191C234.149 107.549 230.632 113.238 225.529 117.248C220.702 121.044 214.741 123.109 208.601 123.112ZM208.601 69.072C203.063 69.0692 197.663 70.7935 193.152 74.0048C188.641 77.216 185.244 81.7543 183.433 86.9874C181.623 92.2205 181.49 97.8879 183.053 103.2C184.616 108.512 187.797 113.205 192.153 116.624C196.83 120.333 202.631 122.338 208.601 122.312C215.581 122.191 222.234 119.333 227.128 114.354C232.021 109.375 234.763 102.673 234.763 95.692C234.763 88.7108 232.021 82.0089 227.128 77.0298C222.234 72.0508 215.581 69.193 208.601 69.072Z" fill="#263238"/>
<path d="M219.881 91.464C219.882 89.2308 219.221 87.0472 217.982 85.1897C216.742 83.3322 214.979 81.8841 212.916 81.0288C210.853 80.1734 208.583 79.9492 206.392 80.3845C204.202 80.8198 202.19 81.895 200.611 83.4742C199.032 85.0533 197.956 87.0654 197.521 89.2558C197.086 91.4462 197.31 93.7165 198.165 95.7794C199.021 97.8424 200.469 99.6052 202.326 100.845C204.184 102.085 206.367 102.746 208.601 102.744C211.592 102.744 214.461 101.556 216.577 99.4402C218.692 97.3248 219.881 94.4556 219.881 91.464Z" fill="#263238"/>
<path d="M208.6 103.144C206.29 103.144 204.032 102.459 202.111 101.176C200.19 99.8922 198.693 98.068 197.809 95.9337C196.925 93.7995 196.694 91.451 197.144 89.1853C197.595 86.9196 198.707 84.8385 200.341 83.205C201.974 81.5715 204.056 80.4591 206.321 80.0084C208.587 79.5578 210.935 79.7891 213.07 80.6731C215.204 81.5571 217.028 83.0542 218.311 84.9749C219.595 86.8957 220.28 89.1539 220.28 91.464C220.274 94.5598 219.041 97.527 216.852 99.716C214.663 101.905 211.696 103.138 208.6 103.144ZM208.6 80.584C206.448 80.584 204.345 81.2221 202.555 82.4176C200.766 83.6131 199.372 85.3123 198.548 87.3004C197.725 89.2885 197.509 91.4761 197.929 93.5866C198.349 95.6971 199.385 97.6357 200.907 99.1573C202.428 100.679 204.367 101.715 206.477 102.135C208.588 102.555 210.775 102.339 212.764 101.516C214.752 100.692 216.451 99.2978 217.646 97.5086C218.842 95.7194 219.48 93.6159 219.48 91.464C219.476 88.5797 218.328 85.8148 216.289 83.7754C214.249 81.7359 211.484 80.5882 208.6 80.584Z" fill="#263238"/>
<path d="M225.288 116.936C220.531 120.678 214.653 122.713 208.6 122.713C202.547 122.713 196.67 120.678 191.912 116.936C192.75 113.134 194.86 109.731 197.895 107.292C200.93 104.853 204.707 103.524 208.6 103.524C212.494 103.524 216.27 104.853 219.305 107.292C222.34 109.731 224.451 113.134 225.288 116.936Z" fill="#263238"/>
<path d="M208.6 123.112C202.457 123.111 196.492 121.046 191.664 117.248C191.605 117.202 191.56 117.139 191.534 117.069C191.509 116.998 191.504 116.921 191.52 116.848C192.372 112.953 194.53 109.467 197.636 106.967C200.742 104.467 204.609 103.104 208.596 103.104C212.583 103.104 216.45 104.467 219.556 106.967C222.662 109.467 224.82 112.953 225.672 116.848C225.689 116.921 225.685 116.997 225.661 117.067C225.637 117.138 225.594 117.201 225.536 117.248C220.707 121.045 214.743 123.11 208.6 123.112ZM192.352 116.8C196.995 120.414 202.717 122.363 208.6 122.336C214.476 122.335 220.187 120.388 224.84 116.8C223.978 113.139 221.905 109.876 218.956 107.541C216.008 105.206 212.357 103.936 208.596 103.936C204.835 103.936 201.184 105.206 198.236 107.541C195.287 109.876 193.214 113.139 192.352 116.8Z" fill="#263238"/>
<path d="M254.84 167.744H162.352C162.246 167.744 162.144 167.702 162.069 167.627C161.994 167.552 161.952 167.45 161.952 167.344V152.8C161.952 152.694 161.994 152.592 162.069 152.517C162.144 152.442 162.246 152.4 162.352 152.4H254.84C254.946 152.4 255.048 152.442 255.123 152.517C255.198 152.592 255.24 152.694 255.24 152.8V167.336C255.241 167.389 255.232 167.442 255.212 167.492C255.192 167.541 255.163 167.586 255.126 167.624C255.089 167.662 255.044 167.692 254.995 167.713C254.946 167.733 254.893 167.744 254.84 167.744ZM162.752 166.944H254.44V153.208H162.752V166.944Z" fill="#263238"/>
<path d="M254.84 196.184H162.352C162.246 196.184 162.144 196.142 162.069 196.067C161.994 195.992 161.952 195.89 161.952 195.784V181.24C161.952 181.134 161.994 181.032 162.069 180.957C162.144 180.882 162.246 180.84 162.352 180.84H254.84C254.946 180.84 255.048 180.882 255.123 180.957C255.198 181.032 255.24 181.134 255.24 181.24V195.784C255.24 195.89 255.198 195.992 255.123 196.067C255.048 196.142 254.946 196.184 254.84 196.184ZM162.752 195.384H254.44V181.64H162.752V195.384Z" fill="#263238"/>
<path d="M193.673 163.688C193.267 163.71 192.865 163.607 192.521 163.392C192.249 163.182 192.057 162.886 191.977 162.552C191.874 162.136 191.826 161.708 191.833 161.28V156.704H192.753V161.328C192.75 161.596 192.769 161.863 192.809 162.128C192.835 162.343 192.927 162.544 193.073 162.704C193.243 162.844 193.456 162.92 193.677 162.92C193.897 162.92 194.11 162.844 194.281 162.704C194.421 162.541 194.51 162.341 194.537 162.128C194.576 161.863 194.595 161.596 194.593 161.328V156.704H195.505V161.28C195.511 161.708 195.463 162.136 195.361 162.552C195.28 162.886 195.089 163.182 194.817 163.392C194.476 163.609 194.076 163.713 193.673 163.688Z" fill="#CCCCCC"/>
<path d="M198.152 163.688C197.804 163.7 197.459 163.611 197.16 163.432C196.891 163.261 196.679 163.013 196.552 162.72C196.407 162.389 196.329 162.033 196.32 161.672L197.168 161.448C197.184 161.686 197.224 161.922 197.288 162.152C197.335 162.36 197.434 162.553 197.576 162.712C197.736 162.848 197.939 162.923 198.148 162.923C198.358 162.923 198.561 162.848 198.72 162.712C198.858 162.544 198.927 162.329 198.912 162.112C198.934 161.828 198.858 161.546 198.696 161.312C198.533 161.106 198.354 160.913 198.16 160.736L197 159.712C196.785 159.537 196.612 159.316 196.496 159.064C196.38 158.788 196.325 158.491 196.336 158.192C196.322 157.977 196.353 157.761 196.428 157.558C196.502 157.356 196.618 157.171 196.768 157.016C196.927 156.869 197.113 156.756 197.317 156.683C197.52 156.61 197.737 156.579 197.952 156.592C198.197 156.589 198.44 156.627 198.672 156.704C198.871 156.767 199.05 156.88 199.192 157.032C199.346 157.19 199.461 157.382 199.528 157.592C199.616 157.851 199.672 158.12 199.696 158.392L198.896 158.616C198.883 158.403 198.851 158.191 198.8 157.984C198.752 157.81 198.658 157.653 198.528 157.528C198.414 157.432 198.274 157.37 198.126 157.35C197.978 157.329 197.827 157.351 197.69 157.411C197.554 157.472 197.437 157.57 197.353 157.694C197.269 157.818 197.222 157.963 197.216 158.112C197.211 158.292 197.249 158.47 197.328 158.632C197.418 158.79 197.534 158.93 197.672 159.048L198.84 160.072C199.106 160.305 199.337 160.575 199.528 160.872C199.736 161.208 199.842 161.597 199.832 161.992C199.842 162.3 199.767 162.604 199.616 162.872C199.481 163.114 199.278 163.312 199.032 163.44C198.766 163.599 198.462 163.684 198.152 163.688Z" fill="#CCCCCC"/>
<path d="M200.553 163.608V156.704H203.201V157.416H201.521V159.704H202.913V160.384H201.521V162.92H203.249V163.608H200.553Z" fill="#CCCCCC"/>
<path d="M204 163.608V156.704H205.392C205.782 156.69 206.17 156.753 206.536 156.888C206.819 156.998 207.055 157.205 207.2 157.472C207.364 157.802 207.441 158.168 207.424 158.536C207.425 158.781 207.396 159.026 207.336 159.264C207.286 159.466 207.194 159.654 207.064 159.816C206.935 159.972 206.762 160.086 206.568 160.144L207.552 163.608H206.64L205.736 160.408H204.992V163.608H204ZM204.968 159.68H205.328C205.557 159.689 205.785 159.654 206 159.576C206.09 159.547 206.173 159.498 206.242 159.433C206.312 159.368 206.365 159.288 206.4 159.2C206.49 158.982 206.531 158.747 206.52 158.512C206.546 158.205 206.47 157.899 206.304 157.64C206.186 157.534 206.046 157.455 205.894 157.408C205.742 157.361 205.582 157.347 205.424 157.368H205L204.968 159.68Z" fill="#CCCCCC"/>
<path d="M208.448 163.608V156.704H209.112L211.072 161.288V156.704H211.872V163.608H211.256L209.272 158.896V163.608H208.448Z" fill="#CCCCCC"/>
<path d="M212.576 163.608L214.048 156.704H214.976L216.448 163.608H215.536L215.224 161.872H213.816L213.48 163.608H212.576ZM213.944 161.208H215.096L214.512 158.096L213.944 161.208Z" fill="#CCCCCC"/>
<path d="M217.137 163.608L217.265 156.704H218.209L219.425 162.304L220.657 156.704H221.601L221.729 163.608H220.929L220.849 158.592L219.681 163.608H219.137L217.977 158.592L217.905 163.608H217.137Z" fill="#CCCCCC"/>
<path d="M222.776 163.608V156.704H225.456V157.416H223.744V159.704H225.128V160.384H223.744V162.92H225.472V163.608H222.776Z" fill="#CCCCCC"/>
<path d="M191.2 192.192V185.28H192.912C193.257 185.262 193.6 185.34 193.904 185.504C194.154 185.655 194.346 185.886 194.448 186.16C194.569 186.49 194.626 186.84 194.616 187.192C194.624 187.517 194.558 187.84 194.424 188.136C194.304 188.396 194.105 188.611 193.856 188.752C193.571 188.912 193.247 188.99 192.92 188.976H192.12V192.176L191.2 192.192ZM192.16 188.28H192.6C192.825 188.287 193.049 188.257 193.264 188.192C193.415 188.131 193.536 188.013 193.6 187.864C193.679 187.652 193.715 187.426 193.704 187.2C193.712 186.945 193.688 186.689 193.632 186.44C193.613 186.36 193.575 186.285 193.523 186.221C193.47 186.157 193.404 186.106 193.328 186.072C193.099 185.993 192.858 185.958 192.616 185.968H192.16V188.28Z" fill="#CCCCCC"/>
<path d="M194.616 192.192L196.08 185.28H197.008L198.488 192.192H197.6L197.28 190.448H195.872L195.544 192.192H194.616ZM195.976 189.792H197.128L196.552 186.68L195.976 189.792Z" fill="#CCCCCC"/>
<path d="M200.801 192.264C200.452 192.276 200.108 192.187 199.809 192.008C199.544 191.838 199.335 191.593 199.209 191.304C199.062 190.971 198.98 190.612 198.969 190.248L199.817 190.024C199.832 190.262 199.872 190.498 199.937 190.728C199.982 190.937 200.081 191.13 200.225 191.288C200.384 191.424 200.587 191.499 200.797 191.499C201.006 191.499 201.209 191.424 201.369 191.288C201.507 191.12 201.576 190.905 201.561 190.688C201.575 190.42 201.499 190.155 201.345 189.936C201.186 189.727 201.006 189.534 200.809 189.36L199.649 188.336C199.438 188.154 199.266 187.931 199.145 187.68C199.031 187.404 198.977 187.107 198.985 186.808C198.974 186.593 199.007 186.378 199.081 186.176C199.155 185.974 199.269 185.789 199.417 185.632C199.576 185.486 199.763 185.375 199.966 185.303C200.17 185.232 200.386 185.202 200.601 185.216C200.845 185.21 201.088 185.246 201.321 185.32C201.519 185.383 201.699 185.496 201.841 185.648C201.993 185.808 202.107 185.999 202.177 186.208C202.264 186.467 202.321 186.736 202.345 187.008L201.545 187.232C201.531 187.022 201.499 186.813 201.449 186.608C201.403 186.431 201.308 186.271 201.177 186.144C201.021 186.018 200.824 185.956 200.625 185.968C200.515 185.948 200.403 185.955 200.297 185.988C200.19 186.021 200.094 186.08 200.015 186.158C199.936 186.237 199.878 186.334 199.845 186.44C199.812 186.546 199.805 186.659 199.825 186.768C199.819 186.948 199.858 187.126 199.937 187.288C200.024 187.447 200.141 187.588 200.281 187.704L201.449 188.728C201.714 188.961 201.946 189.231 202.137 189.528C202.344 189.864 202.449 190.253 202.441 190.648C202.449 190.958 202.375 191.265 202.225 191.536C202.087 191.776 201.885 191.973 201.641 192.104C201.377 192.222 201.089 192.277 200.801 192.264Z" fill="#CCCCCC"/>
<path d="M204.849 192.264C204.5 192.276 204.156 192.187 203.857 192.008C203.592 191.838 203.383 191.593 203.257 191.304C203.114 190.969 203.032 190.612 203.017 190.248L203.865 190.024C203.884 190.262 203.924 190.497 203.985 190.728C204.032 190.938 204.134 191.131 204.281 191.288C204.438 191.425 204.64 191.501 204.849 191.501C205.057 191.501 205.259 191.425 205.417 191.288C205.555 191.12 205.624 190.905 205.609 190.688C205.623 190.42 205.547 190.155 205.393 189.936C205.234 189.727 205.054 189.534 204.857 189.36L203.697 188.336C203.485 188.154 203.314 187.931 203.193 187.68C203.079 187.404 203.025 187.107 203.033 186.808C203.022 186.593 203.054 186.378 203.129 186.176C203.203 185.974 203.317 185.789 203.465 185.632C203.791 185.341 204.22 185.192 204.657 185.216C204.901 185.21 205.144 185.246 205.377 185.32C205.574 185.385 205.753 185.497 205.897 185.648C206.043 185.81 206.155 186.001 206.225 186.208C206.316 186.466 206.372 186.735 206.393 187.008L205.593 187.232C205.576 187.021 205.541 186.813 205.489 186.608C205.442 186.431 205.348 186.271 205.217 186.144C205.063 186.02 204.869 185.958 204.673 185.968C204.468 185.958 204.268 186.027 204.113 186.16C204.042 186.236 203.987 186.325 203.953 186.423C203.918 186.521 203.905 186.625 203.913 186.728C203.905 186.907 203.941 187.086 204.017 187.248C204.104 187.407 204.221 187.548 204.361 187.664L205.529 188.688C205.797 188.921 206.031 189.19 206.225 189.488C206.425 189.827 206.527 190.214 206.521 190.608C206.529 190.918 206.455 191.225 206.305 191.496C206.167 191.736 205.965 191.933 205.721 192.064C205.451 192.202 205.151 192.271 204.849 192.264Z" fill="#CCCCCC"/>
<path d="M208.152 192.192L207.024 185.28H207.824L208.568 190.24L209.496 185.304H210.176L211.12 190.272L211.84 185.28H212.64L211.536 192.192H210.832L209.872 187.072L208.896 192.192H208.152Z" fill="#CCCCCC"/>
<path d="M215.2 192.264C214.808 192.284 214.419 192.19 214.08 191.992C213.797 191.802 213.587 191.519 213.488 191.192C213.359 190.811 213.297 190.41 213.304 190.008V187.384C213.297 186.987 213.359 186.592 213.488 186.216C213.597 185.904 213.808 185.639 214.088 185.464C214.427 185.275 214.813 185.186 215.2 185.208C215.586 185.188 215.969 185.28 216.304 185.472C216.58 185.648 216.791 185.909 216.904 186.216C217.03 186.592 217.09 186.987 217.08 187.384V190.016C217.089 190.415 217.03 190.813 216.904 191.192C216.799 191.518 216.587 191.799 216.304 191.992C215.973 192.194 215.588 192.289 215.2 192.264ZM215.2 191.464C215.405 191.482 215.61 191.425 215.776 191.304C215.916 191.195 216.01 191.038 216.04 190.864C216.091 190.644 216.116 190.418 216.112 190.192V187.2C216.116 186.977 216.092 186.753 216.04 186.536C216.01 186.366 215.915 186.214 215.776 186.112C215.605 186.001 215.404 185.948 215.2 185.96C214.995 185.949 214.791 186.002 214.616 186.112C214.477 186.216 214.381 186.367 214.344 186.536C214.3 186.754 214.278 186.977 214.28 187.2V190.224C214.279 190.45 214.3 190.675 214.344 190.896C214.384 191.069 214.479 191.223 214.616 191.336C214.785 191.459 214.992 191.518 215.2 191.504V191.464Z" fill="#CCCCCC"/>
<path d="M218 192.192V185.28H219.392C219.779 185.269 220.164 185.331 220.528 185.464C220.817 185.572 221.056 185.783 221.2 186.056C221.357 186.385 221.431 186.748 221.416 187.112C221.42 187.357 221.393 187.602 221.336 187.84C221.287 188.044 221.194 188.235 221.064 188.4C220.931 188.552 220.76 188.665 220.568 188.728L221.544 192.192H220.616L219.712 188.944H218.96V192.192H218ZM218.96 188.256H219.328C219.554 188.265 219.78 188.23 219.992 188.152C220.074 188.122 220.15 188.077 220.214 188.018C220.279 187.958 220.331 187.887 220.368 187.808C220.458 187.587 220.499 187.35 220.488 187.112C220.516 186.804 220.437 186.496 220.264 186.24C220.146 186.136 220.008 186.057 219.857 186.01C219.707 185.963 219.548 185.949 219.392 185.968H218.96V188.256Z" fill="#CCCCCC"/>
<path d="M222.4 192.192V185.28H223.904C224.322 185.263 224.738 185.342 225.12 185.512C225.409 185.665 225.635 185.914 225.76 186.216C225.896 186.59 225.958 186.986 225.944 187.384V189.928C225.958 190.349 225.895 190.769 225.76 191.168C225.643 191.484 225.423 191.751 225.136 191.928C224.781 192.12 224.38 192.212 223.976 192.192H222.4ZM223.36 191.496H223.912C224.179 191.522 224.446 191.451 224.664 191.296C224.821 191.134 224.914 190.921 224.928 190.696C224.963 190.383 224.979 190.067 224.976 189.752V187.504C224.982 187.214 224.958 186.925 224.904 186.64C224.891 186.543 224.858 186.449 224.807 186.365C224.756 186.281 224.689 186.209 224.608 186.152C224.388 186.033 224.138 185.98 223.888 186H223.36V191.496Z" fill="#CCCCCC"/>
<path d="M193.992 141.928V130.728H195.552V140.8H198.4V141.912L193.992 141.928Z" fill="#263238"/>
<path d="M202.256 142.056C201.623 142.092 200.994 141.939 200.448 141.616C199.991 141.317 199.65 140.871 199.48 140.352C199.277 139.722 199.183 139.062 199.2 138.4V134.16C199.187 133.512 199.29 132.867 199.504 132.256C199.681 131.756 200.019 131.328 200.464 131.04C201.017 130.736 201.643 130.592 202.272 130.624C202.898 130.59 203.52 130.737 204.064 131.048C204.513 131.333 204.851 131.762 205.024 132.264C205.236 132.873 205.337 133.515 205.32 134.16V138.4C205.334 139.05 205.234 139.697 205.024 140.312C204.852 140.827 204.515 141.272 204.064 141.576C203.523 141.913 202.893 142.08 202.256 142.056ZM202.256 140.824C202.589 140.851 202.92 140.76 203.192 140.568C203.417 140.386 203.57 140.131 203.624 139.848C203.703 139.494 203.741 139.131 203.736 138.768V133.864C203.741 133.504 203.703 133.144 203.624 132.792C203.567 132.518 203.414 132.274 203.192 132.104C202.915 131.924 202.586 131.84 202.256 131.864C201.924 131.844 201.594 131.928 201.312 132.104C201.086 132.271 200.929 132.516 200.872 132.792C200.794 133.144 200.756 133.504 200.76 133.864V138.768C200.756 139.131 200.794 139.494 200.872 139.848C200.926 140.134 201.083 140.39 201.312 140.568C201.591 140.751 201.924 140.833 202.256 140.8V140.824Z" fill="#263238"/>
<path d="M209.512 142.072C208.919 142.101 208.332 141.945 207.832 141.624C207.392 141.299 207.071 140.838 206.92 140.312C206.714 139.647 206.617 138.952 206.632 138.256V134.512C206.62 133.805 206.706 133.099 206.888 132.416C207.034 131.887 207.355 131.424 207.8 131.104C208.351 130.771 208.99 130.612 209.632 130.648C210.218 130.62 210.802 130.741 211.328 131C211.756 131.235 212.085 131.616 212.256 132.072C212.465 132.66 212.563 133.281 212.544 133.904V134.32H211.08V133.976C211.088 133.574 211.056 133.172 210.984 132.776C210.943 132.506 210.803 132.261 210.592 132.088C210.315 131.916 209.99 131.838 209.664 131.864C209.3 131.831 208.938 131.943 208.656 132.176C208.438 132.415 208.303 132.718 208.272 133.04C208.219 133.451 208.192 133.865 208.192 134.28V138.4C208.184 138.848 208.225 139.296 208.312 139.736C208.364 140.047 208.522 140.33 208.76 140.536C209.036 140.728 209.369 140.821 209.704 140.8C210.041 140.822 210.374 140.72 210.64 140.512C210.883 140.285 211.043 139.984 211.096 139.656C211.191 139.193 211.234 138.721 211.224 138.248V137.448H209.8V136.344H212.632V141.88H211.648L211.496 140.6C211.362 140.996 211.125 141.35 210.808 141.624C210.445 141.926 209.984 142.085 209.512 142.072Z" fill="#263238"/>
<path d="M214.312 141.928V130.728H215.848V141.928H214.312Z" fill="#263238"/>
<path d="M217.656 141.928V130.728H218.72L221.92 138.16V130.728H223.2V141.928H222.2L219 134.288V141.928H217.656Z" fill="#263238"/>
<path d="M326.305 352.056H187.729V378.904H326.305V352.056Z" fill="white"/>
<path d="M326.304 379.304H187.728C187.622 379.304 187.52 379.262 187.445 379.187C187.37 379.112 187.328 379.01 187.328 378.904V352.056C187.328 351.95 187.37 351.848 187.445 351.773C187.52 351.698 187.622 351.656 187.728 351.656H326.304C326.41 351.656 326.512 351.698 326.587 351.773C326.662 351.848 326.704 351.95 326.704 352.056V378.904C326.704 379.01 326.662 379.112 326.587 379.187C326.512 379.262 326.41 379.304 326.304 379.304ZM188.128 378.504H325.904V352.456H188.128V378.504Z" fill="#263238"/>
<path d="M326.305 352.056H187.729V361.016H326.305V352.056Z" fill="#263238"/>
<path d="M326.304 361.416H187.728C187.622 361.416 187.52 361.374 187.445 361.299C187.37 361.224 187.328 361.122 187.328 361.016V352.056C187.328 351.95 187.37 351.848 187.445 351.773C187.52 351.698 187.622 351.656 187.728 351.656H326.304C326.41 351.656 326.512 351.698 326.587 351.773C326.662 351.848 326.704 351.95 326.704 352.056V361.016C326.704 361.122 326.662 361.224 326.587 361.299C326.512 361.374 326.41 361.416 326.304 361.416ZM188.128 360.616H325.904V352.456H188.128V360.616Z" fill="#263238"/>
<path d="M330.384 352.056H183.648V356.832H330.384V352.056Z" fill="white"/>
<path d="M330.4 357.232H183.648C183.542 357.232 183.44 357.19 183.365 357.115C183.29 357.04 183.248 356.938 183.248 356.832V352.032C183.248 351.926 183.29 351.824 183.365 351.749C183.44 351.674 183.542 351.632 183.648 351.632H330.4C330.506 351.632 330.608 351.674 330.683 351.749C330.758 351.824 330.8 351.926 330.8 352.032V356.832C330.8 356.938 330.758 357.04 330.683 357.115C330.608 357.19 330.506 357.232 330.4 357.232ZM184.064 356.432H329.984V352.432H184.048L184.064 356.432Z" fill="#263238"/>
<path d="M279.488 342.976L262.184 299.904C262.148 299.732 262.074 299.57 261.968 299.429C261.862 299.289 261.727 299.173 261.572 299.091C261.416 299.009 261.244 298.962 261.069 298.953C260.893 298.945 260.717 298.975 260.555 299.042C260.392 299.108 260.246 299.21 260.127 299.34C260.008 299.469 259.919 299.623 259.866 299.791C259.813 299.959 259.797 300.136 259.821 300.31C259.844 300.485 259.905 300.652 260 300.8L277.296 343.872C277.511 344.422 277.614 345.01 277.6 345.6C277.598 346.822 277.112 347.994 276.249 348.859C275.385 349.724 274.215 350.212 272.992 350.216H259.152V352.616H272.992C274.852 352.614 276.634 351.874 277.948 350.558C279.262 349.243 280 347.459 280 345.6C280.001 344.7 279.827 343.809 279.488 342.976Z" fill="#263238"/>
<path d="M267.285 257.292L262.709 256.834L254.52 338.73L259.096 339.188L267.285 257.292Z" fill="white"/>
<path d="M258.592 337.384H258.552L253.992 336.936C253.94 336.931 253.888 336.916 253.842 336.891C253.795 336.866 253.754 336.833 253.72 336.792C253.655 336.708 253.624 336.602 253.632 336.496L261.632 255C261.644 254.896 261.696 254.801 261.776 254.734C261.857 254.667 261.96 254.633 262.064 254.64L266.624 255.088C266.677 255.091 266.729 255.105 266.776 255.13C266.823 255.155 266.864 255.19 266.896 255.232C266.96 255.314 266.992 255.416 266.984 255.52L258.984 337.024C258.976 337.122 258.931 337.214 258.859 337.281C258.786 337.347 258.691 337.384 258.592 337.384ZM254.464 336.176L258.232 336.544L266.16 255.84L262.392 255.472L254.464 336.176Z" fill="#263238"/>
<path d="M243.8 347.64L199.104 349.608V351.856H243.8V347.64Z" fill="white"/>
<path d="M243.8 352.256H199.104C198.998 352.256 198.896 352.214 198.821 352.139C198.746 352.064 198.704 351.962 198.704 351.856V349.6C198.704 349.497 198.744 349.397 198.816 349.323C198.887 349.248 198.985 349.204 199.088 349.2L243.784 347.232C243.839 347.229 243.893 347.237 243.944 347.256C243.995 347.275 244.042 347.305 244.08 347.344C244.119 347.381 244.15 347.426 244.171 347.475C244.191 347.525 244.201 347.578 244.2 347.632V351.848C244.201 351.901 244.192 351.954 244.172 352.004C244.152 352.053 244.123 352.098 244.086 352.136C244.049 352.174 244.004 352.204 243.955 352.225C243.906 352.245 243.853 352.256 243.8 352.256ZM199.504 351.456H243.4V348.056L199.504 349.992V351.456Z" fill="#263238"/>
<path d="M117.921 344.176L113.729 378.808H184.529L163.281 368.592C163.281 368.592 165.409 365.616 165.617 363.696C165.825 361.776 160.017 351.312 159.489 350.368L159.017 347.216C159.017 347.216 158.001 332.312 158.585 329.416C159.169 326.52 160.609 319.72 157.713 312.048C154.817 304.376 147.313 291.208 147.313 291.208L124.913 284.696C124.913 284.696 114.641 298.88 116.521 313.928C117.659 323.968 118.127 334.073 117.921 344.176Z" fill="#8692D0"/>
<path d="M184.528 379.2H113.728C113.672 379.201 113.616 379.189 113.564 379.166C113.512 379.143 113.466 379.109 113.429 379.066C113.392 379.024 113.364 378.973 113.348 378.919C113.332 378.865 113.328 378.808 113.336 378.752L117.52 344.136C117.701 334.062 117.218 323.987 116.072 313.976C114.192 298.944 124.432 284.6 124.536 284.456C124.587 284.391 124.655 284.341 124.733 284.314C124.812 284.287 124.896 284.284 124.976 284.304L147.376 290.816C147.425 290.831 147.471 290.856 147.511 290.889C147.551 290.922 147.584 290.962 147.608 291.008C147.68 291.136 155.184 304.288 158.056 311.904C160.928 319.52 159.56 326.392 158.976 329.32V329.488C158.408 332.296 159.4 347.032 159.416 347.176L159.872 350.224C161.416 353.016 166.224 361.904 166.016 363.736C165.84 365.336 164.464 367.536 163.872 368.432L184.672 378.44C184.754 378.48 184.819 378.546 184.859 378.627C184.898 378.709 184.908 378.802 184.887 378.89C184.867 378.979 184.817 379.057 184.746 379.114C184.675 379.17 184.587 379.2 184.496 379.2H184.528ZM114.184 378.4H182.776L163.104 368.944C163.052 368.919 163.006 368.883 162.969 368.839C162.931 368.795 162.904 368.744 162.888 368.688C162.865 368.572 162.888 368.451 162.952 368.352C162.952 368.352 165.024 365.44 165.224 363.648C165.352 362.456 162.16 356.024 159.136 350.552C159.131 350.507 159.131 350.461 159.136 350.416L158.656 347.264C158.616 346.624 157.648 332.24 158.232 329.328V329.168C158.8 326.304 160.144 319.568 157.344 312.184C154.656 305.056 147.848 292.984 147.032 291.544L125.032 285.144C123.744 287.024 115.16 300.168 116.872 313.856C118.022 323.914 118.509 334.038 118.328 344.16L114.184 378.4Z" fill="#263238"/>
<path d="M184.528 378.808L163.28 368.592L145.648 378.808H184.528Z" fill="#263238"/>
<path d="M184.528 379.2H145.648C145.561 379.199 145.476 379.17 145.407 379.116C145.338 379.063 145.288 378.988 145.266 378.904C145.243 378.82 145.249 378.73 145.281 378.649C145.314 378.568 145.373 378.501 145.448 378.456L163.048 368.24C163.106 368.21 163.171 368.195 163.236 368.195C163.301 368.195 163.366 368.21 163.424 368.24L184.672 378.456C184.753 378.496 184.819 378.562 184.858 378.643C184.898 378.725 184.908 378.818 184.887 378.906C184.867 378.995 184.817 379.073 184.746 379.13C184.675 379.186 184.587 379.216 184.496 379.216L184.528 379.2ZM147.136 378.4H182.776L163.296 369.04L147.136 378.4Z" fill="#263238"/>
<path d="M134.76 377.296C134.654 377.311 134.546 377.283 134.46 377.218C134.375 377.154 134.319 377.058 134.304 376.952C134.289 376.846 134.317 376.738 134.381 376.653C134.446 376.567 134.542 376.511 134.648 376.496L163.2 368.208C163.302 368.18 163.41 368.193 163.503 368.244C163.595 368.295 163.664 368.379 163.696 368.48C163.725 368.582 163.713 368.691 163.662 368.784C163.611 368.877 163.526 368.946 163.424 368.976L134.872 377.28L134.76 377.296Z" fill="#263238"/>
<path d="M133.273 378.576C133.213 378.575 133.154 378.561 133.1 378.535C133.046 378.509 132.998 378.471 132.961 378.424C132.927 378.384 132.901 378.337 132.886 378.287C132.87 378.237 132.865 378.184 132.87 378.132C132.875 378.08 132.891 378.029 132.916 377.983C132.941 377.937 132.975 377.897 133.017 377.864L138.977 372.968C139.059 372.902 139.163 372.87 139.268 372.881C139.373 372.891 139.469 372.943 139.537 373.024C139.57 373.064 139.596 373.111 139.611 373.161C139.627 373.211 139.632 373.264 139.627 373.316C139.622 373.368 139.606 373.419 139.581 373.465C139.556 373.511 139.522 373.551 139.481 373.584L133.521 378.48C133.452 378.541 133.364 378.575 133.273 378.576Z" fill="#263238"/>
<path d="M163.392 239.84C164.335 242.529 164.927 245.328 165.152 248.168C165.632 253.312 164.616 256.12 165.904 257.704C167.192 259.288 168.464 259.712 167.712 261.384C166.96 263.056 163.784 264.176 163.784 264.176C163.784 264.176 160.752 270.992 158.928 273.136C157.104 275.28 150.2 273.136 150.2 273.136L147.848 280.456L131.776 272.68L133.856 265.192L130.656 255.4C130.656 255.4 138 233.6 163.392 239.84Z" fill="white"/>
<path d="M147.848 280.8C147.79 280.812 147.73 280.812 147.672 280.8L131.6 273.024C131.515 272.984 131.447 272.916 131.408 272.831C131.368 272.746 131.36 272.65 131.384 272.56L133.44 265.184L130.24 255.512C130.216 255.428 130.216 255.34 130.24 255.256C130.312 255.032 138 233.184 163.456 239.472C163.516 239.488 163.573 239.518 163.62 239.56C163.667 239.602 163.704 239.654 163.728 239.712C164.69 242.435 165.29 245.273 165.512 248.152C165.668 249.905 165.703 251.666 165.616 253.424C165.56 255.36 165.52 256.624 166.184 257.472C166.478 257.824 166.791 258.16 167.12 258.48C167.976 259.336 168.72 260.08 168.04 261.568C167.36 263.056 164.736 264.248 164.04 264.512C163.568 265.56 160.896 271.4 159.192 273.408C157.488 275.416 151.992 274.08 150.392 273.616L148.152 280.56C148.135 280.616 148.107 280.667 148.068 280.71C148.029 280.753 147.981 280.786 147.928 280.808C147.901 280.808 147.874 280.806 147.848 280.8ZM132.248 272.416L147.608 279.84L149.824 272.952C149.839 272.902 149.864 272.856 149.898 272.817C149.931 272.777 149.972 272.744 150.018 272.72C150.064 272.696 150.115 272.682 150.166 272.678C150.218 272.674 150.27 272.68 150.32 272.696C152.176 273.28 157.272 274.44 158.624 272.848C160.384 270.776 163.384 264.048 163.424 263.992C163.446 263.942 163.478 263.898 163.518 263.861C163.558 263.823 163.605 263.795 163.656 263.776C164.496 263.48 166.792 262.432 167.352 261.192C167.8 260.208 167.424 259.832 166.552 259.008C166.256 258.704 165.912 258.36 165.568 257.936C164.712 256.88 164.768 255.4 164.816 253.352C164.898 251.629 164.866 249.903 164.72 248.184C164.488 245.46 163.929 242.774 163.056 240.184C139.2 234.416 131.728 253.464 131.056 255.384L134.256 265.048C134.28 265.123 134.28 265.205 134.256 265.28L132.248 272.416Z" fill="#263238"/>
<path d="M150.201 273.104L146.729 271.24L148.545 277.136L150.201 273.104Z" fill="#263238"/>
<path d="M148.544 277.536C148.461 277.533 148.38 277.503 148.314 277.451C148.248 277.4 148.2 277.329 148.176 277.248L146.36 271.36C146.338 271.283 146.338 271.202 146.361 271.125C146.384 271.049 146.428 270.98 146.488 270.928C146.55 270.877 146.626 270.846 146.706 270.839C146.786 270.832 146.866 270.849 146.936 270.888L150.408 272.752C150.496 272.798 150.563 272.875 150.597 272.969C150.631 273.062 150.63 273.164 150.592 273.256L148.928 277.256C148.902 277.337 148.85 277.407 148.781 277.458C148.713 277.508 148.63 277.535 148.544 277.536ZM147.4 272.048L148.6 275.952L149.696 273.288L147.4 272.048Z" fill="#263238"/>
<path d="M160.176 266.4C157.712 266.4 155.88 264 155.808 263.928C155.772 263.887 155.745 263.839 155.728 263.787C155.711 263.735 155.706 263.68 155.711 263.626C155.716 263.571 155.733 263.519 155.759 263.471C155.785 263.423 155.821 263.381 155.865 263.348C155.908 263.315 155.957 263.29 156.01 263.277C156.063 263.263 156.118 263.261 156.172 263.27C156.226 263.278 156.278 263.298 156.324 263.327C156.37 263.356 156.409 263.395 156.44 263.44C156.44 263.44 158.144 265.672 160.24 265.6C160.345 265.6 160.445 265.641 160.52 265.714C160.595 265.788 160.638 265.887 160.64 265.992C160.642 266.045 160.634 266.098 160.615 266.147C160.596 266.196 160.568 266.241 160.531 266.28C160.494 266.318 160.45 266.348 160.402 266.369C160.353 266.389 160.301 266.4 160.248 266.4H160.176Z" fill="#263238"/>
<path d="M163.2 254.224C163.08 255.336 162.568 256.2 162.056 256.144C161.544 256.088 161.208 255.144 161.328 254.032C161.448 252.92 161.952 252.064 162.472 252.112C162.992 252.16 163.328 253.112 163.2 254.224Z" fill="#263238"/>
<path d="M160.56 250.712C160.477 250.712 160.397 250.687 160.328 250.64C160.244 250.576 160.187 250.482 160.171 250.378C160.155 250.273 160.179 250.167 160.24 250.08C160.508 249.705 160.852 249.389 161.248 249.154C161.645 248.918 162.086 248.768 162.544 248.712C162.941 248.735 163.326 248.853 163.668 249.054C164.01 249.256 164.3 249.536 164.512 249.872C164.552 249.913 164.583 249.961 164.602 250.014C164.622 250.068 164.63 250.125 164.626 250.181C164.621 250.238 164.605 250.293 164.578 250.343C164.551 250.393 164.514 250.436 164.469 250.471C164.423 250.505 164.371 250.529 164.316 250.542C164.261 250.555 164.203 250.555 164.148 250.544C164.092 250.533 164.039 250.51 163.993 250.477C163.947 250.444 163.908 250.401 163.88 250.352C163.737 250.117 163.541 249.918 163.308 249.772C163.075 249.626 162.81 249.537 162.536 249.512C161.866 249.626 161.268 249.999 160.872 250.552C160.835 250.6 160.788 250.64 160.734 250.667C160.68 250.695 160.621 250.71 160.56 250.712Z" fill="#263238"/>
<path d="M140.88 225.44C140.88 225.44 128.176 224.416 124.752 232.208C121.328 240 121.232 250.76 122.592 254.536C123.952 258.312 128.192 263.984 129.88 265.616C131.568 267.248 134.392 268.416 136.832 267.352C139.272 266.288 142.224 261.656 142.968 258.68C143.712 255.704 143.272 252.888 144.008 252.824C145.773 252.954 147.546 252.843 149.28 252.496C152.84 251.84 160.008 248.656 163.912 243.24C167.816 237.824 167.112 231.792 165.632 229.456C164.152 227.12 148.304 221.112 140.88 225.44Z" fill="#263238"/>
<path d="M134.856 268.16C132.89 268.082 131.021 267.281 129.608 265.912C127.816 264.216 123.568 258.432 122.216 254.672C120.792 250.672 120.928 239.92 124.392 232.048C127.744 224.416 139.36 224.936 140.784 225.032C148.296 220.808 164.248 226.568 165.968 229.24C167.568 231.76 168.16 238.04 164.24 243.48C160.4 248.792 153.224 252.176 149.352 252.888C147.816 253.224 146.24 253.34 144.672 253.232C144.432 253.232 144.256 253.232 144.104 253.232C143.955 253.793 143.877 254.371 143.872 254.952C143.815 256.245 143.641 257.53 143.352 258.792C142.552 261.936 139.552 266.624 136.992 267.736C136.316 268.02 135.589 268.164 134.856 268.16ZM139.504 225.8C136.192 225.8 127.744 226.4 125.104 232.368C121.776 239.944 121.608 250.648 122.952 254.4C124.296 258.152 128.4 263.68 130.152 265.328C131.752 266.864 134.408 267.968 136.664 266.992C138.92 266.016 141.848 261.472 142.568 258.584C142.844 257.367 143.01 256.127 143.064 254.88C143.168 253.392 143.232 252.48 143.96 252.424C144.21 252.4 144.462 252.4 144.712 252.424C146.216 252.519 147.726 252.406 149.2 252.088C152.944 251.4 159.872 248.128 163.6 242.992C167.328 237.856 166.8 231.992 165.312 229.656C163.824 227.32 148.208 221.656 141.096 225.768C141.022 225.807 140.939 225.827 140.856 225.824C140.856 225.824 140.32 225.8 139.504 225.8Z" fill="#263238"/>
<path d="M148.304 256.32C148.304 256.32 145.504 249.632 142.56 251.36C139.616 253.088 140.456 260.456 141.848 262.488C143.24 264.52 145.888 262.76 145.888 262.76" fill="white"/>
<path d="M143.696 263.872C143.264 263.882 142.836 263.781 142.454 263.58C142.072 263.378 141.748 263.082 141.512 262.72C140.472 261.184 139.768 257.12 140.432 254.136C140.521 253.511 140.738 252.911 141.07 252.374C141.401 251.837 141.841 251.375 142.36 251.016C142.653 250.836 142.982 250.723 143.324 250.687C143.666 250.651 144.012 250.692 144.336 250.808C146.736 251.608 148.592 255.984 148.672 256.168C148.698 256.217 148.714 256.271 148.717 256.327C148.721 256.383 148.714 256.439 148.695 256.491C148.676 256.543 148.646 256.591 148.608 256.632C148.569 256.672 148.523 256.704 148.471 256.725C148.42 256.746 148.364 256.757 148.308 256.755C148.253 256.754 148.198 256.741 148.147 256.717C148.097 256.693 148.052 256.659 148.016 256.617C147.979 256.575 147.952 256.525 147.936 256.472C147.936 256.472 146.144 252.248 144.08 251.568C143.864 251.489 143.633 251.46 143.404 251.483C143.175 251.507 142.955 251.582 142.76 251.704C142.342 252.014 141.99 252.404 141.724 252.852C141.459 253.3 141.286 253.796 141.216 254.312C140.608 257.048 141.216 260.896 142.176 262.264C143.32 263.944 145.576 262.496 145.672 262.432C145.76 262.385 145.862 262.372 145.959 262.397C146.055 262.421 146.139 262.48 146.194 262.564C146.249 262.647 146.271 262.747 146.256 262.846C146.241 262.944 146.189 263.033 146.112 263.096C145.393 263.572 144.557 263.841 143.696 263.872Z" fill="#263238"/>
<path d="M129.144 271.048C129.144 271.048 150.4 276.688 151.72 278.4C153.04 280.112 152.736 281.6 152.008 282.6C151.251 284.036 150.622 285.535 150.128 287.08C150.128 287.08 151.144 290.28 150.568 291.568C150.108 292.316 149.435 292.909 148.635 293.271C147.835 293.633 146.945 293.748 146.08 293.6C144.48 293.168 125.528 286.656 124.808 286.224C124.088 285.792 123.792 282.464 125.24 281.424C126.688 280.384 125.96 281.568 126.688 280.408C127.416 279.248 125.096 271.48 129.144 271.048Z" fill="#8692D0"/>
<path d="M146.808 294.112C146.538 294.112 146.269 294.077 146.008 294.008C144.344 293.552 125.4 287.04 124.632 286.584C124.096 286.264 123.872 285.232 123.832 284.384C123.832 283.832 123.832 281.984 125.032 281.136C125.347 280.861 125.732 280.678 126.144 280.608C126.192 280.528 126.264 280.408 126.376 280.24C126.487 279.476 126.487 278.7 126.376 277.936C126.192 275.168 125.92 270.992 129.112 270.648C129.16 270.64 129.208 270.64 129.256 270.648C131.448 271.232 150.704 276.384 152.048 278.176C153.648 280.336 152.928 282.024 152.344 282.848C151.62 284.209 151.023 285.634 150.56 287.104C150.76 287.784 151.512 290.456 150.936 291.752C150.36 293.048 148.424 294.112 146.808 294.112ZM126.16 281.4C125.908 281.485 125.674 281.618 125.472 281.792C124.792 282.264 124.584 283.392 124.608 284.336C124.569 284.886 124.709 285.433 125.008 285.896C125.672 286.264 144.272 292.712 146.184 293.232C146.953 293.348 147.74 293.24 148.449 292.921C149.158 292.601 149.761 292.085 150.184 291.432C150.608 290.48 150 288.072 149.736 287.232C149.704 287.152 149.704 287.064 149.736 286.984C150.239 285.397 150.887 283.86 151.672 282.392C152.232 281.592 152.632 280.328 151.384 278.664C150.504 277.488 137.28 273.624 129.104 271.464C126.936 271.76 126.936 274.664 127.152 277.904C127.248 279.424 127.288 280.232 127.008 280.68C126.6 281.336 126.504 281.48 126.144 281.416L126.16 281.4Z" fill="#263238"/>
<path d="M194.4 333.544C194.4 333.544 204.928 334.904 205.6 334.792C206.272 334.68 209.904 337.392 212.848 339.208C215.792 341.024 216.92 342.488 218.512 344.08C220.104 345.672 222.248 346.48 221.336 347.136C220.424 347.792 219.984 347.816 218.624 347.36C217.264 346.904 215.68 346.344 215.68 346.344C214.694 346.94 213.534 347.18 212.392 347.024C210.506 346.497 208.654 345.853 206.848 345.096C205.105 345.279 203.344 345.163 201.64 344.752C199.488 344.08 195.072 340 195.072 340L192.464 340.224L191.664 334.224L194.4 333.544Z" fill="white"/>
<path d="M220 348.072C219.473 348.043 218.955 347.929 218.464 347.736C217.376 347.376 216.136 346.936 215.688 346.784C214.654 347.367 213.455 347.59 212.28 347.416C210.398 346.898 208.552 346.26 206.752 345.504C204.987 345.688 203.203 345.563 201.48 345.136C199.456 344.496 195.664 341.136 194.896 340.416L192.496 340.624C192.394 340.629 192.294 340.597 192.215 340.534C192.135 340.471 192.081 340.38 192.064 340.28L191.264 334.28C191.251 334.182 191.276 334.083 191.332 334.002C191.388 333.921 191.472 333.863 191.568 333.84L194.288 333.16C194.335 333.148 194.385 333.148 194.432 333.16C198.432 333.672 204.976 334.472 205.528 334.408C206.08 334.344 207.128 335 209.936 336.848C210.968 337.536 212.04 338.256 213.048 338.872C214.858 339.984 216.501 341.347 217.928 342.92C218.208 343.216 218.488 343.504 218.784 343.8C219.322 344.317 219.903 344.788 220.52 345.208C221.376 345.832 221.944 346.24 221.944 346.808C221.943 346.943 221.908 347.075 221.842 347.192C221.776 347.31 221.682 347.409 221.568 347.48C221.13 347.854 220.576 348.063 220 348.072ZM215.648 345.944H215.784C215.784 345.944 217.384 346.504 218.712 346.96C220.04 347.416 220.312 347.36 221.064 346.792C221.12 346.792 221.128 346.728 221.128 346.728C220.796 346.385 220.426 346.082 220.024 345.824C219.373 345.38 218.76 344.882 218.192 344.336L217.328 343.44C215.952 341.914 214.362 340.597 212.608 339.528C211.584 338.896 210.504 338.176 209.464 337.48C207.928 336.456 206.024 335.184 205.608 335.168C204.936 335.28 196.312 334.176 194.408 333.928L192.104 334.504L192.8 339.768L195.024 339.576C195.137 339.57 195.249 339.607 195.336 339.68C195.376 339.72 199.704 343.68 201.736 344.352C203.385 344.748 205.09 344.856 206.776 344.672C206.841 344.653 206.911 344.653 206.976 344.672C208.758 345.421 210.586 346.057 212.448 346.576C213.487 346.707 214.54 346.488 215.44 345.952C215.514 345.923 215.596 345.92 215.672 345.944H215.648Z" fill="#263238"/>
<path d="M215.672 346.744C215.605 346.745 215.538 346.729 215.48 346.696C215.433 346.671 215.393 346.637 215.359 346.596C215.326 346.555 215.302 346.508 215.287 346.457C215.272 346.407 215.267 346.354 215.273 346.301C215.278 346.249 215.294 346.198 215.32 346.152C215.379 346.062 215.417 345.96 215.429 345.853C215.442 345.746 215.429 345.637 215.392 345.536C215.08 344.688 213.128 343.936 211.56 343.36C210.617 343.056 209.713 342.646 208.864 342.136C208.315 341.709 207.743 341.311 207.152 340.944C207.075 340.915 207.009 340.864 206.962 340.797C206.915 340.73 206.889 340.65 206.888 340.568C206.888 340.462 206.93 340.36 207.005 340.285C207.08 340.21 207.182 340.168 207.288 340.168C207.424 340.168 207.536 340.168 209.336 341.488C210.13 341.953 210.972 342.331 211.848 342.616C213.744 343.328 215.704 344.072 216.144 345.256C216.219 345.465 216.247 345.689 216.225 345.911C216.203 346.132 216.131 346.346 216.016 346.536C215.981 346.597 215.931 346.649 215.871 346.685C215.811 346.722 215.742 346.742 215.672 346.744Z" fill="#263238"/>
<path d="M225.201 341.536C225.201 341.536 225.393 343.36 225.105 343.84C224.817 344.32 223.769 344.32 223.193 343.168C222.801 342.188 222.574 341.15 222.521 340.096L225.201 341.536Z" fill="white"/>
<path d="M224.488 344.544H224.44C224.09 344.508 223.757 344.379 223.475 344.169C223.194 343.959 222.974 343.677 222.84 343.352C222.421 342.334 222.18 341.252 222.128 340.152V339.448L225.616 341.32V341.528C225.664 341.984 225.8 343.528 225.464 344.08C225.355 344.235 225.207 344.358 225.037 344.44C224.866 344.521 224.677 344.557 224.488 344.544ZM222.984 340.8C223.061 341.554 223.249 342.293 223.544 342.992C223.888 343.664 224.344 343.736 224.464 343.744C224.52 343.75 224.576 343.744 224.629 343.724C224.682 343.705 224.73 343.673 224.768 343.632C224.888 343.026 224.907 342.404 224.824 341.792L222.984 340.8Z" fill="#263238"/>
<path d="M223.312 341.312C223.068 342.046 222.697 342.731 222.216 343.336C221.744 343.64 220.8 343.176 220.784 341.888C220.865 340.837 221.119 339.807 221.536 338.84L223.312 341.312Z" fill="white"/>
<path d="M221.897 343.824C221.69 343.824 221.486 343.772 221.305 343.672C221.005 343.485 220.761 343.221 220.599 342.907C220.437 342.593 220.363 342.241 220.385 341.888C220.469 340.784 220.74 339.702 221.185 338.688L221.465 338.04L223.777 341.24L223.705 341.44C223.545 341.872 222.985 343.312 222.449 343.664C222.285 343.772 222.093 343.828 221.897 343.824ZM221.649 339.68C221.384 340.389 221.227 341.133 221.185 341.888C221.162 342.096 221.196 342.306 221.284 342.496C221.371 342.686 221.508 342.849 221.681 342.968C221.73 342.992 221.785 343.005 221.841 343.005C221.896 343.005 221.951 342.992 222.001 342.968C222.374 342.485 222.666 341.945 222.865 341.368L221.649 339.68Z" fill="#263238"/>
<path d="M225.104 339.712C225.104 339.712 227.024 341.44 226.832 343.168C226.64 344.896 225.296 344.512 224.92 343.36C224.544 342.208 224.12 340.864 224.12 340.864L225.104 339.712Z" fill="white"/>
<path d="M225.984 344.744C225.644 344.706 225.323 344.566 225.064 344.341C224.806 344.117 224.621 343.819 224.536 343.488C224.152 342.336 223.736 340.992 223.736 340.976L223.672 340.768L225.032 339.168L225.344 339.44C225.424 339.52 227.408 341.328 227.2 343.232C227.056 344.52 226.36 344.728 226.064 344.76L225.984 344.744ZM224.592 340.96C224.712 341.376 225.008 342.368 225.296 343.232C225.456 343.704 225.784 343.952 226.016 343.944C226.248 343.936 226.384 343.608 226.44 343.144C226.56 342.032 225.64 340.864 225.136 340.336L224.592 340.96Z" fill="#263238"/>
<path d="M191.952 326.76C191.952 326.76 202.952 324.736 205.992 325.024C209.032 325.312 217.568 328.928 218.576 329.504C219.584 330.08 225.528 334.304 225.672 335.44C225.699 336.652 225.6 337.864 225.376 339.056C225.376 339.056 228.272 339.64 227.264 340.936C226.256 342.232 224.064 341.952 222.776 341.52C221.488 341.088 217.272 338.32 216.264 337.904C215.256 337.488 211.632 338.336 208.88 337.464C206.128 336.592 201.792 332.544 201.792 332.544L192.8 335.152L191.952 326.76Z" fill="white"/>
<path d="M224.896 342.288C224.13 342.279 223.371 342.146 222.648 341.896C221.216 341.25 219.836 340.496 218.52 339.64C217.48 339.024 216.496 338.44 216.12 338.272C215.412 338.145 214.689 338.126 213.976 338.216C212.234 338.392 210.475 338.268 208.776 337.848C206.256 337.048 202.544 333.76 201.704 332.992L192.488 335.672L191.512 326.4L191.88 326.336C192.328 326.248 202.968 324.304 206.024 324.592C209.08 324.88 217.728 328.528 218.776 329.128C219.2 329.368 225.88 333.848 226.064 335.36C226.113 336.485 226.035 337.612 225.832 338.72C226.448 338.888 227.536 339.28 227.808 340.016C227.875 340.209 227.89 340.416 227.849 340.616C227.808 340.816 227.714 341.001 227.576 341.152C227.247 341.536 226.834 341.838 226.369 342.035C225.904 342.232 225.4 342.319 224.896 342.288ZM215.2 337.368C215.609 337.345 216.02 337.402 216.408 337.536C216.848 337.72 217.808 338.296 218.912 338.952C220.192 339.773 221.529 340.503 222.912 341.136C224.264 341.592 226.112 341.744 226.952 340.696C227.128 340.472 227.088 340.368 227.072 340.328C226.928 339.944 225.936 339.576 225.312 339.448L224.928 339.376L224.992 338.992C225.208 337.837 225.305 336.663 225.28 335.488C225.152 334.624 219.68 330.616 218.384 329.888C217.392 329.32 208.952 325.736 205.96 325.456C203.32 325.2 194.32 326.768 192.36 327.12L193.16 334.664L201.888 332.128L202.056 332.288C202.056 332.328 206.36 336.288 208.992 337.088C210.602 337.473 212.265 337.584 213.912 337.416C214.4 337.392 214.848 337.368 215.2 337.368Z" fill="#263238"/>
<path d="M216.96 330.32C218.16 330.618 219.233 331.29 220.024 332.24C221.624 333.96 225.376 339.056 225.376 339.056C221.24 338.4 217.536 334.44 217.536 334.44" fill="white"/>
<path d="M226.272 339.608L225.32 339.456C221.088 338.784 217.392 334.88 217.24 334.712L217.824 334.168C217.824 334.168 220.888 337.368 224.416 338.432C223.288 336.904 220.928 333.768 219.736 332.512C218.996 331.639 218.009 331.012 216.904 330.712L217.008 329.912C218.309 330.231 219.471 330.964 220.32 332C221.92 333.728 225.552 338.656 225.704 338.864L226.272 339.608Z" fill="#263238"/>
<path d="M128.856 298.536C128.856 298.536 124.664 306.64 126.976 326.904C129.288 347.168 137.376 359.032 142.024 359.176C146.672 359.32 181.384 349.336 184.864 347.304C188.344 345.272 195.264 343.256 195.712 343.112C196.16 342.968 197.312 338.768 196.296 333.128C195.906 330.638 195.371 328.172 194.696 325.744L181.096 328.208L160.408 331.68C160.478 331.278 160.416 330.865 160.234 330.501C160.051 330.136 159.756 329.84 159.392 329.656C158.041 329.042 156.634 328.557 155.192 328.208C155.192 328.208 151.432 302.608 143.616 295.936" fill="#8692D0"/>
<path d="M142.128 359.576H142.016C137.216 359.424 128.952 347.72 126.576 326.952C124.28 306.8 128.328 298.688 128.504 298.36C128.525 298.309 128.557 298.263 128.596 298.225C128.636 298.187 128.683 298.158 128.735 298.139C128.786 298.119 128.841 298.111 128.896 298.114C128.951 298.118 129.005 298.132 129.054 298.157C129.103 298.182 129.146 298.216 129.181 298.259C129.216 298.301 129.242 298.35 129.258 298.403C129.273 298.456 129.277 298.511 129.27 298.566C129.263 298.62 129.244 298.673 129.216 298.72C129.168 298.8 125.104 306.992 127.376 326.856C129.776 347.88 138.072 358.648 142.04 358.776C146.544 358.888 181.24 348.968 184.656 346.96C186.104 346.12 189.12 344.72 195.28 342.824L195.52 342.752C195.896 342.192 196.816 338.304 195.896 333.192C195.144 328.968 194.624 326.936 194.416 326.2L181.168 328.6L160.472 332.072C160.407 332.083 160.34 332.078 160.277 332.057C160.214 332.036 160.157 332 160.112 331.952C160.067 331.905 160.035 331.847 160.019 331.784C160.002 331.721 160.001 331.655 160.016 331.592C160.07 331.275 160.022 330.949 159.878 330.661C159.734 330.373 159.502 330.139 159.216 329.992C157.894 329.398 156.52 328.927 155.112 328.584C155.036 328.564 154.967 328.523 154.915 328.465C154.862 328.406 154.828 328.334 154.816 328.256C154.776 328 150.984 302.712 143.376 296.256C143.336 296.222 143.303 296.18 143.279 296.133C143.256 296.087 143.241 296.035 143.237 295.983C143.233 295.931 143.239 295.878 143.256 295.828C143.272 295.778 143.298 295.732 143.332 295.692C143.366 295.652 143.408 295.619 143.455 295.595C143.501 295.572 143.553 295.557 143.605 295.553C143.657 295.549 143.71 295.555 143.76 295.572C143.81 295.588 143.856 295.614 143.896 295.648C151.392 302.048 155.096 325.016 155.568 327.904C156.946 328.24 158.286 328.714 159.568 329.32C159.914 329.506 160.208 329.775 160.423 330.103C160.638 330.432 160.768 330.809 160.8 331.2L181 327.808L194.6 325.352C194.694 325.337 194.79 325.355 194.872 325.403C194.953 325.452 195.016 325.527 195.048 325.616C195.727 328.062 196.261 330.547 196.648 333.056C197.624 338.496 196.648 343.208 195.8 343.456L195.472 343.56C189.384 345.432 186.432 346.8 185.024 347.624C181.456 349.76 147.296 359.576 142.128 359.576Z" fill="#263238"/>
<path d="M138.84 337.288C138.747 337.286 138.657 337.253 138.586 337.193C138.515 337.133 138.466 337.051 138.448 336.96C138.429 336.856 138.452 336.749 138.512 336.662C138.572 336.575 138.664 336.515 138.768 336.496C143.264 335.648 154.856 327.952 154.976 327.872C155.064 327.825 155.166 327.812 155.262 327.837C155.359 327.861 155.443 327.92 155.498 328.004C155.553 328.087 155.575 328.187 155.56 328.286C155.545 328.384 155.493 328.473 155.416 328.536C154.936 328.856 143.576 336.408 138.92 337.28L138.84 337.288Z" fill="#263238"/>
<path d="M137.248 346.112C137.175 346.113 137.103 346.094 137.04 346.055C136.978 346.017 136.928 345.962 136.896 345.896C136.848 345.802 136.838 345.694 136.87 345.594C136.901 345.493 136.971 345.409 137.064 345.36C138.175 344.782 139.244 344.127 140.264 343.4C140.307 343.37 140.356 343.348 140.407 343.336C140.458 343.325 140.512 343.323 140.564 343.332C140.616 343.341 140.665 343.36 140.71 343.388C140.755 343.416 140.793 343.453 140.824 343.496C140.854 343.539 140.876 343.588 140.888 343.639C140.899 343.691 140.901 343.744 140.892 343.796C140.883 343.848 140.864 343.898 140.836 343.942C140.808 343.987 140.771 344.026 140.728 344.056C139.686 344.801 138.596 345.474 137.464 346.072C137.398 346.107 137.322 346.121 137.248 346.112Z" fill="#263238"/>
<path d="M142.256 342.808C142.195 342.807 142.135 342.793 142.08 342.767C142.024 342.741 141.975 342.703 141.936 342.656C141.871 342.571 141.842 342.464 141.856 342.357C141.869 342.251 141.924 342.154 142.008 342.088C146.099 338.785 149.924 335.166 153.448 331.264C153.483 331.225 153.526 331.193 153.574 331.17C153.621 331.147 153.673 331.133 153.726 331.13C153.778 331.127 153.831 331.135 153.881 331.152C153.931 331.17 153.977 331.197 154.016 331.232C154.056 331.267 154.088 331.31 154.111 331.357C154.133 331.405 154.147 331.457 154.15 331.509C154.153 331.562 154.145 331.615 154.128 331.665C154.11 331.715 154.083 331.761 154.048 331.8C150.489 335.737 146.627 339.388 142.496 342.72C142.428 342.775 142.344 342.806 142.256 342.808Z" fill="#263238"/>
<path d="M153.456 344.664C153.395 344.665 153.334 344.652 153.279 344.625C153.223 344.599 153.175 344.56 153.136 344.512C153.075 344.426 153.049 344.32 153.064 344.216C153.079 344.111 153.133 344.017 153.216 343.952C153.787 343.509 154.305 343.001 154.76 342.44C154.794 342.399 154.835 342.365 154.882 342.34C154.929 342.315 154.98 342.3 155.033 342.294C155.086 342.289 155.139 342.294 155.19 342.31C155.24 342.325 155.288 342.35 155.328 342.384C155.369 342.418 155.403 342.459 155.428 342.506C155.453 342.552 155.469 342.604 155.474 342.656C155.479 342.709 155.474 342.762 155.459 342.813C155.443 342.864 155.418 342.911 155.384 342.952C154.886 343.547 154.323 344.083 153.704 344.552C153.637 344.617 153.55 344.657 153.456 344.664Z" fill="#263238"/>
<path d="M156.264 341.432C156.188 341.429 156.114 341.407 156.048 341.368C155.96 341.31 155.897 341.221 155.873 341.118C155.849 341.015 155.866 340.907 155.92 340.816C157.36 338.34 158.437 335.67 159.12 332.888C159.145 332.782 159.21 332.69 159.303 332.632C159.395 332.574 159.506 332.556 159.612 332.58C159.718 332.604 159.81 332.67 159.868 332.762C159.926 332.854 159.945 332.966 159.92 333.072C159.209 335.94 158.089 338.691 156.592 341.24C156.558 341.297 156.51 341.344 156.453 341.377C156.395 341.411 156.331 341.43 156.264 341.432Z" fill="#263238"/>
<path d="M185.872 342.496C185.819 342.494 185.766 342.481 185.718 342.459C185.67 342.436 185.627 342.404 185.591 342.365C185.555 342.325 185.528 342.279 185.51 342.229C185.492 342.179 185.485 342.125 185.488 342.072C185.536 341.272 185.552 340.424 185.552 339.672C185.551 339.62 185.56 339.568 185.58 339.52C185.599 339.471 185.627 339.427 185.664 339.39C185.701 339.352 185.744 339.323 185.792 339.303C185.84 339.282 185.892 339.272 185.944 339.272C185.997 339.267 186.051 339.274 186.102 339.292C186.152 339.31 186.198 339.338 186.237 339.375C186.276 339.413 186.306 339.458 186.326 339.507C186.346 339.557 186.355 339.61 186.352 339.664C186.352 340.464 186.352 341.264 186.288 342.152C186.276 342.252 186.226 342.343 186.149 342.407C186.071 342.471 185.972 342.503 185.872 342.496Z" fill="#263238"/>
<path d="M185.768 337.096C185.669 337.096 185.574 337.059 185.502 336.993C185.429 336.926 185.384 336.834 185.376 336.736C184.744 330.776 182.456 328.824 182.44 328.808C182.357 328.741 182.305 328.644 182.293 328.538C182.282 328.433 182.313 328.327 182.38 328.244C182.447 328.161 182.544 328.108 182.65 328.097C182.755 328.086 182.861 328.117 182.944 328.184C183.048 328.264 185.504 330.32 186.144 336.656C186.155 336.761 186.125 336.866 186.059 336.949C185.993 337.031 185.897 337.084 185.792 337.096H185.768Z" fill="#263238"/>
<path d="M115.433 378.904H102.401C102.401 378.904 93.9525 345.224 97.3525 319.248C97.5137 318.041 98.1082 316.934 99.0252 316.134C99.9422 315.333 101.119 314.893 102.337 314.896C102.997 314.895 103.652 315.025 104.262 315.278C104.872 315.531 105.426 315.903 105.891 316.372C106.357 316.84 106.725 317.397 106.975 318.008C107.224 318.62 107.35 319.275 107.345 319.936C107.281 329.192 108.129 350.576 115.433 378.904Z" fill="#263238"/>
<path d="M115.432 379.304H102.4C102.311 379.303 102.226 379.273 102.156 379.218C102.087 379.163 102.037 379.086 102.016 379C101.928 378.664 93.5841 344.944 96.9601 319.192C97.0939 318.189 97.5062 317.243 98.1503 316.462C98.7943 315.681 99.6443 315.096 100.604 314.774C101.563 314.451 102.594 314.404 103.579 314.638C104.564 314.872 105.464 315.377 106.176 316.096C106.686 316.597 107.09 317.195 107.364 317.854C107.639 318.514 107.779 319.222 107.776 319.936C107.72 329.976 108.688 350.976 115.864 378.808C115.88 378.867 115.882 378.929 115.87 378.989C115.857 379.049 115.831 379.105 115.792 379.152C115.751 379.207 115.696 379.249 115.632 379.276C115.569 379.303 115.5 379.312 115.432 379.304ZM102.704 378.504H114.912C107.832 350.832 106.912 329.952 106.912 319.936C106.917 319.328 106.802 318.725 106.573 318.162C106.343 317.598 106.005 317.086 105.576 316.655C105.148 316.223 104.638 315.881 104.076 315.648C103.515 315.414 102.912 315.295 102.304 315.296C101.186 315.297 100.106 315.703 99.2634 316.438C98.4208 317.173 97.8727 318.188 97.7201 319.296C94.5521 343.6 101.88 375.08 102.704 378.504Z" fill="#263238"/>
<path d="M387.584 379.304H10.4C10.2939 379.304 10.1922 379.262 10.1172 379.187C10.0421 379.112 10 379.01 10 378.904C10 378.798 10.0421 378.696 10.1172 378.621C10.1922 378.546 10.2939 378.504 10.4 378.504H387.584C387.689 378.506 387.79 378.549 387.865 378.623C387.939 378.698 387.982 378.799 387.984 378.904C387.984 379.01 387.942 379.112 387.867 379.187C387.792 379.262 387.69 379.304 387.584 379.304Z" fill="#263238"/>
</svg>
