<svg width="395" height="395" viewBox="0 0 395 395" fill="none" xmlns="http://www.w3.org/2000/svg">
<g opacity="0.7">
<path opacity="0.7" d="M352.016 113.025C352.016 113.025 288.5 21.5749 209.2 11.85C139.198 3.3101 74.2599 36.7824 65.1749 109.123C61.9517 134.893 56.2163 163.404 46.0253 186.922C34.594 213.3 15.0889 235.246 30.0199 285.98C44.9509 336.714 108.048 382.455 153.908 382.36C199.767 382.265 242.854 340.49 278.396 302.57C313.938 264.65 427.121 229.1 352.016 113.025Z" fill="#B9C0E4"/>
</g>
<path d="M384.027 342.789H14.9624" stroke="#263238" stroke-linecap="round" stroke-linejoin="round"/>
<path d="M358.194 221.326H267.154C266.128 221.292 265.122 221.611 264.302 222.229C263.483 222.847 262.9 223.728 262.651 224.723L237.79 342.789H338.199L362.689 226.303C363.242 223.72 361.077 221.326 358.194 221.326Z" fill="#8692D0" stroke="#263238" stroke-linecap="round" stroke-linejoin="round"/>
<path d="M244.529 140.478C244.529 140.478 232.805 148.378 233.469 154.327C234.133 160.275 240.5 165.197 240.5 165.197C240.5 165.197 249.237 144.104 249.877 143.867C250.517 143.63 244.529 140.478 244.529 140.478Z" fill="#263238" stroke="#263238" stroke-linecap="round" stroke-linejoin="round"/>
<path d="M239.149 190.493C239.149 190.493 241.171 199.752 239.725 204.381L238.28 209.01C238.28 209.01 251.583 213.055 255.928 210.74C260.273 208.426 260.842 206.98 260.842 206.98C260.842 206.98 244.063 188.178 239.149 190.493Z" fill="#263238" stroke="#263238" stroke-linecap="round" stroke-linejoin="round"/>
<path d="M236.921 235.91C236.921 235.91 259.879 234.33 271.357 235.91C282.836 237.49 284.219 237.79 284.219 237.79C284.219 237.79 274.115 272.913 267.684 286.691C261.253 300.469 246.567 312.168 246.567 312.168C246.567 312.168 223.831 273.103 236.921 235.91Z" fill="#263238" stroke="#263238" stroke-linecap="round" stroke-linejoin="round"/>
<path d="M247.081 142.398C247.081 142.398 240.05 157.739 239.41 161.144C238.77 164.549 239.196 171.161 239.196 173.721C239.196 176.281 237.071 185.437 237.071 187.783C237.071 190.129 246.014 208.663 248.36 209.508C250.707 210.353 253.685 209.089 253.685 209.089C253.685 209.089 254.752 216.989 254.538 218.719C254.325 220.45 249.008 222.772 249.008 222.772C249.008 222.772 241.977 236.621 243.478 241.519C244.979 246.417 250.509 251.109 260.518 249.83C270.528 248.55 275.22 245.35 277.993 237.047C280.766 228.745 282.891 220.457 282.891 220.457C282.891 220.457 279.731 220.837 279.731 217.211C279.731 213.584 279.945 196.331 279.945 196.331C279.945 196.331 282.923 166.508 273.759 154.358C264.595 142.208 250.28 136.67 247.081 142.398Z" fill="white" stroke="#263238" stroke-linecap="round" stroke-linejoin="round"/>
<path d="M243.036 140.051C243.036 140.051 261.142 158.592 267.32 169.242C273.498 179.891 267.96 209.935 270.306 209.935C272.653 209.935 280.576 209.705 298.928 200.968C317.28 192.231 316.83 175.19 312.358 162.835C307.887 150.479 296.945 135.975 287.149 131.108C277.353 126.242 250.28 124.291 243.036 140.051Z" fill="#263238" stroke="#263238" stroke-linecap="round" stroke-linejoin="round"/>
<path d="M272.321 174.898C275.718 181.842 282.362 196.813 281.217 205.542" stroke="#B2B2B2" stroke-linecap="round" stroke-linejoin="round"/>
<path d="M270.417 171.161C270.417 171.161 270.701 171.691 271.207 172.623" stroke="#B2B2B2" stroke-linecap="round" stroke-linejoin="round"/>
<path d="M301.101 190.453C301.605 192.508 301.701 194.642 301.385 196.734" stroke="#B2B2B2" stroke-linecap="round" stroke-linejoin="round"/>
<path d="M250.809 140.762C250.809 140.762 246.859 143.03 276.089 162.353C291.21 172.331 297.459 180.871 299.963 186.954" stroke="#B2B2B2" stroke-linecap="round" stroke-linejoin="round"/>
<path d="M254.751 174.59C255.843 175.484 257.172 176.04 258.575 176.192C259.977 176.343 261.394 176.083 262.651 175.443" stroke="#263238" stroke-linecap="round" stroke-linejoin="round"/>
<path d="M240.903 174.14C240.903 174.14 242.609 176.273 245.588 174.353" stroke="#263238" stroke-linecap="round" stroke-linejoin="round"/>
<path d="M245.169 166.477C245.169 166.477 247.294 171.588 247.294 173.934C247.289 175.351 246.921 176.744 246.228 177.979" stroke="#263238" stroke-linecap="round" stroke-linejoin="round"/>
<path d="M243.889 188.202C244.905 189.033 246.057 189.682 247.294 190.121" stroke="#263238" stroke-linecap="round" stroke-linejoin="round"/>
<path d="M246.014 193.55C246.014 193.55 253.045 196.71 257.951 192.91" stroke="#263238" stroke-linecap="round" stroke-linejoin="round"/>
<path d="M252.2 166.477C252.2 166.477 261.143 163.704 264.555 169.028" stroke="#263238" stroke-linecap="round" stroke-linejoin="round"/>
<path d="M240.476 165.197C240.476 165.197 242.609 163.491 243.889 164.984" stroke="#263238" stroke-linecap="round" stroke-linejoin="round"/>
<path d="M253.685 209.089L263.702 206.956L254.325 215.267L253.685 209.089Z" fill="#263238" stroke="#263238" stroke-linecap="round" stroke-linejoin="round"/>
<path d="M254.435 219.897C254.435 220.209 254.343 220.515 254.169 220.774C253.996 221.034 253.749 221.237 253.46 221.356C253.171 221.476 252.854 221.507 252.547 221.446C252.241 221.385 251.959 221.235 251.738 221.014C251.517 220.793 251.367 220.511 251.306 220.205C251.245 219.898 251.276 219.581 251.396 219.292C251.515 219.003 251.718 218.756 251.978 218.583C252.237 218.409 252.543 218.317 252.855 218.317C253.274 218.317 253.676 218.483 253.973 218.779C254.269 219.076 254.435 219.477 254.435 219.897Z" fill="white" stroke="#263238" stroke-linecap="round" stroke-linejoin="round"/>
<path d="M254.009 222.559C254.009 222.871 253.916 223.177 253.742 223.437C253.569 223.696 253.322 223.899 253.033 224.019C252.745 224.138 252.427 224.169 252.12 224.108C251.814 224.048 251.532 223.897 251.311 223.676C251.09 223.455 250.94 223.174 250.879 222.867C250.818 222.561 250.849 222.243 250.969 221.954C251.089 221.665 251.291 221.419 251.551 221.245C251.811 221.071 252.116 220.979 252.429 220.979C252.848 220.979 253.25 221.145 253.546 221.442C253.842 221.738 254.009 222.14 254.009 222.559Z" fill="white" stroke="#263238" stroke-linecap="round" stroke-linejoin="round"/>
<path d="M253.59 225.221C253.59 225.534 253.498 225.839 253.324 226.099C253.15 226.359 252.904 226.561 252.615 226.681C252.326 226.8 252.008 226.832 251.702 226.771C251.395 226.71 251.114 226.559 250.893 226.338C250.672 226.117 250.521 225.836 250.461 225.529C250.4 225.223 250.431 224.905 250.55 224.616C250.67 224.328 250.873 224.081 251.132 223.907C251.392 223.734 251.698 223.641 252.01 223.641C252.429 223.641 252.831 223.808 253.127 224.104C253.424 224.4 253.59 224.802 253.59 225.221Z" fill="white" stroke="#263238" stroke-linecap="round" stroke-linejoin="round"/>
<path d="M282.749 218.83C282.749 219.142 282.656 219.448 282.483 219.708C282.309 219.968 282.062 220.17 281.773 220.29C281.485 220.409 281.167 220.441 280.861 220.38C280.554 220.319 280.273 220.168 280.052 219.947C279.831 219.726 279.68 219.445 279.619 219.138C279.558 218.832 279.59 218.514 279.709 218.225C279.829 217.937 280.031 217.69 280.291 217.516C280.551 217.343 280.856 217.25 281.169 217.25C281.588 217.25 281.99 217.416 282.286 217.713C282.582 218.009 282.749 218.411 282.749 218.83Z" fill="white" stroke="#263238" stroke-linecap="round" stroke-linejoin="round"/>
<path d="M281.24 220.41C281.24 220.723 281.147 221.028 280.974 221.288C280.8 221.548 280.553 221.75 280.265 221.87C279.976 221.989 279.658 222.021 279.352 221.96C279.045 221.899 278.764 221.748 278.543 221.527C278.322 221.306 278.171 221.025 278.11 220.718C278.049 220.412 278.081 220.094 278.2 219.805C278.32 219.517 278.522 219.27 278.782 219.096C279.042 218.923 279.348 218.83 279.66 218.83C280.079 218.83 280.481 218.996 280.777 219.293C281.074 219.589 281.24 219.991 281.24 220.41Z" fill="white" stroke="#263238" stroke-linecap="round" stroke-linejoin="round"/>
<path d="M277.938 223.76C278.819 223.76 279.534 223.045 279.534 222.164C279.534 221.282 278.819 220.568 277.938 220.568C277.057 220.568 276.342 221.282 276.342 222.164C276.342 223.045 277.057 223.76 277.938 223.76Z" fill="white" stroke="#263238" stroke-linecap="round" stroke-linejoin="round"/>
<path d="M277.638 223.886C277.638 224.198 277.545 224.504 277.371 224.764C277.198 225.024 276.951 225.226 276.662 225.346C276.373 225.465 276.056 225.497 275.749 225.436C275.443 225.375 275.161 225.224 274.94 225.003C274.719 224.782 274.569 224.501 274.508 224.194C274.447 223.888 274.478 223.57 274.598 223.281C274.717 222.993 274.92 222.746 275.18 222.572C275.44 222.399 275.745 222.306 276.058 222.306C276.477 222.306 276.878 222.472 277.175 222.769C277.471 223.065 277.638 223.467 277.638 223.886Z" fill="white" stroke="#263238" stroke-linecap="round" stroke-linejoin="round"/>
<path d="M275.639 225.521C275.639 225.834 275.546 226.139 275.373 226.399C275.199 226.659 274.952 226.861 274.664 226.981C274.375 227.101 274.057 227.132 273.751 227.071C273.444 227.01 273.163 226.86 272.942 226.639C272.721 226.418 272.57 226.136 272.509 225.83C272.448 225.523 272.48 225.205 272.599 224.917C272.719 224.628 272.921 224.381 273.181 224.208C273.441 224.034 273.747 223.941 274.059 223.941C274.478 223.941 274.88 224.108 275.176 224.404C275.473 224.7 275.639 225.102 275.639 225.521Z" fill="white" stroke="#263238" stroke-linecap="round" stroke-linejoin="round"/>
<path d="M271.689 229.021C272.57 229.021 273.285 228.307 273.285 227.425C273.285 226.544 272.57 225.829 271.689 225.829C270.808 225.829 270.093 226.544 270.093 227.425C270.093 228.307 270.808 229.021 271.689 229.021Z" fill="white" stroke="#263238" stroke-linecap="round" stroke-linejoin="round"/>
<path d="M271.381 228.91C271.381 229.223 271.289 229.528 271.115 229.788C270.941 230.048 270.695 230.251 270.406 230.37C270.117 230.49 269.799 230.521 269.493 230.46C269.186 230.399 268.905 230.249 268.684 230.028C268.463 229.807 268.313 229.525 268.252 229.219C268.191 228.912 268.222 228.594 268.341 228.306C268.461 228.017 268.664 227.77 268.923 227.597C269.183 227.423 269.489 227.33 269.801 227.33C270.22 227.33 270.622 227.497 270.918 227.793C271.215 228.089 271.381 228.491 271.381 228.91Z" fill="white" stroke="#263238" stroke-linecap="round" stroke-linejoin="round"/>
<path d="M269.114 231.051C269.114 231.364 269.021 231.669 268.847 231.929C268.674 232.189 268.427 232.391 268.138 232.511C267.85 232.631 267.532 232.662 267.225 232.601C266.919 232.54 266.637 232.39 266.416 232.169C266.195 231.948 266.045 231.666 265.984 231.36C265.923 231.053 265.954 230.735 266.074 230.447C266.193 230.158 266.396 229.911 266.656 229.738C266.916 229.564 267.221 229.471 267.534 229.471C267.953 229.471 268.355 229.638 268.651 229.934C268.947 230.23 269.114 230.632 269.114 231.051Z" fill="white" stroke="#263238" stroke-linecap="round" stroke-linejoin="round"/>
<path d="M266.791 232.41C266.791 232.723 266.698 233.028 266.525 233.288C266.351 233.548 266.104 233.75 265.815 233.87C265.527 233.989 265.209 234.021 264.903 233.96C264.596 233.899 264.315 233.748 264.094 233.527C263.873 233.306 263.722 233.025 263.661 232.718C263.6 232.412 263.632 232.094 263.751 231.805C263.871 231.517 264.073 231.27 264.333 231.096C264.593 230.923 264.898 230.83 265.211 230.83C265.63 230.83 266.032 230.997 266.328 231.293C266.624 231.589 266.791 231.991 266.791 232.41Z" fill="white" stroke="#263238" stroke-linecap="round" stroke-linejoin="round"/>
<path d="M264.255 233.84C264.255 234.153 264.163 234.458 263.989 234.718C263.815 234.978 263.569 235.18 263.28 235.3C262.991 235.419 262.673 235.451 262.367 235.39C262.06 235.329 261.779 235.178 261.558 234.957C261.337 234.736 261.187 234.455 261.126 234.148C261.065 233.842 261.096 233.524 261.215 233.235C261.335 232.947 261.538 232.7 261.797 232.526C262.057 232.353 262.363 232.26 262.675 232.26C263.094 232.26 263.496 232.426 263.792 232.723C264.089 233.019 264.255 233.421 264.255 233.84Z" fill="white" stroke="#263238" stroke-linecap="round" stroke-linejoin="round"/>
<path d="M253.345 228.31C253.345 228.623 253.252 228.928 253.079 229.188C252.905 229.448 252.658 229.65 252.37 229.77C252.081 229.889 251.763 229.921 251.457 229.86C251.15 229.799 250.869 229.648 250.648 229.427C250.427 229.206 250.276 228.925 250.215 228.618C250.154 228.312 250.186 227.994 250.305 227.705C250.425 227.417 250.627 227.17 250.887 226.996C251.147 226.823 251.453 226.73 251.765 226.73C252.184 226.73 252.586 226.896 252.882 227.193C253.179 227.489 253.345 227.891 253.345 228.31Z" fill="white" stroke="#263238" stroke-linecap="round" stroke-linejoin="round"/>
<path d="M252.018 232.552C252.9 232.552 253.614 231.838 253.614 230.957C253.614 230.075 252.9 229.361 252.018 229.361C251.137 229.361 250.422 230.075 250.422 230.957C250.422 231.838 251.137 232.552 252.018 232.552Z" fill="white" stroke="#263238" stroke-linecap="round" stroke-linejoin="round"/>
<path d="M254.206 233.485C254.206 233.797 254.114 234.102 253.94 234.362C253.766 234.622 253.52 234.825 253.231 234.944C252.942 235.064 252.625 235.095 252.318 235.034C252.012 234.973 251.73 234.823 251.509 234.602C251.288 234.381 251.138 234.099 251.077 233.793C251.016 233.486 251.047 233.169 251.167 232.88C251.286 232.591 251.489 232.344 251.749 232.171C252.008 231.997 252.314 231.905 252.626 231.905C253.045 231.905 253.447 232.071 253.744 232.367C254.04 232.664 254.206 233.065 254.206 233.485Z" fill="white" stroke="#263238" stroke-linecap="round" stroke-linejoin="round"/>
<path d="M254.649 236.723C255.53 236.723 256.244 236.009 256.244 235.128C256.244 234.246 255.53 233.532 254.649 233.532C253.767 233.532 253.053 234.246 253.053 235.128C253.053 236.009 253.767 236.723 254.649 236.723Z" fill="white" stroke="#263238" stroke-linecap="round" stroke-linejoin="round"/>
<path d="M261.593 234.859C261.593 235.172 261.5 235.477 261.326 235.737C261.153 235.997 260.906 236.199 260.617 236.319C260.329 236.438 260.011 236.47 259.704 236.409C259.398 236.348 259.116 236.197 258.895 235.976C258.674 235.755 258.524 235.474 258.463 235.167C258.402 234.861 258.433 234.543 258.553 234.254C258.672 233.966 258.875 233.719 259.135 233.545C259.395 233.372 259.7 233.279 260.013 233.279C260.432 233.279 260.834 233.446 261.13 233.742C261.426 234.038 261.593 234.44 261.593 234.859Z" fill="white" stroke="#263238" stroke-linecap="round" stroke-linejoin="round"/>
<path d="M259.12 235.673C259.12 235.985 259.027 236.291 258.854 236.551C258.68 236.81 258.433 237.013 258.145 237.133C257.856 237.252 257.538 237.283 257.232 237.222C256.925 237.162 256.644 237.011 256.423 236.79C256.202 236.569 256.051 236.288 255.99 235.981C255.929 235.675 255.961 235.357 256.08 235.068C256.2 234.779 256.402 234.533 256.662 234.359C256.922 234.186 257.227 234.093 257.54 234.093C257.959 234.093 258.361 234.259 258.657 234.556C258.954 234.852 259.12 235.254 259.12 235.673Z" fill="white" stroke="#263238" stroke-linecap="round" stroke-linejoin="round"/>
<path d="M282.749 218.83C282.749 218.83 275.481 242.893 271.223 253.914C266.965 264.934 255.699 289.219 255.699 289.219C255.699 289.219 245.184 274.699 243.431 256.916C241.677 239.133 249 222.788 249 222.788C249 222.788 229.677 229.432 224.921 231.186C220.165 232.939 214.754 235.46 212.755 240.215C210.756 244.971 188.407 308.068 187.404 310.573C186.401 313.077 184.402 313.33 187.159 317.588C189.916 321.846 203.18 322.091 205.684 319.839C208.189 317.588 222.646 296.25 222.646 296.25L227.907 306.52L230.159 337.567L229.661 342.828H297.04L296.25 324.548C296.25 324.548 321.309 261.458 323.315 250.691C325.322 239.923 322.312 234.164 317.785 230.941C313.259 227.718 282.749 218.83 282.749 218.83Z" fill="#8692D0" stroke="#263238" stroke-linecap="round" stroke-linejoin="round"/>
<path d="M240.034 237.869C239.469 237.713 238.866 237.779 238.349 238.054C237.832 238.329 237.44 238.791 237.253 239.346C236.518 241.385 235.957 243.241 235.957 243.241C235.957 243.241 233.366 246.954 232.797 248.771C232.228 250.588 230.759 265.456 230.388 266.759C230.016 268.063 228.721 274.73 228.721 274.73L226.683 277.89L232.055 287.157C232.055 287.157 235.025 286.975 237.806 282.709C240.587 278.443 240.587 278.815 241.14 273.443C241.693 268.071 242.254 238.77 242.254 238.77C242.254 238.77 241.148 237.498 240.034 237.869Z" fill="white" stroke="#263238" stroke-linecap="round" stroke-linejoin="round"/>
<path d="M250.975 284.4C250.975 284.4 250.422 280.505 251.347 279.21C252.271 277.914 254.127 277.725 254.507 273.466C254.886 269.208 253.582 265.116 254.325 260.487C255.067 255.857 257.106 256.774 256.916 254.736C256.726 252.697 253.756 252.326 252.84 253.811C251.923 255.296 250.983 257.145 250.983 257.145C250.983 257.145 250.241 245.295 249.869 241.385C249.498 237.474 246.907 236.384 246.907 236.384C246.907 236.384 245.793 233.224 244.308 233.974C242.822 234.725 242.641 235.641 242.641 235.641C241.606 236.161 240.714 236.926 240.042 237.869C239.581 238.916 239.391 240.063 239.489 241.203C238.391 242.219 237.563 243.493 237.079 244.908C236.526 246.954 234.298 260.115 234.109 265.306C233.919 270.496 234.109 279.581 235.041 281.248C235.973 282.915 238.375 286.438 238.375 286.438L239.86 290.894C239.86 290.894 246.899 285.143 250.975 284.4Z" fill="white" stroke="#263238" stroke-linecap="round" stroke-linejoin="round"/>
<path d="M239.481 241.203C239.481 241.203 240.595 241.756 240.405 244.363C240.215 246.97 238.928 258.828 238.928 258.828" fill="white"/>
<path d="M239.481 241.203C239.481 241.203 240.595 241.756 240.405 244.363C240.215 246.97 238.928 258.828 238.928 258.828" stroke="#263238" stroke-linecap="round" stroke-linejoin="round"/>
<path d="M242.633 235.641C242.633 235.641 244.11 234.772 243.739 238.011C243.368 241.25 243.375 257.358 243.375 257.358" fill="white"/>
<path d="M242.633 235.641C242.633 235.641 244.11 234.772 243.739 238.011C243.368 241.25 243.375 257.358 243.375 257.358" stroke="#263238" stroke-linecap="round" stroke-linejoin="round"/>
<path d="M246.899 236.384C246.899 236.384 247.642 251.394 247.27 255.668L246.899 236.384Z" fill="white"/>
<path d="M246.899 236.384C246.899 236.384 247.642 251.394 247.27 255.668" stroke="#263238" stroke-linecap="round" stroke-linejoin="round"/>
<path d="M250.975 257.145C250.975 257.145 251.876 262.596 252.239 263.892L250.975 257.145Z" fill="white"/>
<path d="M250.975 257.145C250.975 257.145 251.876 262.596 252.239 263.892" stroke="#263238" stroke-linecap="round" stroke-linejoin="round"/>
<path d="M227.165 275.536L235.175 286.367C235.175 286.367 217.937 312.611 215.244 316.893C212.55 321.175 203.828 331.192 198.914 332.456C194 333.72 191.307 332.456 188.644 328.656C185.982 324.856 181.985 318.386 183.73 314.065C185.476 309.743 198.63 297.388 202.754 295.168C206.877 292.948 227.165 275.536 227.165 275.536Z" fill="#8692D0" stroke="#263238" stroke-linecap="round" stroke-linejoin="round"/>
<path d="M312.335 230.317C312.335 230.317 316.285 230.633 317.817 230.87C319.35 231.107 322.17 234.914 323.276 237.292C324.382 239.67 324.39 248.708 323.908 253.78C323.426 258.851 312.99 296.779 310.771 308.511C308.551 320.242 300.927 337.741 299.505 339.787C298.083 341.833 295.381 343.737 292.687 343.587C289.994 343.437 273.277 331.792 267.091 325.772C260.906 319.753 237.277 288.642 237.277 288.642C237.277 288.642 240.295 283.902 242.989 282.322C245.682 280.742 251.394 279.786 251.394 279.786C251.394 279.786 261.854 288.824 269.943 295.46C274.986 299.587 280.348 303.307 285.98 306.583C285.98 306.583 289.472 286.375 289.93 283.997C290.389 281.619 294.157 261.174 294.157 261.174" fill="#8692D0"/>
<path d="M312.335 230.317C312.335 230.317 316.285 230.633 317.817 230.87C319.35 231.107 322.17 234.914 323.276 237.292C324.382 239.67 324.39 248.708 323.908 253.78C323.426 258.851 312.99 296.779 310.771 308.511C308.551 320.242 300.927 337.741 299.505 339.787C298.083 341.833 295.381 343.737 292.687 343.587C289.994 343.437 273.277 331.792 267.091 325.772C260.906 319.753 237.277 288.642 237.277 288.642C237.277 288.642 240.295 283.902 242.989 282.322C245.682 280.742 251.394 279.786 251.394 279.786C251.394 279.786 261.854 288.824 269.943 295.46C274.986 299.587 280.348 303.307 285.98 306.583C285.98 306.583 289.472 286.375 289.93 283.997C290.389 281.619 294.157 261.174 294.157 261.174" stroke="#263238" stroke-linecap="round" stroke-linejoin="round"/>
<path d="M285.98 306.583C285.98 306.583 291.692 308.803 293.09 317.209" stroke="#263238" stroke-linecap="round" stroke-linejoin="round"/>
<path d="M286.272 308.645C286.272 308.645 289.606 311.015 288.816 316.253" stroke="#263238" stroke-linecap="round" stroke-linejoin="round"/>
<path d="M218.727 281.848C217.917 278.044 218.191 274.089 219.517 270.433C221.737 264.405 226.627 247.594 226.627 247.594" stroke="#263238" stroke-linecap="round" stroke-linejoin="round"/>
<path d="M192.824 358.391L241.156 346.217C241.906 346.036 242.191 343.737 241.424 343.737L170.127 344.938L192.824 358.391Z" fill="white" stroke="#263238" stroke-linecap="round" stroke-linejoin="round"/>
<path d="M192.824 357.167L241.156 344.993C241.313 344.958 241.451 344.866 241.544 344.734C241.637 344.603 241.677 344.441 241.658 344.281C241.638 344.122 241.559 343.975 241.437 343.87C241.315 343.765 241.159 343.709 240.998 343.713H170.127L192.824 357.167Z" fill="white" stroke="#263238" stroke-linecap="round" stroke-linejoin="round"/>
<path d="M187.949 348.042H212.344L185.168 353.604L187.949 348.042Z" fill="#8692D0" stroke="#263238" stroke-linecap="round" stroke-linejoin="round"/>
<path d="M192.823 358.391H83.0133L70.3733 293.193C70.2662 292.638 70.2829 292.067 70.4223 291.52C70.5617 290.973 70.8203 290.463 71.1796 290.028C71.5389 289.592 71.9901 289.241 72.5008 289.001C73.0114 288.76 73.569 288.635 74.1337 288.634H176.17C177.059 288.635 177.92 288.945 178.605 289.512C179.289 290.079 179.755 290.866 179.923 291.739L192.823 358.391Z" fill="white" stroke="#263238" stroke-linecap="round" stroke-linejoin="round"/>
<path d="M191.101 358.391H81.3702L68.7302 293.193C68.6232 292.639 68.6398 292.068 68.7788 291.522C68.9177 290.975 69.1756 290.466 69.534 290.031C69.8925 289.595 70.3426 289.244 70.8523 289.003C71.362 288.762 71.9187 288.636 72.4827 288.634H174.424C175.314 288.635 176.176 288.945 176.862 289.511C177.548 290.078 178.016 290.865 178.185 291.739L191.101 358.391Z" fill="#8692D0" stroke="#263238" stroke-linecap="round" stroke-linejoin="round"/>
<path d="M125.721 332.25C130.145 332.25 133.732 328.664 133.732 324.24C133.732 319.816 130.145 316.229 125.721 316.229C121.297 316.229 117.71 319.816 117.71 324.24C117.71 328.664 121.297 332.25 125.721 332.25Z" fill="#CDCBEB"/>
</svg>
