<svg width="1440" height="1024" viewBox="0 0 1440 1024" fill="none" xmlns="http://www.w3.org/2000/svg">
<path d="M673 1058L-45 792V1058H673Z" fill="url(#paint0_linear_5663_1103)"/>
<path d="M413 1154L57.0323 746L-34 1154H413Z" fill="url(#paint1_linear_5663_1103)"/>
<path d="M193 985.196C87.9045 950.972 64 780.195 -18 824.195V1082.98L614.5 1082.98C575.667 1047.03 388 1048.7 193 985.196Z" fill="url(#paint2_linear_5663_1103)"/>
<path d="M1325 -82L969 -82L1088 89.5L1467.5 451L1325 -82Z" fill="url(#paint3_linear_5663_1103)"/>
<path d="M745 -91.9999L1463 174L1463 -92L745 -91.9999Z" fill="url(#paint4_linear_5663_1103)"/>
<path d="M1287 143.805C1392.1 178.028 1416 348.805 1498 304.805L1498 46.018L865.5 46.0181C904.333 81.967 1092 80.3045 1287 143.805Z" fill="url(#paint5_linear_5663_1103)"/>
<defs>
<linearGradient id="paint0_linear_5663_1103" x1="-33.5" y1="806.289" x2="200.762" y2="1094.68" gradientUnits="userSpaceOnUse">
<stop stop-color="#DEB3E1"/>
<stop offset="1" stop-color="#DEB3E1" stop-opacity="0"/>
</linearGradient>
<linearGradient id="paint1_linear_5663_1103" x1="189.5" y1="746" x2="198.27" y2="950.217" gradientUnits="userSpaceOnUse">
<stop stop-color="#D1BDF0"/>
<stop offset="1" stop-color="#E7BCE9" stop-opacity="0"/>
</linearGradient>
<linearGradient id="paint2_linear_5663_1103" x1="74.5" y1="804" x2="271.176" y2="1145.88" gradientUnits="userSpaceOnUse">
<stop stop-color="#FFD88D" stop-opacity="0.61"/>
<stop offset="1" stop-color="#EABDD1" stop-opacity="0"/>
</linearGradient>
<linearGradient id="paint3_linear_5663_1103" x1="1192.52" y1="222" x2="1187.65" y2="69.7137" gradientUnits="userSpaceOnUse">
<stop stop-color="#D1BDF0"/>
<stop offset="1" stop-color="#E7BCE9" stop-opacity="0"/>
</linearGradient>
<linearGradient id="paint4_linear_5663_1103" x1="1451.5" y1="159.711" x2="1217.24" y2="-128.679" gradientUnits="userSpaceOnUse">
<stop stop-color="#DEB3E1"/>
<stop offset="1" stop-color="#DEB3E1" stop-opacity="0"/>
</linearGradient>
<linearGradient id="paint5_linear_5663_1103" x1="1405.5" y1="325" x2="1208.82" y2="-16.8752" gradientUnits="userSpaceOnUse">
<stop stop-color="#FFD88D" stop-opacity="0.61"/>
<stop offset="1" stop-color="#EABDD1" stop-opacity="0"/>
</linearGradient>
</defs>
</svg>
