<svg width="400" height="357" viewBox="0 0 400 357" fill="none" xmlns="http://www.w3.org/2000/svg">
<g clip-path="url(#clip0_2737_48746)">
<g opacity="0.7">
<path d="M380.633 209.641C369.841 242.353 346.585 278.217 312.353 289.889C260.641 307.537 256.001 349.945 162.169 349.657C148.467 349.676 134.803 348.209 121.417 345.281C114.872 343.826 108.427 341.956 102.121 339.681C46.5208 319.625 16.0808 271.929 11.7208 220.961C6.00079 153.921 51.6168 120.105 81.3208 100.161C111.025 80.2173 144.945 6.20126 237.217 5.76126C251.302 5.63499 265.355 7.13559 279.097 10.2333C310.425 17.4333 342.665 34.7693 362.033 61.1933C363.481 63.1773 364.873 65.1933 366.217 67.2893C392.369 107.953 395.353 165.033 380.633 209.641Z" fill="#8692D0"/>
<path opacity="0.7" d="M380.633 209.641C369.841 242.353 346.585 278.217 312.353 289.889C260.641 307.537 256.001 349.945 162.169 349.657C148.467 349.676 134.803 348.209 121.417 345.281C114.872 343.826 108.427 341.956 102.121 339.681C46.5208 319.625 16.0808 271.929 11.7208 220.961C6.00079 153.921 51.6168 120.105 81.3208 100.161C111.025 80.2173 144.945 6.20126 237.217 5.76126C251.302 5.63499 265.355 7.13559 279.097 10.2333C310.425 17.4333 342.665 34.7693 362.033 61.1933C363.481 63.1773 364.873 65.1933 366.217 67.2893C392.369 107.953 395.353 165.033 380.633 209.641Z" fill="#CCCDED"/>
</g>
<path d="M385.032 356.96H12.7203C12.6142 356.96 12.5125 356.918 12.4375 356.843C12.3625 356.768 12.3203 356.666 12.3203 356.56C12.3224 356.455 12.3652 356.354 12.4397 356.28C12.5143 356.205 12.6149 356.162 12.7203 356.16H385.032C385.138 356.162 385.238 356.205 385.313 356.28C385.387 356.354 385.43 356.455 385.432 356.56C385.432 356.666 385.39 356.768 385.315 356.843C385.24 356.918 385.138 356.96 385.032 356.96Z" fill="#263238"/>
<path d="M240.757 18.8242H34.9568C31.6476 18.8242 28.9648 21.5069 28.9648 24.8162V228.8C28.9648 232.109 31.6476 234.792 34.9568 234.792H240.757C244.066 234.792 246.749 232.109 246.749 228.8V24.8162C246.749 21.5069 244.066 18.8242 240.757 18.8242Z" fill="#8692D0"/>
<path d="M240.799 235.198H34.9508C33.2534 235.198 31.6255 234.524 30.4253 233.324C29.2251 232.124 28.5508 230.496 28.5508 228.798V24.7984C28.5508 23.1011 29.2251 21.4732 30.4253 20.273C31.6255 19.0727 33.2534 18.3984 34.9508 18.3984H240.799C242.496 18.3984 244.124 19.0727 245.324 20.273C246.525 21.4732 247.199 23.1011 247.199 24.7984V228.798C247.199 230.496 246.525 232.124 245.324 233.324C244.124 234.524 242.496 235.198 240.799 235.198ZM34.9508 19.1984C33.4656 19.1984 32.0412 19.7884 30.991 20.8386C29.9408 21.8888 29.3508 23.3132 29.3508 24.7984V228.798C29.3508 230.284 29.9408 231.708 30.991 232.758C32.0412 233.808 33.4656 234.398 34.9508 234.398H240.799C242.284 234.398 243.708 233.808 244.759 232.758C245.809 231.708 246.399 230.284 246.399 228.798V24.7984C246.399 23.3132 245.809 21.8888 244.759 20.8386C243.708 19.7884 242.284 19.1984 240.799 19.1984H34.9508Z" fill="#263238"/>
<path d="M246.75 36.4453H28.9664C28.8603 36.4453 28.7586 36.4032 28.6836 36.3282C28.6085 36.2531 28.5664 36.1514 28.5664 36.0453V25.6453C28.579 23.7396 29.3416 21.9156 30.6891 20.568C32.0367 19.2205 33.8607 18.4579 35.7664 18.4453H239.91C241.823 18.4474 243.657 19.2053 245.013 20.554C246.37 21.9027 247.138 23.7327 247.15 25.6453V36.0453C247.15 36.1514 247.108 36.2531 247.033 36.3282C246.958 36.4032 246.857 36.4453 246.75 36.4453ZM29.3664 35.6453H246.35V25.6613C246.338 23.9609 245.654 22.3343 244.448 21.1357C243.242 19.9371 241.611 19.2634 239.91 19.2613H35.8064C34.1129 19.2739 32.4923 19.9522 31.2948 21.1497C30.0973 22.3472 29.419 23.9678 29.4064 25.6613L29.3664 35.6453Z" fill="#263238"/>
<path d="M215.199 31.6716C216.944 31.6716 218.359 30.2568 218.359 28.5116C218.359 26.7663 216.944 25.3516 215.199 25.3516C213.454 25.3516 212.039 26.7663 212.039 28.5116C212.039 30.2568 213.454 31.6716 215.199 31.6716Z" fill="white"/>
<path d="M215.201 32.0692C214.497 32.0692 213.808 31.8604 213.223 31.4693C212.637 31.0781 212.181 30.5221 211.912 29.8716C211.642 29.2211 211.572 28.5053 211.709 27.8147C211.846 27.1241 212.185 26.4898 212.683 25.9919C213.181 25.494 213.816 25.155 214.506 25.0176C215.197 24.8803 215.912 24.9508 216.563 25.2202C217.213 25.4897 217.769 25.946 218.161 26.5314C218.552 27.1168 218.761 27.8051 218.761 28.5092C218.759 29.4527 218.383 30.357 217.716 31.0242C217.048 31.6914 216.144 32.0671 215.201 32.0692ZM215.201 25.7492C214.655 25.7492 214.121 25.9111 213.667 26.2144C213.213 26.5176 212.86 26.9487 212.651 27.453C212.442 27.9573 212.387 28.5123 212.494 29.0477C212.6 29.5831 212.863 30.0748 213.249 30.4608C213.635 30.8468 214.127 31.1097 214.662 31.2162C215.198 31.3227 215.753 31.268 216.257 31.0591C216.761 30.8502 217.192 30.4965 217.495 30.0426C217.799 29.5887 217.961 29.0551 217.961 28.5092C217.959 27.7779 217.667 27.0771 217.15 26.5599C216.633 26.0428 215.932 25.7513 215.201 25.7492Z" fill="#263238"/>
<path d="M225.863 31.6716C227.608 31.6716 229.023 30.2568 229.023 28.5116C229.023 26.7663 227.608 25.3516 225.863 25.3516C224.118 25.3516 222.703 26.7663 222.703 28.5116C222.703 30.2568 224.118 31.6716 225.863 31.6716Z" fill="white"/>
<path d="M225.865 32.0692C225.161 32.0692 224.472 31.8604 223.887 31.4693C223.301 31.0781 222.845 30.5221 222.576 29.8716C222.306 29.2211 222.236 28.5053 222.373 27.8147C222.51 27.1241 222.85 26.4898 223.347 25.9919C223.845 25.494 224.48 25.155 225.17 25.0176C225.861 24.8803 226.577 24.9508 227.227 25.2202C227.878 25.4897 228.434 25.946 228.825 26.5314C229.216 27.1168 229.425 27.8051 229.425 28.5092C229.425 29.4534 229.05 30.3589 228.382 31.0265C227.714 31.6941 226.809 32.0692 225.865 32.0692ZM225.865 25.7492C225.319 25.7492 224.785 25.9111 224.331 26.2144C223.877 26.5176 223.524 26.9487 223.315 27.453C223.106 27.9573 223.051 28.5123 223.158 29.0477C223.264 29.5831 223.527 30.0748 223.913 30.4608C224.299 30.8468 224.791 31.1097 225.326 31.2162C225.862 31.3227 226.417 31.268 226.921 31.0591C227.425 30.8502 227.856 30.4965 228.16 30.0426C228.463 29.5887 228.625 29.0551 228.625 28.5092C228.625 28.1468 228.553 27.7879 228.415 27.453C228.276 27.1182 228.073 26.8139 227.816 26.5576C227.56 26.3013 227.256 26.098 226.921 25.9593C226.586 25.8206 226.227 25.7492 225.865 25.7492Z" fill="#263238"/>
<path d="M239.677 28.5086C239.677 27.8757 239.49 27.257 239.138 26.7308C238.786 26.2045 238.287 25.7944 237.702 25.5522C237.117 25.31 236.474 25.2466 235.853 25.3701C235.232 25.4936 234.662 25.7983 234.215 26.2459C233.767 26.6934 233.462 27.2636 233.339 27.8843C233.215 28.505 233.279 29.1485 233.521 29.7332C233.763 30.3179 234.173 30.8177 234.7 31.1693C235.226 31.5209 235.844 31.7086 236.477 31.7086C237.326 31.7086 238.14 31.3715 238.74 30.7713C239.34 30.1712 239.677 29.3573 239.677 28.5086Z" fill="white"/>
<path d="M236.517 32.0692C235.813 32.0692 235.125 31.8604 234.539 31.4693C233.954 31.0781 233.497 30.5221 233.228 29.8716C232.959 29.2211 232.888 28.5053 233.025 27.8147C233.163 27.1241 233.502 26.4898 234 25.9919C234.498 25.494 235.132 25.155 235.823 25.0176C236.513 24.8803 237.229 24.9508 237.879 25.2202C238.53 25.4897 239.086 25.946 239.477 26.5314C239.868 27.1168 240.077 27.8051 240.077 28.5092C240.075 29.4527 239.699 30.357 239.032 31.0242C238.365 31.6914 237.461 32.0671 236.517 32.0692ZM236.517 25.7492C235.971 25.7492 235.438 25.9111 234.984 26.2144C234.53 26.5176 234.176 26.9487 233.967 27.453C233.758 27.9573 233.704 28.5123 233.81 29.0477C233.917 29.5831 234.179 30.0748 234.565 30.4608C234.951 30.8468 235.443 31.1097 235.979 31.2162C236.514 31.3227 237.069 31.268 237.573 31.0591C238.078 30.8502 238.509 30.4965 238.812 30.0426C239.115 29.5887 239.277 29.0551 239.277 28.5092C239.275 27.7779 238.983 27.0771 238.466 26.5599C237.949 26.0428 237.248 25.7513 236.517 25.7492Z" fill="#263238"/>
<path d="M72.1836 68.3901V57.2941H75.0636C75.7155 57.2818 76.3655 57.3682 76.9916 57.5501C77.494 57.6963 77.9297 58.0132 78.2236 58.4461C78.5387 58.9858 78.6889 59.606 78.6556 60.2301C78.6606 60.636 78.6203 61.0412 78.5356 61.4381C78.4694 61.7835 78.3303 62.1108 78.1276 62.3981C77.9198 62.6722 77.644 62.8873 77.3276 63.0221L78.8636 68.4301H76.5436L75.2716 63.4061H74.4716V68.4301L72.1836 68.3901ZM74.4476 61.9901H75.1036C75.4097 62.0224 75.719 61.9727 75.9996 61.8461C76.2095 61.7246 76.3686 61.5314 76.4476 61.3021C76.5373 61.0121 76.5806 60.7097 76.5756 60.4061C76.6011 59.9975 76.5036 59.5907 76.2956 59.2381C76.1634 59.0817 75.993 58.9619 75.8011 58.8905C75.6091 58.819 75.4019 58.7982 75.1996 58.8301H74.3996L74.4476 61.9901Z" fill="#263238"/>
<path d="M80.1367 68.389V57.293H84.9367V58.853H82.4007V61.805H84.3927V63.405H82.4007V66.885H85.0087V68.413L80.1367 68.389Z" fill="#263238"/>
<path d="M89.0073 68.5409C88.4138 68.5641 87.8244 68.4346 87.2953 68.1649C86.8362 67.9094 86.4737 67.5104 86.2633 67.0289C86.0066 66.4154 85.8708 65.758 85.8633 65.0929L87.8073 64.7649C87.8144 65.1503 87.8627 65.5338 87.9513 65.9089C87.9998 66.1651 88.1221 66.4015 88.3033 66.5889C88.3825 66.6656 88.4766 66.7251 88.5799 66.7636C88.6831 66.8022 88.7932 66.8189 88.9033 66.8129C89.0174 66.8265 89.1331 66.8083 89.2376 66.7603C89.3421 66.7123 89.4312 66.6364 89.4953 66.5409C89.6033 66.348 89.6585 66.13 89.6553 65.9089C89.6699 65.4938 89.5522 65.0848 89.3193 64.7409C89.0609 64.3905 88.7629 64.071 88.4313 63.7889L87.2873 62.7889C86.8845 62.4533 86.5433 62.0499 86.2793 61.5969C86.0069 61.1087 85.8715 60.5559 85.8873 59.9969C85.8606 59.6093 85.9183 59.2204 86.0564 58.8572C86.1945 58.4939 86.4098 58.165 86.6873 57.8929C87.3004 57.3769 88.087 57.1137 88.8873 57.1569C89.3582 57.1409 89.8263 57.234 90.2553 57.4289C90.581 57.6012 90.8565 57.8547 91.0553 58.1649C91.2513 58.4705 91.3896 58.8095 91.4633 59.1649C91.5421 59.5175 91.5903 59.8761 91.6073 60.2369L89.6793 60.5249C89.6793 60.1889 89.6313 59.8929 89.5913 59.6369C89.5609 59.4191 89.4755 59.2127 89.3433 59.0369C89.2731 58.9595 89.1862 58.8991 89.0891 58.8603C88.9921 58.8215 88.8875 58.8053 88.7833 58.8129C88.6685 58.8068 88.5542 58.8309 88.4517 58.8829C88.3492 58.9348 88.2622 59.0128 88.1993 59.1089C88.0733 59.3015 88.0065 59.5268 88.0073 59.7569C87.9892 60.0996 88.0818 60.4389 88.2713 60.7249C88.4846 61.0194 88.7316 61.2879 89.0073 61.5249L90.1273 62.5089C90.5894 62.9095 90.9933 63.3726 91.3273 63.8849C91.6788 64.4592 91.854 65.124 91.8313 65.7969C91.8384 66.2899 91.7142 66.7759 91.4713 67.2049C91.2391 67.6213 90.8956 67.9648 90.4793 68.1969C90.0246 68.4315 89.5188 68.5497 89.0073 68.5409Z" fill="#263238"/>
<path d="M92.8711 68.389V57.293H97.6711V58.853H95.0951V61.805H97.0791V63.405H95.0951V66.885H97.6951V68.413L92.8711 68.389Z" fill="#263238"/>
<path d="M99.919 68.389V58.981H98.207V57.293H103.879V58.981H102.191V68.389H99.919Z" fill="#263238"/>
<path d="M109.75 68.389V63.997L107.59 57.293H109.71L110.902 61.197L111.998 57.293H114.054L111.934 63.997V68.389H109.75Z" fill="#263238"/>
<path d="M117.933 68.5436C117.26 68.5783 116.59 68.426 115.997 68.1036C115.525 67.8169 115.166 67.3761 114.981 66.8556C114.76 66.2291 114.654 65.5677 114.669 64.9036V60.7996C114.654 60.138 114.76 59.4792 114.981 58.8556C115.165 58.3321 115.524 57.8882 115.997 57.5996C116.607 57.3178 117.27 57.1719 117.941 57.1719C118.613 57.1719 119.276 57.3178 119.885 57.5996C120.358 57.8808 120.719 58.3157 120.909 58.8316C121.131 59.4523 121.237 60.1085 121.221 60.7676V64.9116C121.236 65.5757 121.131 66.2371 120.909 66.8636C120.722 67.3853 120.361 67.8263 119.885 68.1116C119.286 68.4314 118.611 68.5808 117.933 68.5436ZM117.933 66.9436C118.163 66.9628 118.392 66.8942 118.573 66.7516C118.718 66.6056 118.813 66.4182 118.845 66.2156C118.895 65.9788 118.919 65.7374 118.917 65.4956V60.2156C118.919 59.9763 118.895 59.7376 118.845 59.5036C118.811 59.3037 118.716 59.1193 118.573 58.9756C118.395 58.827 118.165 58.7551 117.933 58.7756C117.822 58.7641 117.71 58.776 117.604 58.8104C117.498 58.8449 117.4 58.9011 117.317 58.9756C117.175 59.1209 117.078 59.3043 117.037 59.5036C116.994 59.7384 116.973 59.9768 116.973 60.2156V65.4636C116.969 65.7051 116.991 65.9465 117.037 66.1836C117.067 66.3854 117.16 66.5729 117.301 66.7196C117.48 66.8624 117.706 66.9312 117.933 66.9116V66.9436Z" fill="#263238"/>
<path d="M125.854 68.541C125.174 68.5788 124.496 68.4294 123.894 68.109C123.428 67.8234 123.079 67.3808 122.91 66.861C122.71 66.2219 122.616 65.5545 122.63 64.885V57.293H124.862V65.197C124.864 65.4649 124.885 65.7323 124.926 65.997C124.952 66.2348 125.047 66.46 125.198 66.645C125.282 66.7334 125.384 66.8017 125.498 66.8447C125.611 66.8877 125.733 66.9042 125.854 66.893C125.976 66.9014 126.099 66.8837 126.213 66.8409C126.328 66.7981 126.432 66.7313 126.518 66.645C126.664 66.4573 126.755 66.2331 126.782 65.997C126.821 65.7321 126.84 65.4647 126.838 65.197V57.293H129.07V64.885C129.085 65.5545 128.991 66.2219 128.79 66.861C128.624 67.3822 128.274 67.8255 127.806 68.109C127.208 68.4296 126.532 68.579 125.854 68.541Z" fill="#263238"/>
<path d="M130.648 68.39V57.294H133.528C134.178 57.2822 134.825 57.3685 135.448 57.55C135.952 57.6937 136.389 58.0112 136.68 58.446C136.996 58.9858 137.146 59.6059 137.112 60.23C137.116 60.6354 137.078 61.0402 137 61.438C136.929 61.7707 136.787 62.0843 136.584 62.358C136.378 62.6332 136.102 62.8485 135.784 62.982L137.32 68.39H135L133.728 63.366H132.928V68.39H130.648ZM132.912 61.99H133.6C133.899 62.0046 134.196 61.9441 134.464 61.814C134.672 61.6916 134.828 61.4984 134.904 61.27C135.001 60.9814 135.047 60.6783 135.04 60.374C135.068 59.9643 134.967 59.5562 134.752 59.206C134.625 59.0565 134.463 58.9409 134.28 58.8697C134.097 58.7984 133.899 58.7738 133.704 58.798H132.904L132.912 61.99Z" fill="#263238"/>
<path d="M142.016 68.3907V57.2947H145.544C146.101 57.276 146.653 57.4058 147.144 57.6707C147.565 57.9245 147.896 58.3054 148.088 58.7587C148.302 59.3091 148.405 59.8963 148.392 60.4867C148.425 61.1325 148.287 61.7756 147.992 62.3507C147.74 62.7823 147.351 63.1174 146.888 63.3027C146.378 63.4997 145.834 63.5948 145.288 63.5827H144.264V68.3827L142.016 68.3907ZM144.28 61.9907H145.08C145.343 62.0045 145.605 61.9493 145.84 61.8307C145.932 61.7757 146.012 61.7027 146.075 61.6161C146.138 61.5295 146.183 61.4311 146.208 61.3267C146.278 61.0417 146.311 60.7484 146.304 60.4547C146.31 60.1699 146.283 59.8853 146.224 59.6067C146.185 59.3914 146.065 59.1994 145.888 59.0707C145.647 58.9267 145.368 58.8597 145.088 58.8787H144.288L144.28 61.9907Z" fill="#263238"/>
<path d="M148.414 68.389L150.566 57.293H153.07L155.198 68.389H153.118L152.718 65.989H150.966L150.542 68.389H148.414ZM151.198 64.573H152.534L151.862 60.093L151.198 64.573Z" fill="#263238"/>
<path d="M159.128 68.5409C158.535 68.5641 157.945 68.4346 157.416 68.1649C156.957 67.9094 156.595 67.5104 156.384 67.0289C156.128 66.4154 155.992 65.758 155.984 65.0929L157.928 64.7649C157.936 65.1503 157.984 65.5338 158.072 65.9089C158.121 66.1651 158.243 66.4015 158.424 66.5889C158.504 66.6656 158.598 66.7251 158.701 66.7636C158.804 66.8022 158.914 66.8189 159.024 66.8129C159.139 66.8265 159.254 66.8083 159.359 66.7603C159.463 66.7123 159.552 66.6364 159.616 66.5409C159.724 66.348 159.78 66.13 159.776 65.9089C159.791 65.4938 159.673 65.0848 159.44 64.7409C159.183 64.3924 158.888 64.0732 158.56 63.7889L157.408 62.7889C157.006 62.4533 156.664 62.0499 156.4 61.5969C156.128 61.1087 155.993 60.5559 156.008 59.9969C155.982 59.6093 156.039 59.2204 156.178 58.8572C156.316 58.4939 156.531 58.165 156.808 57.8929C157.421 57.3769 158.208 57.1137 159.008 57.1569C159.479 57.1409 159.947 57.234 160.376 57.4289C160.702 57.6012 160.978 57.8547 161.176 58.1649C161.382 58.479 161.526 58.8292 161.6 59.1969C161.679 59.5495 161.727 59.9081 161.744 60.2689L159.816 60.5569C159.803 60.2596 159.774 59.9632 159.728 59.6689C159.702 59.4502 159.616 59.2428 159.48 59.0689C159.41 58.9915 159.323 58.9311 159.226 58.8923C159.129 58.8535 159.025 58.8373 158.92 58.8449C158.806 58.8388 158.691 58.8629 158.589 58.9149C158.486 58.9668 158.399 59.0448 158.336 59.1409C158.21 59.3335 158.144 59.5588 158.144 59.7889C158.126 60.1316 158.219 60.4709 158.408 60.7569C158.622 61.0514 158.869 61.3199 159.144 61.5569L160.264 62.5409C160.729 62.9394 161.133 63.4028 161.464 63.9169C161.816 64.4912 161.991 65.156 161.968 65.8289C161.966 66.3091 161.839 66.7804 161.6 67.1969C161.368 67.6133 161.025 67.9568 160.608 68.1889C160.152 68.4275 159.643 68.5485 159.128 68.5409Z" fill="#263238"/>
<path d="M165.871 68.5413C165.277 68.5651 164.688 68.4356 164.159 68.1653C163.7 67.9098 163.337 67.5107 163.127 67.0293C162.871 66.4151 162.732 65.7584 162.719 65.0933L164.663 64.7653C164.678 65.15 164.726 65.5328 164.807 65.9093C164.861 66.165 164.986 66.4004 165.167 66.5893C165.245 66.6649 165.338 66.7238 165.44 66.7623C165.541 66.8008 165.65 66.8182 165.759 66.8133C165.874 66.8284 165.992 66.811 166.098 66.7629C166.204 66.7148 166.294 66.6381 166.359 66.5413C166.467 66.3484 166.522 66.1303 166.519 65.9093C166.533 65.4942 166.416 65.0852 166.183 64.7413C165.924 64.3908 165.626 64.0714 165.295 63.7893L164.143 62.7893C163.744 62.4496 163.403 62.0469 163.135 61.5973C162.869 61.1065 162.737 60.555 162.751 59.9973C162.724 59.6096 162.782 59.2207 162.92 58.8575C163.058 58.4943 163.273 58.1653 163.551 57.8933C164.163 57.3757 164.95 57.1124 165.751 57.1573C166.221 57.143 166.689 57.236 167.119 57.4293C167.445 57.6006 167.721 57.8543 167.919 58.1653C168.117 58.4704 168.258 58.8094 168.335 59.1653C168.414 59.5178 168.462 59.8765 168.479 60.2373L166.543 60.5253C166.529 60.2279 166.5 59.9315 166.455 59.6373C166.431 59.4176 166.345 59.2094 166.207 59.0373C166.139 58.959 166.054 58.8979 165.958 58.859C165.862 58.8201 165.758 58.8044 165.655 58.8133C165.539 58.8073 165.424 58.8315 165.32 58.8833C165.216 58.9352 165.127 59.013 165.063 59.1093C164.937 59.3018 164.87 59.5271 164.871 59.7573C164.855 60.1008 164.95 60.4402 165.143 60.7253C165.355 61.0178 165.6 61.2861 165.871 61.5253L166.999 62.5093C167.461 62.9098 167.865 63.373 168.199 63.8853C168.544 64.4619 168.716 65.1256 168.695 65.7973C168.701 66.2891 168.58 66.7742 168.343 67.2053C168.111 67.6216 167.767 67.9651 167.351 68.1973C166.894 68.4331 166.385 68.5513 165.871 68.5413Z" fill="#263238"/>
<path d="M170.913 68.389L169.473 57.293H171.393L172.193 64.077L173.169 57.309H174.689L175.705 64.061L176.505 57.293H178.393L176.969 68.389H175.049L173.969 61.365L172.937 68.389H170.913Z" fill="#263238"/>
<path d="M182.613 68.5407C181.94 68.5754 181.269 68.4231 180.677 68.1007C180.205 67.814 179.846 67.3732 179.661 66.8527C179.44 66.2263 179.334 65.5649 179.349 64.9007V60.7967C179.334 60.1351 179.44 59.4763 179.661 58.8527C179.844 58.3292 180.203 57.8854 180.677 57.5967C181.274 57.2873 181.942 57.1411 182.613 57.1727C183.291 57.1387 183.965 57.2879 184.565 57.6047C185.038 57.8806 185.402 58.3096 185.597 58.8207C185.819 59.4414 185.925 60.0977 185.909 60.7567V64.9007C185.924 65.5649 185.818 66.2263 185.597 66.8527C185.41 67.3745 185.048 67.8154 184.573 68.1007C183.973 68.4255 183.295 68.5778 182.613 68.5407ZM182.613 66.9407C182.843 66.96 183.072 66.8914 183.253 66.7487C183.4 66.6035 183.498 66.4162 183.533 66.2127C183.576 65.9751 183.597 65.7341 183.597 65.4927V60.2127C183.597 59.9739 183.576 59.7356 183.533 59.5007C183.496 59.3001 183.398 59.1157 183.253 58.9727C183.074 58.8242 182.844 58.7523 182.613 58.7727C182.502 58.7636 182.391 58.7766 182.285 58.811C182.179 58.8453 182.081 58.9003 181.997 58.9727C181.854 59.1165 181.759 59.3009 181.725 59.5007C181.675 59.7347 181.651 59.9735 181.653 60.2127V65.4607C181.653 65.7021 181.675 65.9431 181.717 66.1807C181.747 66.3826 181.839 66.57 181.981 66.7167C182.16 66.8581 182.386 66.9267 182.613 66.9087V66.9407Z" fill="#263238"/>
<path d="M187.406 68.3901V57.2941H190.286C190.938 57.2818 191.588 57.3682 192.214 57.5501C192.717 57.6963 193.152 58.0132 193.446 58.4461C193.761 58.9858 193.912 59.606 193.878 60.2301C193.883 60.636 193.843 61.0412 193.758 61.4381C193.687 61.7695 193.548 62.0827 193.35 62.3581C193.142 62.6322 192.867 62.8473 192.55 62.9821L194.086 68.3901H191.766L190.494 63.3661H189.694V68.3901H187.406ZM189.67 61.9901H190.326C190.625 62.0068 190.922 61.9462 191.19 61.8141C191.4 61.6926 191.559 61.4994 191.638 61.2701C191.728 60.9801 191.771 60.6777 191.766 60.3741C191.792 59.9655 191.694 59.5587 191.486 59.2061C191.359 59.0571 191.196 58.9419 191.013 58.8708C190.831 58.7996 190.633 58.7746 190.438 58.7981H189.638L189.67 61.9901Z" fill="#263238"/>
<path d="M195.359 68.3908V57.2948H198.071C198.823 57.2599 199.572 57.3853 200.271 57.6628C200.775 57.8829 201.174 58.2902 201.383 58.7988C201.625 59.4286 201.736 60.1007 201.711 60.7748V64.7748C201.737 65.4671 201.625 66.1576 201.383 66.8068C201.179 67.3236 200.784 67.7419 200.279 67.9748C199.599 68.2598 198.864 68.3883 198.127 68.3508L195.359 68.3908ZM197.615 66.7908H198.095C198.406 66.8155 198.718 66.7488 198.991 66.5988C199.084 66.5277 199.162 66.4386 199.22 66.3369C199.277 66.2352 199.314 66.1229 199.327 66.0068C199.38 65.6869 199.404 65.3629 199.399 65.0388V60.4868C199.406 60.1777 199.376 59.869 199.311 59.5668C199.261 59.3542 199.133 59.1684 198.951 59.0468C198.679 58.9212 198.379 58.8662 198.079 58.8868H197.599L197.615 66.7908Z" fill="#263238"/>
<path d="M254.32 262.782V185.862C254.251 181.376 255.075 176.921 256.744 172.756C258.413 168.592 260.893 164.801 264.042 161.604C267.19 158.407 270.942 155.868 275.081 154.135C279.219 152.403 283.661 151.51 288.148 151.51C292.634 151.51 297.076 152.403 301.215 154.135C305.353 155.868 309.106 158.407 312.254 161.604C315.402 164.801 317.882 168.592 319.551 172.756C321.221 176.921 322.045 181.376 321.976 185.862V262.782H335.936V185.862C335.921 173.192 330.881 161.044 321.921 152.085C312.962 143.125 300.814 138.085 288.144 138.07C275.473 138.085 263.325 143.125 254.366 152.085C245.406 161.044 240.366 173.192 240.352 185.862V262.782H254.32Z" fill="#263238"/>
<path d="M347.31 229.316H233.398V356.556H347.31V229.316Z" fill="white"/>
<path d="M347.31 240.141L233.398 354.053V356.557H244.782L347.31 254.037V240.141Z" fill="#F5F6FF"/>
<path d="M233.398 261.004V302.588L306.67 229.316H265.086L233.398 261.004Z" fill="#F5F6FF"/>
<path d="M347.312 356.957H233.4C233.294 356.957 233.192 356.915 233.117 356.84C233.042 356.765 233 356.663 233 356.557V229.357C233 229.251 233.042 229.149 233.117 229.074C233.192 228.999 233.294 228.957 233.4 228.957H347.312C347.418 228.957 347.52 228.999 347.595 229.074C347.67 229.149 347.712 229.251 347.712 229.357V356.557C347.712 356.663 347.67 356.765 347.595 356.84C347.52 356.915 347.418 356.957 347.312 356.957ZM233.808 356.157H346.912V229.757H233.808V356.157Z" fill="#263238"/>
<path d="M347.31 356.957H323.31C323.204 356.957 323.102 356.915 323.027 356.84C322.952 356.765 322.91 356.663 322.91 356.557V229.357C322.91 229.251 322.952 229.149 323.027 229.074C323.102 228.999 323.204 228.957 323.31 228.957H347.31C347.416 228.957 347.518 228.999 347.593 229.074C347.668 229.149 347.71 229.251 347.71 229.357V356.557C347.71 356.663 347.668 356.765 347.593 356.84C347.518 356.915 347.416 356.957 347.31 356.957ZM323.734 356.157H346.934V229.757H323.734V356.157Z" fill="#263238"/>
<path d="M281.465 279.662C281.469 278.214 281.08 276.793 280.339 275.549C279.599 274.305 278.535 273.285 277.26 272.598C275.986 271.911 274.549 271.583 273.103 271.649C271.657 271.714 270.255 272.171 269.048 272.97C267.841 273.769 266.874 274.881 266.249 276.187C265.624 277.493 265.365 278.944 265.5 280.385C265.634 281.826 266.158 283.204 267.014 284.372C267.87 285.539 269.027 286.452 270.361 287.014L268.897 304.35H278.073L276.601 287.014C278.043 286.4 279.272 285.375 280.137 284.068C281.002 282.761 281.463 281.229 281.465 279.662Z" fill="#263238"/>
<path d="M278.074 304.751H268.898C268.842 304.751 268.787 304.74 268.736 304.718C268.686 304.696 268.64 304.664 268.602 304.623C268.563 304.583 268.534 304.535 268.516 304.483C268.498 304.43 268.492 304.375 268.498 304.319L269.938 287.263C268.208 286.457 266.806 285.084 265.962 283.373C265.118 281.661 264.883 279.713 265.296 277.85C265.71 275.987 266.746 274.321 268.234 273.127C269.722 271.932 271.573 271.281 273.482 271.281C275.39 271.281 277.241 271.932 278.729 273.127C280.217 274.321 281.254 275.987 281.667 277.85C282.08 279.713 281.845 281.661 281.001 283.373C280.157 285.084 278.755 286.457 277.026 287.263L278.466 304.319C278.473 304.375 278.468 304.431 278.449 304.484C278.431 304.536 278.401 304.584 278.362 304.623C278.325 304.664 278.281 304.696 278.231 304.718C278.182 304.74 278.128 304.752 278.074 304.751ZM269.33 303.951H277.634L276.21 287.047C276.203 286.964 276.222 286.881 276.265 286.809C276.308 286.737 276.373 286.681 276.45 286.647C278.059 285.963 279.382 284.744 280.195 283.196C281.009 281.648 281.262 279.867 280.913 278.154C280.564 276.44 279.633 274.901 278.279 273.794C276.925 272.688 275.23 272.084 273.482 272.084C271.733 272.084 270.038 272.688 268.684 273.794C267.33 274.901 266.4 276.44 266.05 278.154C265.701 279.867 265.955 281.648 266.768 283.196C267.581 284.744 268.905 285.963 270.514 286.647C270.591 286.68 270.657 286.736 270.701 286.808C270.746 286.88 270.767 286.963 270.762 287.047L269.33 303.951Z" fill="#263238"/>
<path d="M121.152 282.031L116.416 314.031L105.56 345.175C105.56 345.175 101.816 349.175 100.76 353.703C99.7038 358.231 102.696 358.503 104.248 357.319C105.8 356.135 109.544 346.207 109.672 345.695C109.8 345.183 126 317.599 126.24 317.247C126.48 316.895 134.24 294.239 134.24 294.239L139.92 316.471L151.696 348.799C151.696 348.799 152.496 354.359 154.416 356.559C156.336 358.759 159.216 360.303 159.712 358.367C160.208 356.431 159.84 353.063 158.416 351.519C157.128 349.983 155.921 348.381 154.8 346.719L150.664 313.375L148.104 282.175L121.152 282.031Z" fill="white"/>
<path d="M158.609 359.625C157.241 359.625 155.409 358.225 154.113 356.801C152.185 354.617 151.393 349.441 151.305 348.873L139.601 316.609L134.241 295.641C131.721 302.969 126.857 317.105 126.617 317.465C126.481 317.673 110.513 344.857 110.113 345.809C110.025 346.193 106.249 356.353 104.513 357.633C104.068 357.99 103.527 358.209 102.959 358.263C102.39 358.317 101.818 358.204 101.313 357.937C100.561 357.449 99.8012 356.337 100.417 353.601C101.401 349.281 104.737 345.505 105.217 344.953L116.041 313.881L120.753 281.969C120.77 281.875 120.819 281.79 120.892 281.728C120.965 281.667 121.058 281.633 121.153 281.633L148.105 281.785C148.206 281.784 148.303 281.822 148.377 281.89C148.451 281.959 148.497 282.052 148.505 282.153L151.065 313.353L155.185 346.585C156.278 348.198 157.455 349.752 158.713 351.241C160.225 352.889 160.657 356.369 160.097 358.441C160.044 358.712 159.914 358.963 159.722 359.163C159.531 359.363 159.286 359.504 159.017 359.569C158.884 359.604 158.747 359.623 158.609 359.625ZM134.257 293.841C134.343 293.845 134.425 293.877 134.491 293.932C134.558 293.987 134.605 294.061 134.625 294.145L140.313 316.369L152.057 348.641V348.721C152.057 348.777 152.857 354.185 154.673 356.265C156.105 357.865 157.913 359.009 158.793 358.801C158.945 358.761 159.169 358.665 159.289 358.241C159.793 356.353 159.385 353.177 158.081 351.761C156.779 350.228 155.561 348.626 154.433 346.961C154.394 346.909 154.37 346.849 154.361 346.785L150.225 313.441L147.697 282.609L121.457 282.457L116.777 314.097L105.905 345.297C105.886 345.35 105.856 345.399 105.817 345.441C105.817 345.441 102.129 349.441 101.129 353.785C100.729 355.545 100.929 356.777 101.681 357.273C102.053 357.453 102.468 357.522 102.878 357.473C103.288 357.423 103.675 357.256 103.993 356.993C105.393 355.945 109.089 346.297 109.273 345.585C109.457 344.873 125.713 317.257 125.865 317.033C126.137 316.489 130.785 303.025 133.865 294.121C133.892 294.039 133.945 293.967 134.015 293.917C134.086 293.866 134.171 293.84 134.257 293.841Z" fill="#263238"/>
<path d="M150.664 313.368L148.104 282.168L121.152 282.016L116.416 314.016L107.84 338.624L112.824 340.168C117.568 331.976 126.056 317.528 126.24 317.248C126.424 316.968 134.24 294.24 134.24 294.24L139.92 316.472L149.248 342.072L154.008 340.472L150.664 313.368Z" fill="#263238"/>
<path d="M149.266 342.489C149.183 342.489 149.103 342.463 149.036 342.416C148.969 342.369 148.918 342.302 148.89 342.225L139.562 316.625L134.202 295.657C131.682 302.985 126.818 317.121 126.578 317.481C126.338 317.841 118.002 332.001 113.202 340.369C113.157 340.448 113.086 340.509 113.002 340.542C112.917 340.575 112.824 340.579 112.738 340.553L107.754 339.009C107.702 338.992 107.654 338.965 107.613 338.929C107.571 338.893 107.538 338.85 107.514 338.801C107.492 338.752 107.48 338.699 107.48 338.645C107.48 338.591 107.492 338.538 107.514 338.489L116.09 313.881L120.802 281.969C120.818 281.875 120.868 281.79 120.941 281.728C121.014 281.667 121.106 281.633 121.202 281.633L148.154 281.785C148.254 281.784 148.352 281.822 148.426 281.89C148.5 281.959 148.546 282.052 148.554 282.153L151.114 313.353L154.474 340.457C154.485 340.548 154.464 340.641 154.415 340.718C154.365 340.796 154.29 340.853 154.202 340.881L149.442 342.481L149.266 342.489ZM134.258 293.841C134.343 293.845 134.426 293.877 134.492 293.932C134.558 293.987 134.605 294.061 134.626 294.145L140.314 316.369L149.506 341.601L153.594 340.225L150.266 313.433L147.738 282.617L121.498 282.465L116.818 314.105L108.354 338.401L112.642 339.721C117.394 331.521 125.714 317.321 125.906 317.057C126.178 316.513 130.826 303.049 133.906 294.145C133.926 294.064 133.971 293.992 134.034 293.938C134.097 293.883 134.175 293.85 134.258 293.841Z" fill="#263238"/>
<path d="M104.274 357.306C105.074 356.706 106.474 353.738 107.65 350.946L104.922 354.082L101.722 353.178L102.282 349.906C101.63 351.098 101.138 352.37 100.818 353.69C99.7456 358.218 102.722 358.474 104.274 357.306Z" fill="#263238"/>
<path d="M102.562 358.297C102.112 358.304 101.669 358.179 101.29 357.937C100.538 357.449 99.7777 356.337 100.394 353.601C100.721 352.246 101.227 350.942 101.898 349.721C101.944 349.64 102.016 349.579 102.102 349.546C102.189 349.513 102.284 349.511 102.371 349.54C102.459 349.569 102.534 349.628 102.583 349.706C102.632 349.784 102.653 349.877 102.642 349.969L102.146 352.881L104.786 353.625L107.346 350.681C107.408 350.608 107.494 350.561 107.588 350.546C107.682 350.531 107.779 350.551 107.86 350.601C107.941 350.651 108.001 350.729 108.03 350.82C108.059 350.911 108.055 351.009 108.018 351.097C106.418 354.881 105.242 357.081 104.514 357.633C103.947 358.049 103.265 358.281 102.562 358.297ZM101.298 353.273C101.25 353.441 101.21 353.609 101.17 353.777C100.77 355.537 100.97 356.769 101.722 357.265C102.093 357.445 102.509 357.514 102.919 357.464C103.329 357.415 103.716 357.248 104.034 356.985C104.258 356.817 104.882 356.105 106.234 353.177L105.202 354.337C105.153 354.395 105.089 354.438 105.017 354.461C104.944 354.484 104.867 354.485 104.794 354.465L101.594 353.561C101.524 353.542 101.46 353.505 101.408 353.455C101.357 353.405 101.318 353.342 101.298 353.273Z" fill="#263238"/>
<path d="M159.713 358.345C160.225 356.401 159.841 353.041 158.417 351.497L158.113 351.145L158.809 355.497L156.225 356.401L152.121 350.969C152.529 352.769 153.273 355.233 154.417 356.569C156.353 358.729 159.193 360.281 159.713 358.345Z" fill="#263238"/>
<path d="M158.609 359.626C157.241 359.626 155.409 358.226 154.113 356.802C152.817 355.378 152.153 352.93 151.713 351.058C151.685 350.968 151.691 350.87 151.729 350.784C151.767 350.697 151.836 350.627 151.922 350.587C152.008 350.547 152.105 350.54 152.196 350.566C152.287 350.592 152.365 350.651 152.417 350.73L156.353 355.93L158.345 355.234L157.705 351.234C157.691 351.149 157.706 351.061 157.746 350.985C157.787 350.909 157.851 350.847 157.929 350.81C158.008 350.775 158.097 350.766 158.182 350.785C158.267 350.804 158.343 350.849 158.401 350.914L158.697 351.25C160.209 352.898 160.641 356.378 160.081 358.45C160.027 358.722 159.897 358.972 159.706 359.172C159.514 359.372 159.27 359.513 159.001 359.578C158.872 359.61 158.741 359.626 158.609 359.626ZM153.009 352.85C153.338 354.087 153.906 355.248 154.681 356.266C156.113 357.866 157.921 359.01 158.801 358.802C158.953 358.762 159.177 358.666 159.297 358.242C159.692 356.4 159.499 354.481 158.745 352.754L159.169 355.434C159.183 355.527 159.165 355.622 159.117 355.702C159.068 355.783 158.993 355.844 158.905 355.874L156.353 356.802C156.273 356.83 156.187 356.831 156.107 356.807C156.026 356.782 155.956 356.733 155.905 356.666L153.009 352.85Z" fill="#263238"/>
<path d="M121.152 282.033C121.152 282.033 126.704 291.849 134.408 292.289C142.112 292.729 148.104 282.185 148.104 282.185L121.656 281.129L121.152 282.033Z" fill="white"/>
<path d="M134.89 292.706H134.386C126.554 292.258 121.034 282.65 120.786 282.242C120.755 282.182 120.738 282.115 120.738 282.046C120.738 281.978 120.755 281.911 120.786 281.85L121.29 280.946C121.328 280.883 121.382 280.831 121.447 280.796C121.511 280.76 121.585 280.743 121.658 280.746L148.106 281.802C148.175 281.806 148.242 281.827 148.301 281.863C148.36 281.899 148.409 281.95 148.442 282.01C148.476 282.07 148.494 282.138 148.494 282.206C148.494 282.275 148.476 282.343 148.442 282.402C148.21 282.81 142.506 292.706 134.89 292.706ZM121.61 282.026C122.41 283.386 127.626 291.498 134.41 291.89C140.81 292.258 146.018 284.69 147.386 282.554L121.858 281.538L121.61 282.026Z" fill="#263238"/>
<path d="M129.881 244.801C129.881 244.801 121.201 249.025 121.153 249.601C121.105 250.177 115.265 273.313 115.265 273.313C115.265 273.313 113.193 277.945 115.801 279.401C118.409 280.857 123.065 276.025 123.065 276.025L121.153 282.073C125.736 284.144 130.666 285.338 135.689 285.593C142.089 285.921 148.105 282.225 148.105 282.225L147.185 275.825C147.185 275.825 152.561 279.449 154.473 278.609C156.385 277.769 157.825 276.057 157.825 274.913C157.825 273.769 156.913 273.457 155.377 271.769C153.841 270.081 151.321 261.737 151.321 261.737C151.321 261.737 149.177 250.257 148.641 249.337C148.105 248.417 141.441 245.433 141.441 245.433L129.881 244.801Z" fill="#B2B2B2"/>
<path d="M136.521 285.975C136.241 285.975 135.953 285.975 135.673 285.975C130.593 285.704 125.607 284.491 120.969 282.399C120.885 282.357 120.818 282.287 120.782 282.2C120.745 282.113 120.74 282.016 120.769 281.927L122.225 277.327C120.625 278.719 117.633 280.855 115.601 279.727C112.713 278.127 114.801 273.327 114.897 273.135C116.873 265.247 120.665 250.063 120.753 249.527C120.753 249.287 120.857 248.783 129.705 244.479C129.764 244.447 129.831 244.433 129.897 244.439L141.465 245.055C141.513 245.044 141.562 245.044 141.609 245.055C143.209 245.767 148.425 248.167 148.985 249.127C149.545 250.087 151.385 259.727 151.713 261.655C152.569 264.471 154.513 270.215 155.713 271.495C156.193 272.023 156.625 272.423 156.969 272.743C157.769 273.471 158.265 273.951 158.265 274.903C158.265 276.271 156.665 278.103 154.673 278.959C153.009 279.695 149.361 277.639 147.745 276.631L148.545 282.119C148.557 282.195 148.545 282.273 148.512 282.343C148.48 282.412 148.427 282.471 148.361 282.511C148.081 282.671 142.673 285.975 136.521 285.975ZM121.641 281.815C126.095 283.76 130.861 284.889 135.713 285.151C141.313 285.431 146.537 282.623 147.713 281.951L146.833 275.863C146.822 275.786 146.832 275.708 146.863 275.637C146.894 275.567 146.945 275.506 147.009 275.463C147.075 275.42 147.151 275.397 147.229 275.397C147.308 275.397 147.384 275.42 147.449 275.463C149.457 276.815 153.105 278.759 154.353 278.207C156.193 277.407 157.465 275.807 157.465 274.879C157.465 274.303 157.201 274.023 156.425 273.279C156.073 272.951 155.625 272.535 155.121 271.983C153.521 270.247 151.121 262.143 150.977 261.799C150.177 257.343 148.697 250.103 148.337 249.479C147.977 248.855 144.585 247.207 141.385 245.767L130.001 245.223C126.801 246.823 122.129 249.175 121.569 249.719C121.209 251.359 116.273 271.063 115.697 273.367C115.649 273.479 113.777 277.751 116.033 279.007C117.945 280.079 121.577 276.983 122.817 275.703C122.88 275.637 122.964 275.595 123.054 275.584C123.144 275.572 123.236 275.592 123.313 275.639C123.39 275.686 123.448 275.757 123.48 275.841C123.512 275.925 123.515 276.017 123.489 276.103L121.641 281.815Z" fill="#263238"/>
<path d="M123.066 276.385H123.002C122.95 276.376 122.9 276.357 122.855 276.329C122.811 276.301 122.772 276.264 122.741 276.221C122.711 276.178 122.689 276.129 122.678 276.078C122.666 276.026 122.665 275.973 122.674 275.921L125.586 258.753L124.106 254.233C124.075 254.132 124.085 254.023 124.133 253.929C124.18 253.835 124.263 253.764 124.362 253.729C124.464 253.698 124.574 253.707 124.669 253.755C124.764 253.802 124.838 253.885 124.874 253.985L126.378 258.593C126.39 258.656 126.39 258.721 126.378 258.785L123.442 276.057C123.426 276.146 123.38 276.227 123.311 276.287C123.243 276.346 123.157 276.381 123.066 276.385Z" fill="#263238"/>
<path d="M147.186 276.224C147.086 276.224 146.988 276.187 146.914 276.118C146.84 276.05 146.794 275.956 146.786 275.856L145.706 258.56C145.702 258.515 145.702 258.469 145.706 258.424L146.77 254.792C146.785 254.741 146.81 254.694 146.843 254.653C146.875 254.613 146.916 254.578 146.962 254.553C147.008 254.528 147.059 254.512 147.111 254.506C147.163 254.501 147.216 254.505 147.266 254.52C147.317 254.534 147.365 254.558 147.407 254.59C147.448 254.623 147.483 254.664 147.508 254.71C147.534 254.756 147.549 254.807 147.555 254.86C147.56 254.912 147.554 254.965 147.538 255.016L146.498 258.576L147.602 275.8C147.607 275.853 147.6 275.906 147.584 275.956C147.567 276.006 147.54 276.053 147.505 276.092C147.47 276.132 147.427 276.164 147.379 276.187C147.331 276.209 147.279 276.222 147.226 276.224H147.186Z" fill="#263238"/>
<path d="M136.063 281.978C131.217 281.988 126.39 281.353 121.711 280.09C121.656 280.08 121.603 280.059 121.556 280.027C121.51 279.995 121.471 279.953 121.441 279.905C121.412 279.857 121.393 279.803 121.386 279.747C121.379 279.691 121.384 279.634 121.4 279.58C121.417 279.526 121.444 279.476 121.482 279.434C121.519 279.391 121.564 279.357 121.616 279.333C121.667 279.31 121.723 279.297 121.779 279.297C121.835 279.296 121.891 279.308 121.943 279.33C122.079 279.33 135.015 283.234 147.679 279.682C147.785 279.654 147.898 279.668 147.994 279.723C148.089 279.778 148.158 279.868 148.187 279.974C148.216 280.08 148.201 280.194 148.146 280.289C148.092 280.384 148.001 280.454 147.895 280.482C144.037 281.515 140.057 282.018 136.063 281.978Z" fill="#263238"/>
<path d="M111.416 279.2C110.905 279.169 110.412 279.006 109.984 278.728C109.424 278.369 108.794 278.135 108.136 278.04C107.656 277.928 107.816 277.504 108.504 277.24C109.361 277.009 110.268 277.045 111.104 277.344C111.451 277.484 111.773 277.681 112.056 277.928L111.416 279.2Z" fill="white"/>
<path d="M111.417 279.608C110.825 279.574 110.253 279.38 109.761 279.048C109.277 278.74 108.731 278.54 108.161 278.464H108.041C107.891 278.447 107.751 278.381 107.644 278.275C107.537 278.169 107.468 278.03 107.449 277.88C107.449 277.504 107.761 277.136 108.353 276.904C109.307 276.639 110.319 276.678 111.249 277.016C111.648 277.172 112.014 277.399 112.329 277.688C112.388 277.748 112.427 277.825 112.441 277.908C112.455 277.991 112.444 278.076 112.409 278.152L111.769 279.424C111.732 279.483 111.68 279.532 111.618 279.564C111.556 279.596 111.487 279.612 111.417 279.608ZM108.465 277.704C109.102 277.813 109.708 278.058 110.241 278.424C110.525 278.613 110.848 278.736 111.185 278.784L111.553 278.048C111.364 277.918 111.16 277.811 110.945 277.728C110.207 277.466 109.408 277.43 108.649 277.624L108.465 277.704Z" fill="#263238"/>
<path d="M226 271H108V278H226V271Z" fill="#8692D0"/>
<path d="M225.664 278H103.336C103.247 278 103.161 277.961 103.098 277.891C103.035 277.821 103 277.727 103 277.628V271.372C103 271.273 103.035 271.178 103.098 271.109C103.161 271.039 103.247 271 103.336 271H225.664C225.753 271 225.839 271.039 225.902 271.109C225.965 271.178 226 271.273 226 271.372V277.628C226 277.727 225.965 277.821 225.902 277.891C225.839 277.961 225.753 278 225.664 278ZM103.651 277.257H225.349V271.743H103.671L103.651 277.257Z" fill="#263238"/>
<path d="M80.28 244.086C74.2921 244.084 68.4382 245.859 63.4588 249.184C58.4794 252.51 54.5981 257.238 52.3059 262.77C50.0137 268.301 49.4135 274.389 50.5813 280.262C51.7491 286.135 54.6324 291.529 58.8665 295.763C63.1006 299.998 68.4953 302.881 74.3682 304.049C80.2411 305.216 86.3285 304.616 91.8603 302.324C97.3921 300.032 102.12 296.151 105.446 291.171C108.771 286.192 110.546 280.338 110.544 274.35C110.542 266.324 107.353 258.628 101.678 252.952C96.0024 247.277 88.3059 244.088 80.28 244.086ZM80.28 296.702C75.8589 296.704 71.5365 295.394 67.8597 292.939C64.1829 290.484 61.3168 286.993 59.6238 282.909C57.9308 278.825 57.487 274.331 58.3485 269.994C59.2101 265.658 61.3383 261.674 64.4639 258.548C67.5896 255.421 71.5723 253.291 75.9084 252.428C80.2445 251.565 84.7391 252.007 88.8239 253.699C92.9087 255.39 96.4 258.255 98.8565 261.931C101.313 265.607 102.624 269.929 102.624 274.35C102.624 280.277 100.27 285.961 96.0801 290.152C91.89 294.344 86.2067 296.7 80.28 296.702Z" fill="#8692D0"/>
<path d="M80.68 305.024C74.6133 305.025 68.6824 303.228 63.6374 299.858C58.5923 296.489 54.6598 291.699 52.3371 286.095C50.0144 280.49 49.4058 274.323 50.5884 268.373C51.771 262.422 54.6916 256.957 58.9808 252.666C63.27 248.376 68.7353 245.454 74.6853 244.27C80.6353 243.086 86.8028 243.692 92.4078 246.014C98.0129 248.335 102.804 252.266 106.174 257.31C109.545 262.355 111.344 268.285 111.344 274.352C111.336 282.482 108.102 290.278 102.354 296.028C96.6053 301.778 88.8107 305.013 80.68 305.024ZM80.68 244.488C74.7712 244.486 68.9947 246.237 64.081 249.519C59.1674 252.8 55.3373 257.466 53.0754 262.924C50.8135 268.383 50.2212 274.39 51.3736 280.185C52.526 285.981 55.3712 291.304 59.5493 295.482C63.7275 299.661 69.0509 302.506 74.8462 303.658C80.6416 304.81 86.6485 304.218 92.1072 301.956C97.566 299.694 102.231 295.864 105.513 290.951C108.795 286.037 110.546 280.26 110.544 274.352C110.533 266.435 107.384 258.845 101.785 253.246C96.1871 247.648 88.5972 244.498 80.68 244.488ZM80.68 297.104C76.1798 297.105 71.7801 295.772 68.0375 293.273C64.2949 290.774 61.3775 287.221 59.6542 283.064C57.9309 278.907 57.4792 274.332 58.3562 269.918C59.2332 265.504 61.3995 261.449 64.5811 258.266C67.7627 255.084 71.8167 252.916 76.2304 252.037C80.644 251.159 85.2191 251.609 89.377 253.331C93.5348 255.053 97.0887 257.969 99.5891 261.711C102.089 265.452 103.424 269.851 103.424 274.352C103.418 280.383 101.02 286.165 96.7559 290.43C92.4922 294.695 86.7109 297.095 80.68 297.104ZM80.68 252.408C76.3376 252.406 72.0923 253.692 68.4811 256.104C64.8699 258.515 62.055 261.944 60.3925 265.955C58.7301 269.967 58.2947 274.381 59.1414 278.64C59.9882 282.899 62.0791 286.812 65.1496 289.882C68.2201 292.953 72.1323 295.044 76.3914 295.89C80.6504 296.737 85.0648 296.302 89.0764 294.639C93.0879 292.977 96.5163 290.162 98.9278 286.551C101.339 282.939 102.626 278.694 102.624 274.352C102.618 268.534 100.304 262.956 96.1898 258.842C92.0758 254.728 86.498 252.414 80.68 252.408Z" fill="#263238"/>
<path d="M199.809 270.985V302.577H206.001C206.001 302.521 206.001 302.465 206.001 302.401C206.001 300.455 206.773 298.589 208.149 297.213C209.525 295.837 211.391 295.065 213.337 295.065C215.282 295.065 217.148 295.837 218.524 297.213C219.9 298.589 220.673 300.455 220.673 302.401C220.673 302.465 220.673 302.521 220.673 302.577H226.001V270.985H199.809Z" fill="#8692D0"/>
<path d="M225.999 302.978H220.647C220.593 302.979 220.54 302.969 220.49 302.948C220.441 302.928 220.396 302.897 220.359 302.858C220.322 302.82 220.293 302.775 220.274 302.725C220.255 302.676 220.246 302.623 220.247 302.57V302.474C220.283 301.544 220.132 300.617 219.802 299.747C219.472 298.877 218.971 298.082 218.327 297.41C217.684 296.737 216.912 296.201 216.057 295.834C215.203 295.466 214.283 295.274 213.352 295.269C212.422 295.264 211.5 295.447 210.641 295.806C209.783 296.164 209.005 296.692 208.355 297.358C207.705 298.023 207.195 298.813 206.856 299.679C206.518 300.546 206.357 301.472 206.383 302.402V302.57C206.386 302.623 206.378 302.677 206.359 302.726C206.339 302.776 206.309 302.821 206.271 302.858C206.234 302.897 206.189 302.928 206.14 302.948C206.09 302.969 206.037 302.979 205.983 302.978H199.775C199.669 302.978 199.567 302.936 199.492 302.861C199.417 302.786 199.375 302.684 199.375 302.578V270.986C199.375 270.88 199.417 270.778 199.492 270.703C199.567 270.628 199.669 270.586 199.775 270.586H225.999C226.105 270.586 226.207 270.628 226.282 270.703C226.357 270.778 226.399 270.88 226.399 270.986V302.578C226.399 302.684 226.357 302.786 226.282 302.861C226.207 302.936 226.105 302.978 225.999 302.978ZM221.055 302.178H225.599V271.386H200.207V302.178H205.615C205.68 300.17 206.522 298.267 207.965 296.869C209.408 295.472 211.338 294.691 213.347 294.691C215.356 294.691 217.286 295.472 218.729 296.869C220.171 298.267 221.014 300.17 221.079 302.178H221.055Z" fill="#263238"/>
<path d="M140.457 220.968C140.457 220.968 142.561 219.248 141.601 217.528C140.641 215.808 136.441 213.264 134.721 213.896C133.001 214.528 129.625 218.104 129.369 219.44C129.113 220.776 131.769 222.64 132.297 222.696C132.825 222.752 137.145 220.208 140.457 220.968Z" fill="#263238"/>
<path d="M132.32 223.097H132.248C131.144 222.656 130.184 221.92 129.472 220.969C129.281 220.752 129.138 220.497 129.053 220.222C128.967 219.946 128.941 219.655 128.976 219.369C129.264 217.849 132.776 214.193 134.576 213.529C136.536 212.793 140.976 215.545 141.944 217.337C143.048 219.329 140.8 221.201 140.696 221.281C140.651 221.32 140.596 221.348 140.538 221.362C140.479 221.376 140.418 221.376 140.36 221.361C138.04 220.825 135.128 222.033 133.56 222.673C133.171 222.877 132.752 223.02 132.32 223.097ZM135.36 214.201C135.189 214.198 135.019 214.222 134.856 214.273C133.256 214.881 129.976 218.369 129.76 219.521C129.568 220.537 131.92 222.209 132.352 222.297C132.424 222.297 132.864 222.097 133.264 221.937C134.864 221.273 137.816 220.057 140.336 220.537C140.752 220.145 141.936 218.897 141.256 217.729C140.44 216.265 137.08 214.201 135.36 214.201Z" fill="#263238"/>
<path d="M136.313 220.401C136.313 220.401 129.433 222.313 127.513 226.001C125.593 229.689 125.473 230.521 126.553 232.305C127.633 234.089 130.313 237.281 132.801 238.553C135.289 239.825 143.201 237.977 143.201 237.977C143.201 237.977 145.601 236.897 146.401 234.985C147.201 233.073 148.881 230.393 147.737 227.529C146.593 224.665 141.489 220.713 139.897 220.265C138.709 220.024 137.48 220.071 136.313 220.401Z" fill="#263238"/>
<path d="M135.603 239.4C134.592 239.457 133.581 239.29 132.643 238.912C130.115 237.616 127.379 234.4 126.243 232.512C125.003 230.48 125.315 229.424 127.187 225.816C129.147 222.016 135.907 220.096 136.219 220.008C137.454 219.661 138.755 219.618 140.011 219.88C141.811 220.384 146.939 224.448 148.107 227.376C149.123 229.912 148.067 232.24 147.219 234.104C147.059 234.464 146.899 234.808 146.771 235.128C145.971 237.168 143.483 238.328 143.379 238.328C140.827 238.935 138.223 239.294 135.603 239.4ZM138.531 220.504C137.811 220.511 137.096 220.61 136.403 220.8C136.331 220.8 129.659 222.712 127.851 226.208C125.923 229.936 125.939 230.568 126.883 232.12C127.971 233.92 130.579 236.992 132.971 238.216C134.899 239.208 140.923 238.112 143.083 237.616C143.083 237.616 145.299 236.584 145.987 234.856C146.123 234.528 146.283 234.176 146.451 233.8C147.251 232.072 148.211 229.92 147.323 227.696C146.219 224.92 141.171 221.072 139.755 220.672C139.35 220.562 138.933 220.505 138.515 220.504H138.531Z" fill="#263238"/>
<path d="M141.32 225.234C141.32 225.234 137.888 227.346 136.128 228.578C134.924 229.384 133.623 230.034 132.256 230.514C131.793 230.739 131.421 231.114 131.197 231.577C130.973 232.04 130.912 232.564 131.024 233.066C131.376 234.914 132.04 241.298 132.04 241.298L130.848 243.89L135.952 249.49L140 244.21L140.44 241.482C140.44 241.482 144.136 239.194 144.224 238.666C144.312 238.138 145.368 230.402 145.28 229.602C145.192 228.802 141.32 225.234 141.32 225.234Z" fill="white"/>
<path d="M135.952 249.922C135.897 249.921 135.842 249.91 135.791 249.888C135.74 249.866 135.694 249.834 135.656 249.794L130.552 244.194C130.499 244.135 130.465 244.062 130.453 243.984C130.442 243.905 130.454 243.825 130.488 243.754L131.632 241.266C131.544 240.41 130.952 234.866 130.632 233.178C130.501 232.586 130.574 231.967 130.84 231.422C131.106 230.877 131.549 230.439 132.096 230.178C133.44 229.709 134.72 229.072 135.904 228.282C137.648 227.058 141.08 224.946 141.112 224.93C141.186 224.882 141.273 224.86 141.361 224.869C141.448 224.878 141.53 224.916 141.592 224.978C142.792 226.09 145.592 228.778 145.68 229.626C145.768 230.474 144.672 238.466 144.624 238.794C144.624 238.97 144.504 239.49 140.808 241.794L140.4 244.338C140.385 244.404 140.358 244.466 140.32 244.522L136.272 249.802C136.237 249.849 136.191 249.888 136.138 249.914C136.085 249.941 136.027 249.954 135.968 249.954L135.952 249.922ZM131.32 243.818L135.928 248.898L139.624 244.098L140.048 241.466C140.057 241.41 140.078 241.356 140.11 241.309C140.141 241.262 140.183 241.223 140.232 241.194C141.525 240.455 142.737 239.584 143.848 238.594C143.936 238.026 144.96 230.394 144.888 229.698C144.784 229.266 142.976 227.362 141.272 225.754C140.472 226.266 137.808 227.906 136.36 228.954C135.117 229.785 133.773 230.455 132.36 230.946C131.989 231.138 131.692 231.448 131.517 231.828C131.341 232.207 131.297 232.635 131.392 233.042C131.744 234.882 132.392 241.042 132.416 241.306C132.436 241.374 132.436 241.446 132.416 241.514L131.32 243.818Z" fill="#263238"/>
<path d="M140.97 235.999C140.882 235.997 140.796 235.968 140.726 235.915C140.656 235.862 140.604 235.787 140.578 235.703C140.553 235.6 140.568 235.491 140.62 235.399C140.672 235.307 140.757 235.238 140.858 235.207C141.434 235.062 141.977 234.81 142.458 234.463C142.458 234.279 141.97 233.663 141.802 233.415C141.514 233.063 141.37 232.887 141.37 232.663C141.37 232.439 141.53 230.935 141.562 230.647C141.576 230.541 141.631 230.444 141.714 230.377C141.798 230.31 141.904 230.278 142.01 230.287C142.116 230.301 142.212 230.355 142.277 230.439C142.343 230.523 142.374 230.629 142.362 230.735C142.29 231.327 142.194 232.295 142.17 232.591L142.418 232.911C142.922 233.527 143.674 234.463 142.994 235.063C142.429 235.481 141.792 235.793 141.114 235.983L140.97 235.999Z" fill="#263238"/>
<path d="M140.681 237.727C139.948 237.633 139.281 237.254 138.825 236.671C138.788 236.634 138.758 236.59 138.738 236.541C138.717 236.492 138.707 236.44 138.707 236.387C138.707 236.335 138.717 236.282 138.738 236.234C138.758 236.185 138.788 236.141 138.825 236.103C138.901 236.03 139.003 235.988 139.109 235.988C139.215 235.988 139.317 236.03 139.393 236.103C140.257 237.015 140.745 236.959 140.857 236.863C140.894 236.826 140.937 236.796 140.985 236.776C141.034 236.756 141.085 236.746 141.137 236.746C141.19 236.746 141.241 236.756 141.289 236.776C141.337 236.796 141.381 236.826 141.417 236.863C141.455 236.901 141.485 236.945 141.505 236.994C141.525 237.042 141.536 237.095 141.536 237.147C141.536 237.2 141.525 237.252 141.505 237.301C141.485 237.35 141.455 237.394 141.417 237.431C141.32 237.53 141.204 237.607 141.076 237.659C140.949 237.712 140.811 237.737 140.673 237.735L140.681 237.727Z" fill="#263238"/>
<path d="M140.44 241.512C139.741 241.449 139.057 241.27 138.416 240.984C137.84 240.6 136.184 239.32 136.184 239.32L139.432 244.92L140 244.232L140.44 241.512Z" fill="#263238"/>
<path d="M139.431 245.33C139.366 245.326 139.303 245.306 139.249 245.271C139.194 245.236 139.149 245.187 139.119 245.13L135.871 239.53C135.822 239.45 135.803 239.354 135.817 239.261C135.831 239.168 135.878 239.083 135.949 239.021C136.019 238.959 136.11 238.924 136.204 238.922C136.298 238.92 136.389 238.951 136.463 239.01C136.463 239.01 138.111 240.282 138.671 240.65C139.252 240.913 139.875 241.073 140.511 241.122C140.566 241.126 140.619 241.141 140.667 241.168C140.716 241.194 140.758 241.23 140.791 241.274C140.856 241.361 140.885 241.47 140.871 241.578L140.431 244.306C140.415 244.375 140.385 244.44 140.343 244.498L139.775 245.186C139.734 245.236 139.681 245.275 139.621 245.3C139.561 245.326 139.496 245.336 139.431 245.33ZM137.519 240.802L139.495 244.202L139.623 244.042L139.983 241.826C139.358 241.754 138.751 241.57 138.191 241.282C137.999 241.21 137.791 241.034 137.519 240.802Z" fill="#263238"/>
<path d="M132.938 232.186C132.938 232.186 131.73 228.554 130.322 230.586C128.914 232.618 131.122 235.498 132.234 235.434" fill="white"/>
<path d="M132.201 235.84C131.401 235.84 130.529 234.936 130.041 234.08C129.685 233.534 129.492 232.898 129.485 232.246C129.477 231.594 129.657 230.954 130.001 230.4C130.125 230.147 130.321 229.936 130.564 229.794C130.808 229.651 131.088 229.584 131.369 229.6C132.497 229.76 133.193 231.688 133.321 232.08C133.354 232.18 133.347 232.289 133.3 232.383C133.254 232.477 133.172 232.549 133.073 232.584C132.972 232.617 132.863 232.608 132.768 232.56C132.674 232.512 132.602 232.429 132.569 232.328C132.313 231.584 131.769 230.456 131.257 230.392C131.041 230.392 130.817 230.616 130.665 230.84C130.414 231.279 130.289 231.779 130.304 232.284C130.32 232.79 130.475 233.281 130.753 233.704C131.257 234.6 131.929 235.056 132.217 235.056C132.27 235.053 132.322 235.06 132.372 235.077C132.422 235.094 132.468 235.121 132.507 235.156C132.546 235.191 132.578 235.233 132.601 235.281C132.624 235.328 132.638 235.379 132.641 235.432C132.644 235.485 132.637 235.537 132.62 235.587C132.603 235.637 132.576 235.683 132.541 235.722C132.506 235.761 132.464 235.793 132.416 235.816C132.369 235.839 132.318 235.853 132.265 235.856L132.201 235.84Z" fill="#263238"/>
<path d="M138.771 232.759C139.071 232.759 139.315 232.415 139.315 231.991C139.315 231.566 139.071 231.223 138.771 231.223C138.47 231.223 138.227 231.566 138.227 231.991C138.227 232.415 138.47 232.759 138.771 232.759Z" fill="#263238"/>
<path d="M143.544 232.759C143.844 232.759 144.088 232.415 144.088 231.991C144.088 231.566 143.844 231.223 143.544 231.223C143.244 231.223 143 231.566 143 231.991C143 232.415 143.244 232.759 143.544 232.759Z" fill="#263238"/>
<path d="M137.336 230.735C137.228 230.735 137.124 230.692 137.048 230.615C136.975 230.541 136.934 230.44 136.934 230.335C136.934 230.231 136.975 230.13 137.048 230.055C137.467 229.663 138.003 229.419 138.574 229.361C139.145 229.303 139.719 229.435 140.208 229.735C140.3 229.788 140.368 229.876 140.395 229.979C140.423 230.082 140.409 230.191 140.356 230.283C140.303 230.376 140.215 230.443 140.113 230.471C140.01 230.499 139.9 230.484 139.808 230.431C139.472 230.218 139.076 230.121 138.679 230.156C138.283 230.19 137.909 230.355 137.616 230.623C137.579 230.66 137.535 230.688 137.487 230.707C137.439 230.727 137.388 230.736 137.336 230.735Z" fill="#263238"/>
<path d="M144.602 230.994C144.515 230.994 144.429 230.966 144.358 230.915C144.288 230.863 144.236 230.79 144.21 230.706C144.192 230.611 144.152 230.521 144.094 230.443C144.036 230.365 143.96 230.302 143.874 230.258C143.467 230.139 143.032 230.165 142.642 230.33C142.543 230.369 142.433 230.367 142.336 230.325C142.238 230.283 142.161 230.204 142.122 230.106C142.083 230.007 142.084 229.897 142.126 229.799C142.168 229.702 142.247 229.625 142.346 229.586C142.945 229.338 143.615 229.321 144.226 229.538C144.412 229.633 144.575 229.767 144.706 229.929C144.837 230.092 144.932 230.28 144.986 230.482C145.001 230.533 145.005 230.586 144.999 230.639C144.993 230.691 144.976 230.742 144.95 230.788C144.924 230.834 144.889 230.875 144.847 230.908C144.805 230.94 144.757 230.964 144.706 230.978C144.673 230.991 144.638 230.996 144.602 230.994Z" fill="#263238"/>
<path d="M130.833 241.938L135.297 247.609L132.233 250.921L128.793 244.737L130.833 241.938Z" fill="white"/>
<path d="M132.233 251.319H132.185C132.123 251.31 132.064 251.287 132.012 251.25C131.961 251.214 131.919 251.166 131.889 251.111L128.449 244.935C128.406 244.871 128.383 244.796 128.383 244.719C128.383 244.642 128.406 244.567 128.449 244.503L130.489 241.703C130.526 241.653 130.573 241.613 130.628 241.585C130.683 241.557 130.744 241.543 130.805 241.543C130.867 241.543 130.928 241.557 130.982 241.585C131.037 241.613 131.085 241.653 131.121 241.703L135.601 247.359C135.663 247.431 135.697 247.524 135.697 247.619C135.697 247.714 135.663 247.807 135.601 247.879L132.529 251.199C132.491 251.238 132.444 251.269 132.394 251.289C132.343 251.31 132.288 251.32 132.233 251.319ZM129.265 244.799L132.313 250.271L134.769 247.615L130.849 242.631L129.265 244.799Z" fill="#263238"/>
<path d="M135.298 247.609L135.954 249.521L134.402 248.753L135.298 247.609Z" fill="white"/>
<path d="M135.954 249.92C135.896 249.935 135.835 249.935 135.778 249.92L134.226 249.12C134.173 249.092 134.127 249.053 134.09 249.006C134.052 248.959 134.025 248.905 134.01 248.848C133.996 248.791 133.997 248.731 134.011 248.674C134.025 248.617 134.052 248.564 134.09 248.52L134.978 247.368C135.024 247.313 135.083 247.27 135.151 247.245C135.218 247.22 135.291 247.213 135.362 247.224C135.433 247.235 135.5 247.265 135.555 247.312C135.61 247.359 135.651 247.419 135.674 247.488L136.33 249.4C136.356 249.475 136.359 249.556 136.339 249.633C136.319 249.71 136.277 249.779 136.218 249.832C136.143 249.892 136.049 249.923 135.954 249.92ZM135.018 248.616L135.258 248.736L135.154 248.432L135.018 248.616Z" fill="#263238"/>
<path d="M136.887 246.647L139.055 250.919L142.367 245.311L140.135 243.527L136.887 246.647Z" fill="white"/>
<path d="M139.056 251.32C138.985 251.317 138.916 251.296 138.855 251.258C138.795 251.22 138.746 251.167 138.712 251.104L136.544 246.832C136.505 246.755 136.491 246.668 136.506 246.583C136.52 246.498 136.562 246.42 136.624 246.36L139.872 243.24C139.945 243.176 140.039 243.141 140.136 243.141C140.233 243.141 140.327 243.176 140.4 243.24L142.632 245.024C142.706 245.086 142.756 245.172 142.773 245.267C142.791 245.362 142.775 245.46 142.728 245.544L139.416 251.144C139.377 251.203 139.323 251.25 139.26 251.28C139.196 251.311 139.126 251.325 139.056 251.32ZM137.376 246.736L139.08 250.088L141.848 245.408L140.16 244.064L137.376 246.736Z" fill="#263238"/>
<path d="M136.889 246.648L135.953 249.52L137.521 247.992L136.889 246.648Z" fill="white"/>
<path d="M135.952 249.919C135.879 249.92 135.807 249.901 135.744 249.863C135.667 249.817 135.609 249.745 135.578 249.661C135.548 249.576 135.547 249.484 135.576 249.399L136.504 246.527C136.531 246.45 136.579 246.383 136.642 246.333C136.706 246.283 136.784 246.253 136.864 246.247C136.944 246.242 137.024 246.261 137.093 246.303C137.161 246.344 137.216 246.406 137.248 246.479L137.888 247.815C137.924 247.89 137.935 247.975 137.919 248.057C137.903 248.139 137.862 248.214 137.8 248.271L136.2 249.807C136.133 249.871 136.045 249.91 135.952 249.919ZM136.96 247.727L136.832 248.103L137.04 247.903L136.96 247.727Z" fill="#263238"/>
<path d="M111.648 276.002C111.648 276.002 110.744 278.57 110.992 278.922C111.24 279.274 112.128 279.722 112.368 278.922C112.608 278.122 112.848 276.202 112.536 275.666C112.224 275.13 111.648 276.002 111.648 276.002Z" fill="white"/>
<path d="M111.818 279.802C111.594 279.788 111.375 279.724 111.177 279.616C110.98 279.509 110.808 279.359 110.674 279.178C110.57 279.034 110.298 278.658 111.266 275.89V275.81C111.378 275.642 111.762 275.09 112.25 275.09C112.37 275.096 112.486 275.133 112.587 275.197C112.688 275.262 112.771 275.352 112.826 275.458C113.258 276.178 112.922 278.274 112.706 279.026C112.675 279.227 112.58 279.412 112.437 279.556C112.293 279.7 112.107 279.794 111.906 279.826L111.818 279.802ZM112.01 276.202C111.678 277.03 111.458 277.899 111.354 278.786C111.493 278.908 111.666 278.983 111.85 279.002C111.906 279.002 111.954 278.922 111.986 278.81C112.25 277.882 112.331 276.912 112.226 275.954C112.142 276.025 112.07 276.109 112.01 276.202Z" fill="#263238"/>
<path d="M113.074 276.801C113.074 276.801 112.178 279.369 112.426 279.729C112.674 280.089 113.562 280.529 113.802 279.729C114.042 278.929 114.282 277.001 113.962 276.473C113.642 275.945 113.074 276.801 113.074 276.801Z" fill="white"/>
<path d="M113.248 280.591C113.025 280.574 112.808 280.51 112.611 280.404C112.414 280.298 112.241 280.152 112.104 279.975C112 279.831 111.728 279.447 112.696 276.679C112.693 276.652 112.693 276.625 112.696 276.599C112.808 276.431 113.192 275.887 113.672 275.887C113.793 275.888 113.911 275.922 114.014 275.985C114.117 276.049 114.201 276.139 114.256 276.247C114.688 276.967 114.352 279.063 114.136 279.823C114.095 280.015 113.997 280.19 113.854 280.324C113.711 280.459 113.53 280.546 113.336 280.575C113.307 280.582 113.278 280.588 113.248 280.591ZM113.44 276.999C113.109 277.825 112.888 278.691 112.784 279.575C112.917 279.706 113.094 279.783 113.28 279.791C113.336 279.791 113.384 279.719 113.416 279.599C113.676 278.67 113.757 277.701 113.656 276.743C113.574 276.819 113.501 276.905 113.44 276.999Z" fill="#263238"/>
<path d="M114.93 276.711C114.93 276.711 114.034 279.279 114.282 279.631C114.53 279.983 115.418 280.431 115.658 279.631C115.898 278.831 116.138 276.911 115.818 276.383C115.498 275.855 114.93 276.711 114.93 276.711Z" fill="white"/>
<path d="M115.105 280.489C114.88 280.472 114.661 280.408 114.462 280.3C114.264 280.193 114.09 280.045 113.953 279.865C113.857 279.729 113.585 279.345 114.553 276.577C114.561 276.548 114.575 276.521 114.593 276.497C114.705 276.329 115.089 275.785 115.569 275.785C115.69 275.786 115.808 275.82 115.911 275.884C116.014 275.947 116.098 276.038 116.153 276.145C116.585 276.865 116.249 278.961 116.033 279.713C115.993 279.906 115.895 280.082 115.752 280.218C115.609 280.354 115.428 280.443 115.233 280.473L115.105 280.489ZM115.289 276.889C114.963 277.719 114.745 278.587 114.641 279.473C114.78 279.595 114.953 279.67 115.137 279.689C115.193 279.689 115.241 279.609 115.273 279.497C115.533 278.569 115.614 277.6 115.513 276.641C115.429 276.714 115.353 276.798 115.289 276.889Z" fill="#263238"/>
<path d="M116.401 277.17C116.401 277.17 115.713 279.354 115.905 279.65C116.097 279.946 116.769 280.346 116.953 279.65C117.195 278.75 117.236 277.808 117.073 276.89C116.841 276.418 116.401 277.17 116.401 277.17Z" fill="white"/>
<path d="M116.545 280.432C116.35 280.421 116.161 280.364 115.992 280.265C115.824 280.166 115.682 280.029 115.577 279.864C115.489 279.728 115.289 279.408 116.025 277.048V276.968C116.137 276.776 116.449 276.32 116.865 276.32C116.977 276.323 117.087 276.357 117.18 276.42C117.274 276.482 117.347 276.57 117.393 276.672C117.753 277.336 117.393 279.24 117.305 279.72C117.285 279.896 117.208 280.061 117.085 280.188C116.962 280.316 116.8 280.399 116.625 280.424L116.545 280.432ZM116.777 277.336C116.529 278.038 116.362 278.765 116.281 279.504C116.356 279.566 116.443 279.609 116.537 279.632C116.537 279.632 116.537 279.632 116.537 279.528C116.708 278.805 116.781 278.063 116.753 277.32L116.777 277.336Z" fill="#263238"/>
<path d="M158.663 276.002C158.663 276.002 159.559 278.57 159.311 278.922C159.063 279.274 158.175 279.722 157.935 278.922C157.695 278.122 157.455 276.202 157.775 275.666C158.095 275.13 158.663 276.002 158.663 276.002Z" fill="white"/>
<path d="M158.489 279.802H158.321C158.12 279.77 157.935 279.675 157.792 279.531C157.648 279.388 157.553 279.203 157.521 279.002C157.305 278.25 156.969 276.154 157.401 275.434C157.456 275.328 157.539 275.238 157.64 275.174C157.741 275.109 157.857 275.072 157.977 275.066C158.457 275.066 158.841 275.618 158.953 275.786L158.993 275.866C159.961 278.634 159.689 279.01 159.585 279.154C159.459 279.334 159.296 279.485 159.107 279.597C158.918 279.708 158.707 279.779 158.489 279.802ZM158.081 275.954C157.979 276.913 158.06 277.882 158.321 278.81C158.321 278.922 158.401 278.986 158.457 279.002C158.664 278.979 158.853 278.875 158.985 278.714C158.837 277.857 158.607 277.016 158.297 276.202C158.235 276.111 158.163 276.028 158.081 275.954Z" fill="#263238"/>
<path d="M157.202 276.801C157.202 276.801 158.098 279.369 157.85 279.729C157.602 280.089 156.714 280.529 156.474 279.729C156.234 278.929 155.994 277.001 156.314 276.473C156.634 275.945 157.202 276.801 157.202 276.801Z" fill="white"/>
<path d="M157.055 280.594C157 280.602 156.943 280.602 156.887 280.594C156.693 280.566 156.512 280.478 156.369 280.344C156.226 280.209 156.128 280.034 156.087 279.842C155.871 279.082 155.535 276.986 155.967 276.266C156.023 276.159 156.106 276.068 156.209 276.005C156.312 275.942 156.43 275.907 156.551 275.906C157.015 275.906 157.423 276.45 157.535 276.618C157.538 276.645 157.538 276.672 157.535 276.698C158.503 279.466 158.231 279.85 158.135 279.994C158.004 280.161 157.841 280.3 157.656 280.403C157.47 280.506 157.266 280.571 157.055 280.594ZM156.647 276.746C156.544 277.705 156.626 278.674 156.887 279.602C156.887 279.722 156.967 279.786 157.023 279.794C157.126 279.789 157.227 279.761 157.318 279.713C157.41 279.665 157.489 279.597 157.551 279.514C157.404 278.657 157.177 277.816 156.871 277.002C156.807 276.908 156.732 276.822 156.647 276.746Z" fill="#263238"/>
<path d="M155.378 276.711C155.378 276.711 156.282 279.279 156.026 279.631C155.77 279.983 154.89 280.431 154.65 279.631C154.41 278.831 154.17 276.911 154.49 276.383C154.81 275.855 155.378 276.711 155.378 276.711Z" fill="white"/>
<path d="M155.2 280.489H155.032C154.837 280.459 154.656 280.37 154.513 280.234C154.37 280.098 154.272 279.922 154.232 279.729C154.016 278.977 153.68 276.881 154.112 276.161C154.167 276.053 154.251 275.963 154.354 275.9C154.457 275.836 154.575 275.802 154.696 275.801C155.176 275.801 155.56 276.345 155.672 276.513C155.69 276.537 155.703 276.564 155.712 276.593C156.68 279.361 156.408 279.745 156.312 279.881C156.178 280.053 156.01 280.195 155.819 280.3C155.627 280.404 155.417 280.469 155.2 280.489ZM154.8 276.641C154.694 277.599 154.773 278.568 155.032 279.497C155.072 279.609 155.112 279.673 155.168 279.689C155.375 279.665 155.564 279.562 155.696 279.401C155.548 278.544 155.32 277.703 155.016 276.889C154.95 276.801 154.878 276.718 154.8 276.641Z" fill="#263238"/>
<path d="M153.898 277.17C153.898 277.17 154.586 279.354 154.394 279.65C154.202 279.946 153.53 280.346 153.354 279.65C153.106 278.751 153.062 277.808 153.226 276.89C153.466 276.418 153.898 277.17 153.898 277.17Z" fill="white"/>
<path d="M153.759 280.432H153.639C153.464 280.407 153.302 280.324 153.179 280.196C153.056 280.069 152.979 279.904 152.959 279.728C152.839 279.248 152.519 277.328 152.871 276.68C152.917 276.576 152.992 276.488 153.087 276.425C153.182 276.363 153.294 276.329 153.407 276.328C153.815 276.328 154.127 276.784 154.207 276.976V277.056C154.951 279.416 154.743 279.736 154.655 279.872C154.557 280.026 154.425 280.156 154.27 280.253C154.115 280.35 153.941 280.411 153.759 280.432ZM153.519 277.32C153.491 278.063 153.564 278.805 153.735 279.528C153.742 279.571 153.759 279.612 153.783 279.648C153.892 279.603 153.986 279.528 154.055 279.432C153.93 278.722 153.754 278.021 153.527 277.336L153.519 277.32Z" fill="#263238"/>
</g>
<path d="M192.24 107.58H83.6076C78.1731 107.58 73.7676 111.986 73.7676 117.42V121.124C73.7676 126.559 78.1731 130.964 83.6076 130.964H192.24C197.674 130.964 202.08 126.559 202.08 121.124V117.42C202.08 111.986 197.674 107.58 192.24 107.58Z" fill="white"/>
<path d="M192.247 131.372H83.6072C80.892 131.37 78.2887 130.29 76.3688 128.37C74.4488 126.45 73.3693 123.847 73.3672 121.132V117.412C73.3714 114.697 74.4516 112.095 76.3711 110.176C78.2905 108.256 80.8927 107.176 83.6072 107.172H192.247C194.96 107.178 197.56 108.259 199.478 110.179C201.396 112.098 202.475 114.699 202.479 117.412V121.124C202.479 123.839 201.402 126.443 199.483 128.365C197.565 130.286 194.962 131.368 192.247 131.372ZM83.6072 107.98C81.1062 107.984 78.7088 108.979 76.9396 110.747C75.1704 112.514 74.1735 114.911 74.1672 117.412V121.124C74.1714 123.626 75.1673 126.025 76.9368 127.794C78.7062 129.564 81.1048 130.56 83.6072 130.564H192.247C194.749 130.56 197.147 129.563 198.915 127.794C200.683 126.024 201.677 123.625 201.679 121.124V117.412C201.677 114.91 200.683 112.512 198.915 110.742C197.147 108.972 194.749 107.976 192.247 107.972L83.6072 107.98Z" fill="#263238"/>
<path d="M119.472 121.652L118.424 121.02L119.736 119.164L117.768 118.412L118.2 117.276L120.088 118.276L119.888 115.98H121.24L121.024 118.276L122.928 117.276L123.344 118.412L121.376 119.212L122.712 121.052L121.624 121.684L120.56 119.596L119.472 121.652Z" fill="#263238"/>
<path d="M126.11 121.652L125.062 121.02L126.374 119.164L124.406 118.412L124.846 117.276L126.726 118.276L126.526 115.98H127.878L127.662 118.276L129.566 117.276L129.982 118.412L128.014 119.212L129.35 121.052L128.262 121.684L127.198 119.564L126.11 121.652Z" fill="#263238"/>
<path d="M132.751 121.652L131.703 121.02L133.023 119.164L131.055 118.412L131.487 117.276L133.367 118.276L133.167 115.98H134.519L134.303 118.276L136.207 117.276L136.623 118.412L134.655 119.212L135.991 121.052L134.903 121.684L133.839 119.596L132.751 121.652Z" fill="#263238"/>
<path d="M139.391 121.652L138.343 121.02L139.663 119.164L137.695 118.412L138.127 117.276L140.015 118.276L139.815 115.98H141.167L140.943 118.276L142.847 117.276L143.263 118.412L141.295 119.212L142.631 121.052L141.551 121.684L140.479 119.596L139.391 121.652Z" fill="#263238"/>
<path d="M146.038 121.652L144.982 121.02L146.302 119.164L144.334 118.412L144.766 117.276L146.654 118.276L146.454 115.98H147.806L147.59 118.276L149.486 117.276L149.902 118.412L147.934 119.212L149.27 121.052L148.19 121.684L147.118 119.596L146.038 121.652Z" fill="#263238"/>
<path d="M152.679 121.652L151.623 121.02L152.943 119.164L150.975 118.412L151.407 117.276L153.295 118.276L153.095 115.98H154.447L154.231 118.276L156.135 117.276L156.551 118.412L154.583 119.212L155.911 121.052L154.831 121.684L153.759 119.596L152.679 121.652Z" fill="#263238"/>
<path d="M105.695 101.083C105.291 101.106 104.891 101 104.551 100.779C104.286 100.578 104.09 100.298 103.991 99.9794C103.878 99.6033 103.824 99.212 103.831 98.8194V96.3714C103.821 95.9576 103.875 95.5447 103.991 95.1474C104.081 94.8245 104.279 94.5421 104.551 94.3474C104.897 94.1432 105.295 94.0458 105.695 94.0674C106.055 94.0495 106.412 94.1326 106.727 94.3074C106.98 94.466 107.172 94.7057 107.271 94.9874C107.391 95.3318 107.448 95.6949 107.439 96.0594V96.6034H106.527V96.1154C106.541 95.889 106.541 95.6619 106.527 95.4354C106.509 95.2651 106.436 95.1052 106.319 94.9794C106.143 94.8695 105.939 94.8112 105.731 94.8112C105.523 94.8112 105.32 94.8695 105.143 94.9794C105.007 95.1111 104.922 95.2869 104.903 95.4754C104.862 95.7212 104.844 95.9702 104.847 96.2194V98.9714C104.841 99.2404 104.868 99.5091 104.927 99.7714C104.966 99.9462 105.069 100.1 105.215 100.203C105.374 100.298 105.558 100.343 105.743 100.331C105.948 100.348 106.152 100.285 106.311 100.155C106.432 100.023 106.506 99.8542 106.519 99.6754C106.553 99.437 106.569 99.1963 106.567 98.9554V98.4434H107.479V98.9554C107.487 99.3317 107.436 99.707 107.327 100.067C107.238 100.371 107.053 100.638 106.799 100.827C106.467 101.026 106.081 101.116 105.695 101.083Z" fill="#263238"/>
<path d="M110.136 101.083C109.744 101.103 109.355 101.009 109.016 100.811C108.729 100.622 108.517 100.339 108.416 100.011C108.29 99.6268 108.23 99.2237 108.24 98.8192V96.1872C108.228 95.7872 108.29 95.3885 108.424 95.0112C108.532 94.6995 108.744 94.4342 109.024 94.2592C109.363 94.0703 109.748 93.9815 110.136 94.0032C110.524 93.9826 110.91 94.0742 111.248 94.2672C111.526 94.4441 111.737 94.7087 111.848 95.0192C111.977 95.3947 112.04 95.7901 112.032 96.1872V98.8272C112.038 99.2295 111.976 99.6299 111.848 100.011C111.738 100.335 111.528 100.615 111.248 100.811C110.913 101.011 110.525 101.106 110.136 101.083ZM110.136 100.283C110.343 100.301 110.55 100.244 110.72 100.123C110.854 100.01 110.946 99.8549 110.984 99.6832C111.035 99.463 111.059 99.2373 111.056 99.0112V95.9712C111.06 95.7477 111.035 95.5247 110.984 95.3072C110.945 95.1384 110.852 94.9868 110.72 94.8752C110.545 94.7674 110.341 94.7171 110.136 94.7312C109.931 94.7181 109.727 94.7684 109.552 94.8752C109.416 94.9856 109.321 95.1374 109.28 95.3072C109.235 95.5257 109.214 95.7483 109.216 95.9712V99.0112C109.214 99.2368 109.235 99.462 109.28 99.6832C109.319 99.856 109.415 100.011 109.552 100.123C109.716 100.258 109.923 100.329 110.136 100.323V100.283Z" fill="#263238"/>
<path d="M112.975 101.012V94.0762H113.639L115.607 98.6842V94.0762H116.407V101.012H115.791L113.799 96.2762V101.012H112.975Z" fill="#263238"/>
<path d="M117.494 101.012V94.0762H120.174V94.7722H118.462V97.0842H119.79V97.7642H118.462V101.012H117.494Z" fill="#263238"/>
<path d="M120.895 101.012V94.0762H121.847V101.012H120.895Z" fill="#263238"/>
<path d="M122.967 101.011V94.0752H124.359C124.751 94.0654 125.141 94.1278 125.511 94.2592C125.797 94.3722 126.035 94.5816 126.183 94.8512C126.34 95.1831 126.414 95.5483 126.399 95.9152C126.4 96.1632 126.371 96.4105 126.311 96.6512C126.263 96.8534 126.17 97.0421 126.039 97.2032C125.91 97.3592 125.737 97.4733 125.543 97.5312L126.527 101.011H125.599L124.695 97.7552H123.943V101.011H122.967ZM123.935 97.0592H124.303C124.528 97.0666 124.753 97.0341 124.967 96.9632C125.132 96.8976 125.266 96.7718 125.343 96.6112C125.433 96.3906 125.474 96.1532 125.463 95.9152C125.49 95.6049 125.411 95.2945 125.239 95.0352C125.119 94.9315 124.979 94.8543 124.827 94.8088C124.675 94.7633 124.516 94.7505 124.359 94.7712H123.935V97.0592Z" fill="#263238"/>
<path d="M127.391 101.012L127.519 94.0762H128.471L129.695 99.6762L130.927 94.0762H131.863L131.999 101.012H131.199L131.127 95.9802L129.951 101.012H129.399L128.239 95.9802L128.159 101.012H127.391Z" fill="#263238"/>
<path d="M135.016 101.012V94.0758H136.736C137.083 94.062 137.428 94.1392 137.736 94.2998C137.982 94.4554 138.172 94.6851 138.28 94.9558C138.399 95.2891 138.456 95.6417 138.448 95.9958C138.455 96.3234 138.389 96.6485 138.256 96.9478C138.133 97.206 137.935 97.4209 137.688 97.5638C137.397 97.7173 137.072 97.7918 136.744 97.7798H135.944V100.98L135.016 101.012ZM135.984 97.0918H136.432C136.654 97.1007 136.877 97.0681 137.088 96.9958C137.241 96.9354 137.364 96.8177 137.432 96.6678C137.508 96.455 137.543 96.2297 137.536 96.0038C137.547 95.7351 137.523 95.4661 137.464 95.2038C137.447 95.1224 137.41 95.0463 137.357 94.9822C137.304 94.9181 137.236 94.8678 137.16 94.8358C136.929 94.7538 136.684 94.7184 136.44 94.7318H136L135.984 97.0918Z" fill="#263238"/>
<path d="M138.398 101.012L139.87 94.0762H140.798L142.278 101.012H141.358L141.046 99.2602H139.63L139.294 101.012H138.398ZM139.766 98.5722H140.926L140.342 95.4442L139.766 98.5722Z" fill="#263238"/>
<path d="M144.647 101.084C144.295 101.1 143.947 101.011 143.647 100.828C143.38 100.656 143.172 100.408 143.047 100.116C142.899 99.786 142.817 99.43 142.807 99.0683L143.663 98.8363C143.679 99.0764 143.717 99.3147 143.775 99.5483C143.827 99.7559 143.929 99.9479 144.071 100.108C144.23 100.245 144.433 100.32 144.643 100.32C144.852 100.32 145.055 100.245 145.215 100.108C145.352 99.9368 145.421 99.7198 145.407 99.5003C145.419 99.2327 145.344 98.9683 145.191 98.7483C145.032 98.5388 144.852 98.3458 144.655 98.1723L143.487 97.1403C143.275 96.9585 143.104 96.7352 142.983 96.4843C142.869 96.2079 142.815 95.9109 142.823 95.6123C142.811 95.396 142.843 95.1795 142.917 94.976C142.991 94.7724 143.106 94.5861 143.255 94.4283C143.581 94.1377 144.01 93.9881 144.447 94.0123C144.691 94.0068 144.934 94.0419 145.167 94.1163C145.365 94.1839 145.546 94.2961 145.695 94.4443C145.84 94.6077 145.951 94.798 146.023 95.0043C146.118 95.2612 146.175 95.5308 146.191 95.8043L145.391 96.0283C145.37 95.8155 145.336 95.6044 145.287 95.3963C145.242 95.221 145.148 95.0626 145.015 94.9403C144.854 94.8214 144.659 94.7573 144.459 94.7573C144.259 94.7573 144.064 94.8214 143.903 94.9403C143.831 95.0155 143.776 95.105 143.742 95.2029C143.707 95.3008 143.694 95.4049 143.703 95.5083C143.695 95.6875 143.731 95.8659 143.807 96.0283C143.899 96.1889 144.018 96.3324 144.159 96.4523L145.327 97.4763C145.595 97.7094 145.829 97.9787 146.023 98.2763C146.227 98.6164 146.33 99.0078 146.319 99.4043C146.327 99.7143 146.253 100.021 146.103 100.292C145.967 100.534 145.764 100.732 145.519 100.86C145.251 101.006 144.951 101.083 144.647 101.084Z" fill="#263238"/>
<path d="M148.695 101.084C148.344 101.1 147.996 101.011 147.695 100.828C147.429 100.656 147.22 100.408 147.095 100.116C146.951 99.7848 146.87 99.4295 146.855 99.0683L147.711 98.8363C147.728 99.0764 147.765 99.3147 147.823 99.5483C147.876 99.7559 147.978 99.9479 148.119 100.108C148.279 100.245 148.482 100.32 148.691 100.32C148.901 100.32 149.104 100.245 149.263 100.108C149.401 99.9368 149.47 99.7198 149.455 99.5003C149.468 99.2327 149.392 98.9683 149.239 98.7483C149.081 98.5388 148.901 98.3458 148.703 98.1723L147.535 97.1403C147.324 96.9585 147.153 96.7352 147.031 96.4843C146.918 96.2079 146.864 95.9109 146.871 95.6123C146.86 95.396 146.892 95.1795 146.966 94.976C147.04 94.7724 147.155 94.5861 147.303 94.4283C147.63 94.1377 148.059 93.9881 148.495 94.0123C148.74 94.0068 148.983 94.0419 149.215 94.1163C149.415 94.182 149.596 94.2945 149.743 94.4443C149.888 94.6093 150.002 94.799 150.079 95.0043C150.168 95.2627 150.222 95.5317 150.239 95.8043L149.439 96.0283C149.423 95.815 149.388 95.6036 149.335 95.3963C149.291 95.221 149.197 95.0626 149.063 94.9403C148.902 94.8214 148.708 94.7573 148.507 94.7573C148.307 94.7573 148.112 94.8214 147.951 94.9403C147.88 95.0155 147.825 95.105 147.791 95.2029C147.756 95.3008 147.743 95.4049 147.751 95.5083C147.744 95.6875 147.779 95.8659 147.855 96.0283C147.947 96.1889 148.066 96.3324 148.207 96.4523L149.375 97.4763C149.643 97.7094 149.878 97.9787 150.071 98.2763C150.276 98.6164 150.378 99.0078 150.367 99.4043C150.376 99.7143 150.301 100.021 150.151 100.292C150.016 100.534 149.813 100.732 149.567 100.86C149.3 101.006 149 101.083 148.695 101.084Z" fill="#263238"/>
<path d="M151.999 101.012L150.871 94.0762H151.671L152.415 99.0602L153.351 94.1002H154.031L154.975 99.0842L155.703 94.0762H156.503L155.391 101.012H154.695L153.727 95.8762L152.751 101.012H151.999Z" fill="#263238"/>
<path d="M159.046 101.083C158.654 101.103 158.265 101.009 157.926 100.811C157.64 100.622 157.428 100.339 157.326 100.011C157.2 99.6268 157.14 99.2237 157.15 98.8192V96.1872C157.138 95.7872 157.2 95.3885 157.334 95.0112C157.442 94.6995 157.654 94.4342 157.934 94.2592C158.273 94.0703 158.658 93.9815 159.046 94.0032C159.434 93.9826 159.82 94.0742 160.158 94.2672C160.434 94.4467 160.644 94.7105 160.758 95.0192C160.887 95.3947 160.95 95.7901 160.942 96.1872V98.8272C160.948 99.2295 160.886 99.6299 160.758 100.011C160.646 100.334 160.436 100.613 160.158 100.811C159.823 101.011 159.435 101.106 159.046 101.083ZM159.046 100.283C159.253 100.3 159.46 100.243 159.63 100.123C159.764 100.01 159.857 99.8549 159.894 99.6832C159.945 99.463 159.969 99.2373 159.966 99.0112V95.9712C159.97 95.7477 159.946 95.5247 159.894 95.3072C159.855 95.1384 159.762 94.9868 159.63 94.8752C159.45 94.7806 159.249 94.7312 159.046 94.7312C158.842 94.7312 158.642 94.7806 158.462 94.8752C158.326 94.9856 158.231 95.1374 158.19 95.3072C158.141 95.5251 158.12 95.7481 158.126 95.9712V99.0112C158.12 99.237 158.142 99.4626 158.19 99.6832C158.229 99.856 158.325 100.011 158.462 100.123C158.626 100.258 158.834 100.329 159.046 100.323V100.283Z" fill="#263238"/>
<path d="M161.887 101.011V94.0754H163.287C163.676 94.0646 164.064 94.127 164.431 94.2594C164.72 94.3675 164.959 94.5782 165.103 94.8514C165.26 95.1833 165.334 95.5485 165.319 95.9154C165.322 96.1631 165.296 96.4103 165.239 96.6514C165.188 96.8542 165.093 97.0429 164.959 97.2034C164.831 97.3609 164.658 97.4754 164.463 97.5314L165.447 101.011H164.519L163.607 97.7554H162.855V101.011H161.887ZM162.855 97.0594H163.199C163.427 97.0667 163.654 97.0343 163.871 96.9634C164.034 96.8952 164.168 96.7702 164.247 96.6114C164.337 96.3908 164.377 96.1534 164.367 95.9154C164.391 95.6055 164.312 95.2962 164.143 95.0354C164.023 94.9321 163.882 94.8553 163.731 94.8098C163.579 94.7643 163.42 94.7512 163.263 94.7714H162.831L162.855 97.0594Z" fill="#263238"/>
<path d="M166.334 101.011V94.0752H167.838C168.257 94.0553 168.674 94.1377 169.054 94.3152C169.348 94.4636 169.578 94.7137 169.702 95.0192C169.84 95.3926 169.905 95.7891 169.894 96.1872V98.7392C169.905 99.1607 169.84 99.5807 169.702 99.9792C169.588 100.31 169.365 100.592 169.07 100.779C168.715 100.972 168.314 101.063 167.91 101.043L166.334 101.011ZM167.294 100.315H167.846C168.114 100.34 168.381 100.266 168.598 100.107C168.76 99.9476 168.856 99.7339 168.87 99.5072C168.905 99.1937 168.921 98.8785 168.918 98.5632V96.3072C168.924 96.0148 168.9 95.7226 168.846 95.4352C168.831 95.3383 168.797 95.2454 168.747 95.1616C168.696 95.0779 168.629 95.005 168.55 94.9472C168.326 94.8294 168.074 94.7768 167.822 94.7952H167.294V100.315Z" fill="#263238"/>
<path d="M172.344 156H104.84C99.4055 156 95 160.406 95 165.84V169.544C95 174.978 99.4055 179.384 104.84 179.384H172.344C177.778 179.384 182.184 174.978 182.184 169.544V165.84C182.184 160.406 177.778 156 172.344 156Z" fill="#263238"/>
<path d="M102.464 172.104C101.992 172.13 101.522 172.019 101.112 171.784C100.782 171.577 100.535 171.259 100.416 170.888C100.275 170.46 100.207 170.011 100.216 169.56V166.792C100.205 166.328 100.273 165.865 100.416 165.424C100.532 165.053 100.78 164.738 101.112 164.536C101.525 164.308 101.993 164.2 102.464 164.224C102.913 164.202 103.36 164.298 103.76 164.504C104.069 164.683 104.305 164.967 104.424 165.304C104.559 165.678 104.624 166.074 104.616 166.472V167.112H103.064V166.392C103.073 166.227 103.073 166.061 103.064 165.896C103.045 165.756 102.99 165.624 102.904 165.512C102.845 165.458 102.775 165.418 102.699 165.393C102.624 165.368 102.543 165.36 102.464 165.368C102.382 165.36 102.298 165.369 102.22 165.396C102.141 165.422 102.069 165.464 102.008 165.52C101.91 165.629 101.849 165.766 101.832 165.912C101.815 166.09 101.815 166.27 101.832 166.448V169.944C101.83 170.132 101.846 170.319 101.88 170.504C101.906 170.645 101.976 170.773 102.08 170.872C102.2 170.966 102.352 171.012 102.504 171C102.582 171.008 102.661 170.999 102.735 170.974C102.81 170.949 102.878 170.909 102.936 170.856C103.027 170.744 103.083 170.608 103.096 170.464C103.108 170.291 103.108 170.117 103.096 169.944V169.192H104.616V169.824C104.623 170.23 104.558 170.633 104.424 171.016C104.3 171.348 104.069 171.629 103.768 171.816C103.369 172.033 102.917 172.133 102.464 172.104Z" fill="#E8E8E8"/>
<path d="M105.594 172V164.32H107.194V167.48H108.546V164.32H110.146V172H108.546V168.6H107.194V172H105.594Z" fill="#E8E8E8"/>
<path d="M110.889 172L112.377 164.32H114.113L115.593 172H114.137L113.865 170.312H112.665L112.369 172H110.889ZM112.793 169.36H113.713L113.249 166.256L112.793 169.36Z" fill="#E8E8E8"/>
<path d="M116.312 172V164.32H117.401L119.112 168.32V164.32H120.401V172H119.36L117.648 167.752V172H116.312Z" fill="#E8E8E8"/>
<path d="M123.528 172.12C123.093 172.142 122.662 172.027 122.296 171.792C121.985 171.561 121.757 171.235 121.648 170.864C121.513 170.409 121.448 169.937 121.456 169.464V166.888C121.447 166.406 121.512 165.926 121.648 165.464C121.77 165.085 122.019 164.761 122.352 164.544C122.763 164.312 123.232 164.201 123.704 164.224C124.155 164.204 124.604 164.3 125.008 164.504C125.321 164.685 125.564 164.967 125.696 165.304C125.842 165.684 125.912 166.089 125.904 166.496V166.944H124.376V166.4C124.389 166.221 124.389 166.042 124.376 165.864C124.361 165.727 124.299 165.6 124.2 165.504C124.076 165.403 123.919 165.354 123.76 165.368C123.677 165.361 123.593 165.371 123.515 165.399C123.436 165.427 123.364 165.47 123.304 165.528C123.207 165.647 123.143 165.791 123.12 165.944C123.107 166.122 123.107 166.301 123.12 166.48V169.88C123.117 170.076 123.136 170.272 123.176 170.464C123.203 170.617 123.279 170.757 123.392 170.864C123.52 170.962 123.679 171.01 123.84 171C124.006 171.01 124.169 170.956 124.296 170.848C124.409 170.737 124.487 170.595 124.52 170.44C124.56 170.245 124.579 170.046 124.576 169.848V169.048H123.832V168.056H125.992V172H124.968L124.872 171.312C124.771 171.539 124.614 171.738 124.416 171.888C124.157 172.069 123.842 172.151 123.528 172.12Z" fill="#E8E8E8"/>
<path d="M126.992 172V164.32H130.336V165.4H128.56V167.44H129.936V168.528H128.56V170.928H130.36V171.984L126.992 172Z" fill="#E8E8E8"/>
<path d="M133.521 172V164.32H135.921C136.317 164.304 136.71 164.395 137.057 164.584C137.348 164.76 137.575 165.023 137.705 165.336C137.856 165.715 137.927 166.121 137.913 166.528C137.94 166.978 137.843 167.426 137.633 167.824C137.46 168.121 137.192 168.352 136.873 168.48C136.518 168.614 136.141 168.679 135.761 168.672H135.065V172H133.521ZM135.121 167.576H135.673C135.856 167.586 136.038 167.547 136.201 167.464C136.264 167.427 136.318 167.377 136.361 167.318C136.404 167.259 136.434 167.191 136.449 167.12C136.502 166.922 136.527 166.717 136.521 166.512C136.522 166.314 136.503 166.115 136.465 165.92C136.437 165.773 136.354 165.642 136.233 165.552C136.062 165.453 135.863 165.408 135.665 165.424H135.065L135.121 167.576Z" fill="#E8E8E8"/>
<path d="M137.945 172L139.441 164.32H141.177L142.657 172H141.201L140.929 170.312H139.713L139.417 172H137.945ZM139.857 169.36H140.777L140.313 166.256L139.857 169.36Z" fill="#E8E8E8"/>
<path d="M145.37 172.104C144.957 172.122 144.546 172.034 144.178 171.848C143.859 171.666 143.609 171.385 143.466 171.048C143.287 170.625 143.192 170.171 143.186 169.712L144.53 169.48C144.536 169.749 144.571 170.017 144.634 170.28C144.665 170.459 144.752 170.624 144.882 170.752C144.934 170.806 144.998 170.848 145.068 170.875C145.139 170.903 145.214 170.915 145.29 170.912C145.37 170.921 145.451 170.908 145.525 170.874C145.598 170.84 145.661 170.787 145.706 170.72C145.778 170.588 145.814 170.439 145.81 170.288C145.819 170.003 145.738 169.723 145.578 169.488C145.399 169.248 145.196 169.028 144.97 168.832L144.17 168.136C143.897 167.908 143.662 167.638 143.474 167.336C143.285 166.996 143.191 166.612 143.202 166.224C143.184 165.955 143.224 165.686 143.321 165.434C143.418 165.183 143.568 164.955 143.762 164.768C144.182 164.406 144.728 164.223 145.282 164.256C145.61 164.244 145.936 164.31 146.234 164.448C146.463 164.565 146.658 164.738 146.802 164.952C146.937 165.166 147.034 165.401 147.09 165.648C147.145 165.892 147.177 166.141 147.186 166.392L145.85 166.592C145.839 166.385 145.818 166.18 145.786 165.976C145.77 165.824 145.712 165.68 145.618 165.56C145.569 165.507 145.51 165.466 145.443 165.44C145.377 165.413 145.305 165.402 145.234 165.408C145.154 165.402 145.074 165.417 145.002 165.452C144.931 165.487 144.87 165.541 144.826 165.608C144.737 165.74 144.689 165.896 144.69 166.056C144.68 166.295 144.747 166.53 144.882 166.728C145.027 166.929 145.196 167.111 145.386 167.272L146.186 167.96C146.499 168.235 146.769 168.556 146.986 168.912C147.225 169.309 147.345 169.768 147.33 170.232C147.336 170.573 147.25 170.911 147.082 171.208C146.923 171.498 146.684 171.737 146.394 171.896C146.075 172.05 145.723 172.121 145.37 172.104Z" fill="#E8E8E8"/>
<path d="M150.034 172.104C149.624 172.121 149.216 172.033 148.85 171.848C148.527 171.669 148.274 171.387 148.13 171.048C147.951 170.624 147.856 170.171 147.85 169.712L149.202 169.48C149.202 169.749 149.234 170.018 149.298 170.28C149.333 170.458 149.419 170.621 149.546 170.752C149.6 170.806 149.665 170.848 149.737 170.875C149.808 170.903 149.885 170.915 149.962 170.912C150.041 170.921 150.121 170.908 150.193 170.874C150.265 170.84 150.327 170.787 150.37 170.72C150.445 170.588 150.484 170.439 150.482 170.288C150.487 170.004 150.406 169.725 150.25 169.488C150.068 169.247 149.862 169.028 149.634 168.832L148.834 168.136C148.556 167.91 148.318 167.64 148.13 167.336C147.943 166.995 147.852 166.611 147.866 166.224C147.848 165.956 147.888 165.687 147.983 165.436C148.078 165.184 148.227 164.956 148.418 164.768C148.839 164.407 149.384 164.223 149.938 164.256C150.266 164.243 150.592 164.309 150.89 164.448C151.122 164.562 151.321 164.736 151.466 164.952C151.598 165.166 151.693 165.401 151.746 165.648C151.8 165.892 151.835 166.141 151.85 166.392L150.506 166.592C150.497 166.385 150.479 166.18 150.45 165.976C150.432 165.823 150.371 165.679 150.274 165.56C150.22 165.506 150.156 165.465 150.085 165.438C150.014 165.411 149.938 165.399 149.863 165.404C149.787 165.408 149.713 165.429 149.646 165.464C149.579 165.499 149.52 165.548 149.474 165.608C149.387 165.741 149.343 165.897 149.346 166.056C149.333 166.294 149.398 166.529 149.53 166.728C149.675 166.929 149.844 167.111 150.034 167.272L150.834 167.96C151.145 168.236 151.415 168.557 151.634 168.912C151.876 169.308 151.999 169.767 151.986 170.232C151.988 170.573 151.903 170.909 151.738 171.208C151.577 171.497 151.339 171.735 151.05 171.896C150.733 172.047 150.384 172.118 150.034 172.104Z" fill="#E8E8E8"/>
<path d="M153.521 172L152.529 164.32H153.857L154.385 169.016L155.057 164.328H156.113L156.817 169.008L157.345 164.32H158.657L157.665 172H156.345L155.593 167.136L154.881 172H153.521Z" fill="#E8E8E8"/>
<path d="M161.624 172.104C161.159 172.13 160.696 172.025 160.288 171.8C159.96 171.601 159.709 171.296 159.576 170.936C159.43 170.501 159.359 170.043 159.368 169.584V166.72C159.358 166.263 159.428 165.808 159.576 165.376C159.706 165.016 159.958 164.714 160.288 164.52C160.699 164.302 161.16 164.2 161.624 164.224C162.093 164.204 162.559 164.306 162.976 164.52C163.303 164.718 163.553 165.019 163.688 165.376C163.84 165.807 163.91 166.263 163.896 166.72V169.584C163.91 170.044 163.839 170.502 163.688 170.936C163.555 171.296 163.304 171.601 162.976 171.8C162.562 172.025 162.094 172.13 161.624 172.104ZM161.624 170.976C161.786 170.992 161.947 170.943 162.072 170.84C162.173 170.734 162.24 170.601 162.264 170.456C162.297 170.293 162.313 170.127 162.312 169.96V166.328C162.313 166.162 162.297 165.995 162.264 165.832C162.236 165.696 162.173 165.569 162.08 165.464C161.953 165.365 161.793 165.316 161.632 165.328C161.478 165.316 161.326 165.365 161.208 165.464C161.109 165.565 161.042 165.693 161.016 165.832C160.983 165.995 160.967 166.162 160.968 166.328V169.96C160.955 170.125 160.955 170.291 160.968 170.456C160.993 170.594 161.057 170.722 161.152 170.824C161.215 170.882 161.29 170.926 161.371 170.952C161.453 170.978 161.539 170.986 161.624 170.976Z" fill="#E8E8E8"/>
<path d="M164.945 172V164.32H166.937C167.386 164.309 167.835 164.368 168.265 164.496C168.616 164.595 168.92 164.816 169.121 165.12C169.343 165.491 169.449 165.92 169.425 166.352C169.427 166.634 169.398 166.916 169.337 167.192C169.294 167.421 169.198 167.637 169.057 167.824C168.908 168.018 168.709 168.167 168.481 168.256L169.545 172H167.945L167.065 168.52H166.521V172H164.945ZM166.545 167.592H166.993C167.2 167.602 167.406 167.561 167.593 167.472C167.738 167.386 167.848 167.253 167.905 167.096C167.968 166.894 167.997 166.683 167.993 166.472C168.01 166.192 167.943 165.913 167.801 165.672C167.714 165.567 167.601 165.486 167.474 165.437C167.346 165.388 167.208 165.372 167.073 165.392H166.545V167.592Z" fill="#E8E8E8"/>
<path d="M170.449 171.999V164.319H172.321C172.842 164.299 173.362 164.383 173.849 164.567C174.211 164.718 174.498 165.006 174.649 165.367C174.816 165.804 174.895 166.269 174.881 166.735V169.535C174.896 170.013 174.817 170.488 174.649 170.935C174.503 171.287 174.232 171.571 173.889 171.735C173.416 171.93 172.905 172.017 172.393 171.991L170.449 171.999ZM172.049 170.911H172.385C172.6 170.928 172.814 170.881 173.001 170.775C173.129 170.675 173.213 170.529 173.233 170.367C173.268 170.145 173.284 169.92 173.281 169.695V166.495C173.287 166.281 173.269 166.066 173.225 165.855C173.21 165.783 173.18 165.715 173.137 165.654C173.094 165.594 173.04 165.542 172.977 165.503C172.791 165.414 172.584 165.375 172.377 165.391H172.049V170.911Z" fill="#E8E8E8"/>
<defs>
<clipPath id="clip0_2737_48746">
<rect width="400" height="357" fill="white"/>
</clipPath>
</defs>
</svg>
