<svg width="58" height="61" viewBox="0 0 58 61" fill="none" xmlns="http://www.w3.org/2000/svg">
<path d="M23.0667 18.606C20.1043 16.9331 15.9419 14.3239 12.0334 14.3239C6.24085 14.3239 1 17.8837 1 28.5975C1 42.5829 3.91281 52.6058 8.36754 58.6779C9.94807 60.836 13.8015 60.1652 15.4482 58.0041C16.546 56.5625 17.7073 53.8962 18.9292 50.008C19.7347 47.807 21.3897 45.7145 23.0667 45.7259C24.7273 45.7259 26.4043 47.8299 27.2043 50.008C28.4262 53.8962 29.5875 56.5596 30.6853 58.0013C32.332 60.168 36.202 60.836 37.766 58.6779C42.2207 52.6058 45.1335 42.5857 45.1335 28.5975C45.1335 17.9208 39.8706 14.3239 34.1001 14.3239C30.175 14.3239 26.0458 16.9245 23.0667 18.606ZM23.0667 18.606L31.3418 22.8881L23.0667 18.606Z" fill="#7B61FF"/>
<path d="M23.0667 18.606C20.1043 16.9331 15.9419 14.3239 12.0334 14.3239C6.24085 14.3239 1 17.8837 1 28.5975C1 42.5829 3.91281 52.6058 8.36754 58.6779C9.94807 60.836 13.8015 60.1652 15.4482 58.0041C16.546 56.5625 17.7073 53.8962 18.9292 50.008C19.7347 47.807 21.3897 45.7145 23.0667 45.7259C24.7273 45.7259 26.4043 47.8299 27.2043 50.008C28.4262 53.8962 29.5875 56.5596 30.6853 58.0013C32.332 60.168 36.202 60.836 37.766 58.6779C42.2207 52.6058 45.1335 42.5857 45.1335 28.5975C45.1335 17.9208 39.8706 14.3239 34.1001 14.3239C30.175 14.3239 26.0458 16.9245 23.0667 18.606ZM23.0667 18.606L31.3418 22.8881" stroke="#7367F0" stroke-width="2" stroke-linecap="round" stroke-linejoin="round"/>
<path d="M23.0667 18.606C20.1043 16.9331 15.9419 14.3239 12.0334 14.3239C6.24085 14.3239 1 17.8837 1 28.5975C1 42.5829 3.91281 52.6058 8.36754 58.6779C9.94807 60.836 13.8015 60.1652 15.4482 58.0041C16.546 56.5625 17.7073 53.8962 18.9292 50.008C19.7347 47.807 21.3897 45.7145 23.0667 45.7259C24.7273 45.7259 26.4043 47.8299 27.2043 50.008C28.4262 53.8962 29.5875 56.5596 30.6853 58.0013C32.332 60.168 36.202 60.836 37.766 58.6779C42.2207 52.6058 45.1335 42.5857 45.1335 28.5975C45.1335 17.9208 39.8706 14.3239 34.1001 14.3239C30.175 14.3239 26.0458 16.9245 23.0667 18.606ZM23.0667 18.606L31.3418 22.8881" stroke="white" stroke-opacity="0.6" stroke-width="2" stroke-linecap="round" stroke-linejoin="round"/>
<path d="M47.6123 0L44.852 7.04074L37.4912 9.68102L44.852 12.3213L47.6123 19.362L50.3726 12.3213L57.7333 9.68102L50.3726 7.04074L47.6123 0Z" fill="#0099FF"/>
</svg>
