<svg width="400" height="400" viewBox="0 0 400 400" fill="none" xmlns="http://www.w3.org/2000/svg">
<g opacity="0.7">
<path d="M333.776 77.248C326.664 65.144 316.712 55.24 304.128 47.2C262.232 20.296 205.288 10.608 156.336 17.92C121.368 23.144 98.056 46.912 83.136 77.92C65.536 114.52 49.536 150.928 29.456 186.472C6.39999 227.2 -3.89601 269.6 46.136 304.8C89.432 335.264 143.736 327.36 193.336 326.4C209.784 326.08 226.352 326.624 242.536 329.808C274.696 336.128 305.928 358.608 337.56 337.616C361.6 321.656 375.76 291.504 382.624 264.192C386.712 247.92 389.928 229.96 388.408 212.68C386.752 193.752 378.008 179.496 369.04 163.376C357.725 143.055 348.919 121.436 342.816 98.992C340.787 91.3728 337.747 84.0598 333.776 77.248Z" fill="#8692D0"/>
<path opacity="0.7" d="M333.776 77.248C326.664 65.144 316.712 55.24 304.128 47.2C262.232 20.296 205.288 10.608 156.336 17.92C121.368 23.144 98.056 46.912 83.136 77.92C65.536 114.52 49.536 150.928 29.456 186.472C6.39999 227.2 -3.89602 269.6 46.136 304.8C89.432 335.264 143.736 327.36 193.336 326.4C209.784 326.08 226.352 326.624 242.536 329.808C274.696 336.128 305.928 358.608 337.56 337.616C361.6 321.656 375.76 291.504 382.624 264.192C386.712 247.92 389.928 229.96 388.408 212.68C386.752 193.752 378.008 179.496 369.04 163.376C357.725 143.055 348.919 121.436 342.816 98.992C340.787 91.3728 337.747 84.0598 333.776 77.248Z" fill="#C4C3E8"/>
</g>
<path d="M84.6803 317.786L82.3703 318.343L94.3687 368.166L96.6787 367.61L84.6803 317.786Z" fill="#263238" stroke="#263238" stroke-linecap="round" stroke-linejoin="round"/>
<path d="M154.928 367.528H95.224V371.488H154.928V367.528Z" fill="#263238" stroke="#263238" stroke-linecap="round" stroke-linejoin="round"/>
<path d="M341.256 34.8H63.656V233.2H341.256V34.8Z" fill="white" stroke="#263238" stroke-miterlimit="10"/>
<path d="M341.256 34.8H63.656V60.4H341.256V34.8Z" fill="#8692D0" stroke="#263238" stroke-miterlimit="10"/>
<path d="M91.616 34.8H63.656V60.4H91.616V34.8Z" fill="#8692D0" stroke="#263238" stroke-miterlimit="10"/>
<path d="M324.584 49.264C324.584 48.7324 324.426 48.2127 324.131 47.7706C323.836 47.3286 323.416 46.9841 322.925 46.7806C322.434 46.5772 321.893 46.5239 321.372 46.6276C320.85 46.7314 320.371 46.9874 319.995 47.3633C319.619 47.7392 319.363 48.2182 319.26 48.7396C319.156 49.261 319.209 49.8015 319.413 50.2926C319.616 50.7838 319.961 51.2036 320.403 51.499C320.845 51.7943 321.364 51.952 321.896 51.952C322.608 51.9499 323.291 51.666 323.794 51.1624C324.298 50.6587 324.582 49.9762 324.584 49.264Z" fill="#263238"/>
<path d="M305.112 51.952C306.597 51.952 307.8 50.7485 307.8 49.264C307.8 47.7794 306.597 46.576 305.112 46.576C303.627 46.576 302.424 47.7794 302.424 49.264C302.424 50.7485 303.627 51.952 305.112 51.952Z" fill="#263238"/>
<path d="M288.328 51.952C289.813 51.952 291.016 50.7485 291.016 49.264C291.016 47.7794 289.813 46.576 288.328 46.576C286.843 46.576 285.64 47.7794 285.64 49.264C285.64 50.7485 286.843 51.952 288.328 51.952Z" fill="#263238"/>
<path d="M325.92 72.816H107.728V94.968H325.92V72.816Z" stroke="#263238" stroke-miterlimit="10"/>
<path d="M325.92 101.688H107.728V123.84H325.92V101.688Z" stroke="#263238" stroke-miterlimit="10"/>
<path d="M74.6 87.312V81.28H73.36V80.592H76.56V81.28H75.352V87.312H74.6Z" fill="#263238"/>
<path d="M77.048 82.216C77.048 81.192 77.56 80.528 78.584 80.528C79.608 80.528 80.128 81.192 80.128 82.216V85.688C80.128 86.704 79.624 87.376 78.584 87.376C77.544 87.376 77.048 86.704 77.048 85.688V82.216ZM77.784 85.728C77.784 86.344 78.048 86.696 78.584 86.696C79.12 86.696 79.384 86.344 79.384 85.728V82.176C79.384 81.576 79.128 81.208 78.584 81.208C78.04 81.208 77.784 81.576 77.784 82.176V85.728Z" fill="#263238"/>
<path d="M76.528 112.072V112.256H75.816V112C75.816 111.4 75.592 111.04 75.016 111.04C74.44 111.04 74.216 111.4 74.216 111.992C74.216 113.496 76.472 113.64 76.472 115.536C76.472 116.552 75.984 117.216 74.96 117.216C73.936 117.216 73.456 116.552 73.456 115.536V115.2H74.152V115.624C74.152 116.224 74.4 116.584 74.952 116.584C75.504 116.584 75.752 116.224 75.752 115.624C75.752 114.12 73.504 114.024 73.504 112.088C73.504 111.056 73.984 110.408 74.992 110.408C76 110.408 76.528 111.056 76.528 112.072Z" fill="#263238"/>
<path d="M77.904 115.592C77.904 116.2 78.144 116.568 78.704 116.568C79.264 116.568 79.504 116.2 79.504 115.592V110.464H80.208V115.56C80.208 116.576 79.736 117.256 78.704 117.256C77.672 117.256 77.208 116.576 77.208 115.56V110.464H77.944L77.904 115.592Z" fill="#263238"/>
<path d="M82.4 110.464C83.448 110.464 83.856 110.96 83.856 111.952V112.264C83.856 112.976 83.656 113.416 83.056 113.6C83.704 113.784 83.952 114.304 83.952 115.04V115.608C83.9887 115.82 83.9752 116.038 83.9126 116.243C83.8499 116.449 83.7399 116.638 83.5913 116.793C83.4427 116.949 83.2597 117.067 83.057 117.139C82.8543 117.211 82.6375 117.235 82.424 117.208H80.872V110.496L82.4 110.464ZM82.216 113.312C82.808 113.312 83.12 113.12 83.12 112.416V112C83.12 111.408 82.92 111.12 82.376 111.12H81.64V113.288L82.216 113.312ZM82.44 116.512C82.984 116.512 83.24 116.224 83.24 115.6V115.008C83.24 114.256 82.944 114.008 82.304 114.008H81.648V116.512H82.44Z" fill="#263238"/>
<path d="M84.48 116.496H84.856C85.344 116.496 85.656 116.24 85.656 115.56V110.456H86.4V115.512C86.4 116.768 85.776 117.16 84.976 117.176C84.8189 117.188 84.6611 117.188 84.504 117.176L84.48 116.496Z" fill="#263238"/>
<path d="M89.512 113.432V114.104H87.864V116.504H89.88V117.184H87.12V110.472H89.88V111.152H87.864V113.44L89.512 113.432Z" fill="#263238"/>
<path d="M93.536 112.08V112.688H92.8V112.048C92.8 111.44 92.56 111.072 92 111.072C91.44 111.072 91.2 111.44 91.2 112.048V115.592C91.2 116.2 91.448 116.568 92 116.568C92.552 116.568 92.8 116.2 92.8 115.592V114.72H93.504V115.52C93.504 116.536 93.024 117.208 91.992 117.208C90.96 117.208 90.488 116.536 90.488 115.52V112.08C90.488 111.064 90.968 110.392 91.992 110.392C93.016 110.392 93.536 111.064 93.536 112.08Z" fill="#263238"/>
<path d="M95.2 117.176V111.144H93.96V110.464H97.16V111.144H95.92V117.176H95.2Z" fill="#263238"/>
<path d="M75.128 173.392C76.176 173.392 76.584 173.896 76.584 174.88V175.2C76.584 175.912 76.384 176.352 75.784 176.536C76.432 176.712 76.688 177.232 76.688 177.968V178.536C76.7233 178.748 76.7085 178.966 76.6448 179.172C76.5811 179.378 76.4702 179.566 76.3211 179.721C76.1719 179.876 75.9886 179.995 75.7856 180.067C75.5827 180.139 75.3657 180.163 75.152 180.136H73.6V173.416L75.128 173.392ZM74.944 176.248C75.544 176.248 75.848 176.056 75.848 175.352V174.96C75.848 174.368 75.648 174.08 75.112 174.08H74.4V176.248H74.944ZM75.168 179.448C75.712 179.448 75.968 179.16 75.968 178.536V177.936C75.968 177.192 75.672 176.944 75.032 176.944H74.4V179.448H75.168Z" fill="#263238"/>
<path d="M77.328 175.016C77.328 173.992 77.832 173.328 78.864 173.328C79.896 173.328 80.408 173.992 80.408 175.016V178.488C80.4391 178.705 80.4217 178.925 80.3572 179.134C80.2927 179.343 80.1827 179.536 80.0351 179.697C79.8874 179.858 79.7058 179.985 79.5033 180.068C79.3008 180.151 79.0825 180.188 78.864 180.176C77.832 180.176 77.328 179.504 77.328 178.488V175.016ZM78.064 178.528C78.064 179.144 78.328 179.496 78.864 179.496C79.4 179.496 79.664 179.144 79.664 178.528V174.976C79.664 174.376 79.416 174.008 78.864 174.008C78.312 174.008 78.064 174.376 78.064 174.976V178.528Z" fill="#263238"/>
<path d="M82.696 173.392C83.736 173.392 84.216 174.032 84.216 175.064V178.448C84.216 179.48 83.736 180.112 82.696 180.112H81.096V173.392H82.696ZM82.696 179.432C83.24 179.432 83.496 179.096 83.496 178.48V175.024C83.496 174.416 83.24 174.08 82.696 174.08H81.896V179.432H82.696Z" fill="#263238"/>
<path d="M85.968 177.704L84.544 173.392H85.344L86.392 176.696L87.448 173.392H88.16L86.728 177.704V180.104H85.992L85.968 177.704Z" fill="#263238"/>
<path d="M325.92 132.568H107.728V222.528H325.92V132.568Z" stroke="#263238" stroke-miterlimit="10"/>
<path d="M111.76 147.336H319.88" stroke="#263238" stroke-miterlimit="10"/>
<path d="M116.448 139.72V140.408H114.904V143.312H114.152V136.592H116.8V137.28H114.88V139.72H116.448Z" fill="#263238"/>
<path d="M117.36 138.216C117.36 137.192 117.872 136.528 118.896 136.528C119.92 136.528 120.44 137.192 120.44 138.216V141.688C120.44 142.704 119.936 143.376 118.896 143.376C117.856 143.376 117.36 142.704 117.36 141.688V138.216ZM118.104 141.728C118.104 142.344 118.36 142.696 118.904 142.696C119.448 142.696 119.704 142.344 119.704 141.728V138.176C119.704 137.576 119.448 137.208 118.904 137.208C118.36 137.208 118.104 137.576 118.104 138.176V141.728Z" fill="#263238"/>
<path d="M121.816 143.312H121.144V136.592H122.096L123.648 141.448V136.592H124.312V143.312H123.512L121.792 137.88L121.816 143.312Z" fill="#263238"/>
<path d="M126.048 143.312V137.28H124.8V136.592H128V137.28H126.76V143.312H126.048Z" fill="#263238"/>
<path d="M162.464 137.816C162.179 137.984 161.858 138.083 161.528 138.104V137.488C161.794 137.495 162.054 137.409 162.264 137.246C162.474 137.082 162.621 136.851 162.68 136.592H163.2V143.312H162.464V137.816Z" fill="#263238"/>
<path d="M167.352 138.224C167.352 140.248 165.08 140.984 165.072 142.528V142.632H167.28V143.312H164.336V142.736C164.336 140.568 166.608 140.144 166.608 138.256C166.608 137.568 166.376 137.2 165.808 137.2C165.24 137.2 165.008 137.592 165.008 138.184V138.784H164.312V138.232C164.312 137.208 164.776 136.528 165.816 136.528C166.856 136.528 167.352 137.2 167.352 138.224Z" fill="#263238"/>
<path d="M205.28 142.952L205.208 143.16H201.44L201.528 142.952C201.782 142.96 202.035 142.931 202.28 142.864C202.45 142.819 202.604 142.724 202.72 142.592C202.939 142.293 203.102 141.957 203.2 141.6L204.8 136.88C204.912 136.596 204.979 136.297 205 135.992C205.003 135.899 204.971 135.808 204.912 135.736C204.842 135.658 204.75 135.602 204.648 135.576C204.417 135.527 204.18 135.508 203.944 135.52L204.024 135.304H207.568L207.488 135.52C207.272 135.51 207.055 135.537 206.848 135.6C206.668 135.668 206.508 135.781 206.384 135.928C206.211 136.228 206.074 136.548 205.976 136.88L204.376 141.6C204.275 141.858 204.203 142.126 204.16 142.4C204.16 142.49 204.191 142.578 204.248 142.648C204.319 142.724 204.411 142.776 204.512 142.8C204.762 142.876 205.02 142.927 205.28 142.952Z" fill="#263238"/>
<path d="M223.2 136.888V140.944C223.203 141.271 223.133 141.595 222.995 141.891C222.856 142.187 222.653 142.449 222.4 142.656C221.867 143.121 221.179 143.37 220.472 143.352C220.009 143.359 219.55 143.264 219.128 143.072C218.728 142.871 218.385 142.574 218.128 142.208C217.86 141.841 217.717 141.398 217.72 140.944V136.888H217.24C217.14 136.9 217.038 136.877 216.952 136.824C216.923 136.805 216.9 136.778 216.885 136.748C216.869 136.717 216.862 136.682 216.864 136.648C216.864 136.613 216.872 136.578 216.887 136.546C216.903 136.514 216.925 136.486 216.952 136.464C217.041 136.418 217.141 136.399 217.24 136.408H219.336C219.436 136.396 219.538 136.419 219.624 136.472C219.652 136.492 219.675 136.518 219.691 136.549C219.707 136.58 219.715 136.614 219.715 136.648C219.715 136.682 219.707 136.716 219.691 136.747C219.675 136.778 219.652 136.804 219.624 136.824C219.538 136.877 219.436 136.9 219.336 136.888H218.288V140.944C218.286 141.204 218.342 141.461 218.453 141.697C218.564 141.932 218.726 142.14 218.928 142.304C219.347 142.674 219.889 142.874 220.448 142.864C220.801 142.868 221.151 142.794 221.472 142.648C221.789 142.491 222.063 142.261 222.272 141.976C222.502 141.681 222.626 141.318 222.624 140.944V136.888H221.576C221.476 136.9 221.374 136.877 221.288 136.824C221.26 136.804 221.237 136.778 221.221 136.747C221.205 136.716 221.197 136.682 221.197 136.648C221.197 136.614 221.205 136.58 221.221 136.549C221.237 136.518 221.26 136.492 221.288 136.472C221.374 136.419 221.476 136.396 221.576 136.408H223.672C223.772 136.396 223.874 136.419 223.96 136.472C223.987 136.493 224.008 136.52 224.023 136.55C224.038 136.581 224.045 136.614 224.045 136.648C224.045 136.682 224.038 136.715 224.023 136.746C224.008 136.776 223.987 136.803 223.96 136.824C223.874 136.877 223.772 136.9 223.672 136.888H223.2Z" fill="#263238"/>
<path d="M197.04 136.592V143.312H196.288V136.592H197.04Z" fill="#263238"/>
<path d="M213.6 136.592V143.312H212.8V136.592H213.6Z" fill="#263238"/>
<path d="M229.6 136.592V143.312H228.8V136.592H229.6Z" fill="#263238"/>
<path d="M151.088 142.04L154.096 138.912H148.088L151.088 142.04Z" fill="#263238"/>
<path d="M177.224 142.04L180.224 138.912H174.216L177.224 142.04Z" fill="#263238"/>
<path d="M191.944 140.408C191.887 140.235 191.797 140.075 191.68 139.936C191.566 139.791 191.428 139.666 191.272 139.568C191.106 139.464 190.929 139.378 190.744 139.312C191.054 139.154 191.313 138.909 191.488 138.608C191.64 138.325 191.717 138.009 191.712 137.688C191.71 137.495 191.681 137.304 191.624 137.12C191.56 136.93 191.465 136.752 191.344 136.592C191.208 136.414 191.047 136.258 190.864 136.128C190.657 135.982 190.427 135.872 190.184 135.8C189.732 135.668 189.262 135.608 188.792 135.624H185.512V136.688H186.104V142.288H185.512V143.352H188.928H189.392L189.768 143.304L190.088 143.24C190.424 143.159 190.743 143.021 191.032 142.832C191.267 142.684 191.473 142.494 191.64 142.272C191.785 142.087 191.891 141.875 191.952 141.648C192.01 141.451 192.04 141.246 192.04 141.04C192.047 140.825 192.014 140.611 191.944 140.408ZM187.52 136.8H188.688C188.859 136.79 189.029 136.79 189.2 136.8L189.568 136.864C189.781 136.919 189.967 137.046 190.096 137.224C190.202 137.386 190.257 137.575 190.256 137.768C190.258 137.955 190.211 138.14 190.12 138.304C190.007 138.468 189.849 138.596 189.664 138.672C189.384 138.758 189.092 138.796 188.8 138.784H187.52V136.8ZM190.528 141.376C190.488 141.487 190.429 141.59 190.352 141.68C190.26 141.778 190.152 141.859 190.032 141.92C189.879 142 189.714 142.057 189.544 142.088C189.391 142.124 189.236 142.148 189.08 142.16C188.904 142.16 188.696 142.16 188.448 142.16H187.52V140H188.864C189.056 139.99 189.248 139.99 189.44 140C189.576 140.011 189.71 140.038 189.84 140.08C190.059 140.139 190.255 140.265 190.4 140.44C190.519 140.605 190.581 140.805 190.576 141.008C190.578 141.13 190.561 141.251 190.528 141.368V141.376Z" fill="#263238"/>
<path d="M235.088 136.536C235.048 136.359 234.949 136.201 234.807 136.088C234.665 135.975 234.489 135.914 234.308 135.914C234.127 135.914 233.951 135.975 233.809 136.088C233.667 136.201 233.568 136.359 233.528 136.536C233.501 136.653 233.501 136.775 233.528 136.892C233.555 137.009 233.608 137.119 233.683 137.213C233.758 137.307 233.853 137.382 233.961 137.435C234.069 137.487 234.188 137.514 234.308 137.514C234.428 137.514 234.547 137.487 234.655 137.435C234.763 137.382 234.858 137.307 234.933 137.213C235.008 137.119 235.061 137.009 235.088 136.892C235.115 136.775 235.115 136.653 235.088 136.536Z" stroke="#263238" stroke-miterlimit="10"/>
<path d="M236.96 136.848H248.68" stroke="#263238" stroke-miterlimit="10"/>
<path d="M235.088 140C235.088 139.842 235.041 139.687 234.953 139.556C234.865 139.424 234.74 139.321 234.594 139.261C234.448 139.2 234.287 139.185 234.132 139.215C233.977 139.246 233.834 139.322 233.722 139.434C233.61 139.546 233.534 139.689 233.503 139.844C233.472 139.999 233.488 140.16 233.549 140.306C233.609 140.452 233.712 140.577 233.844 140.665C233.975 140.753 234.13 140.8 234.288 140.8C234.5 140.8 234.704 140.716 234.854 140.566C235.004 140.416 235.088 140.212 235.088 140Z" stroke="#263238" stroke-miterlimit="10"/>
<path d="M236.96 140.288H248.68" stroke="#263238" stroke-miterlimit="10"/>
<path d="M235.088 143.408C235.048 143.231 234.949 143.073 234.807 142.96C234.665 142.847 234.489 142.786 234.308 142.786C234.127 142.786 233.951 142.847 233.809 142.96C233.667 143.073 233.568 143.231 233.528 143.408C233.501 143.525 233.501 143.647 233.528 143.764C233.555 143.881 233.608 143.991 233.683 144.085C233.758 144.179 233.853 144.254 233.961 144.307C234.069 144.359 234.188 144.386 234.308 144.386C234.428 144.386 234.547 144.359 234.655 144.307C234.763 144.254 234.858 144.179 234.933 144.085C235.008 143.991 235.061 143.881 235.088 143.764C235.115 143.647 235.115 143.525 235.088 143.408Z" stroke="#263238" stroke-miterlimit="10"/>
<path d="M236.96 143.72H248.68" stroke="#263238" stroke-miterlimit="10"/>
<path d="M254.824 136.536C254.824 136.378 254.777 136.223 254.689 136.092C254.601 135.96 254.476 135.857 254.33 135.797C254.184 135.736 254.023 135.72 253.868 135.751C253.713 135.782 253.57 135.858 253.458 135.97C253.346 136.082 253.27 136.225 253.239 136.38C253.209 136.535 253.224 136.696 253.285 136.842C253.345 136.988 253.448 137.113 253.58 137.201C253.711 137.289 253.866 137.336 254.024 137.336C254.236 137.336 254.44 137.252 254.59 137.102C254.74 136.952 254.824 136.748 254.824 136.536Z" stroke="#263238" stroke-miterlimit="10"/>
<path d="M256.696 136.848H268.408" stroke="#263238" stroke-miterlimit="10"/>
<path d="M254.824 140C254.851 139.883 254.851 139.761 254.824 139.644C254.797 139.527 254.744 139.417 254.669 139.323C254.594 139.229 254.499 139.154 254.391 139.101C254.283 139.049 254.164 139.022 254.044 139.022C253.924 139.022 253.805 139.049 253.697 139.101C253.589 139.154 253.494 139.229 253.419 139.323C253.344 139.417 253.291 139.527 253.264 139.644C253.237 139.761 253.237 139.883 253.264 140C253.304 140.177 253.403 140.335 253.545 140.448C253.687 140.561 253.863 140.622 254.044 140.622C254.225 140.622 254.401 140.561 254.543 140.448C254.685 140.335 254.784 140.177 254.824 140Z" stroke="#263238" stroke-miterlimit="10"/>
<path d="M256.696 140.288H268.408" stroke="#263238" stroke-miterlimit="10"/>
<path d="M254.824 143.408C254.824 143.25 254.777 143.095 254.689 142.964C254.601 142.832 254.476 142.729 254.33 142.669C254.184 142.608 254.023 142.592 253.868 142.623C253.713 142.654 253.57 142.73 253.458 142.842C253.346 142.954 253.27 143.097 253.239 143.252C253.209 143.407 253.224 143.568 253.285 143.714C253.345 143.86 253.448 143.985 253.58 144.073C253.711 144.161 253.866 144.208 254.024 144.208C254.236 144.208 254.44 144.124 254.59 143.974C254.74 143.824 254.824 143.62 254.824 143.408Z" stroke="#263238" stroke-miterlimit="10"/>
<path d="M256.696 143.72H268.408" stroke="#263238" stroke-miterlimit="10"/>
<path d="M276.912 143.496C275.936 144.544 274.552 144.84 273.816 144.152C273.08 143.464 273.28 142.064 274.256 141.016C275.232 139.968 276.656 139.672 277.352 140.36C278.048 141.048 277.896 142.448 276.912 143.496Z" stroke="#263238" stroke-miterlimit="10"/>
<path d="M280.463 139.45C281.439 138.402 281.635 136.999 280.902 136.315C280.168 135.632 278.782 135.926 277.806 136.974C276.83 138.021 276.634 139.424 277.367 140.108C278.101 140.792 279.487 140.497 280.463 139.45Z" stroke="#263238" stroke-miterlimit="10"/>
<path d="M275.808 141.912L279.128 138.48" stroke="#263238" stroke-miterlimit="10"/>
<path d="M296 163.736H317.864" stroke="#263238" stroke-miterlimit="10"/>
<path d="M231.464 163.736H289.064" stroke="#263238" stroke-miterlimit="10"/>
<path d="M176 163.736H224.536" stroke="#263238" stroke-miterlimit="10"/>
<path d="M146.136 163.736H171.736" stroke="#263238" stroke-miterlimit="10"/>
<path d="M114.136 163.736H141.336" stroke="#263238" stroke-miterlimit="10"/>
<path d="M286.4 176H317.864" stroke="#263238" stroke-miterlimit="10"/>
<path d="M206.936 176H281.064" stroke="#263238" stroke-miterlimit="10"/>
<path d="M145.6 176H200" stroke="#263238" stroke-miterlimit="10"/>
<path d="M114.136 176H141.336" stroke="#263238" stroke-miterlimit="10"/>
<path d="M296.536 188.264H317.864" stroke="#263238" stroke-miterlimit="10"/>
<path d="M233.064 188.264H291.2" stroke="#263238" stroke-miterlimit="10"/>
<path d="M190.4 188.264H226.136" stroke="#263238" stroke-miterlimit="10"/>
<path d="M143.464 188.264H184.536" stroke="#263238" stroke-miterlimit="10"/>
<path d="M114.136 188.264H138.664" stroke="#263238" stroke-miterlimit="10"/>
<path d="M310.936 208.536H317.864" stroke="#263238" stroke-miterlimit="10"/>
<path d="M261.336 208.536H304.536" stroke="#263238" stroke-miterlimit="10"/>
<path d="M197.336 208.536H255.464" stroke="#263238" stroke-miterlimit="10"/>
<path d="M179.2 208.536H192.536" stroke="#263238" stroke-miterlimit="10"/>
<path d="M129.064 208.536H173.864" stroke="#263238" stroke-miterlimit="10"/>
<path d="M114.136 208.536H124.264" stroke="#263238" stroke-miterlimit="10"/>
<path d="M134.936 188.8H179.736" stroke="#263238" stroke-miterlimit="10"/>
<path d="M134.936 201.064H179.736" stroke="#263238" stroke-miterlimit="10"/>
<path d="M134.936 213.336H179.736" stroke="#263238" stroke-miterlimit="10"/>
<path d="M226.832 198.096C223.476 203.341 221.889 209.523 222.304 215.736C223.144 225.752 229.032 234.136 229.904 238.552C230.776 242.968 226.448 250.48 227.68 252.08C228.912 253.68 235.2 253.6 235.2 253.6C235.2 253.6 245.488 264.8 249.392 265.392C253.296 265.984 259.704 260.104 259.704 260.104L266.96 268.312L288.376 251.8C288.376 251.8 282.776 242.704 282.504 240.64C282.232 238.576 289.896 226.496 287.112 209.032C284.328 191.568 268 183.08 252.272 183.2C236.544 183.32 226.832 198.096 226.832 198.096Z" fill="white" stroke="#263238" stroke-linecap="round" stroke-linejoin="round"/>
<path d="M272.672 222.496C272.672 222.496 271.384 218.952 268.064 220.224C264.744 221.496 265.16 226.864 265.16 226.864C265.16 226.864 268.84 224.904 268.992 226.192C269.144 227.48 266.92 228.824 266.92 228.824" stroke="#263238" stroke-linecap="round" stroke-linejoin="round"/>
<path d="M259.696 260.128L267.8 254.312L263.128 263.528L259.696 260.128Z" fill="#263238" stroke="#263238" stroke-linecap="round" stroke-linejoin="round"/>
<path d="M287.104 209.056C284.328 191.592 268 183.08 252.272 183.2C236.544 183.32 226.832 198.096 226.832 198.096C224.591 201.589 223.118 205.518 222.512 209.624C222.8 209.36 223.136 209.032 223.544 208.608C226.96 205.064 229.816 198.736 237.632 199.896C245.448 201.056 240.328 211.84 242.24 216.152C244.152 220.464 253.48 219.696 254.936 220.216C256.392 220.736 258.712 228.488 261.528 225.712C264.344 222.936 263.72 217.776 267.04 216.336C270.36 214.896 276.696 218.32 277.352 223.824C278.008 229.328 270.312 237.928 270.312 237.928C270.312 237.928 276.672 241.36 282.856 241.808C282.689 241.443 282.568 241.059 282.496 240.664C282.248 238.6 289.888 226.52 287.104 209.056Z" fill="#263238" stroke="#263238" stroke-linecap="round" stroke-linejoin="round"/>
<path d="M282.984 200.8C282.984 200.8 284.464 189.808 294.44 188.616C304.416 187.424 312.744 204.616 310.12 211.872C307.496 219.128 298.4 224.464 292.8 224.432C287.2 224.4 283.888 208.392 282.984 200.8Z" fill="#263238" stroke="#263238" stroke-linecap="round" stroke-linejoin="round"/>
<path d="M239.664 253.096C239.664 253.096 245.552 252.744 247.488 245.536" stroke="#263238" stroke-linecap="round" stroke-linejoin="round"/>
<path d="M235.576 234.576C236.288 235.832 236.44 237.096 235.92 237.384C235.4 237.672 234.408 236.888 233.704 235.624C233 234.36 232.84 233.112 233.36 232.816C233.88 232.52 234.872 233.312 235.576 234.576Z" fill="#263238"/>
<path d="M240.736 231.624C242.6 236.032 241.968 240.504 239.328 241.624C236.688 242.744 233.032 240.08 231.168 235.672C229.304 231.264 229.936 226.792 232.576 225.672C235.216 224.552 238.872 227.2 240.736 231.624Z" stroke="#263238" stroke-linecap="round" stroke-linejoin="round"/>
<path d="M231.168 235.672L227.376 237.808" stroke="#263238" stroke-linecap="round" stroke-linejoin="round"/>
<path d="M240.096 230.36L263.704 220.568" stroke="#263238" stroke-linecap="round" stroke-linejoin="round"/>
<path d="M228.8 227.936C228.8 227.936 229.424 223.936 233.44 223.464" stroke="#263238" stroke-width="2" stroke-linecap="round" stroke-linejoin="round"/>
<path d="M244.104 334.496L235.2 349.448L161.72 356.44L139.768 351.352C138.298 351.591 136.809 351.698 135.32 351.672C132.456 351.672 116.232 362.488 116.552 363.44C116.872 364.392 117.824 365.672 120.368 363.44C122.912 361.208 124.504 360.896 124.504 360.896C124.504 360.896 117.824 366.944 120.368 366.944C122.912 366.944 127.368 363.744 127.368 363.744C127.368 363.744 123.864 367.56 125.768 367.56C127.672 367.56 134.4 363.44 134.4 363.44C134.4 363.44 140.8 364.08 146.808 365.04C152.816 366 161.12 365.36 161.12 365.36C161.12 365.36 229.2 371.504 232.696 371.4C236.192 371.296 255.6 349.456 255.6 349.456L244.104 334.496Z" fill="#263238" stroke="#263238" stroke-linecap="round" stroke-linejoin="round"/>
<path d="M265.16 275.576C265.16 275.576 259.968 268.296 262.048 265.528C264.128 262.76 285.608 249.24 290.112 249.936C294.616 250.632 297.04 263.792 297.04 263.792C297.04 263.792 310.896 273.84 311.936 292.2C312.976 310.56 305.352 344.872 304.312 352.84C303.272 360.808 303.272 380.208 303.272 380.208H253.728C253.728 380.208 252.344 351.8 252.344 349.008C252.344 346.216 239.872 338.976 240.912 329.6C241.952 320.224 265.512 277.976 265.512 277.976L265.16 275.576Z" fill="#8692D0" stroke="#263238" stroke-linecap="round" stroke-linejoin="round"/>
<path d="M291.496 279.384C288.418 279.36 285.371 279.997 282.56 281.253C279.75 282.509 277.243 284.354 275.208 286.664C267.936 294.664 240.912 349.024 240.912 349.024C240.912 349.024 172.304 359.072 166.072 357.688C159.84 356.304 150.48 353.88 149.44 353.528C148.4 353.176 137.056 354.936 133.24 355.976C129.424 357.016 120.16 363.84 120.888 364.72C121.616 365.6 125.416 363.984 125.416 363.984C125.416 363.984 122.936 365.584 124.536 365.888C126.136 366.192 129.656 364.72 129.656 364.72C129.656 364.72 127.312 366.912 129.36 366.912C131.408 366.912 136.224 364.72 136.224 364.72C136.224 364.72 133.6 367.2 135.056 367.344C136.512 367.488 143.68 362.968 144.264 362.672C144.848 362.376 148.648 364.136 154.048 365.16C158.158 365.78 162.322 365.976 166.472 365.744C166.472 365.744 229.728 371.296 236.152 371.296C242.576 371.296 245.648 371.296 246.232 370.856C246.816 370.416 297.072 313.584 300.288 309.496C303.504 305.408 303.944 304.816 303.944 304.816" fill="white"/>
<path d="M291.496 279.384C288.418 279.36 285.371 279.997 282.56 281.253C279.75 282.509 277.243 284.354 275.208 286.664C267.936 294.664 240.912 349.024 240.912 349.024C240.912 349.024 172.304 359.072 166.072 357.688C159.84 356.304 150.48 353.88 149.44 353.528C148.4 353.176 137.056 354.936 133.24 355.976C129.424 357.016 120.16 363.84 120.888 364.72C121.616 365.6 125.416 363.984 125.416 363.984C125.416 363.984 122.936 365.584 124.536 365.888C126.136 366.192 129.656 364.72 129.656 364.72C129.656 364.72 127.312 366.912 129.36 366.912C131.408 366.912 136.224 364.72 136.224 364.72C136.224 364.72 133.6 367.2 135.056 367.344C136.512 367.488 143.68 362.968 144.264 362.672C144.848 362.376 148.648 364.136 154.048 365.16C158.158 365.78 162.322 365.976 166.472 365.744C166.472 365.744 229.728 371.296 236.152 371.296C242.576 371.296 245.648 371.296 246.232 370.856C246.816 370.416 297.072 313.584 300.288 309.496C303.504 305.408 303.944 304.816 303.944 304.816" stroke="#263238" stroke-linecap="round" stroke-linejoin="round"/>
<path d="M291.496 279.384C288.434 279.458 285.417 280.139 282.621 281.389C279.825 282.639 277.305 284.432 275.208 286.664C272.616 289.496 267.52 298.232 262.032 308.264C267.416 309.32 277.944 312.816 287.344 324.392C294.144 316.64 299.344 310.688 300.288 309.464C303.488 305.376 304.712 303.864 304.712 303.864" fill="#8692D0"/>
<path d="M291.496 279.384C288.434 279.458 285.417 280.139 282.621 281.389C279.825 282.639 277.305 284.432 275.208 286.664C272.616 289.496 267.52 298.232 262.032 308.264C267.416 309.32 277.944 312.816 287.344 324.392C294.144 316.64 299.344 310.688 300.288 309.464C303.488 305.376 304.712 303.864 304.712 303.864" stroke="#263238" stroke-linecap="round" stroke-linejoin="round"/>
<path d="M136.224 364.72L144.632 359.016" stroke="#263238" stroke-linecap="round" stroke-linejoin="round"/>
<path d="M129.656 364.72C129.656 364.72 140.056 357.952 140.68 357.52" stroke="#263238" stroke-linecap="round" stroke-linejoin="round"/>
<path d="M125.416 364C125.416 364 132.176 358.576 136.736 356.904" stroke="#263238" stroke-linecap="round" stroke-linejoin="round"/>
<path d="M326.44 321.472C325.178 321.466 323.948 321.872 322.937 322.629C321.926 323.385 321.19 324.451 320.84 325.664L304.96 380.208H317.064L332 328.904C332.25 328.04 332.296 327.13 332.135 326.245C331.973 325.36 331.609 324.524 331.07 323.804C330.531 323.084 329.833 322.498 329.029 322.094C328.226 321.689 327.34 321.476 326.44 321.472Z" fill="#8692D0" stroke="#263238" stroke-linecap="round" stroke-linejoin="round"/>
<path d="M234.152 371.664H42.768V380.208H234.152V371.664Z" fill="#8692D0" stroke="#263238" stroke-linecap="round" stroke-linejoin="round"/>
<path d="M36.944 380.208H358.264" stroke="#263238" stroke-linecap="round" stroke-linejoin="round"/>
</svg>
