<svg width="400" height="352" viewBox="0 0 400 352" fill="none" xmlns="http://www.w3.org/2000/svg">
<g clip-path="url(#clip0_2737_47716)">
<g opacity="0.7">
<path d="M320.561 322.274C340.329 304.498 355.017 280.218 366.105 256.674C382.577 221.698 391.345 178.058 368.353 144.05C355.089 124.434 334.369 112.05 311.369 107.386C289.241 102.906 267.721 103.874 248.689 89.8495C229.441 75.6495 212.689 57.9375 195.457 41.4495C151.153 -0.950459 70.6569 11.2095 33.2729 68.2975C-4.11109 125.386 6.07291 199.546 42.0729 233.946C74.4009 264.85 119.505 270.89 155.201 295.05C172.889 307.05 185.257 324.706 204.001 335.242C225.801 347.49 252.529 352.514 277.089 346.258C293.809 341.994 308.177 333.41 320.561 322.274Z" fill="#8692D0"/>
<g opacity="0.7">
<path d="M320.561 322.274C340.329 304.498 355.017 280.218 366.105 256.674C382.577 221.698 391.345 178.058 368.353 144.05C355.089 124.434 334.369 112.05 311.369 107.386C289.241 102.906 267.721 103.874 248.689 89.8495C229.441 75.6495 212.689 57.9375 195.457 41.4495C151.153 -0.950459 70.6569 11.2095 33.2729 68.2975C-4.11109 125.386 6.07291 199.546 42.0729 233.946C74.4009 264.85 119.505 270.89 155.201 295.05C172.889 307.05 185.257 324.706 204.001 335.242C225.801 347.49 252.529 352.514 277.089 346.258C293.809 341.994 308.177 333.41 320.561 322.274Z" fill="#8692D0"/>
<path d="M320.561 322.274C340.329 304.498 355.017 280.218 366.105 256.674C382.577 221.698 391.345 178.058 368.353 144.05C355.089 124.434 334.369 112.05 311.369 107.386C289.241 102.906 267.721 103.874 248.689 89.8495C229.441 75.6495 212.689 57.9375 195.457 41.4495C151.153 -0.950459 70.6569 11.2095 33.2729 68.2975C-4.11109 125.386 6.07291 199.546 42.0729 233.946C74.4009 264.85 119.505 270.89 155.201 295.05C172.889 307.05 185.257 324.706 204.001 335.242C225.801 347.49 252.529 352.514 277.089 346.258C293.809 341.994 308.177 333.41 320.561 322.274Z" fill="white" fill-opacity="0.6"/>
</g>
</g>
<path d="M328.246 0.199219H170.758V132.879H328.246V0.199219Z" fill="white" stroke="#263238" stroke-width="0.985332" stroke-linecap="round" stroke-linejoin="round"/>
<path d="M203.448 74.7904H202.168L201.952 73.3344H200.4L200.176 74.7904H199.016L200.304 66.7344H202.16L203.448 74.7904ZM200.56 72.2384H201.776L201.168 68.1584L200.56 72.2384Z" fill="#263238"/>
<path d="M205.241 66.7344V72.9504C205.241 73.5264 205.497 73.7504 205.897 73.7504C206.297 73.7504 206.561 73.5424 206.561 72.9504V66.7344H207.753V72.8704C207.753 74.1584 207.113 74.8944 205.865 74.8944C204.617 74.8944 203.977 74.1584 203.977 72.8704V66.7344H205.241Z" fill="#263238"/>
<path d="M208.246 66.7344H212.158V67.8864H210.838V74.7904H209.598V67.8864H208.278L208.246 66.7344Z" fill="#263238"/>
<path d="M213.983 74.7904H212.711V66.7344H213.983V70.1904H215.415V66.7344H216.711V74.7904H215.415V71.3424H213.983V74.7904Z" fill="#263238"/>
<path d="M218.894 70.1264H220.63V71.2784H218.894V73.6784H221.078V74.8304H217.598V66.7344H221.046V67.8864H218.862L218.894 70.1264Z" fill="#263238"/>
<path d="M222.991 68.9984V74.8304H221.855V66.7344H223.455L224.759 71.5344V66.7344H225.887V74.7904H224.583L222.991 68.9984Z" fill="#263238"/>
<path d="M226.398 66.7344H230.318V67.8864H228.99V74.7904H227.726V67.8864H226.398V66.7344Z" fill="#263238"/>
<path d="M230.879 66.7344H232.143V74.7904H230.879V66.7344Z" fill="#263238"/>
<path d="M236.737 71.7926V72.8646C236.737 74.1526 236.097 74.8886 234.849 74.8886C233.601 74.8886 232.961 74.1526 232.961 72.8646V68.6726C232.961 67.3766 233.609 66.6406 234.849 66.6406C236.089 66.6406 236.737 67.3766 236.737 68.6726V69.4726H235.545V68.6086C235.545 68.0326 235.289 67.8086 234.889 67.8086C234.489 67.8086 234.233 68.0326 234.233 68.6086V72.9606C234.233 73.5366 234.481 73.7606 234.889 73.7606C235.297 73.7606 235.545 73.5606 235.545 72.9606V71.8086L236.737 71.7926Z" fill="#263238"/>
<path d="M241.6 74.7904H240.32L240.104 73.3344H238.56L238.336 74.7904H237.176L238.464 66.7344H240.32L241.6 74.7904ZM238.712 72.2384H239.928L239.32 68.1584L238.712 72.2384Z" fill="#263238"/>
<path d="M241.383 66.7344H245.303V67.8864H243.999V74.7904H242.735V67.8864H241.407L241.383 66.7344Z" fill="#263238"/>
<path d="M247.119 70.1264H248.855V71.2784H247.119V73.6784H249.311V74.8304H245.855V66.7344H249.311V67.8864H247.119V70.1264Z" fill="#263238"/>
<path d="M253.065 72.1184L251.465 66.7344H252.801L253.769 70.4064L254.737 66.7344H255.945L254.345 72.1184V74.7904H253.081L253.065 72.1184Z" fill="#263238"/>
<path d="M256.16 68.67C256.16 68.1608 256.362 67.6724 256.723 67.3124C257.083 66.9523 257.571 66.75 258.08 66.75C258.589 66.75 259.078 66.9523 259.438 67.3124C259.798 67.6724 260 68.1608 260 68.67V72.862C260 73.3712 259.798 73.8596 259.438 74.2196C259.078 74.5797 258.589 74.782 258.08 74.782C257.571 74.782 257.083 74.5797 256.723 74.2196C256.362 73.8596 256.16 73.3712 256.16 72.862V68.67ZM257.424 72.942C257.424 73.518 257.68 73.742 258.08 73.742C258.48 73.742 258.736 73.526 258.736 72.942V68.59C258.736 68.014 258.48 67.79 258.08 67.79C257.68 67.79 257.424 68.014 257.424 68.59V72.942Z" fill="#263238"/>
<path d="M262.022 66.7344V72.9504C262.022 73.5264 262.278 73.7504 262.678 73.7504C263.078 73.7504 263.334 73.5424 263.334 72.9504V66.7344H264.534V72.8704C264.534 74.1584 263.894 74.8944 262.646 74.8944C261.398 74.8944 260.758 74.1584 260.758 72.8704V66.7344H262.022Z" fill="#263238"/>
<path d="M268.046 74.7904C267.939 74.4712 267.901 74.1332 267.934 73.7984V72.5344C267.934 71.7904 267.678 71.5104 267.134 71.5104H266.694V74.7904H265.43V66.7344H267.342C268.654 66.7344 269.214 67.3424 269.214 68.5904V69.2224C269.255 69.5384 269.201 69.8596 269.058 70.1446C268.916 70.4297 268.691 70.6657 268.414 70.8224C269.046 71.0864 269.254 71.6944 269.254 72.5344V73.7984C269.229 74.1297 269.275 74.4625 269.39 74.7744L268.046 74.7904ZM266.662 67.8864V70.3584H267.198C267.67 70.3584 267.958 70.1504 267.958 69.5104V68.7104C267.958 68.1344 267.766 67.9104 267.318 67.9104L266.662 67.8864Z" fill="#263238"/>
<path d="M275.912 74.7904H274.632L274.416 73.3344H272.856L272.64 74.7904H271.48L272.8 66.7344H274.656L275.912 74.7904ZM273.024 72.2384H274.24L273.6 68.1984L273.024 72.2384Z" fill="#263238"/>
<path d="M280.159 71.7926V72.8646C280.159 74.1526 279.511 74.8886 278.271 74.8886C277.031 74.8886 276.383 74.1526 276.383 72.8646V68.6726C276.383 67.3766 277.023 66.6406 278.271 66.6406C279.519 66.6406 280.159 67.3766 280.159 68.6726V69.4726H278.959V68.6086C278.959 68.0326 278.703 67.8086 278.303 67.8086C277.903 67.8086 277.647 68.0326 277.647 68.6086V72.9606C277.647 73.5366 277.903 73.7606 278.303 73.7606C278.703 73.7606 278.959 73.5606 278.959 72.9606V71.8086L280.159 71.7926Z" fill="#263238"/>
<path d="M284.6 71.7926V72.8646C284.6 74.1526 283.96 74.8886 282.712 74.8886C281.464 74.8886 280.824 74.1526 280.824 72.8646V68.6726C280.824 67.3766 281.472 66.6406 282.712 66.6406C283.952 66.6406 284.6 67.3766 284.6 68.6726V69.4726H283.4V68.6086C283.4 68.0326 283.152 67.8086 282.744 67.8086C282.336 67.8086 282.088 68.0326 282.088 68.6086V72.9606C282.088 73.5366 282.344 73.7606 282.744 73.7606C283.144 73.7606 283.4 73.5606 283.4 72.9606V71.8086L284.6 71.7926Z" fill="#263238"/>
<path d="M285.262 68.6693C285.245 68.4062 285.282 68.1424 285.371 67.8943C285.46 67.6461 285.599 67.4188 285.779 67.2265C285.96 67.0342 286.177 66.8809 286.419 66.7761C286.661 66.6713 286.922 66.6172 287.186 66.6172C287.449 66.6172 287.71 66.6713 287.952 66.7761C288.194 66.8809 288.412 67.0342 288.592 67.2265C288.773 67.4188 288.912 67.6461 289.001 67.8943C289.09 68.1424 289.127 68.4062 289.11 68.6693V72.8613C289.127 73.1244 289.09 73.3882 289.001 73.6364C288.912 73.8845 288.773 74.1118 288.592 74.3041C288.412 74.4965 288.194 74.6498 287.952 74.7546C287.71 74.8594 287.449 74.9134 287.186 74.9134C286.922 74.9134 286.661 74.8594 286.419 74.7546C286.177 74.6498 285.96 74.4965 285.779 74.3041C285.599 74.1118 285.46 73.8845 285.371 73.6364C285.282 73.3882 285.245 73.1244 285.262 72.8613V68.6693ZM286.534 72.9413C286.534 73.5173 286.782 73.7413 287.19 73.7413C287.598 73.7413 287.846 73.5253 287.846 72.9413V68.5893C287.846 68.0133 287.59 67.7893 287.19 67.7893C286.79 67.7893 286.534 68.0133 286.534 68.5893V72.9413Z" fill="#263238"/>
<path d="M291.135 66.7344V72.9504C291.135 73.5264 291.391 73.7504 291.791 73.7504C292.191 73.7504 292.447 73.5424 292.447 72.9504V66.7344H293.647V72.8704C293.647 74.1584 293.007 74.8944 291.759 74.8944C290.511 74.8944 289.871 74.1584 289.871 72.8704V66.7344H291.135Z" fill="#263238"/>
<path d="M295.64 68.9984V74.8304H294.504V66.7344H296.104L297.408 71.5344V66.7344H298.536V74.7904H297.232L295.64 68.9984Z" fill="#263238"/>
<path d="M299.055 66.7344H302.975V67.8864H301.647V74.7904H300.383V67.8864H299.055V66.7344Z" fill="#263238"/>
<path d="M268.076 42.0281C269.662 32.1786 262.964 22.9079 253.114 21.3214C243.265 19.735 233.994 26.4335 232.408 36.2831C230.821 46.1326 237.52 55.4033 247.369 56.9897C257.219 58.5762 266.49 51.8776 268.076 42.0281Z" fill="#8692D0"/>
<path d="M258.119 34.9894C258.119 36.5479 257.657 38.0714 256.791 39.3673C255.926 40.6631 254.695 41.6731 253.255 42.2695C251.815 42.866 250.231 43.022 248.702 42.718C247.173 42.4139 245.769 41.6634 244.667 40.5614C243.565 39.4593 242.815 38.0553 242.511 36.5267C242.207 34.9981 242.363 33.4137 242.959 31.9738C243.556 30.5339 244.566 29.3033 245.861 28.4374C247.157 27.5715 248.681 27.1094 250.239 27.1094C252.329 27.1094 254.334 27.9396 255.811 29.4174C257.289 30.8952 258.119 32.8995 258.119 34.9894Z" fill="#263238"/>
<path d="M237.27 51.7181C238.952 53.4566 240.968 54.839 243.195 55.7831C245.423 56.7272 247.818 57.2138 250.238 57.2138C252.657 57.2138 255.052 56.7272 257.28 55.7831C259.508 54.839 261.523 53.4566 263.206 51.7181V51.1981C263.207 50.2855 263.028 49.3817 262.679 48.5383C262.331 47.6949 261.819 46.9284 261.175 46.2828C260.53 45.6371 259.764 45.1249 258.921 44.7754C258.078 44.426 257.174 44.2461 256.262 44.2461H244.222C242.378 44.2461 240.609 44.9785 239.306 46.2823C238.002 47.586 237.27 49.3543 237.27 51.1981V51.7181Z" fill="#263238"/>
<path d="M304.374 89.3125H195.398V102.56H304.374V89.3125Z" stroke="#263238" stroke-width="0.985332" stroke-miterlimit="10"/>
<path d="M304.374 109.176H195.398V122.424H304.374V109.176Z" fill="#8692D0" stroke="#263238" stroke-width="0.985332" stroke-miterlimit="10"/>
<path d="M231.95 96.3102V97.1102H229.982V99.9742H232.382V100.774H229.07V92.7422H232.382V93.5422H229.982V96.2942L231.95 96.3102Z" fill="#BDBDBD"/>
<path d="M234.023 100.806H233.223V92.7422H234.399L236.263 98.5662V92.7422H237.063V100.806H236.127L234.063 94.2862L234.023 100.806Z" fill="#BDBDBD"/>
<path d="M239.11 100.806V93.5578H237.598V92.7578H241.47V93.5578H239.998V100.806H239.11Z" fill="#BDBDBD"/>
<path d="M244.982 96.3102V97.1102H243.014V99.9742H245.414V100.774H242.102V92.7422H245.414V93.5422H243.014V96.2942L244.982 96.3102Z" fill="#BDBDBD"/>
<path d="M248.057 92.7422C249.329 92.7422 249.857 93.3902 249.857 94.5822V95.2382C249.912 95.5888 249.842 95.9477 249.659 96.2519C249.476 96.5561 249.192 96.7863 248.857 96.9022C249.593 97.1182 249.865 97.7022 249.865 98.5822V99.8382C249.841 100.169 249.896 100.501 250.025 100.806H249.121C248.993 100.495 248.941 100.158 248.969 99.8222V98.5982C248.969 97.6862 248.545 97.3982 247.793 97.3982H247.201V100.846H246.305V92.7422H248.057ZM247.833 96.5422C248.545 96.5422 248.969 96.3102 248.969 95.4382V94.6382C248.969 93.9182 248.705 93.5342 248.033 93.5342H247.201V96.5182L247.833 96.5422Z" fill="#BDBDBD"/>
<path d="M256.144 94.6853V95.3973H255.288V94.5973C255.288 93.8693 255 93.4293 254.344 93.4293C253.688 93.4293 253.4 93.8693 253.4 94.5973V98.8533C253.4 99.5813 253.696 100.021 254.344 100.021C254.992 100.021 255.288 99.5813 255.288 98.8533V97.8053H256.144V98.8053C256.144 100.029 255.56 100.837 254.32 100.837C253.08 100.837 252.512 100.037 252.512 98.8053V94.6373C252.512 93.4213 253.088 92.6133 254.32 92.6133C255.552 92.6133 256.144 93.4693 256.144 94.6853Z" fill="#BDBDBD"/>
<path d="M256.887 94.6881C256.887 93.4561 257.495 92.6641 258.727 92.6641C259.959 92.6641 260.583 93.4641 260.583 94.6881V98.8561C260.583 100.08 259.975 100.888 258.727 100.888C257.479 100.888 256.887 100.088 256.887 98.8561V94.6881ZM257.775 98.9041C257.775 99.6401 258.087 100.072 258.727 100.072C259.367 100.072 259.687 99.6401 259.687 98.9041V94.6481C259.687 93.9201 259.383 93.4801 258.727 93.4801C258.071 93.4801 257.775 93.9201 257.775 94.6481V98.9041Z" fill="#BDBDBD"/>
<path d="M263.318 92.7422C264.574 92.7422 265.15 93.5022 265.15 94.7502V98.8142C265.15 100.046 264.574 100.806 263.318 100.806H261.43V92.7422H263.318ZM263.318 99.9422C263.958 99.9422 264.27 99.5422 264.27 98.8062V94.6622C264.27 93.9262 263.958 93.5182 263.302 93.5182H262.334V99.9182L263.318 99.9422Z" fill="#BDBDBD"/>
<path d="M268.857 96.3102V97.1102H266.889V99.9742H269.289V100.774H265.969V92.7422H269.289V93.5422H266.889V96.2942L268.857 96.3102Z" fill="#BDBDBD"/>
<path d="M242.56 112.68C243.808 112.68 244.384 113.48 244.384 114.688V118.752C244.384 119.984 243.808 120.744 242.56 120.744H240.664V112.68H242.56ZM242.56 119.928C243.208 119.928 243.52 119.52 243.52 118.784V114.64C243.52 113.904 243.208 113.504 242.552 113.504H241.6V119.904L242.56 119.928Z" fill="#263238"/>
<path d="M245.16 114.598C245.16 113.366 245.768 112.566 247 112.566C248.232 112.566 248.856 113.366 248.856 114.598V118.766C248.893 119.026 248.872 119.291 248.794 119.542C248.717 119.793 248.584 120.024 248.407 120.217C248.229 120.411 248.011 120.563 247.768 120.662C247.525 120.761 247.262 120.805 247 120.79C245.768 120.79 245.16 119.99 245.16 118.766V114.598ZM246.04 118.814C246.04 119.55 246.352 119.974 247 119.974C247.648 119.974 247.952 119.55 247.952 118.814V114.598C247.952 113.87 247.656 113.43 247 113.43C246.344 113.43 246.04 113.87 246.04 114.598V118.814Z" fill="#263238"/>
<path d="M250.495 120.744H249.695V112.68H250.831L252.695 118.512V112.68H253.495V120.744H252.559L250.495 114.224V120.744Z" fill="#263238"/>
<path d="M257.278 116.256V117.056H255.31V119.928H257.71V120.728H254.398V112.68H257.718V113.48H255.318V116.232L257.278 116.256Z" fill="#263238"/>
<path d="M328.246 0.199219H170.758V6.61522H328.246V0.199219Z" fill="#8692D0" stroke="#263238" stroke-width="0.985332" stroke-linecap="round" stroke-linejoin="round"/>
<path d="M65.375 205.215V204.031" stroke="#263238" stroke-width="0.985332" stroke-linecap="round" stroke-linejoin="round"/>
<path d="M65.375 201.688V100.256C65.375 98.207 65.7788 96.1777 66.5632 94.2845C67.3477 92.3913 68.4975 90.6712 69.947 89.2225C71.3964 87.7738 73.1171 86.6249 75.0107 85.8414C76.9043 85.0579 78.9337 84.6552 80.983 84.6563H155.199" stroke="#263238" stroke-width="0.985332" stroke-linecap="round" stroke-linejoin="round" stroke-dasharray="2.93 2.93"/>
<path d="M156.406 84.6562H157.582" stroke="#263238" stroke-width="0.985332" stroke-linecap="round" stroke-linejoin="round"/>
<path d="M165.385 85.3016L152.633 77.9336V92.6616L165.385 85.3016Z" fill="#263238"/>
<path d="M287.117 304.008H288.301" stroke="#263238" stroke-width="0.985332" stroke-linecap="round" stroke-linejoin="round"/>
<path d="M290.648 304.008H295.024C299.177 304.008 303.159 302.358 306.095 299.422C309.031 296.486 310.68 292.504 310.68 288.352V140.352" stroke="#263238" stroke-width="0.985332" stroke-linecap="round" stroke-linejoin="round" stroke-dasharray="2.93 2.93"/>
<path d="M310.68 139.184V138.008" stroke="#263238" stroke-width="0.985332" stroke-linecap="round" stroke-linejoin="round"/>
<path d="M282.656 303.321L295.408 310.681V295.953L282.656 303.321Z" fill="#263238"/>
<path d="M215.831 207.288C216.511 205.993 217.532 204.91 218.785 204.155C220.037 203.401 221.473 203.004 222.935 203.008H291.375C291.375 203.008 296.319 203.008 294.839 212.408C293.359 221.808 273.071 279.2 268.119 296.512C263.167 313.824 262.183 350.44 262.183 350.44H180.055C180.055 350.44 186.639 263.024 215.831 207.288Z" fill="white" stroke="#263238" stroke-width="0.985332" stroke-linecap="round" stroke-linejoin="round"/>
<path d="M279.502 219.336C272.582 235.48 257.902 299.336 255.566 350.44H262.182C262.182 350.44 263.198 313.8 268.118 296.512C273.038 279.224 293.35 221.808 294.838 212.408C296.326 203.008 291.374 203.008 291.374 203.008C291.374 203.008 285.046 206.392 279.502 219.336Z" fill="#263238" stroke="#263238" stroke-width="0.985332" stroke-linecap="round" stroke-linejoin="round"/>
<path d="M149.361 204.302C149.361 204.302 136.801 202.774 128.505 194.054C120.209 185.334 146.537 154.238 160.593 146.91C174.649 139.582 180.441 141.59 195.513 152.702C210.585 163.814 225.297 181.646 225.113 193.606C224.929 205.566 218.417 211.286 227.513 217.182C236.609 223.078 262.353 239.822 266.113 251.326C269.873 262.83 263.353 277.142 248.257 284.926C233.161 292.71 208.393 292.35 184.537 284.638C160.681 276.926 155.489 252.526 158.561 242.598C161.633 232.67 169.761 225.846 167.313 218.294C164.865 210.742 149.361 204.302 149.361 204.302Z" fill="#263238" stroke="#263238" stroke-width="0.985332" stroke-linecap="round" stroke-linejoin="round"/>
<path d="M160.126 238.597C160.126 238.597 147.134 236.789 141.134 240.669C135.134 244.549 105.486 295.22 105.486 295.22L89.1102 273.181L74.9102 279.557C74.9102 279.557 81.5662 305.317 89.3102 318.133C97.0542 330.949 101.47 332.244 104.126 331.82C112.03 330.564 134.926 304.076 134.926 304.076L143.246 331.757L137.598 351.877H242.798L230.038 330.596C230.038 330.596 246.686 253.796 242.446 245.66C238.206 237.524 213.502 238.597 205.734 238.597H183.494C180.124 239.265 176.698 239.618 173.262 239.653C168.868 239.525 164.484 239.172 160.126 238.597Z" fill="#8692D0"/>
<path d="M230.398 241.191L230.614 241.279L228.598 246.415L228.374 246.327L230.398 241.191ZM229.846 246.903L230.062 246.991L232.086 241.855L231.862 241.767L229.846 246.903ZM239.022 263.247L238.79 263.183L237.902 266.343H238.15L239.022 263.247ZM240.542 263.679L240.31 263.615L239.51 266.343H239.75L240.542 263.679ZM230.942 263.855L231.694 266.343H231.942L231.142 263.783L230.942 263.855ZM232.686 263.335L232.454 263.399L233.342 266.343H233.59L232.686 263.335ZM239.126 251.583L241.87 246.783L241.67 246.663L238.926 251.463L239.126 251.583ZM240.502 252.383L243.07 247.895C243.07 247.759 243.07 247.639 243.022 247.511L240.294 252.271L240.502 252.383ZM242.302 259.207L242.758 258.607L242.806 258.167L242.11 259.063L242.302 259.207ZM235.51 254.335L239.334 258.335L239.502 258.175L235.678 254.175L235.51 254.335ZM234.302 255.399L238.118 259.399L238.294 259.239L234.47 255.239L234.302 255.399ZM230.086 255.399L230.15 255.167L227.198 254.439V254.679L230.086 255.399ZM227.158 252.999L230.478 253.839L230.534 253.607L227.198 252.807L227.158 252.999ZM230.862 260.143L230.79 259.919L227.198 261.167V261.415L230.862 260.143ZM230.294 258.415L227.158 259.455V259.703L230.358 258.639L230.294 258.415ZM228.558 303.111L230.574 297.975L230.358 297.887L228.334 303.023L228.558 303.111ZM231.822 298.463L229.806 303.599L230.022 303.687L232.046 298.551L231.822 298.463ZM231.718 322.543L231.102 320.487L230.87 320.551L231.622 323.031L231.718 322.543ZM235.718 287.999L235.494 288.079L237.366 293.271H237.414L237.486 292.911L235.718 287.999ZM236.974 287.543L237.958 290.255C237.958 290.103 238.014 289.951 238.038 289.791L237.198 287.463L236.974 287.543ZM240.478 274.023L240.606 274.447L240.678 273.967L240.478 274.023ZM235.214 273.711L234.894 279.215H235.126L235.446 273.703L235.214 273.711ZM236.47 279.311H236.702L237.022 273.799H236.79L236.47 279.311ZM229.742 273.471L229.854 273.263L227.134 271.799V272.071L229.742 273.471ZM227.134 270.271L230.486 272.071L230.598 271.863L227.198 270.063L227.134 270.271ZM229.23 278.599L229.078 278.423L227.198 280.199V280.511L229.23 278.599ZM228.198 277.407L228.046 277.223L227.134 278.023V278.335L228.198 277.407ZM227.198 286.871V287.119L232.174 285.175L232.086 284.959L227.198 286.871ZM227.198 285.175V285.431L231.598 283.711L231.51 283.487L227.198 285.175ZM230.134 295.191L230.19 294.959L227.198 294.287V294.527L230.134 295.191ZM230.478 293.655L230.534 293.423L227.198 292.671V292.911L230.478 293.655ZM230.086 312.199L230.15 311.975L227.158 311.215V311.463L230.086 312.199ZM227.198 309.799L230.518 310.647L230.574 310.415L227.198 309.567V309.799ZM230.902 316.943L230.83 316.719L227.198 317.919V318.175L230.902 316.943ZM230.406 315.447L230.334 315.223L227.198 316.263V316.511L230.406 315.447ZM237.518 268.551L238.15 266.335H237.902L237.294 268.487L237.518 268.551ZM239.782 266.335H239.542L238.814 268.911L239.038 268.983L239.782 266.335ZM232.502 269.127L232.734 269.063L231.934 266.335H231.686L232.502 269.127ZM234.238 268.607L233.558 266.335H233.31L234.014 268.679L234.238 268.607ZM235.558 344.887L237.43 350.071L237.654 349.991L235.782 344.807L235.558 344.887ZM239.134 349.455L237.262 344.271L237.038 344.351L238.918 349.535L239.134 349.455ZM241.782 350.735L241.55 350.671L241.214 351.871H241.462L241.782 350.735ZM227.198 328.879L229.806 330.279L229.918 330.071L227.198 328.607V328.879ZM227.198 327.087L230.398 328.839L230.446 328.599L227.198 326.823V327.087ZM229.254 335.399L229.102 335.215L227.198 336.919V337.223L229.254 335.399ZM228.222 334.199L228.07 334.023L227.158 334.823V335.135L228.222 334.199ZM232.046 341.687L227.198 343.623V343.879L232.174 341.927L232.046 341.687ZM227.158 342.159L231.558 340.439L231.47 340.223L227.158 341.903V342.159ZM227.158 351.015V351.263L229.806 351.855H230.11L230.15 351.695L227.158 351.015ZM230.438 350.383L230.494 350.151L227.158 349.399V349.647L230.438 350.383ZM171.582 246.303L171.798 246.391L173.822 241.255L173.598 241.167L171.582 246.303ZM173.046 246.879L173.27 246.967L175.286 241.831L175.07 241.743L173.046 246.879ZM224.742 254.039L227.142 254.655V254.415L224.782 253.815L224.742 254.039ZM225.19 252.287L225.126 252.511L227.158 253.031V252.783L225.19 252.287ZM227.198 261.415V261.167L225.598 261.703L225.67 261.927L227.198 261.415ZM225.054 260.199L225.126 260.423L227.158 259.751V259.503L225.054 260.199ZM220.798 266.343H221.07L222.11 264.535L221.91 264.415L220.798 266.343ZM222.622 266.343H222.894L223.478 265.319L223.278 265.199L222.622 266.343ZM210.726 264.135L210.542 264.287L212.23 266.343H212.534L210.726 264.135ZM211.766 263.287L214.27 266.343H214.574L211.95 263.143L211.766 263.287ZM205.798 265.983L205.582 266.063L205.678 266.343H205.934L205.798 265.983ZM207.062 265.527L207.358 266.327H207.606L207.286 265.431L207.062 265.527ZM198.406 266.327L199.086 263.647L198.854 263.591L198.158 266.327H198.406ZM200.382 263.975L199.782 266.327H199.998L200.582 264.039L200.382 263.975ZM182.246 263.231L182.014 263.167L181.118 266.327H181.366L182.246 263.231ZM183.758 263.663L183.534 263.599L182.734 266.327H182.982L183.758 263.663ZM174.158 263.839L174.91 266.327H175.158L174.358 263.767L174.158 263.839ZM175.894 263.319L175.67 263.383L176.558 266.327H176.798L175.894 263.319ZM182.342 251.567L185.086 246.767L184.878 246.647L182.134 251.447L182.342 251.567ZM183.51 252.239L183.71 252.351L186.454 247.551L186.246 247.431L183.51 252.239ZM214.814 255.759L219.894 257.911L219.982 257.695L214.902 255.543L214.814 255.759ZM214.198 257.207L219.278 259.359L219.366 259.143L214.246 256.999L214.198 257.207ZM218.478 248.919L218.702 248.983L220.206 243.679L219.974 243.607L218.478 248.919ZM219.99 249.351L220.222 249.415L221.718 244.103L221.494 244.039L219.99 249.351ZM211.734 239.479L213.334 244.759L213.558 244.695L211.998 239.399L211.734 239.479ZM213.238 239.023L214.838 244.303L215.062 244.239L213.462 238.959L213.238 239.023ZM195.806 261.639L194.206 256.359L193.982 256.423L195.582 261.711L195.806 261.639ZM197.318 261.183L195.718 255.903L195.486 255.967L197.086 261.255L197.318 261.183ZM203.558 258.127L209.022 257.327V257.095L203.558 257.895V258.127ZM203.782 259.687L209.246 258.887V258.655L203.782 259.455V259.687ZM207.782 252.959L208.014 253.015L209.246 247.639L209.014 247.583L207.782 252.959ZM210.55 247.935L209.318 253.311L209.55 253.367L210.782 247.991L210.55 247.935ZM191.198 249.895L191.398 250.023L194.35 245.359L194.15 245.239L191.198 249.895ZM195.686 246.207L195.486 246.079L192.534 250.743L192.734 250.871L195.686 246.207ZM190.558 240.839L195.614 238.631V238.575H195.182L190.486 240.623L190.558 240.839ZM191.094 242.063L191.19 242.279L196.246 240.079L196.15 239.863L191.094 242.063ZM186.294 238.575H186.046L184.798 242.911L185.03 242.975L186.294 238.575ZM183.534 242.575L184.654 238.575H184.406L183.302 242.479L183.534 242.575ZM205.182 240.271L204.638 238.599H204.39L204.91 240.327L205.182 240.271ZM203.446 240.791L203.678 240.727L203.038 238.607H202.79L203.446 240.791ZM185.334 259.079L185.518 259.223L188.878 254.847L188.686 254.703L185.334 259.079ZM186.582 260.039L186.774 260.183L190.126 255.799L189.942 255.655L186.582 260.039ZM178.726 254.351L182.55 258.351L182.726 258.191L178.902 254.191L178.726 254.351ZM177.542 255.399L181.366 259.399L181.534 259.239L177.718 255.239L177.542 255.399ZM198.486 248.327L198.39 248.543L203.47 250.703L203.566 250.479L198.486 248.327ZM199.006 247.095L204.086 249.247L204.182 249.031L199.102 246.879L199.006 247.095ZM173.334 255.399L173.39 255.167L170.398 254.439V254.679L173.334 255.399ZM170.406 252.999L173.718 253.839L173.782 253.607L170.398 252.807L170.406 252.999ZM174.11 260.143L174.03 259.919L170.398 261.167V261.415L174.11 260.143ZM173.534 258.415L170.406 259.455V259.703L173.606 258.639L173.534 258.415ZM173.598 297.887L171.582 303.023L171.798 303.111L173.822 297.975L173.598 297.887ZM175.07 298.463L173.046 303.599L173.27 303.687L175.286 298.551L175.07 298.463ZM224.91 270.855L227.158 272.071V271.799L225.022 270.647L224.91 270.855ZM225.766 269.255L225.654 269.455L227.158 270.255V269.983L225.766 269.255ZM227.198 280.199L224.966 282.135L225.118 282.311L227.198 280.511V280.199ZM224.086 281.119L227.198 278.431V278.119L223.934 280.935L224.086 281.119ZM226.95 287.007L227.03 287.231L227.198 287.159V286.911L226.95 287.007ZM226.374 285.543L226.454 285.759L227.198 285.471V285.215L226.374 285.543ZM227.174 294.343L224.774 293.799L224.718 294.031L227.166 294.583L227.174 294.343ZM227.174 292.743L225.126 292.279L225.078 292.511L227.174 292.983V292.743ZM227.174 311.263L224.798 310.599L224.742 310.831L227.142 311.447L227.174 311.263ZM225.206 309.135L225.142 309.367L227.198 309.799V309.559L225.206 309.135ZM227.198 318.175V317.919L225.598 318.455L225.67 318.679L227.198 318.175ZM227.198 316.511V316.263L225.094 316.959L225.166 317.183L227.198 316.511ZM194.718 269.143L189.638 266.983L189.55 267.199L194.63 269.359L194.718 269.143ZM188.934 268.655L194.014 270.807L194.102 270.591L189.022 268.439L188.934 268.655ZM222.094 321.287L221.894 321.175L220.798 323.103H221.07L222.094 321.287ZM223.462 322.087L223.262 321.967L222.606 323.119H222.878L223.462 322.087ZM210.526 321.055L212.214 323.119H212.518L210.71 320.903L210.526 321.055ZM211.75 320.055L214.254 323.119H214.558L211.934 319.919L211.75 320.055ZM205.782 322.759L205.566 322.839L205.662 323.119H205.918L205.782 322.759ZM207.046 322.303L207.342 323.103H207.59L207.27 322.207L207.046 322.303ZM199.046 320.439L198.814 320.375L198.118 323.119H198.398L199.046 320.439ZM200.342 320.767L199.742 323.119H199.998L200.582 320.823L200.342 320.767ZM182.206 320.015L181.974 319.951L181.078 323.151H181.326L182.206 320.015ZM183.718 320.447L183.494 320.383L182.694 323.119H182.942L183.718 320.447ZM174.118 320.623L174.87 323.119H175.118L174.318 320.559L174.118 320.623ZM175.63 320.175L176.518 323.119H176.758L175.854 320.103L175.63 320.175ZM184.838 303.455L182.094 308.255L182.302 308.375L185.046 303.575L184.838 303.455ZM186.438 304.351L186.23 304.231L183.494 309.031L183.694 309.151L186.438 304.351ZM208.75 278.063L205.23 273.799L205.054 273.951L208.542 278.223L208.75 278.063ZM207.534 279.063L203.998 274.775L203.814 274.927L207.31 279.199L207.534 279.063ZM198.886 276.727L200.758 281.911L200.982 281.831L199.11 276.647L198.886 276.727ZM200.374 276.191L202.246 281.375L202.462 281.295L200.59 276.111L200.374 276.191ZM219.966 314.479L214.886 312.327L214.798 312.543L219.878 314.695L219.966 314.479ZM219.35 315.935L214.27 313.775L214.182 313.999L219.262 316.151L219.35 315.935ZM219.958 300.399L218.462 305.711L218.686 305.775L220.19 300.463L219.958 300.399ZM221.702 300.895L221.478 300.831L219.974 306.135L220.206 306.199L221.702 300.895ZM213.566 301.463L211.966 296.183L211.742 296.247L213.342 301.535L213.566 301.463ZM215.078 301.007L213.478 295.727L213.246 295.791L214.846 301.079L215.078 301.007ZM199.078 287.191L196.334 291.991L196.534 292.103L199.278 287.303L199.078 287.191ZM197.91 286.527L197.702 286.407L194.966 291.207L195.166 291.319L197.91 286.527ZM188.59 290.887L185.094 286.599L184.91 286.751L188.406 291.023L188.59 290.887ZM189.806 289.887L186.318 285.615L186.134 285.767L189.622 290.039L189.806 289.887ZM178.766 288.151L180.638 293.343L180.862 293.263L178.982 288.071L178.766 288.151ZM180.246 287.615L182.118 292.807L182.342 292.727L180.47 287.535L180.246 287.615ZM218.398 291.815L218.63 291.871L219.99 286.527L219.758 286.463L218.398 291.815ZM221.518 286.911L221.286 286.855L219.926 292.199L220.158 292.255L221.518 286.911ZM212.494 291.399L207.414 289.247L207.326 289.463L212.406 291.623L212.494 291.399ZM213.11 289.951L207.998 287.799L207.91 288.015L212.99 290.167L213.11 289.951ZM195.806 318.399L194.206 313.111L193.982 313.183L195.582 318.463L195.806 318.399ZM197.318 317.943L195.718 312.655L195.486 312.727L197.086 318.007L197.318 317.943ZM209.022 314.111V313.879L203.558 314.679V314.911L209.022 314.111ZM209.246 315.671V315.439L203.782 316.239V316.471L209.246 315.671ZM207.998 309.799L209.23 304.423L208.998 304.367L207.766 309.751L207.998 309.799ZM209.534 310.151L210.766 304.775L210.534 304.719L209.302 310.103L209.534 310.151ZM194.334 302.151L194.134 302.023L191.198 306.655L191.398 306.783L194.334 302.151ZM195.67 302.991L195.47 302.863L192.518 307.527L192.718 307.655L195.67 302.991ZM195.598 295.415L195.51 295.199L190.446 297.407L190.542 297.623L195.598 295.415ZM196.23 296.863L196.134 296.647L191.078 298.855L191.174 299.071L196.23 296.863ZM186.51 294.463L186.286 294.391L184.798 299.663L185.03 299.727L186.51 294.463ZM183.494 299.343L184.99 294.031L184.766 293.967L183.262 299.279L183.494 299.343ZM205.134 296.999L203.534 291.719L203.302 291.783L204.902 297.071L205.134 296.999ZM201.814 292.199L203.414 297.479L203.646 297.415L202.046 292.135L201.814 292.199ZM194.142 278.599L189.734 281.927L189.878 282.111L194.286 278.791L194.142 278.599ZM190.83 283.399L195.23 280.071L195.094 279.887L190.686 283.207L190.83 283.399ZM187.022 278.831L185.494 273.527L185.262 273.599L186.798 278.895L187.022 278.831ZM183.75 274.031L185.278 279.399L185.51 279.335L183.998 274.015L183.75 274.031ZM178.486 273.719L178.166 279.223H178.398L178.718 273.711L178.486 273.719ZM179.734 279.319H179.974L180.294 273.807H180.054L179.734 279.319ZM188.798 311.567L188.606 311.423L185.254 315.807L185.438 315.951L188.798 311.567ZM190.046 312.527L189.862 312.383L186.502 316.767L186.694 316.911L190.046 312.527ZM178.646 311.071L182.47 315.071L182.646 314.903L178.822 310.903L178.646 311.071ZM177.542 312.199L181.366 316.199L181.534 316.039L177.718 312.039L177.542 312.199ZM217.718 281.471L217.534 281.327L214.062 285.615L214.246 285.767L217.718 281.471ZM216.31 280.335L212.838 284.623L213.022 284.775L216.486 280.479L216.31 280.335ZM217.278 272.199H217.046L216.422 277.679H216.662L217.278 272.199ZM215.478 271.991L214.862 277.479H215.094L215.71 271.999L215.478 271.991ZM203.566 307.271L198.486 305.119L198.39 305.335L203.47 307.487L203.566 307.271ZM199.006 303.879L204.086 306.031L204.182 305.815L199.102 303.663L199.006 303.879ZM173.014 273.551L173.126 273.343L170.406 271.879V272.151L173.014 273.551ZM170.406 270.351L173.758 272.151L173.87 271.943L170.398 270.063L170.406 270.351ZM172.502 278.679L172.342 278.503L170.398 280.199V280.511L172.502 278.679ZM171.47 277.487L171.31 277.303L170.406 278.103V278.415L171.47 277.487ZM175.286 284.975L170.406 286.887V287.135L175.374 285.191L175.286 284.975ZM174.798 283.727L174.718 283.503L170.398 285.175V285.431L174.798 283.727ZM173.342 295.207L173.39 294.975L170.406 294.303V294.543L173.342 295.207ZM170.398 292.911L173.678 293.655L173.734 293.423L170.398 292.671V292.911ZM173.334 312.199L173.39 311.975L170.406 311.215V311.463L173.334 312.199ZM170.398 309.799L173.71 310.647L173.774 310.415L170.398 309.567V309.799ZM174.102 316.943L174.022 316.719L170.398 317.919V318.175L174.102 316.943ZM173.606 315.447L173.526 315.223L170.398 316.263V316.511L173.606 315.447ZM219.142 269.199L219.342 269.311L221.046 266.335H220.798L219.142 269.199ZM220.51 269.999L220.71 270.111L222.87 266.351H222.598L220.51 269.999ZM214.198 268.399L212.51 266.335H212.206L214.014 268.543L214.198 268.399ZM215.238 267.551L215.422 267.399L214.55 266.335H214.246L215.238 267.551ZM207.654 271.167L205.91 266.367H205.654L207.43 271.279L207.654 271.167ZM208.91 270.711L209.134 270.631L207.582 266.335H207.334L208.91 270.711ZM197.47 268.943L197.702 268.999L198.382 266.335H198.134L197.47 268.943ZM198.998 269.335L199.23 269.391L200.03 266.335H199.782L198.998 269.335ZM180.718 268.535L181.342 266.319H181.094L180.486 268.471L180.718 268.535ZM182.982 266.319H182.734L182.006 268.895L182.238 268.967L182.982 266.319ZM175.702 269.111L175.926 269.047L175.126 266.319H174.878L175.702 269.111ZM177.438 268.591L176.75 266.319H176.51L177.206 268.663L177.438 268.591ZM225.014 327.431L224.902 327.639L227.15 328.855V328.583L225.014 327.431ZM225.758 326.047L225.646 326.255L227.15 327.055V326.791L225.758 326.047ZM227.198 337.223V336.919L224.966 338.847L225.118 339.023L227.198 337.223ZM227.198 335.143V334.831L223.934 337.655L224.086 337.831L227.198 335.143ZM226.95 343.719L227.03 343.943L227.198 343.879V343.623L226.95 343.719ZM226.374 342.255L226.454 342.479L227.198 342.183V341.927L226.374 342.255ZM224.774 350.503L224.718 350.735L227.166 351.287V351.039L224.774 350.503ZM227.174 349.423L225.126 348.959L225.078 349.191L227.174 349.671V349.423ZM194.718 325.895L189.638 323.743L189.55 323.959L194.63 326.111L194.718 325.895ZM188.934 325.407L194.014 327.567L194.102 327.343L189.022 325.191L188.934 325.407ZM205.054 330.679L208.542 334.951L208.726 334.799L205.23 330.535L205.054 330.679ZM207.51 335.799L203.998 331.535L203.814 331.679L207.31 335.951L207.51 335.799ZM200.958 338.599L199.086 333.407L198.862 333.487L200.734 338.679L200.958 338.599ZM202.438 338.063L200.566 332.871L200.35 332.951L202.222 338.143L202.438 338.063ZM199.238 344.071L199.038 343.951L196.294 348.751L196.494 348.871L199.238 344.071ZM197.87 343.271L197.662 343.159L194.926 347.959L195.126 348.079L197.87 343.271ZM188.55 347.631L185.094 343.399L184.91 343.543L188.406 347.815L188.55 347.631ZM189.766 346.631L186.278 342.367L186.094 342.511L189.582 346.783L189.766 346.631ZM180.822 350.007L178.942 344.823L178.726 344.903L180.598 350.087L180.822 350.007ZM182.302 349.471L180.43 344.287L180.206 344.367L182.078 349.551L182.302 349.471ZM219.902 343.287L219.67 343.231L218.31 348.575L218.542 348.631L219.902 343.287ZM221.43 343.671L221.198 343.615L219.838 348.967L220.07 349.023L221.43 343.671ZM212.494 348.199L207.414 346.047L207.326 346.263L212.406 348.415L212.494 348.199ZM213.11 346.743L207.998 344.551L207.91 344.767L212.99 346.927L213.11 346.743ZM186.278 351.151L186.054 351.951H186.302L186.502 351.247L186.278 351.151ZM184.982 350.783L184.758 350.719L184.414 351.919H184.662L184.982 350.783ZM203.318 348.575L204.326 351.919H204.574L203.55 348.503L203.318 348.575ZM202.038 348.959L201.814 349.023L202.678 351.919H202.926L202.038 348.959ZM194.286 335.655L194.142 335.471L189.734 338.791L189.878 338.983L194.286 335.655ZM195.23 336.919L195.094 336.727L190.686 340.047L190.83 340.239L195.23 336.919ZM186.798 335.743L187.022 335.671L185.494 330.375L185.262 330.439L186.798 335.743ZM185.51 336.111L183.998 330.775L183.774 330.839L185.302 336.135L185.51 336.111ZM178.398 336.111L178.718 330.607H178.486L178.166 336.119L178.398 336.111ZM179.998 336.207L180.318 330.695H180.078L179.758 336.199L179.998 336.207ZM217.742 338.271L217.558 338.119L214.086 342.407L214.27 342.559L217.742 338.271ZM216.334 337.127L212.862 341.415L213.046 341.567L216.51 337.279L216.334 337.127ZM217.302 328.999H217.07L216.446 334.479H216.686L217.302 328.999ZM215.502 328.799L214.886 334.279H215.118L215.734 328.791L215.502 328.799ZM173.038 330.351L173.15 330.143L170.43 328.679V328.951L173.038 330.351ZM173.894 328.751L170.398 326.823V327.087L173.75 328.895L173.894 328.751ZM172.502 335.399L172.342 335.215L170.398 336.911V337.223L172.502 335.399ZM171.47 334.199L171.31 334.023L170.406 334.823V335.135L171.47 334.199ZM175.286 341.687L170.406 343.599V343.855L175.374 341.903L175.286 341.687ZM170.406 342.159L174.798 340.439L174.718 340.223L170.406 341.903V342.159ZM170.406 351.015V351.263L173.054 351.855H173.35L173.39 351.695L170.406 351.015ZM173.686 350.383L173.742 350.151L170.406 349.399V349.647L173.686 350.383ZM219.35 326.055L221.054 323.079H220.798L219.198 325.935L219.35 326.055ZM222.606 323.079L220.518 326.719L220.718 326.839L222.878 323.079H222.606ZM214.022 325.287L214.206 325.135L212.518 323.079H212.214L214.022 325.287ZM215.246 324.287L215.43 324.135L214.558 323.079H214.254L215.246 324.287ZM207.662 327.903L205.918 323.103H205.662L207.438 328.007L207.662 327.903ZM208.918 327.455L209.142 327.367L207.59 323.079H207.342L208.918 327.455ZM197.718 325.743L198.398 323.079H198.15L197.486 325.687L197.718 325.743ZM199.014 326.071L199.246 326.127L200.046 323.079H199.798L199.014 326.071ZM180.734 325.271L181.358 323.063H181.11L180.502 325.207L180.734 325.271ZM182.75 323.063L182.022 325.639L182.254 325.703L182.998 323.063H182.75ZM175.718 325.855L175.942 325.783L175.142 323.063H174.894L175.718 325.855ZM177.222 325.399L177.454 325.335L176.766 323.063H176.526L177.222 325.399ZM167.998 254.063L170.398 254.679V254.439L168.038 253.839L167.998 254.063ZM168.446 252.311L168.39 252.535L170.422 253.055V252.807L168.446 252.311ZM170.398 261.415V261.167L168.798 261.703L168.878 261.927L170.398 261.415ZM168.302 260.199L168.374 260.423L170.406 259.751V259.503L168.302 260.199ZM163.998 266.343H164.27L165.31 264.535L165.102 264.415L163.998 266.343ZM165.814 266.343H166.086L166.678 265.319L166.47 265.199L165.814 266.343ZM153.926 264.135L153.742 264.287L155.43 266.343H155.734L153.926 264.135ZM154.966 263.287L157.462 266.343H157.774L155.15 263.143L154.966 263.287ZM148.998 265.983L148.774 266.063L148.878 266.343H149.126L148.998 265.983ZM150.262 265.527L150.55 266.327H150.806L150.486 265.431L150.262 265.527ZM141.598 266.327L142.278 263.647L142.054 263.591L141.358 266.327H141.598ZM143.582 263.975L142.982 266.327H143.23L143.806 264.039L143.582 263.975ZM124.566 266.327L125.438 263.231L125.214 263.167L124.318 266.327H124.566ZM126.966 263.663L126.734 263.599L125.934 266.327H126.182L126.966 263.663ZM157.99 255.759L163.07 257.911L163.166 257.695L158.086 255.543L157.99 255.759ZM157.374 257.207L162.478 259.399L162.574 259.183L157.494 256.999L157.374 257.207ZM161.654 248.919L161.886 248.983L163.382 243.679L163.158 243.607L161.654 248.919ZM163.174 249.351L163.398 249.415L164.902 244.103L164.678 244.039L163.174 249.351ZM154.974 239.479L156.574 244.759L156.798 244.695L155.198 239.399L154.974 239.479ZM156.486 239.023L158.086 244.303L158.31 244.239L156.71 238.959L156.486 239.023ZM137.238 256.423L138.838 261.711L139.062 261.639L137.462 256.359L137.238 256.423ZM140.566 261.223L138.966 255.943L138.742 256.007L140.342 261.295L140.566 261.223ZM146.806 258.167L152.27 257.367V257.135L146.806 257.935V258.167ZM146.99 259.495V259.727L152.454 258.927V258.695L146.99 259.495ZM152.478 247.679L152.246 247.623L151.022 252.999L151.246 253.055L152.478 247.679ZM153.79 247.975L152.558 253.351L152.782 253.407L154.014 248.031L153.79 247.975ZM134.398 249.895L134.598 250.023L137.55 245.359L137.35 245.239L134.398 249.895ZM135.734 250.743L135.934 250.871L138.886 246.207L138.686 246.079L135.734 250.743ZM148.358 240.239L147.846 238.535H147.606L148.134 240.271L148.358 240.239ZM146.622 240.759L146.846 240.695L146.278 238.791L146.046 238.839L146.622 240.759ZM128.51 259.047L128.694 259.191L132.046 254.815L131.862 254.671L128.51 259.047ZM133.31 255.767L133.118 255.623L129.766 260.007L129.958 260.151L133.31 255.767ZM141.71 248.335L141.622 248.551L146.702 250.711L146.79 250.487L141.71 248.335ZM142.238 247.103L147.318 249.255L147.406 249.039L142.326 246.887L142.238 247.103ZM116.83 297.943L114.814 303.079L115.03 303.167L117.046 298.031L116.83 297.943ZM118.294 298.519L116.278 303.655L116.494 303.743L118.518 298.607L118.294 298.519ZM168.134 270.911L170.39 272.127V271.855L168.246 270.703L168.134 270.911ZM168.998 269.311L168.886 269.511L170.39 270.311V270.039L168.998 269.311ZM170.398 280.199L168.158 282.135L168.318 282.311L170.398 280.511V280.199ZM167.286 281.119L170.398 278.431V278.119L167.134 280.935L167.286 281.119ZM170.142 287.007L170.23 287.231L170.398 287.159V286.911L170.142 287.007ZM170.398 285.215L169.598 285.543L169.686 285.759L170.43 285.471L170.398 285.215ZM170.398 294.327L167.998 293.783L167.95 294.015L170.398 294.567V294.327ZM168.35 292.247L168.294 292.479L170.398 292.951V292.711L168.35 292.247ZM170.398 311.191L168.038 310.591L167.974 310.823L170.374 311.439L170.398 311.191ZM168.422 309.063L168.366 309.295L170.398 309.799V309.559L168.422 309.063ZM170.398 318.175V317.919L168.798 318.455L168.878 318.679L170.398 318.175ZM170.398 316.511V316.263L168.294 316.959L168.366 317.183L170.398 316.511ZM132.798 267.199L137.878 269.359L137.974 269.143L132.894 266.983L132.798 267.199ZM132.182 268.655L137.262 270.807L137.358 270.591L132.278 268.439L132.182 268.655ZM165.35 321.287L165.142 321.175L163.998 323.103H164.27L165.35 321.287ZM166.718 322.087L166.51 321.967L165.854 323.119H166.126L166.718 322.087ZM153.782 321.055L155.47 323.119H155.774L153.966 320.903L153.782 321.055ZM155.006 320.055L157.502 323.119H157.814L155.19 319.919L155.006 320.055ZM149.038 322.759L148.814 322.839L148.918 323.119H149.166L149.038 322.759ZM150.302 322.303L150.59 323.103H150.846L150.526 322.207L150.302 322.303ZM141.398 323.103H141.638L142.318 320.423L142.094 320.359L141.398 323.103ZM143.622 320.751L143.022 323.103H143.27L143.846 320.807L143.622 320.751ZM117.598 320.543L117.374 320.607L117.814 322.063L118.006 321.887L117.598 320.543ZM119.11 320.087L118.878 320.159L119.094 320.847L119.278 320.663L119.11 320.087ZM128.302 303.551L128.094 303.439L125.35 308.239L125.558 308.359L128.302 303.551ZM126.926 309.151L129.67 304.351L129.462 304.231L126.718 309.031L126.926 309.151ZM151.998 278.047L148.478 273.799L148.294 273.951L151.79 278.223L151.998 278.047ZM150.774 279.047L147.278 274.775L147.102 274.927L150.59 279.199L150.774 279.047ZM142.134 276.711L144.006 281.895L144.23 281.815L142.358 276.631L142.134 276.711ZM143.614 276.175L145.486 281.359L145.71 281.279L143.838 276.095L143.614 276.175ZM163.198 314.463L158.118 312.311L158.022 312.527L163.102 314.679L163.198 314.463ZM162.582 315.919L157.502 313.759L157.406 313.983L162.486 316.135L162.582 315.919ZM163.19 300.383L161.686 305.695L161.918 305.759L163.414 300.447L163.19 300.383ZM164.934 300.879L164.71 300.815L163.198 306.119L163.422 306.183L164.934 300.879ZM156.798 301.447L155.198 296.167L154.974 296.231L156.574 301.519L156.798 301.447ZM158.31 300.991L156.71 295.711L156.486 295.775L158.086 301.063L158.31 300.991ZM142.31 287.175L139.566 291.975L139.774 292.087L142.518 287.287L142.31 287.175ZM140.942 286.375L138.198 291.175L138.406 291.287L141.15 286.487L140.942 286.375ZM128.142 286.735L131.638 291.007L131.814 290.855L128.342 286.599L128.142 286.735ZM129.358 285.735L132.854 290.007L133.038 289.855L129.598 285.599L129.358 285.735ZM121.99 288.135L123.862 293.327L124.086 293.247L122.214 288.055L121.99 288.135ZM123.478 287.599L125.35 292.791L125.566 292.711L123.694 287.519L123.478 287.599ZM161.598 291.815L161.83 291.871L163.182 286.527L162.958 286.463L161.598 291.815ZM164.718 286.911L164.486 286.855L163.126 292.199L163.358 292.255L164.718 286.911ZM155.742 291.399L150.662 289.247L150.566 289.463L155.646 291.623L155.742 291.399ZM156.358 289.951L151.278 287.799L151.182 288.015L156.262 290.167L156.358 289.951ZM138.758 312.727L140.358 318.007L140.582 317.943L138.982 312.655L138.758 312.727ZM152.278 314.111V313.879L146.814 314.679V314.911L152.278 314.111ZM152.494 315.671V315.439L147.03 316.239V316.471L152.494 315.671ZM151.246 309.799L152.478 304.423L152.246 304.367L151.022 309.751L151.246 309.799ZM152.782 310.151L154.014 304.775L153.79 304.719L152.558 310.103L152.782 310.151ZM137.374 302.023L135.294 305.311L135.382 305.615L137.598 302.119L137.374 302.023ZM138.71 302.863L135.894 307.311L135.982 307.607L138.91 302.991L138.71 302.863ZM133.686 297.407L133.782 297.623L138.838 295.415L138.742 295.199L133.686 297.407ZM139.47 296.863L139.374 296.647L134.318 298.855L134.406 299.071L139.47 296.863ZM129.75 294.463L129.518 294.391L127.998 299.663L128.222 299.727L129.75 294.463ZM126.726 299.343L128.23 294.031L128.006 293.967L126.502 299.279L126.726 299.343ZM148.382 296.999L146.782 291.719L146.558 291.783L148.158 297.071L148.382 296.999ZM145.054 292.199L146.654 297.479L146.878 297.415L145.278 292.135L145.054 292.199ZM137.382 278.599L132.982 281.927L133.126 282.111L137.526 278.791L137.382 278.599ZM133.926 283.183L134.07 283.375L138.478 280.047L138.334 279.863L133.926 283.183ZM128.51 273.583L130.038 278.879L130.27 278.815L128.734 273.511L128.51 273.583ZM126.998 274.015L128.526 279.319L128.75 279.255L127.198 274.015H126.998ZM121.398 279.207H121.638L121.958 273.695H121.718L121.398 279.207ZM123.526 273.807H123.294L122.974 279.319H123.206L123.526 273.807ZM125.462 314.359L122.086 310.847L121.918 311.007L125.302 314.527L125.462 314.359ZM120.95 311.959L120.798 312.199L124.222 315.759L124.382 315.591L120.95 311.959ZM160.95 281.399L160.766 281.255L157.302 285.543L157.486 285.695L160.95 281.399ZM159.542 280.263L156.07 284.551L156.254 284.703L159.726 280.407L159.542 280.263ZM160.526 272.199H160.286L159.67 277.679H159.902L160.526 272.199ZM158.718 271.991L158.102 277.479H158.342L158.958 271.999L158.718 271.991ZM146.806 307.271L141.726 305.119L141.638 305.335L146.718 307.487L146.806 307.271ZM147.422 305.815L142.342 303.663L142.254 303.879L147.334 306.031L147.422 305.815ZM115.742 278.687L115.59 278.511L115.406 278.671L115.006 279.327L115.742 278.687ZM118.534 284.983L113.654 286.895V287.143L118.622 285.199L118.534 284.983ZM118.046 283.735L117.958 283.511L113.654 285.199V285.455L118.046 283.735ZM116.582 295.215L116.638 294.983L113.654 294.311V294.551L116.582 295.215ZM116.934 293.679L116.982 293.447L113.654 292.695V292.935L116.934 293.679ZM116.574 312.199L116.638 311.975L113.654 311.215V311.463L116.574 312.199ZM113.654 309.799L116.966 310.647L117.022 310.415L113.654 309.559V309.799ZM117.35 316.943L117.278 316.719L113.654 317.911V318.167L117.35 316.943ZM116.854 315.447L116.782 315.223L113.654 316.255V316.503L116.854 315.447ZM162.398 269.207L162.606 269.319L164.31 266.343H163.998L162.398 269.207ZM163.766 270.007L163.974 270.119L166.126 266.359H165.854L163.766 270.007ZM157.462 268.407L155.774 266.343H155.47L157.278 268.551L157.462 268.407ZM158.494 267.559L158.678 267.407L157.814 266.343H157.502L158.494 267.559ZM150.91 271.175L149.166 266.375H148.918L150.686 271.287L150.91 271.175ZM152.174 270.719L152.398 270.639L150.846 266.343H150.59L152.174 270.719ZM140.734 268.951L140.966 269.007L141.638 266.343H141.398L140.734 268.951ZM142.262 269.343L142.486 269.399L143.286 266.343H143.038L142.262 269.343ZM123.75 268.495L123.982 268.559L124.606 266.343H124.358L123.75 268.495ZM126.246 266.343H125.998L125.27 268.919L125.494 268.991L126.246 266.343ZM168.158 327.663L170.414 328.879V328.607L168.27 327.455L168.158 327.663ZM169.022 326.063L168.91 326.271L170.414 327.071V326.807L169.022 326.063ZM170.398 337.223V336.911L168.158 338.847L168.318 339.023L170.398 337.223ZM170.398 335.143V334.831L167.134 337.655L167.286 337.831L170.398 335.143ZM170.142 343.719L170.23 343.943L170.398 343.879V343.623L170.142 343.719ZM169.566 342.255L169.654 342.479L170.398 342.183V341.927L169.566 342.255ZM167.966 350.503L167.918 350.735L170.366 351.287V351.039L167.966 350.503ZM170.366 349.423L168.318 348.959L168.262 349.191L170.366 349.671V349.423ZM148.294 330.679L151.79 334.951L151.974 334.799L148.478 330.535L148.294 330.679ZM150.75 335.799L147.254 331.535L147.078 331.679L150.566 335.951L150.75 335.799ZM144.206 338.599L142.606 334.135L142.494 334.527L143.99 338.679L144.206 338.599ZM145.686 338.063L143.814 332.871L143.59 332.951L145.462 338.143L145.686 338.063ZM142.486 344.071L142.278 343.951L139.534 348.751L139.742 348.871L142.486 344.071ZM140.886 343.175L139.198 346.199L138.934 347.135L141.15 343.263L140.886 343.175ZM163.134 343.303L162.91 343.247L161.55 348.591L161.782 348.647L163.134 343.303ZM164.67 343.687L164.438 343.631L163.078 348.983L163.31 349.039L164.67 343.687ZM155.742 348.199L150.662 346.047L150.566 346.263L155.646 348.415L155.742 348.199ZM156.358 346.743L151.278 344.591L151.182 344.807L156.262 346.967L156.358 346.743ZM146.566 348.575L147.574 351.919H147.822L146.79 348.503L146.566 348.575ZM145.286 348.959L145.054 349.023L145.926 351.919H146.174L145.286 348.959ZM160.958 338.239L160.774 338.087L157.31 342.375L157.494 342.527L160.958 338.239ZM159.55 337.095L156.078 341.383L156.262 341.535L159.734 337.247L159.55 337.095ZM160.526 328.967H160.286L159.67 334.447H159.902L160.526 328.967ZM158.718 328.767L158.102 334.247H158.342L158.958 328.759L158.718 328.767ZM162.598 326.119L164.302 323.143H163.998L162.398 325.999L162.598 326.119ZM165.846 323.143L163.758 326.783L163.966 326.903L166.118 323.143H165.846ZM157.27 325.351L157.454 325.199L155.766 323.143H155.462L157.27 325.351ZM158.486 324.351L158.67 324.199L157.806 323.143H157.494L158.486 324.351ZM150.902 327.967L149.158 323.167H148.91L150.678 328.071L150.902 327.967ZM152.166 327.519L152.39 327.431L150.838 323.143H150.582L152.166 327.519ZM141.046 324.471L141.182 324.911L141.63 323.143H141.39L141.046 324.471ZM142.254 326.135L142.478 326.191L143.278 323.143H143.03L142.254 326.135ZM113.398 287.007L113.486 287.231L113.654 287.159V286.911L113.398 287.007ZM113.654 285.215L112.854 285.543L112.942 285.759L113.686 285.471L113.654 285.215ZM111.198 294.015L113.654 294.567V294.327L111.254 293.783L111.198 294.015ZM111.55 292.479L113.654 292.951V292.711L111.598 292.199L111.55 292.479ZM113.654 311.231L111.254 310.631L111.198 310.863L113.598 311.479L113.654 311.231ZM111.678 309.103L111.622 309.335L113.654 309.847V309.607L111.678 309.103ZM113.654 318.215V317.959L112.054 318.495L112.126 318.719L113.654 318.215ZM113.654 316.551V316.303L111.542 316.999L111.614 317.223L113.654 316.551ZM108.582 321.351L108.382 321.239L107.278 323.167H107.55L108.582 321.351ZM109.95 322.151L109.75 322.031L109.094 323.183H109.366L109.95 322.151ZM97.0225 321.119L98.7025 323.183H99.0145L97.2065 320.967L97.0225 321.119ZM98.2385 320.119L100.742 323.183H101.046L98.4225 319.983L98.2385 320.119ZM93.7585 322.287L93.5345 322.367L93.8305 323.167H94.0865L93.7585 322.287ZM90.3185 275.007L91.1185 276.031L90.3185 274.967V275.007ZM85.3505 276.791L87.2305 281.975L87.4465 281.895L85.5985 276.631L85.3505 276.791ZM86.8385 276.255L88.7105 281.439L88.9345 281.359L87.0625 276.175L86.8385 276.255ZM106.398 314.463L101.318 312.311L101.23 312.527L106.31 314.679L106.398 314.463ZM105.782 315.919L100.71 313.759L100.614 313.983L105.694 316.135L105.782 315.919ZM106.398 300.383L104.894 305.695L105.118 305.759L106.622 300.447L106.398 300.383ZM108.142 300.879L107.91 300.815L106.414 306.119L106.638 306.183L108.142 300.879ZM100.006 301.447L98.4065 296.167L98.1825 296.231L99.7825 301.519L100.006 301.447ZM101.51 300.991L99.9105 295.711L99.6865 295.775L101.286 301.063L101.51 300.991ZM85.7345 287.295L85.5345 287.175L82.7905 291.975L82.9985 292.087L85.7345 287.295ZM84.3665 286.495L84.1665 286.375L81.4225 291.175L81.6305 291.287L84.3665 286.495ZM98.9825 291.399L93.9025 289.247L93.8145 289.463L98.8945 291.623L98.9825 291.399ZM99.5985 289.951L94.5185 287.799L94.4305 288.015L99.5105 290.167L99.5985 289.951ZM90.0465 314.879L95.5105 314.079V313.847L90.0465 314.647V314.879ZM90.2705 316.439L95.7345 315.639V315.407L90.2705 316.207V316.439ZM94.2705 309.719L94.5025 309.767L95.7345 304.391L95.5025 304.335L94.2705 309.719ZM97.0385 304.687L95.8065 310.071L96.0385 310.119L97.2705 304.743L97.0385 304.687ZM81.9985 295.167L79.8945 296.087L79.9745 296.311L82.0945 295.383L81.9985 295.167ZM82.6225 296.615L80.4065 297.583L80.4865 297.807L82.7185 296.831L82.6225 296.615ZM89.8225 291.815L91.4225 297.103L91.6545 297.031L90.0545 291.751L89.8225 291.815ZM88.3105 292.271L89.9105 297.551L90.1425 297.487L88.5425 292.207L88.3105 292.271ZM76.2305 282.039L76.3745 282.223L80.7825 278.903L80.6385 278.711L76.2305 282.039ZM81.7345 280.159L81.5905 279.975L77.1825 283.295L77.3265 283.487L81.7345 280.159ZM90.0625 307.287L84.9825 305.135L84.8865 305.351L89.9665 307.503L90.0625 307.287ZM85.5025 303.895L90.5825 306.047L90.6785 305.831L85.5985 303.639L85.5025 303.895ZM111.518 327.495L111.406 327.703L111.606 327.543L111.518 327.495ZM112.262 326.111L112.15 326.319L112.734 326.631L112.926 326.463L112.262 326.111ZM103.198 331.887H103.438L103.766 328.927H103.534L103.198 331.887ZM101.598 331.615L101.83 331.687L102.158 328.751H101.926L101.598 331.615ZM107.51 323.103H107.238L105.638 325.959L105.838 326.079L107.51 323.103ZM109.326 323.103H109.054L106.966 326.743L107.174 326.863L109.326 323.103ZM100.478 325.311L100.654 325.159L98.9745 323.103H98.6625L100.478 325.311ZM101.694 324.311L101.878 324.159L101.006 323.103H100.702L101.694 324.311ZM93.7905 323.103L94.9345 326.303L95.3745 326.815L94.0465 323.135L93.7905 323.103Z" fill="white"/>
<path d="M160.126 238.597C160.126 238.597 147.134 236.789 141.134 240.669C135.134 244.549 105.486 295.22 105.486 295.22L89.1102 273.181L74.9102 279.557C74.9102 279.557 81.5662 305.317 89.3102 318.133C97.0542 330.949 101.47 332.244 104.126 331.82C112.03 330.564 134.926 304.077 134.926 304.077L143.246 331.757L137.598 351.877H242.798L230.038 330.596C230.038 330.596 246.686 253.796 242.446 245.66C238.206 237.524 213.502 238.597 205.734 238.597H183.494C180.124 239.265 176.698 239.618 173.262 239.653C168.868 239.525 164.484 239.172 160.126 238.597Z" stroke="#263238" stroke-width="0.985332"/>
<path d="M134.937 304.077C131.892 297.991 130.709 291.143 131.537 284.389C133.081 273.613 139.753 261.812 139.753 261.812C139.753 261.812 126.441 281.013 126.441 287.413C126.441 293.812 130.401 303.173 130.401 303.173L126.945 313.036L134.937 304.077Z" fill="#263238" stroke="#263238" stroke-width="0.985332" stroke-linecap="round" stroke-linejoin="round"/>
<path d="M171.143 227.983L171.495 239.279L161.967 239.631C161.967 239.631 159.999 281.079 168.479 288.495C176.959 295.911 202.559 238.599 202.559 238.599L193.759 236.831L190.935 213.887L171.143 227.983Z" fill="white" stroke="#263238" stroke-width="0.985332" stroke-linecap="round" stroke-linejoin="round"/>
<path d="M191.95 218.367L171.574 237.567V230.775L191.95 218.367Z" fill="#263238" stroke="#263238" stroke-width="0.985332" stroke-linecap="round" stroke-linejoin="round"/>
<path d="M168.48 288.494C168.48 288.494 169.504 281.822 174.632 273.102L168.48 288.494Z" fill="white"/>
<path d="M168.48 288.494C168.48 288.494 169.504 281.822 174.632 273.102" stroke="#263238" stroke-width="0.985332" stroke-linecap="round" stroke-linejoin="round"/>
<path d="M167.04 164.285L143.84 188.405C145.663 193.539 146.546 198.959 146.448 204.405C146.176 212.949 153.944 225.517 160.296 231.357C166.648 237.197 179.608 228.221 184.448 225.053C187.68 222.863 190.694 220.366 193.448 217.597C195.213 217.521 196.93 216.998 198.438 216.077C199.947 215.156 201.197 213.868 202.072 212.333C202.072 212.333 168.36 176.309 167.04 164.285Z" fill="white" stroke="#263238" stroke-width="0.985332" stroke-linecap="round" stroke-linejoin="round"/>
<path d="M160.752 189.055C161.554 190.689 162.073 192.447 162.288 194.255C162.36 196.487 158.448 206.943 159.008 207.639C159.568 208.335 161.32 210.639 162.688 210.343" stroke="#263238" stroke-width="0.985332" stroke-linecap="round" stroke-linejoin="round"/>
<path d="M170.398 200.486C173.667 199.261 177.262 199.218 180.558 200.366" stroke="#263238" stroke-width="0.492666" stroke-linecap="round" stroke-linejoin="round"/>
<path d="M152.344 201.318C154.091 200.828 155.897 200.575 157.712 200.566" stroke="#263238" stroke-width="0.492666" stroke-linecap="round" stroke-linejoin="round"/>
<path d="M157.822 183.143C156.926 183.077 156.026 183.218 155.193 183.557C154.361 183.896 153.618 184.422 153.022 185.095C151.014 187.407 150.038 189.423 149.534 187.791C149.03 186.159 151.27 183.159 152.062 182.551C152.854 181.943 156.566 179.559 157.822 183.143Z" fill="#263238"/>
<path d="M167.75 181.798C170.103 181.79 172.425 182.338 174.526 183.398C177.59 185.078 176.126 181.67 173.974 180.694C171.822 179.718 168.094 179.814 167.75 181.798Z" fill="#263238"/>
<path d="M203.272 221.918C203.416 224.318 202.176 226.318 200.52 226.414C198.864 226.51 197.4 224.654 197.256 222.27C197.112 219.886 198.112 213.734 199.768 213.638C201.424 213.542 203.136 219.526 203.272 221.918Z" fill="#8692D0" stroke="#263238" stroke-width="0.985332" stroke-linecap="round" stroke-linejoin="round"/>
<path d="M156.872 197C156.984 198.6 156.376 199.896 155.52 199.952C154.664 200.008 153.92 198.784 153.784 197.216C153.648 195.648 154.28 194.32 155.136 194.264C155.992 194.208 156.8 195.464 156.872 197Z" fill="#263238"/>
<path d="M174.135 196.382C174.247 197.982 173.639 199.27 172.791 199.334C171.943 199.398 171.191 198.166 171.047 196.59C170.903 195.014 171.551 193.702 172.399 193.646C173.247 193.59 174.031 194.814 174.135 196.382Z" fill="#263238"/>
<path d="M162.574 214.893C162.574 214.893 166.646 216.197 172.174 211.469" stroke="#263238" stroke-width="0.985332" stroke-linecap="round" stroke-linejoin="round"/>
<path d="M89.1112 273.2L81.6632 263.224C81.3192 260.568 80.6552 255.08 80.5432 251.376C80.3912 246.336 80.6392 243.256 77.7752 238.784C74.9112 234.312 66.9192 227.248 66.1672 225.608C65.4152 223.968 63.2392 228.592 64.6072 231.592C65.9752 234.592 67.2232 235.512 67.2232 235.512C67.2232 235.512 52.5112 228.2 52.0232 229.392C51.5352 230.584 58.8712 251.664 62.2312 257.224C63.6312 259.544 67.5112 262.648 69.3832 265.336C70.2988 266.662 71.0838 268.074 71.7272 269.552C73.4712 276.968 75.5032 285.128 76.5272 285.424C78.8552 286.104 88.7352 286.264 89.1112 273.2Z" fill="white" stroke="#263238" stroke-width="0.985332" stroke-miterlimit="10"/>
<path d="M68.2008 250.28C68.0664 250.316 67.926 250.325 67.788 250.307C67.6499 250.289 67.5168 250.243 67.3964 250.174C67.2759 250.104 67.1705 250.011 67.0861 249.9C67.0017 249.789 66.9401 249.663 66.9048 249.528L55.2008 206.256C55.1383 205.994 55.1779 205.719 55.3117 205.485C55.4455 205.252 55.6634 205.078 55.9208 205C56.1913 204.929 56.4789 204.967 56.7214 205.106C56.964 205.245 57.1419 205.474 57.2168 205.744L68.9528 249C69.019 249.269 68.9774 249.554 68.837 249.793C68.6965 250.032 68.4683 250.207 68.2008 250.28Z" fill="#263238" stroke="#263238" stroke-width="0.985332" stroke-miterlimit="10"/>
<path d="M59.7598 222.75C59.7598 222.75 48.4638 228.718 49.1598 229.886C49.8558 231.054 51.9198 235.222 52.8638 235.126C53.8078 235.03 60.6638 229.43 61.1598 228.726C61.6558 228.022 59.7598 222.75 59.7598 222.75Z" fill="white" stroke="#263238" stroke-width="0.985332" stroke-miterlimit="10"/>
<path d="M61.7747 230.078C61.7747 230.078 52.3907 236.998 52.6947 238.006C52.9987 239.014 57.5987 250.942 58.3987 251.91C59.1987 252.878 66.5427 249.51 66.5427 249.51L61.7747 230.078Z" fill="white" stroke="#263238" stroke-width="0.985332" stroke-miterlimit="10"/>
<path d="M63.2013 236.512C63.2013 236.512 54.2173 243.568 54.8093 243.792" stroke="#263238" stroke-width="0.985332" stroke-miterlimit="10"/>
<path d="M64.8958 244.156L57.3438 248.58" stroke="#263238" stroke-width="0.985332" stroke-miterlimit="10"/>
<path d="M67.1992 235.512L71.3432 239.56C71.3432 239.56 65.8392 251.312 71.1112 257.8" stroke="#263238" stroke-width="0.985332" stroke-miterlimit="10"/>
<path d="M230.711 241.103C230.711 241.103 240.767 239.791 245.111 248.103C249.455 256.415 276.599 329.879 277.039 336.903C277.479 343.927 259.103 345.647 252.983 342.591C246.863 339.535 229.783 303.231 228.055 298.415" fill="#8692D0"/>
<path d="M233.908 291.974L232.418 297.273L232.648 297.338L234.139 292.039L233.908 291.974Z" fill="white"/>
<path d="M237.385 277.031L235.857 271.727L235.625 271.799L237.161 277.095L237.385 277.031Z" fill="white"/>
<path d="M236.636 292.498L235.129 297.809L235.36 297.874L236.867 292.564L236.636 292.498Z" fill="white"/>
<path d="M238.953 289.022L235.457 284.75L235.273 284.902L238.769 289.166L238.953 289.022Z" fill="white"/>
<path d="M246.497 294.746L241.438 296.953L241.534 297.173L246.593 294.966L246.497 294.746Z" fill="white"/>
<path d="M246.023 301.108L245.823 300.98L242.871 305.644L243.071 305.772L246.023 301.108Z" fill="white"/>
<path d="M234.113 272.232L235.641 277.536L235.873 277.464L234.337 272.168L234.113 272.232Z" fill="white"/>
<path d="M241.535 304.797L241.735 304.925L244.687 300.269L244.487 300.141L241.535 304.797Z" fill="white"/>
<path d="M240.168 288.022L236.68 283.75L236.496 283.902L239.984 288.166L240.168 288.022Z" fill="white"/>
<path d="M245.459 278.066L241.047 281.383L241.191 281.575L245.604 278.258L245.459 278.066Z" fill="white"/>
<path d="M244.352 254.576L245.944 259.864L246.168 259.792L244.584 254.512L244.352 254.576Z" fill="white"/>
<path d="M244.65 277.012L244.506 276.82L240.098 280.14L240.242 280.332L244.65 277.012Z" fill="white"/>
<path d="M241.735 248.198L243.391 245.582C243.335 245.526 243.287 245.462 243.231 245.398L241.535 248.07L241.735 248.198Z" fill="white"/>
<path d="M236.895 258.157L237.087 258.301L240.439 253.917L240.255 253.773L236.895 258.157Z" fill="white"/>
<path d="M239.902 265.349L244.982 267.501L245.078 267.285L239.998 265.133L239.902 265.349Z" fill="white"/>
<path d="M245.863 254.119L247.455 259.407L247.679 259.335L246.095 254.055L245.863 254.119Z" fill="white"/>
<path d="M245.528 289.447L248.272 284.655L248.064 284.543L245.328 289.327L245.528 289.447Z" fill="white"/>
<path d="M239.391 266.607L239.301 266.82L244.382 268.976L244.473 268.763L239.391 266.607Z" fill="white"/>
<path d="M245.853 293.333L240.793 295.539L240.889 295.759L245.949 293.553L245.853 293.333Z" fill="white"/>
<path d="M258.4 342.703L258.312 342.919L260.864 344.007H261.488L258.4 342.703Z" fill="white"/>
<path d="M259.502 325.543L257.95 321.247L257.63 320.359L257.406 320.439L257.702 321.247L259.278 325.623L259.502 325.543Z" fill="white"/>
<path d="M254.191 329.832L257.687 334.104L257.863 333.952L254.375 329.68L254.191 329.832Z" fill="white"/>
<path d="M258.018 326.079L256.282 321.247L256.146 320.895L255.93 320.967L256.026 321.247L257.802 326.159L258.018 326.079Z" fill="white"/>
<path d="M259.569 313.59L254.105 314.358L254.137 314.59L259.601 313.822L259.569 313.59Z" fill="white"/>
<path d="M275.441 337.173L276.921 335.893L276.873 335.629L275.273 336.997L275.441 337.173Z" fill="white"/>
<path d="M235.648 257.197L235.832 257.341L239.192 252.957L239 252.812L235.648 257.197Z" fill="white"/>
<path d="M229.351 286.211L229.125 286.293L230.999 291.485L231.225 291.404L229.351 286.211Z" fill="white"/>
<path d="M274.398 335.982L276.51 334.158C276.484 334.074 276.463 333.989 276.446 333.902L274.246 335.806L274.398 335.982Z" fill="white"/>
<path d="M259.086 332.952L255.59 328.688L255.406 328.832L258.902 333.104L259.086 332.952Z" fill="white"/>
<path d="M230.43 272.024L230.109 277.535L230.349 277.549L230.67 272.038L230.43 272.024Z" fill="white"/>
<path d="M255.496 295.143L253.912 289.863L253.68 289.927L255.272 295.215L255.496 295.143Z" fill="white"/>
<path d="M250.929 274.23L250.711 274.309L252.584 279.501L252.803 279.422L250.929 274.23Z" fill="white"/>
<path d="M250.127 264.493L249.367 267.493L249.599 267.549L250.375 264.493L250.959 262.197L250.727 262.141L250.127 264.493Z" fill="white"/>
<path d="M248.504 264.494L247.84 267.102L248.072 267.158L248.744 264.494L249.432 261.814L249.2 261.758L248.504 264.494Z" fill="white"/>
<path d="M252.168 290.381L253.76 295.661L253.984 295.597L252.4 290.309L252.168 290.381Z" fill="white"/>
<path d="M249.433 274.788L249.215 274.867L251.089 280.059L251.307 279.98L249.433 274.788Z" fill="white"/>
<path d="M230.843 285.661L230.617 285.742L232.491 290.935L232.716 290.853L230.843 285.661Z" fill="white"/>
<path d="M243.071 248.996L244.415 246.876L244.271 246.652L242.871 248.876L243.071 248.996Z" fill="white"/>
<path d="M249.367 302.005L254.447 304.157L254.535 303.941L249.455 301.789L249.367 302.005Z" fill="white"/>
<path d="M235.409 244.952L235.201 244.832L232.457 249.616L232.665 249.736L235.409 244.952Z" fill="white"/>
<path d="M272.799 322.038L272.695 321.742L270.895 324.894L271.095 325.006L272.799 322.038Z" fill="white"/>
<path d="M267.641 327.079L267.409 327.055L266.785 332.535L267.025 332.559L267.641 327.079Z" fill="white"/>
<path d="M264.618 311.935L264.527 312.148L269.609 314.304L269.7 314.091L264.618 311.935Z" fill="white"/>
<path d="M271.416 321.246L272.112 320.038L272.016 319.734L271.144 321.246L269.504 324.11L269.712 324.222L271.416 321.246Z" fill="white"/>
<path d="M268.078 336.351L267.894 336.199L264.422 340.487L264.606 340.639L268.078 336.351Z" fill="white"/>
<path d="M269.449 312.253L265.225 310.461L265.137 310.677L269.553 312.549L269.449 312.253Z" fill="white"/>
<path d="M266.847 335.359L266.663 335.207L263.199 339.495L263.383 339.647L266.847 335.359Z" fill="white"/>
<path d="M261.136 302.896L260.904 302.84L259.672 308.216L259.904 308.272L261.136 302.896Z" fill="white"/>
<path d="M264.383 323.463L264.567 323.311L262.879 321.247L261.071 319.039L260.887 319.191L262.575 321.247L264.383 323.463Z" fill="white"/>
<path d="M233.824 250.397L234.032 250.517L236.776 245.725L236.568 245.613L233.824 250.397Z" fill="white"/>
<path d="M249.433 331.538L249.215 331.617L251.089 336.809L251.307 336.73L249.433 331.538Z" fill="white"/>
<path d="M270.32 341.431L270.088 341.367L269.664 343.031L269.928 342.959L270.32 341.431Z" fill="white"/>
<path d="M250.937 330.98L250.719 331.059L252.592 336.251L252.81 336.172L250.937 330.98Z" fill="white"/>
<path d="M258.305 286.165L260.417 287.061C260.417 286.957 260.337 286.853 260.305 286.757L258.393 285.957L258.305 286.165Z" fill="white"/>
<path d="M271.846 341.798L271.614 341.742L271.422 342.486L271.694 342.39L271.846 341.798Z" fill="white"/>
<path d="M244.465 325.495L240.273 323.719L240.449 324.047L244.369 325.711L244.465 325.495Z" fill="white"/>
<path d="M230.137 253.605L232.865 256.445L233.041 256.285L230.153 253.285L230.137 253.605Z" fill="white"/>
<path d="M254.191 273.078L256.063 275.358L255.799 274.67L254.399 272.926L254.191 273.078Z" fill="white"/>
<path d="M231.727 257.541L231.895 257.373L230.055 255.453L230.039 255.781L231.727 257.541Z" fill="white"/>
<path d="M262.086 294.38L263.678 299.668L263.902 299.596L262.318 294.316L262.086 294.38Z" fill="white"/>
<path d="M245.078 324.047L239.998 321.887L239.902 322.103L244.982 324.263L245.078 324.047Z" fill="white"/>
<path d="M239.192 309.718L239 309.574L235.648 313.95L235.832 314.094L239.192 309.718Z" fill="white"/>
<path d="M247.679 316.093L246.095 310.805L245.863 310.877L247.455 316.157L247.679 316.093Z" fill="white"/>
<path d="M246.168 316.55L244.584 311.262L244.352 311.334L245.944 316.614L246.168 316.55Z" fill="white"/>
<path d="M240.439 310.671L240.255 310.535L236.895 314.911L237.087 315.055L240.439 310.671Z" fill="white"/>
<path d="M232.375 267.07L232.607 267.134L233.351 264.494L234.103 261.83L233.879 261.758L233.103 264.494L232.375 267.07Z" fill="white"/>
<path d="M231.463 264.496L230.855 266.648L231.087 266.712L231.711 264.496L232.583 261.4L232.359 261.336L231.463 264.496Z" fill="white"/>
<path d="M235.409 301.702L235.201 301.582L232.457 306.374L232.665 306.486L235.409 301.702Z" fill="white"/>
<path d="M236.776 302.487L236.568 302.367L233.824 307.159L234.032 307.271L236.776 302.487Z" fill="white"/>
<path d="M249.439 285.324L246.695 290.108L246.895 290.228L249.639 285.436L249.439 285.324Z" fill="white"/>
<path d="M259.369 302.484L258.137 307.86L258.369 307.916L259.601 302.54L259.369 302.484Z" fill="white"/>
<path d="M261.048 288.782L257.776 287.398L257.688 287.614L261.16 289.086C261.12 288.998 261.088 288.886 261.048 288.782Z" fill="white"/>
<path d="M259.383 312.263L259.351 312.031L253.887 312.799L253.919 313.031L259.383 312.263Z" fill="white"/>
<path d="M262.297 318.039L262.113 318.191L264.617 321.247L265.609 322.463L265.793 322.311L264.921 321.247L262.297 318.039Z" fill="white"/>
<path d="M250.375 321.246L250.959 318.958L250.727 318.902L250.127 321.246L249.367 324.246L249.599 324.302L250.375 321.246Z" fill="white"/>
<path d="M248.845 303.267L248.754 303.48L253.835 305.636L253.926 305.423L248.845 303.267Z" fill="white"/>
<path d="M248.744 321.248L249.432 318.568L249.2 318.512L248.504 321.248L247.84 323.856L248.072 323.92L248.744 321.248Z" fill="white"/>
<path d="M265.455 332.383L266.071 326.903L265.839 326.879L265.215 332.359L265.455 332.383Z" fill="white"/>
<path d="M230.711 241.103C230.711 241.103 240.767 239.791 245.111 248.103C249.455 256.415 276.599 329.879 277.039 336.903C277.479 343.927 259.103 345.647 252.983 342.591C246.863 339.535 229.783 303.231 228.055 298.415" stroke="#263238" stroke-width="0.985332"/>
<path d="M169.921 341.256C169.921 341.256 149.369 338.632 145.865 339.064C142.361 339.496 126.625 350 126.625 350H171.201L169.921 341.256Z" fill="white" stroke="#263238" stroke-width="0.985332" stroke-linecap="round" stroke-linejoin="round"/>
<path d="M254.761 327.255L169.961 341.255L171.201 349.999H275.761C276.574 345.671 277.013 341.282 277.073 336.879C277.073 330.319 273.137 322.887 273.137 322.887" fill="#8692D0"/>
<path d="M261.785 341.693L263.377 346.973L263.601 346.909L262.017 341.621L261.785 341.693Z" fill="white"/>
<path d="M267.593 326.75L264.121 331.038L264.305 331.19L267.777 326.902L267.593 326.75Z" fill="white"/>
<path d="M262.895 330.046L263.079 330.198L266.543 325.91L266.359 325.758L262.895 330.046Z" fill="white"/>
<path d="M251.863 337.685L253.455 342.973L253.679 342.901L252.095 337.621L251.863 337.685Z" fill="white"/>
<path d="M265.113 346.456L263.521 341.168L263.297 341.24L264.889 346.52L265.113 346.456Z" fill="white"/>
<path d="M255.191 342.456L253.607 337.168L253.375 337.24L254.967 342.52L255.191 342.456Z" fill="white"/>
<path d="M269.788 331.923L268.43 337.273L268.662 337.333L270.021 331.982L269.788 331.923Z" fill="white"/>
<path d="M268.816 350H269.064L270.224 345.904L269.992 345.84L268.816 350Z" fill="white"/>
<path d="M249.151 349.094L249.062 349.31L250.679 349.998H251.286L249.151 349.094Z" fill="white"/>
<path d="M271.297 332.271L269.938 337.621L270.17 337.68L271.53 332.33L271.297 332.271Z" fill="white"/>
<path d="M230.53 332.965L230.305 333.047L232.178 338.239L232.404 338.158L230.53 332.965Z" fill="white"/>
<path d="M257.383 334.927L262.455 337.079L262.551 336.863L257.471 334.703L257.383 334.927Z" fill="white"/>
<path d="M259.064 349.797L259.016 349.997H259.256L259.296 349.845L259.064 349.797Z" fill="white"/>
<path d="M258.091 333.271L258 333.484L263.082 335.64L263.172 335.427L258.091 333.271Z" fill="white"/>
<path d="M234.969 332.207L238.465 336.479L238.649 336.327L235.153 332.055L234.969 332.207Z" fill="white"/>
<path d="M239.863 335.327L236.367 331.062L236.191 331.207L239.679 335.479L239.863 335.327Z" fill="white"/>
<path d="M274.105 326.535L274.593 326.111L274.497 325.879L273.953 326.359L274.105 326.535Z" fill="white"/>
<path d="M234.815 339.377L233.309 344.688L233.539 344.753L235.046 339.443L234.815 339.377Z" fill="white"/>
<path d="M275.121 337.892L277.049 338.332C277.049 338.252 277.049 338.172 277.049 338.092L275.161 337.66L275.121 337.892Z" fill="white"/>
<path d="M245.521 348.293L244.441 349.997H244.721L245.721 348.413L245.521 348.293Z" fill="white"/>
<path d="M276.994 339.695L274.826 339.207L274.77 339.431L276.978 339.935C276.986 339.855 276.994 339.775 276.994 339.695Z" fill="white"/>
<path d="M275.136 327.726L275.192 327.678L275.104 327.438L274.984 327.55L275.136 327.726Z" fill="white"/>
<path d="M245.544 340.63L240.484 342.836L240.58 343.056L245.64 340.85L245.544 340.63Z" fill="white"/>
<path d="M244.382 347.573L244.182 347.445L242.566 349.997H242.846L244.382 347.573Z" fill="white"/>
<path d="M236.347 339.85L234.84 345.16L235.071 345.226L236.577 339.915L236.347 339.85Z" fill="white"/>
<path d="M246.192 342.054L241.133 344.262L241.229 344.482L246.288 342.274L246.192 342.054Z" fill="white"/>
<path d="M249.335 332.749L249.135 332.629L246.391 337.421L246.591 337.541L249.335 332.749Z" fill="white"/>
<path d="M245.023 336.64L245.223 336.752L247.967 331.968L247.759 331.848L245.023 336.64Z" fill="white"/>
<path d="M188.798 340.633L183.738 342.84L183.834 343.06L188.894 340.853L188.798 340.633Z" fill="white"/>
<path d="M178.352 349.007L178.144 348.895L177.512 349.999H177.784L178.352 349.007Z" fill="white"/>
<path d="M176.783 344.759L178.159 339.895L177.903 339.935L176.559 344.695L176.783 344.759Z" fill="white"/>
<path d="M179.72 349.792L179.512 349.68L179.328 350H179.6L179.72 349.792Z" fill="white"/>
<path d="M206.32 335.621L206.416 335.405L206.112 335.285L205.68 335.349L206.32 335.621Z" fill="white"/>
<path d="M212.062 350H212.311L213.462 345.904L213.239 345.84L212.062 350Z" fill="white"/>
<path d="M214.135 333.958L213.199 337.654L213.423 337.718L214.391 333.918L214.135 333.958Z" fill="white"/>
<path d="M187.632 347.573L187.432 347.445L185.816 349.997H186.096L187.632 347.573Z" fill="white"/>
<path d="M188.968 348.413L188.768 348.293L187.68 349.997H187.96L188.968 348.413Z" fill="white"/>
<path d="M236.262 349.68L236.078 350H236.35L236.47 349.792L236.262 349.68Z" fill="white"/>
<path d="M271.513 346.27L270.457 349.998H270.705L271.737 346.334L271.513 346.27Z" fill="white"/>
<path d="M229.046 333.512L228.82 333.594L230.695 338.786L230.92 338.704L229.046 333.512Z" fill="white"/>
<path d="M214.751 346.27L213.703 349.998H213.943L214.983 346.334L214.751 346.27Z" fill="white"/>
<path d="M192.401 349.094L192.305 349.31L193.929 349.998H194.529L192.401 349.094Z" fill="white"/>
<path d="M235.106 349.007L234.898 348.895L234.266 349.999H234.538L235.106 349.007Z" fill="white"/>
<path d="M178.373 339.478L176.883 344.777L177.113 344.842L178.604 339.543L178.373 339.478Z" fill="white"/>
<path d="M223.881 343.494L223.657 343.406L221.641 348.542L221.857 348.63L223.881 343.494Z" fill="white"/>
<path d="M189.427 342.079L184.367 344.285L184.463 344.505L189.523 342.299L189.427 342.079Z" fill="white"/>
<path d="M225.345 344.06L225.121 343.98L223.105 349.116L223.329 349.196L225.345 344.06Z" fill="white"/>
<path d="M218.016 339.439L220.464 339.991L223.392 340.647L223.448 340.415L220.464 339.743L218.064 339.207L218.016 339.439Z" fill="white"/>
<path d="M223.743 339.108L223.799 338.876L220.463 338.124L218.415 337.66L218.359 337.892L220.463 338.364L223.743 339.108Z" fill="white"/>
<path d="M211.904 337.327L212.696 334.199L212.44 334.239L211.672 337.271L211.904 337.327Z" fill="white"/>
<path d="M205.801 336.862L203.209 335.758L202.777 335.83L205.705 337.078L205.801 336.862Z" fill="white"/>
<path d="M198.209 342.52L198.441 342.456L196.849 337.168L196.625 337.24L198.209 342.52Z" fill="white"/>
<path d="M196.929 342.901L195.337 337.621L195.113 337.685L196.705 342.973L196.929 342.901Z" fill="white"/>
<path d="M205.031 341.693L206.623 346.973L206.847 346.909L205.255 341.621L205.031 341.693Z" fill="white"/>
<path d="M202.302 349.797L202.254 349.997H202.502L202.534 349.845L202.302 349.797Z" fill="white"/>
<path d="M208.359 346.456L206.767 341.168L206.543 341.24L208.127 346.52L208.359 346.456Z" fill="white"/>
<path d="M254.761 327.255L169.961 341.255L171.201 349.999H275.761C276.574 345.671 277.013 341.282 277.073 336.879C277.073 330.319 273.137 322.887 273.137 322.887" stroke="#263238" stroke-width="0.985332"/>
<path d="M273.41 348.584H168.002L164.546 290.6C164.452 290.035 164.482 289.457 164.634 288.905C164.786 288.353 165.056 287.84 165.426 287.403C165.796 286.966 166.257 286.615 166.776 286.374C167.296 286.133 167.861 286.008 168.434 286.008H272.962C273.535 286.007 274.101 286.131 274.621 286.371C275.141 286.612 275.602 286.963 275.973 287.4C276.343 287.838 276.613 288.351 276.765 288.903C276.916 289.456 276.945 290.035 276.85 290.6L273.41 348.584Z" fill="#263238" stroke="#263238" stroke-width="0.985332" stroke-linecap="round" stroke-linejoin="round"/>
<path d="M173.18 287.399H272.204C272.763 287.393 273.316 287.509 273.826 287.739C274.335 287.97 274.788 288.308 275.153 288.732C275.518 289.156 275.786 289.654 275.939 290.192C276.091 290.73 276.124 291.295 276.036 291.847" stroke="white" stroke-width="0.985332" stroke-linecap="round" stroke-linejoin="round"/>
<path d="M165.328 290.959C165.403 289.985 165.844 289.077 166.563 288.416C167.282 287.755 168.224 287.392 169.2 287.399" stroke="white" stroke-width="0.985332" stroke-linecap="round" stroke-linejoin="round"/>
<path d="M273.851 342.938H167.547V348.585H273.851V342.938Z" fill="white" stroke="#263238" stroke-width="0.985332" stroke-linecap="round" stroke-linejoin="round"/>
<path d="M227.857 317.528C227.857 320.024 224.481 322.048 220.321 322.048C216.161 322.048 212.793 320.024 212.793 317.528C212.793 315.032 216.169 313.008 220.321 313.008C224.473 313.008 227.857 315.032 227.857 317.528Z" fill="white" stroke="#263238" stroke-width="0.985332" stroke-linecap="round" stroke-linejoin="round"/>
<path d="M393.584 352.304H16.4C16.2939 352.304 16.1922 352.262 16.1172 352.187C16.0421 352.112 16 352.01 16 351.904C16 351.798 16.0421 351.696 16.1172 351.621C16.1922 351.546 16.2939 351.504 16.4 351.504H393.584C393.689 351.506 393.79 351.549 393.865 351.623C393.939 351.698 393.982 351.798 393.984 351.904C393.984 352.01 393.942 352.112 393.867 352.187C393.792 352.262 393.69 352.304 393.584 352.304Z" fill="#263238"/>
</g>
<defs>
<clipPath id="clip0_2737_47716">
<rect width="400" height="352" fill="white"/>
</clipPath>
</defs>
</svg>
